<?xml version="1.0" encoding="UTF-8"?>
<svg width="64px" height="40px" viewBox="0 0 64 40" version="1.1" xmlns="http://www.w3.org/2000/svg" xmlns:xlink="http://www.w3.org/1999/xlink">
    <!-- Generator: Sketch 48.2 (47327) - http://www.bohemiancoding.com/sketch -->
    <title>icon-swap</title>
    <desc>Created with Sketch.</desc>
    <defs>
        <polygon id="path-1" points="0.437577197 0.52125 10.8119 0.52125 10.8119 14.8655357 0.437577197 14.8655357"></polygon>
    </defs>
    <g id="Video-Exploration" stroke="none" stroke-width="1" fill="none" fill-rule="evenodd">
        <g id="icon-swap">
            <rect id="Rectangle-14" fill="#DFE7F0" x="0" y="0" width="64" height="40" rx="2"></rect>
            <rect id="Rectangle-14" fill="#8BA2BB" x="7" y="0" width="50" height="32"></rect>
            <g id="Page-1" transform="translate(24.000000, 8.000000)">
                <path d="M3.56961165,16 L0.2104787,12.4507487 C0.076876821,12.3095853 2.72426615e-06,12.1107241 2.72426615e-06,11.9040206 C-0.000527441918,11.6967569 0.0763466549,11.4967754 0.2104787,11.3550518 C0.48828578,11.0620817 0.969676676,11.0620817 1.24695359,11.3550518 L2.77436237,12.968908 L2.77436237,8.33124205 C2.77436237,4.54839892 5.56568733,1.33020941 9.12840409,1.00362899 C9.35425489,0.981222105 9.57639452,1.06356742 9.74233653,1.22321651 C9.90562772,1.38174526 9.9999973,1.6069345 9.9999973,1.84108649 C10.0010576,2.27409963 9.68985008,2.64045228 9.29275561,2.67574313 C6.52899929,2.91549685 4.36486092,5.39930055 4.36486092,8.33124205 L4.36486092,12.968908 L5.8922697,11.3550518 C6.16954661,11.0620817 6.65093751,11.0620817 6.92874459,11.3550518 C7.06711797,11.5012568 7.14293173,11.6950763 7.14293173,11.9029002 C7.14293173,12.1084835 7.06764813,12.3023031 6.93033509,12.4490682 L3.56961165,16 Z" id="Fill-1" fill="#FEFEFE"></path>
                <g id="Group-5" transform="translate(9.000000, 0.000000)">
                    <mask id="mask-2" fill="white">
                        <use xlink:href="#path-1"></use>
                    </mask>
                    <g id="Clip-4"></g>
                    <path d="M1.26918,14.8655357 C1.06128,14.8655357 0.85943,14.7894643 0.70543,14.6528571 C0.53548,14.5007143 0.43758,14.2858929 0.43758,14.0619643 C0.43648,13.6478571 0.75933,13.2969643 1.17128,13.26375 C4.03843,13.0344643 6.28353,10.6585714 6.28353,7.85517857 L6.28353,3.42 L4.69898,4.96339286 C4.41133,5.24357143 3.91193,5.24357143 3.62373,4.96339286 C3.48073,4.82357143 3.40153,4.63767857 3.40153,4.43946429 C3.40153,4.24285714 3.48018,4.05696429 3.62208,3.91714286 L7.10853,0.52125 L10.59333,3.91553571 C10.73193,4.05053571 10.81223,4.24071429 10.81223,4.43839286 C10.81278,4.63607143 10.73248,4.82785714 10.59333,4.96339286 C10.30568,5.24357143 9.80573,5.24357143 9.51808,4.96339286 L7.93353,3.42 L7.93353,7.85517857 C7.93353,11.4728571 5.03833,14.5505357 1.34178,14.8623214 C1.31758,14.8644643 1.29338,14.8655357 1.26918,14.8655357" id="Fill-3" fill="#FEFEFE" mask="url(#mask-2)"></path>
                </g>
            </g>
            <rect id="Rectangle-14" x="0" y="0" width="64" height="40" rx="2"></rect>
            <g id="Group" transform="translate(24.000000, 34.000000)" fill="#8BA2BB">
                <circle id="Oval" cx="2" cy="2" r="2"></circle>
                <circle id="Oval-Copy" cx="8" cy="2" r="2"></circle>
                <circle id="Oval-Copy-2" cx="14" cy="2" r="2"></circle>
            </g>
            <rect id="Rectangle-14-Copy-4" fill="#8BA2BB" x="54" y="33" width="8" height="5"></rect>
        </g>
    </g>
</svg>