<svg xmlns="http://www.w3.org/2000/svg" width="25" height="16" viewBox="0 0 25 16">
    <path d="M15.238 1.58c.828 0 1.5.672 1.5 1.5v3.525l2.25-1.293L23.5 2.717v10.066l-4.515-2.598-2.25-1.293v3.526c0 .828-.672 1.5-1.5 1.5H3c-.828 0-1.5-.672-1.5-1.5V3.08c0-.828.672-1.5 1.5-1.5h12.238zm0-1.5H3c-1.657 0-3 1.343-3 3v9.34c0 1.657 1.343 3 3 3h12.238c1.656 0 3-1.343 3-3v-.932l5.027 2.89c.231.142.496.222.767.232.57 0 .965-.455.965-1.237V2.123c0-.783-.395-1.238-.965-1.238-.271.01-.536.09-.767.232l-5.027 2.896V3.08c0-1.657-1.344-3-3-3z"/>
</svg>
