<svg xmlns="http://www.w3.org/2000/svg" width="17" height="20" viewBox="0 0 17 20">
    <path fill="#FFF" d="M13.878 2.393c1.259 0 2.282 1.024 2.282 2.283v.117c0 .961-.598 1.784-1.442 2.12v10.781c0 1.258-1.024 2.282-2.282 2.282H3.731c-1.259 0-2.282-1.024-2.282-2.282V6.913C.605 6.577.006 5.754.006 4.793v-.117c0-1.259 1.024-2.283 2.282-2.283h3.11C5.553 1.048 6.698 0 8.083 0c1.386 0 2.53 1.048 2.686 2.393h3.11zm-5.795-1.31c-.788 0-1.446.564-1.591 1.31h3.183c-.145-.746-.803-1.31-1.592-1.31zm5.553 16.611V7.075H2.53v10.62c0 .66.538 1.199 1.2 1.199h8.705c.662 0 1.2-.538 1.2-1.2zm1.442-12.901v-.117c0-.662-.538-1.2-1.2-1.2H2.288c-.661 0-1.2.538-1.2 1.2v.117c0 .661.539 1.2 1.2 1.2h11.59c.662 0 1.2-.539 1.2-1.2zM5.182 17.51c-.299 0-.541-.242-.541-.541v-6.094c0-.298.242-.54.54-.54.3 0 .542.242.542.54v6.094c0 .298-.242.54-.541.54zm2.901 0c-.298 0-.54-.242-.54-.541v-6.094c0-.298.242-.54.54-.54.3 0 .542.242.542.54v6.094c0 .298-.243.54-.542.54zm2.902 0c-.299 0-.541-.242-.541-.541v-6.094c0-.298.242-.54.54-.54.3 0 .542.242.542.54v6.094c0 .298-.242.54-.541.54z"/>
</svg>
