<svg xmlns="http://www.w3.org/2000/svg" width="20" height="20" viewBox="0 0 20 20">
    <path fill="#FFF" d="M9.384 5.934c1.845-1.845 3.694-3.694 5.53-5.539.29-.294.625-.416.992-.371l.07.008c.253.032.542.07.816.18 1.363.55 2.359 1.53 2.959 2.901.098.229.147.466.192.674.02.082.037.167.057.249.012.053.016.11.012.167-.032.347-.163.629-.4.866-3.208 3.204-6.416 6.412-9.624 9.624-.192.192-.417.31-.682.367-1.143.237-2.29.482-3.433.723l-.718.15c-.07.013-.139.021-.208.021-.245 0-.478-.094-.645-.261-.216-.216-.302-.535-.237-.853l.14-.653c.248-1.18.497-2.36.754-3.539.05-.224.176-.453.343-.624.71-.723 1.429-1.437 2.143-2.151l1.939-1.94zm6.387-4.927c-.028 0-.065.013-.142.078-1.845 1.853-3.694 3.702-5.543 5.55l-1.94 1.94c-.713.71-1.424 1.424-2.134 2.143-.036.04-.07.097-.077.134-.253 1.176-.502 2.355-.751 3.53l-.115.536.604-.127 3.437-.722c.074-.017.123-.041.176-.094 3.208-3.209 6.416-6.42 9.628-9.625.057-.053.086-.102.102-.175-.012-.066-.028-.131-.04-.196-.037-.176-.074-.343-.131-.474-.494-1.126-1.31-1.926-2.42-2.375-.156-.066-.352-.09-.564-.115l-.07-.008h-.02zM1.588 4.464c-.323 0-.588.266-.588.588v13.36c0 .322.265.587.588.587h13.355c.322 0 .588-.265.588-.588v-6.836c0-.278.224-.502.502-.502.277 0 .502.224.502.502v6.836c0 .874-.71 1.588-1.588 1.588H1.587C.715 20 0 19.29 0 18.411V5.048C0 4.175.71 3.46 1.588 3.46h7.126c.278 0 .502.225.502.502 0 .278-.224.502-.502.502H1.588z"/>
</svg>
