<svg xmlns="http://www.w3.org/2000/svg" width="20" height="18" viewBox="0 0 20 18">
    <g fill="none" fill-rule="evenodd">
        <g stroke-width="1.2">
            <rect width="18.8" height="16.8" x=".6" y=".6" stroke="#101010" rx="3"/>
            <path stroke="#000" stroke-linecap="square" d="M18.5 3.542H.816"/>
        </g>
        <g fill="#000">
            <path d="M.958 5c-.16 0-.32-.06-.441-.183-.244-.245-.244-.64 0-.885l2.917-2.917c.244-.244.64-.244.884 0 .245.244.245.64 0 .884L1.4 4.817C1.278 4.939 1.118 5 .958 5z" transform="rotate(45 .525 21.753)"/>
            <path d="M3.875 4.167c-.345 0-.625-.28-.625-.625V2.083H1.792c-.345 0-.625-.28-.625-.625s.28-.625.625-.625h2.083c.345 0 .625.28.625.625v2.084c0 .345-.28.625-.625.625z" transform="rotate(45 .525 21.753)"/>
        </g>
        <g fill="#000">
            <path d="M.958 5c-.16 0-.32-.06-.441-.183-.244-.245-.244-.64 0-.885l2.917-2.917c.244-.244.64-.244.884 0 .245.244.245.64 0 .884L1.4 4.817C1.278 4.939 1.118 5 .958 5z" transform="scale(-1 1) rotate(45 -9.51 -2.475)"/>
            <path d="M3.875 4.167c-.345 0-.625-.28-.625-.625V2.083H1.792c-.345 0-.625-.28-.625-.625s.28-.625.625-.625h2.083c.345 0 .625.28.625.625v2.084c0 .345-.28.625-.625.625z" transform="scale(-1 1) rotate(45 -9.51 -2.475)"/>
        </g>
    </g>
</svg>
