<svg xmlns="http://www.w3.org/2000/svg" width="56" height="56" viewBox="0 0 56 56">
    <g fill="#4661FC" fill-rule="evenodd">
        <rect width="56" height="56" opacity=".108" rx="7.2"/>
        <path d="M31.306 24.908c0 1.657-1.348 3.005-3.005 3.005-1.657 0-3.005-1.348-3.005-3.005 0-1.657 1.348-3.005 3.005-3.005 1.657 0 3.005 1.348 3.005 3.005zm8.332 9.189c.39 0 .706.316.706.705 0 2.057-1.673 3.73-3.729 3.73H19.987c-2.056 0-3.729-1.673-3.729-3.73 0-.39.316-.705.706-.705h22.674zm-13.878-5.58c-1.594.806-2.756 2.344-3.043 4.168h-5.703V20.064c0-1.431 1.164-2.595 2.595-2.595h17.384c1.431 0 2.595 1.164 2.595 2.595v12.621h-5.703c-.287-1.824-1.449-3.362-3.042-4.168 1.133-.8 1.874-2.12 1.874-3.61 0-2.434-1.98-4.415-4.416-4.415-2.435 0-4.416 1.98-4.416 4.416 0 1.49.741 2.81 1.875 3.61zm-1.608 4.168c.406-1.917 2.112-3.36 4.15-3.36 2.036 0 3.742 1.443 4.149 3.36h-8.3z"/>
    </g>
</svg>
