<svg xmlns="http://www.w3.org/2000/svg" width="40" height="45" viewBox="0 0 40 45">
    <g fill="none" fill-rule="evenodd">
        <path fill="#E2E5E7" d="M8.438 0C6.89 0 5.624 1.266 5.624 2.813v39.374C5.625 43.734 6.891 45 8.438 45h28.124c1.547 0 2.813-1.266 2.813-2.813V11.25L28.125 0H8.437z"/>
        <path fill="#B0B7BD" d="M30.938 11.25h8.437L28.125 0v8.438c0 1.546 1.266 2.812 2.813 2.812z"/>
        <path fill="#CAD1D8" d="M39.375 19.688L30.938 11.25 39.375 11.25z"/>
        <path fill="#F15642" d="M33.75 36.563c0 .773-.633 1.406-1.406 1.406H1.406C.633 37.969 0 37.336 0 36.562V22.5c0-.773.633-1.406 1.406-1.406h30.938c.773 0 1.406.633 1.406 1.406v14.063z"/>
        <g fill="#FFF">
            <path fill-rule="nonzero" d="M.065.804c0-.37.293-.776.764-.776h2.597c1.463 0 2.78.979 2.78 2.855 0 1.777-1.317 2.767-2.78 2.767H1.55v1.485c0 .495-.315.775-.72.775-.371 0-.764-.28-.764-.775V.805zm1.484.64v2.801h1.877c.754 0 1.35-.665 1.35-1.362 0-.786-.596-1.439-1.35-1.439H1.55zM8.407 7.91c-.371 0-.776-.202-.776-.696V.827c0-.404.405-.698.776-.698h2.575c5.139 0 5.026 7.781.101 7.781H8.407zm.709-6.408v5.037h1.866c3.036 0 3.171-5.037 0-5.037H9.116z" transform="translate(6.064 25.84)"/>
            <path d="M17.83 1.592v1.787h2.868c.405 0 .81.405.81.798 0 .37-.405.675-.81.675H17.83v2.36c0 .394-.28.697-.674.697-.495 0-.797-.303-.797-.696V.825c0-.403.303-.697.797-.697h3.947c.495 0 .788.294.788.697 0 .36-.293.765-.788.765h-3.273v.002z" transform="translate(6.064 25.84)"/>
        </g>
        <path fill="#CAD1D8" d="M32.344 37.969H5.625v1.406h26.719c.773 0 1.406-.633 1.406-1.406v-1.407c0 .774-.633 1.407-1.406 1.407z"/>
    </g>
</svg>
