<svg xmlns="http://www.w3.org/2000/svg" width="60" height="60" viewBox="0 0 60 60">
    <g fill="none" fill-rule="evenodd">
        <circle cx="30" cy="30" r="30" fill="#4661FC"/>
        <path fill="#FFF" d="M32.346 28.641h5.819c1.006 0 1.822.816 1.822 1.823v.06c0 1.006-.816 1.822-1.822 1.822h-5.819v5.819c0 1.006-.816 1.822-1.823 1.822h-.059c-1.007 0-1.823-.816-1.823-1.822v-5.819h-5.818c-1.007 0-1.823-.816-1.823-1.823v-.059c0-1.007.816-1.823 1.823-1.823h5.818v-5.818c0-1.007.816-1.823 1.823-1.823h.06c1.006 0 1.822.816 1.822 1.823v5.818z"/>
    </g>
</svg>
