<?xml version="1.0" encoding="UTF-8"?>
<svg width="40px" height="45px" viewBox="0 0 40 45" version="1.1" xmlns="http://www.w3.org/2000/svg" xmlns:xlink="http://www.w3.org/1999/xlink">
    <!-- Generator: sketchtool 52.2 (67145) - http://www.bohemiancoding.com/sketch -->
    <title>2BB6A435-016C-4EF7-BD02-C13DD8AD9227</title>
    <desc>Created with sketchtool.</desc>
    <g id="final" stroke="none" stroke-width="1" fill="none" fill-rule="evenodd">
        <g id="meeting1" transform="translate(-44.000000, -165.000000)">
            <g id="ppt-copy-2" transform="translate(44.000000, 165.000000)">
                <path d="M8.4375,0 C6.890625,0 5.625,1.265625 5.625,2.8125 L5.625,42.1875 C5.625,43.734375 6.890625,45 8.4375,45 L36.5625,45 C38.109375,45 39.375,43.734375 39.375,42.1875 L39.375,11.25 L28.125,0 L8.4375,0 Z" id="Path" fill="#D4D8DB"></path>
                <path d="M30.9375,11.25 L39.375,11.25 L28.125,0 L28.125,8.4375 C28.125,9.984375 29.390625,11.25 30.9375,11.25 Z" id="Path" fill="#B0B7BD"></path>
                <polygon id="Path" fill="#CAD1D8" points="39.375 19.6875 30.9375 11.25 39.375 11.25"></polygon>
                <path d="M33.75,36.5625 C33.75,37.3359375 33.1171875,37.96875 32.34375,37.96875 L1.40625,37.96875 C0.6328125,37.96875 0,37.3359375 0,36.5625 L0,22.5 C0,21.7265625 0.6328125,21.09375 1.40625,21.09375 L32.34375,21.09375 C33.1171875,21.09375 33.75,21.7265625 33.75,22.5 L33.75,36.5625 Z" id="Path" fill="#859AA4"></path>
                <g id="Group" transform="translate(6.416016, 25.839844)" fill="#FFFFFF">
                    <path d="M0.040078125,0.804375 C0.040078125,0.433125 0.332578125,0.028125 0.803671875,0.028125 L3.40101562,0.028125 C4.86351562,0.028125 6.17976562,1.006875 6.17976562,2.8828125 C6.17976562,4.6603125 4.86351562,5.6503125 3.40101563,5.6503125 L1.52367188,5.6503125 L1.52367188,7.1353125 C1.52367188,7.6303125 1.21007813,7.91015625 0.805078125,7.91015625 C0.433828125,7.91015625 0.041484375,7.6303125 0.041484375,7.1353125 L0.041484375,0.804375 L0.040078125,0.804375 Z M1.52367187,1.44421875 L1.52367187,4.24546875 L3.40101562,4.24546875 C4.15476562,4.24546875 4.75101562,3.5803125 4.75101562,2.8828125 C4.75101562,2.09671875 4.15476562,1.44421875 3.40101562,1.44421875 L1.52367187,1.44421875 Z" id="Shape" fill-rule="nonzero"></path>
                    <path d="M7.61273438,0.804375 C7.61273438,0.433125 7.90523438,0.028125 8.37773438,0.028125 L10.9750781,0.028125 C12.4375781,0.028125 13.7538281,1.006875 13.7538281,2.8828125 C13.7538281,4.6603125 12.4375781,5.6503125 10.9750781,5.6503125 L9.09773437,5.6503125 L9.09773437,7.1353125 C9.09773437,7.6303125 8.78273437,7.91015625 8.37773437,7.91015625 C8.00648437,7.91015625 7.61273437,7.6303125 7.61273437,7.1353125 L7.61273437,0.804375 Z M9.09632812,1.44421875 L9.09632812,4.24546875 L10.9736719,4.24546875 C11.7274219,4.24546875 12.3236719,3.5803125 12.3236719,2.8828125 C12.3236719,2.09671875 11.7274219,1.44421875 10.9736719,1.44421875 L9.09632812,1.44421875 Z" id="Shape" fill-rule="nonzero"></path>
                    <path d="M17.2863281,1.535625 L15.3203906,1.535625 C14.3416406,1.535625 14.3416406,0.09703125 15.3203906,0.09703125 L20.6374219,0.09703125 C21.6386719,0.09703125 21.6386719,1.535625 20.6374219,1.535625 L18.7713281,1.535625 L18.7713281,7.2140625 C18.7713281,8.19140625 17.2863281,8.2153125 17.2863281,7.2140625 L17.2863281,1.535625 Z" id="Path"></path>
                </g>
                <path d="M32.34375,37.96875 L5.625,37.96875 L5.625,39.375 L32.34375,39.375 C33.1171875,39.375 33.75,38.7421875 33.75,37.96875 L33.75,36.5625 C33.75,37.3359375 33.1171875,37.96875 32.34375,37.96875 Z" id="Path" fill="#CAD1D8"></path>
            </g>
        </g>
    </g>
</svg>