<svg xmlns="http://www.w3.org/2000/svg" width="25" height="24" viewBox="0 0 25 24">
    <g fill-rule="evenodd">
        <path d="M.325 4.487v10.207c.007 2.235 1.815 4.046 4.05 4.056h7.188v3.025H6.875c-.518 0-.938.42-.938.938 0 .517.42.937.938.937h11.25c.518 0 .938-.42.938-.938 0-.517-.42-.937-.938-.937h-4.688V18.75h7.188c2.242-.003 4.06-1.82 4.063-4.063v-4.062c0-.518-.42-.938-.938-.938s-.938.42-.938.938v4.069c-.003 1.205-.981 2.181-2.187 2.181H4.375c-1.208 0-2.188-.98-2.188-2.188v-10.2c0-1.208.98-2.187 2.188-2.187h9.844c.518 0 .937-.42.937-.937 0-.518-.42-.938-.937-.938H4.375C2.138.435.328 2.25.325 4.488z" transform="translate(-.071)"/>
        <path d="M23.712 7.5c.249.002.487-.096.663-.27.176-.175.275-.413.275-.661V1.388c-.001-.118-.024-.235-.069-.344-.046-.114-.114-.218-.2-.306C24.293.65 24.19.58 24.075.53c-.101-.052-.212-.084-.325-.094h-5.081c-.518 0-.938.42-.938.938s.42.938.938.938h2.825L17.63 6.175c-.177.175-.277.414-.277.663 0 .248.1.487.277.662.176.175.414.274.663.275.244-.003.478-.102.65-.275l3.85-3.844v2.906c0 .511.408.928.918.938z" transform="translate(-.071)"/>
    </g>
</svg>
