<svg xmlns="http://www.w3.org/2000/svg" width="23" height="23" viewBox="0 0 23 23">
    <path fill="#004B43" fill-rule="evenodd" d="M14.033 11.5l8.6-8.6c.236-.237.367-.553.367-.89 0-.337-.13-.653-.367-.89l-.754-.753C21.642.13 21.326 0 20.989 0c-.336 0-.652.13-.89.367l-8.599 8.6-8.6-8.6C2.665.13 2.349 0 2.012 0c-.336 0-.653.13-.889.367l-.754.754c-.49.49-.49 1.289 0 1.779l8.6 8.6-8.6 8.6c-.237.237-.367.553-.367.89 0 .337.13.652.367.89l.754.753c.236.237.553.367.889.367.337 0 .653-.13.89-.367l8.6-8.6 8.599 8.6c.236.237.552.367.889.367.337 0 .653-.13.89-.367l.753-.754c.237-.236.367-.552.367-.89 0-.336-.13-.652-.367-.889l-8.599-8.6z"/>
</svg>
