<svg xmlns="http://www.w3.org/2000/svg" width="34" height="45" viewBox="0 0 34 45">
    <g fill="none" fill-rule="evenodd">
        <g>
            <path fill="#CFD8DC" d="M32.837 0H12.253c-.517 0-.936.42-.936.936V11.23H1.024c-.516 0-.935.418-.935.935v31.813c0 .517.419.936.935.936h31.813c.517 0 .936-.42.936-.936V.937c0-.518-.419-.937-.936-.937z" transform="matrix(-1 0 0 1 34 0)"/>
            <path fill="#B0BEC5" d="M12.61.071c-.35-.145-.752-.065-1.02.203L.362 11.502c-.366.365-.367.957-.002 1.323.176.176.415.275.664.275h11.228c.517 0 .936-.42.936-.936V.936c0-.379-.228-.72-.578-.865z" transform="matrix(-1 0 0 1 34 0)"/>
        </g>
        <path fill="#F44336" d="M23.999 24.485L12.77 17c-.43-.287-1.011-.17-1.297.26-.103.154-.157.334-.157.518V32.75c0 .345.19.66.494.823.135.074.287.113.442.113.184 0 .364-.055.518-.157l11.228-7.486c.43-.286.546-.867.26-1.297-.07-.103-.157-.191-.26-.26z"/>
    </g>
</svg>
