<svg xmlns="http://www.w3.org/2000/svg" width="20" height="20" viewBox="0 0 20 20">
    <path fill="#FFF" fill-rule="evenodd" d="M8.81 16.598l-2.768 2.768c-.156.156-.361.234-.566.234-.205 0-.41-.078-.566-.234-.312-.313-.312-.82 0-1.132l3.9-3.899v-1.002h-8c-.443 0-.8-.358-.8-.8 0-.442.357-.8.8-.8h.533v-10.4C1.343.598 1.94 0 2.676 0h13.867c.735 0 1.333.598 1.333 1.333v10.4h.533c.442 0 .8.358.8.8 0 .442-.358.8-.8.8h-8v1.002l3.9 3.9c.312.312.312.818 0 1.13-.157.157-.361.235-.566.235-.205 0-.41-.078-.566-.234l-2.768-2.768V19.2c0 .442-.358.8-.8.8-.441 0-.8-.358-.8-.8v-2.602zm7.466-4.865V1.6H2.943v10.133h13.333z"/>
</svg>
