<svg xmlns="http://www.w3.org/2000/svg" width="45" height="45" viewBox="0 0 45 45">
    <g fill="none" fill-rule="evenodd">
        <path fill="#B0BEC5" d="M42.355 29.83C36.923 41.22 28.565 43.682 22.5 43.682c-6.83 0-13.263-3.41-17.218-8.974C1.301 29.092.352 21.973 2.645 15.17l.422-.87C6.284 6.627 14.09 1.318 22.5 1.318c6.83 0 13.263 3.41 17.218 8.974 3.981 5.616 4.93 12.735 2.637 19.538z"/>
        <path fill="#CFD8DC" d="M42.355 29.83C36.923 41.22 28.565 43.682 22.5 43.682V1.318c6.83 0 13.263 3.41 17.218 8.974 3.981 5.616 4.93 12.735 2.637 19.538z"/>
        <path fill="#96EBE6" fill-rule="nonzero" d="M40.799 9.527C36.58 3.621 29.75 0 22.5 0 13.456 0 5.177 5.678 1.775 14.036l-.448.923c-2.42 7.372-1.478 14.355 2.874 20.514C8.42 41.379 15.25 45 22.5 45c8.938 0 17.112-5.546 20.62-13.72l.395-.79c2.635-7.5 1.712-14.703-2.716-20.963zM6.363 33.943C2.62 28.67 1.75 22 3.911 15.592l.343-.712C6.39 9.765 10.634 5.8 15.697 3.902c-3.19 4.166-5.115 12.27-4.878 14.907-.026.079-.052.158-.052.263-.686 8.833 1.318 17.359 5.088 22.131-3.77-1.371-7.119-3.911-9.492-7.26zm14.819 8.183c-.923-.317-1.846-1.01-2.716-1.934-3.692-3.981-5.722-12.392-5.063-20.909v-.237c0-.08.027-.185.027-.264.764-8.2 3.981-14.669 7.752-15.908v39.252zm2.636-.026V2.874c4.06 1.345 7.462 8.815 7.858 17.727.369 8.227-1.688 15.953-5.247 19.697-.844.87-1.714 1.511-2.61 1.802zm17.27-12.692c-2.952 6.223-7.118 10.055-11.943 11.769 3.533-4.456 5.537-12.402 5.167-20.68-.316-7.015-2.294-13.061-5.167-16.7 3.77 1.37 7.119 3.911 9.492 7.26C42.38 16.33 43.25 23 41.089 29.408z"/>
        <path fill="#00C8C8" fill-rule="nonzero" d="M40.799 9.527C36.58 3.621 29.75 0 22.5 0v45c8.938 0 17.112-5.546 20.62-13.72l.395-.79c2.635-7.5 1.712-14.703-2.716-20.963zM23.819 42.1V2.874c4.06 1.345 7.461 8.815 7.857 17.727.369 8.227-1.688 15.953-5.247 19.697-.844.87-1.714 1.511-2.61 1.802zm17.27-12.692c-2.953 6.223-7.12 10.055-11.944 11.769 3.533-4.456 5.537-12.402 5.167-20.68-.316-7.015-2.294-13.061-5.167-16.7 3.77 1.37 7.119 3.911 9.492 7.26C42.38 16.33 43.25 23 41.089 29.408z"/>
        <path fill="#859AA4" d="M40.957 13.271H4.043C1.854 13.271 0 15.038 0 17.227v10.546c0 2.189 1.854 3.956 4.043 3.956h36.914c2.189 0 4.043-1.767 4.043-3.956V17.227c0-2.189-1.854-3.956-4.043-3.956z"/>
        <path fill="#859AA4" d="M45 17.227v10.546c0 2.189-1.854 3.956-4.043 3.956H22.5V13.27h18.457c2.189 0 4.043 1.767 4.043 3.956z"/>
        <path fill="#E1F1FA" d="M28.96 20.443l-2.637 5.274c-.237.448-.685.738-1.186.738-.501 0-.95-.29-1.187-.738l-1.45-2.9-1.45 2.9c-.448.896-1.925.896-2.373 0l-2.637-5.274c-.316-.633-.053-1.423.606-1.766.633-.317 1.424-.053 1.767.606l1.45 2.9 1.45-2.9c.238-.448.712-.685 1.187-.685.475 0 .95.237 1.187.685l1.45 2.9 1.45-2.9c.343-.66 1.134-.923 1.766-.606.66.343.923 1.133.607 1.766z"/>
        <path fill="#E1F1FA" d="M38.32 26.455c-.5 0-.955-.282-1.179-.729l-1.457-2.914-1.458 2.914c-.448.894-1.91.894-2.358 0l-2.526-5.053c-.164-.2-.27-.45-.288-.722-.046-.726.465-1.35 1.191-1.398.551-.013 1.108.247 1.344.72l1.458 2.915 1.457-2.914c.448-.894 1.91-.894 2.359 0l1.457 2.914 1.458-2.914c.327-.653 1.118-.912 1.769-.59.651.326.915 1.117.59 1.769L39.5 25.726c-.224.447-.68.73-1.18.73zM14.675 18.547c-.519-.005-1.028.253-1.264.727l-1.458 2.914-1.457-2.914c-.475-.947-1.89-.94-2.359 0L6.68 22.188l-1.458-2.914c-.327-.653-1.12-.912-1.769-.59-.651.326-.915 1.117-.59 1.769L5.5 25.726c.224.447.68.73 1.18.73.5 0 .955-.283 1.179-.73l1.457-2.914 1.458 2.914c.224.447.68.73 1.18.73.499 0 .954-.283 1.178-.73l2.484-4.967c.188-.213.309-.495.33-.808.046-.726-.545-1.356-1.271-1.404z"/>
        <path fill="#E1F1FA" d="M28.96 20.443l-2.637 5.274c-.237.448-.685.738-1.186.738-.501 0-.95-.29-1.187-.738l-1.45-2.9v-4.22c.475 0 .95.238 1.187.686l1.45 2.9 1.45-2.9c.343-.66 1.134-.923 1.766-.606.66.343.923 1.133.607 1.766z"/>
    </g>
</svg>
