<?xml version="1.0" standalone="no"?>
<!DOCTYPE svg PUBLIC "-//W3C//DTD SVG 1.1//EN" "http://www.w3.org/Graphics/SVG/1.1/DTD/svg11.dtd" >
<svg xmlns="http://www.w3.org/2000/svg">
<metadata>Generated by IcoMoon</metadata>
<defs>
<font id="bbb-icons" horiz-adv-x="1024">
<font-face units-per-em="1024" ascent="960" descent="-64" />
<missing-glyph horiz-adv-x="1024" />
<glyph unicode="&#x20;" horiz-adv-x="512" d="" />
<glyph unicode="&#xe900;" glyph-name="bbb-logout" d="M243.712-0.171h-80.555c-48.936 0.193-88.554 39.811-88.747 88.728v684.733c0.193 48.936 39.811 88.554 88.728 88.747h80.573c0.991-0.109 2.141-0.171 3.305-0.171 17.72 0 32.085 14.365 32.085 32.085s-14.365 32.085-32.085 32.085c-1.164 0-2.314-0.062-3.446-0.183l-80.414 0.012c-84.187-0.194-152.382-68.389-152.576-152.557v-684.733c0.194-84.187 68.389-152.382 152.557-152.576h80.573c0.991-0.109 2.141-0.171 3.305-0.171 17.72 0 32.085 14.365 32.085 32.085s-14.365 32.085-32.085 32.085c-1.164 0-2.314-0.062-3.446-0.183zM989.867 408.405l22.528 22.528-22.528 22.528-293.547 294.571c-5.403 4.282-12.32 6.87-19.84 6.87-17.72 0-32.085-14.365-32.085-32.085 0-7.521 2.587-14.437 6.921-19.907l238.882-238.867h-642.048c-0.991 0.109-2.141 0.171-3.305 0.171-17.72 0-32.085-14.365-32.085-32.085s14.365-32.085 32.085-32.085c1.164 0 2.314 0.062 3.446 0.183l642.931-0.012-238.933-238.933c-7.486-5.928-12.245-15.016-12.245-25.216 0-17.72 14.365-32.085 32.085-32.085 10.2 0 19.288 4.759 25.165 12.178l292.574 292.248z" />
<glyph unicode="&#xe901;" glyph-name="bbb_audio_close" d="M567.979 350.037c17.146 27.308 27.316 60.504 27.316 96.075 0 0.664-0.004 1.326-0.011 1.988l0.001 304.368c0.012 0.775 0.019 1.689 0.019 2.605 0 51.755-21.45 98.5-55.945 131.83-33.433 34.598-80.178 56.048-131.933 56.048-0.916 0-1.83-0.007-2.743-0.020-0.637 0.013-1.551 0.020-2.467 0.020-51.755 0-98.5-21.45-131.83-55.945-34.598-33.433-56.048-80.178-56.048-131.933 0-0.916 0.007-1.83 0.020-2.743l-0.002-304.331c-0.037-1.374-0.058-2.992-0.058-4.615 0-51.774 21.466-98.535 55.983-131.867 33.434-34.599 80.179-56.048 131.934-56.048 0.916 0 1.83 0.007 2.743 0.020 0.414-0.008 1.065-0.011 1.717-0.011 47.667 0 91.060 18.297 123.54 48.252 11.096 17.429 23.601 32.646 37.687 46.235zM533.845 448c0.018-0.776 0.028-1.69 0.028-2.607 0-34.696-14.542-65.996-37.863-88.138-22.245-23.429-53.548-37.974-88.248-37.974-1.034 0-2.065 0.013-3.093 0.039-0.719-0.025-1.744-0.038-2.773-0.038-34.534 0-65.704 14.406-87.827 37.537-23.422 22.237-37.967 53.54-37.967 88.24 0 1.034 0.013 2.065 0.039 3.093l-0.003 304.317c-0.018 0.776-0.028 1.69-0.028 2.607 0 34.696 14.542 65.996 37.863 88.138 22.244 23.424 53.544 37.966 88.241 37.966 0.917 0 1.831-0.010 2.743-0.030 0.74 0.025 1.771 0.038 2.805 0.038 34.7 0 66.003-14.545 88.145-37.87 23.424-22.245 37.966-53.545 37.966-88.241 0-0.917-0.010-1.831-0.030-2.743l0.002-304.334zM567.979 350.037c-13.978-13.117-26.351-27.658-36.975-43.471 2.501 1.828 5.573 3.876 8.645 6.948 10.558 10.737 19.921 22.705 27.837 35.655zM435.541 80.043v34.133c20.978 1.693 40.29 5.080 58.943 10.078-4.612 12.172-5.975 26.808-6.036 41.752 0 6.88 0 13.707 0 20.192-23.244-7.363-49.976-11.606-77.699-11.606-0.164 0-0.328 0-0.491 0h-11.921c-147.151 0.194-266.387 119.431-266.581 266.563 0 17.079-13.83 30.909-30.891 30.909s-30.891-13.83-30.891-30.891c1.035-172.561 134.878-313.533 304.421-325.91l1.073-34.196h-193.877c-17.060 0-30.891-13.83-30.891-30.891s13.83-30.891 30.891-30.891h356.011c-13.546 17.785-25.047 38.183-33.551 60.078l-68.849 1.703zM739.669 442.539c0 17.060-13.83 30.891-30.891 30.891s-30.891-13.83-30.891-30.891c-0.072-12.105-0.938-23.939-2.549-35.534 18.949 6.642 40.554 9.744 62.854 9.933 1.134 9.217 1.476 17.067 1.476 25.601zM891.221 318.635c-38.61 37.766-91.503 61.068-149.838 61.068-118.386 0-214.357-95.971-214.357-214.357s95.971-214.357 214.357-214.357c118.386 0 214.357 95.971 214.357 214.357 0 0.611-0.003 1.221-0.008 1.83-0.496 59.323-25.090 112.9-64.472 151.42zM847.531 59.221c-27.613-27.626-65.768-44.715-107.914-44.715-84.265 0-152.576 68.311-152.576 152.576s68.311 152.576 152.576 152.576c42.146 0 80.3-17.088 107.913-44.714 27.514-27.646 44.522-65.768 44.522-107.862s-17.008-80.216-44.528-107.867zM778.581 169.472l38.571 39.595c5.591 5.591 9.049 13.314 9.049 21.845 0 17.062-13.832 30.894-30.894 30.894-8.531 0-16.255-3.458-21.845-9.049l-38.229-38.229-34.133 34.133c-5.591 5.591-13.314 9.049-21.845 9.049-17.062 0-30.894-13.832-30.894-30.894 0-8.531 3.458-16.255 9.049-21.845l34.133-34.133-35.84-35.84c-5.591-5.591-9.049-13.314-9.049-21.845 0-17.062 13.832-30.894 30.894-30.894 8.531 0 16.255 3.458 21.845 9.049l35.84 35.84 40.619-40.619c5.008-3.689 11.299-5.904 18.108-5.904 16.966 0 30.72 13.754 30.72 30.72 0 6.55-2.050 12.622-5.544 17.608z" />
<glyph unicode="&#xe902;" glyph-name="bbb-more" d="M237.568 448c0-60.89-49.361-110.251-110.251-110.251s-110.251 49.361-110.251 110.251c0 60.89 49.361 110.251 110.251 110.251s110.251-49.361 110.251-110.251zM622.251 448c0-60.89-49.361-110.251-110.251-110.251s-110.251 49.361-110.251 110.251c0 60.89 49.361 110.251 110.251 110.251s110.251-49.361 110.251-110.251zM1006.933 448c0-60.89-49.361-110.251-110.251-110.251s-110.251 49.361-110.251 110.251c0 60.89 49.361 110.251 110.251 110.251s110.251-49.361 110.251-110.251z" />
<glyph unicode="&#xe903;" glyph-name="bbb-promote" d="M994.645 740.523c-5.371 4.196-12.219 6.728-19.658 6.728-2.715 0-5.352-0.337-7.87-0.972l-887.245-216.699v15.701c-1.731 16.241-15.358 28.78-31.915 28.78s-30.184-12.54-31.902-28.64l-0.012-185.485c1.731-16.241 15.358-28.78 31.915-28.78s30.184 12.54 31.902 28.64l0.012 6.285 129.707-31.744v-45.056c0-66.545 53.946-120.491 120.491-120.491s120.491 53.946 120.491 120.491c0 66.545-53.946 120.491-120.491 120.491s-120.491-53.946-120.491-120.491c0-66.545 53.946-120.491 120.491-120.491 1.659-0.087 3.602-0.136 5.556-0.136 60.954 0 110.667 48.124 113.22 108.449l518.834-126.404h7.509c0 0 0 0 0 0 17.72 0 32.085 14.365 32.085 32.085 0 0 0 0 0 0v532.821c-0.142 10.159-5.034 19.147-12.551 24.86zM330.752 232.96c-0.305-0.006-0.664-0.009-1.024-0.009-31.293 0-56.661 25.368-56.661 56.661 0 0.003 0 0.007 0 0.010v29.354l111.957-27.307c-4.096-51.883-32.427-58.709-54.272-58.709zM942.763 221.013l-861.867 210.944v32.085l862.208 210.944v-453.973z" />
<glyph unicode="&#xe904;" glyph-name="bbb-application" d="M950.613 821.077h-877.227c-31.105 0-56.32-25.215-56.32-56.32v-633.515c0-31.105 25.215-56.32 56.32-56.32h877.227c31.105 0 56.32 25.215 56.32 56.32v633.515c0 31.105-25.215 56.32-56.32 56.32zM943.104 757.248v-82.261h-862.208v82.261h862.208zM80.896 138.752v472.405h862.208v-472.405h-862.208zM170.667 740.523c-13.384 0-24.235-10.85-24.235-24.235s10.85-24.235 24.235-24.235c13.384 0 24.235 10.85 24.235 24.235s-10.85 24.235-24.235 24.235v0zM268.288 740.523c-13.384 0-24.235-10.85-24.235-24.235s10.85-24.235 24.235-24.235c13.384 0 24.235 10.85 24.235 24.235s-10.85 24.235-24.235 24.235v0zM365.909 740.523c0 0 0 0 0 0-13.384 0-24.235-10.85-24.235-24.235s10.85-24.235 24.235-24.235c13.384 0 24.235 10.85 24.235 24.235 0 0 0 0 0 0 0 13.384-10.85 24.235-24.235 24.235 0 0 0 0 0 0v0z" />
<glyph unicode="&#xe905;" glyph-name="bbb-video-off" d="M992.256 652.8c-4.915 3.216-10.936 5.13-17.403 5.13-4.697 0-9.157-1.009-13.178-2.822l-236.683-104.708c-11.343-5.009-19.116-16.159-19.116-29.124 0-0.081 0-0.162 0.001-0.243v-168.265c-0.001-0.069-0.001-0.15-0.001-0.231 0-12.965 7.773-24.115 18.913-29.044l237.088-105.211c3.817-1.73 8.276-2.739 12.971-2.739 17.72 0 32.085 14.365 32.085 32.085 0 0.003 0 0.006 0 0.008v379.221c-0.357 10.864-6.061 20.322-14.554 25.866zM943.104 297.131l-173.056 76.8v126.976l173.056 76.8v-280.576zM913.408 804.352c4.282 5.403 6.87 12.32 6.87 19.84 0 17.72-14.365 32.085-32.085 32.085-7.521 0-14.437-2.587-19.907-6.921l-162.749-162.424v24.235c0.001 0.102 0.002 0.223 0.002 0.343 0 17.532-14.212 31.744-31.744 31.744-0.121 0-0.241-0.001-0.362-0.002h-624.28c-0.102 0.001-0.223 0.002-0.343 0.002-17.532 0-31.744-14.212-31.744-31.744 0-0.121 0.001-0.241 0.002-0.362v-526.318c-0.001-0.102-0.002-0.223-0.002-0.343 0-17.532 14.212-31.744 31.744-31.744 0.121 0 0.241 0.001 0.362 0.002h121.496l-60.075-61.099c-7.486-5.928-12.245-15.016-12.245-25.216 0-17.72 14.365-32.085 32.085-32.085 10.2 0 19.288 4.759 25.165 12.178l106.547 106.563h411.307c0.102-0.001 0.223-0.002 0.343-0.002 17.532 0 31.744 14.212 31.744 31.744 0 0.121-0.001 0.241-0.002 0.362v411.288zM80.896 216.917v462.165h560.811v-56.32l-405.845-405.845h-154.965zM641.707 216.917h-315.733l315.733 315.733v-315.733z" />
<glyph unicode="&#xe906;" glyph-name="bbb-user" d="M859.477 225.792c-86.016 57.344-196.267 85.675-347.477 85.675s-262.827-25.941-347.819-84.651v0c-75.521-53.261-124.246-140.134-124.246-238.387 0-0.192 0-0.384 0.001-0.576-0.001-0.072-0.002-0.193-0.002-0.313 0-17.532 14.212-31.744 31.744-31.744 0.121 0 0.241 0.001 0.362 0.002h879.939c0.102-0.001 0.223-0.002 0.343-0.002 17.532 0 31.744 14.212 31.744 31.744 0 0.121-0.001 0.241-0.002 0.362 0.001 0.3 0.002 0.677 0.002 1.054 0 97.871-48.92 184.315-123.642 236.215zM106.155 16.896c8.453 64.83 43.433 120.142 93.502 155.516 74.434 51.332 171.373 73.86 312.343 73.86s236.885-23.552 311.979-73.728c51.14-35.367 86.281-90.753 94.102-154.584l-811.926-1.064zM512 379.733c144.043 0 254.976 114.688 263.509 273.067 0.309 4.898 0.485 10.622 0.485 16.386 0 74.016-29.049 141.248-76.368 190.915-46.957 50.275-113.508 81.946-187.466 82.83-73.282-0.508-139.042-31.594-185.372-81.093-48.694-51.204-78.567-120.434-78.567-196.641 0-4.36 0.098-8.698 0.291-13.011 6.463-157.425 117.397-272.454 263.487-272.454zM372.736 817.664c34.865 37.433 84.271 60.926 139.17 61.439 55.928-0.808 106.011-24.767 141.295-62.685 36.493-38.31 58.878-90.12 58.878-147.159 0-4.59-0.145-9.146-0.431-13.664-6.795-124.652-88.715-212.033-199.649-212.033s-194.56 87.381-199.68 212.309c-0.134 2.883-0.211 6.263-0.211 9.661 0 58.983 23.088 112.574 60.719 152.228z" />
<glyph unicode="&#xe907;" glyph-name="bbb-up-arrow" horiz-adv-x="683" d="M657.067 643.584l-288.085 287.744c-7.11 7.141-16.948 11.56-27.819 11.56s-20.709-4.419-27.817-11.558l-287.745-287.745c-7.119-7.119-11.523-16.955-11.523-27.819 0-21.728 17.614-39.342 39.342-39.342 10.864 0 20.699 4.403 27.819 11.523l220.843 220.843v-816.469c0-21.679 17.574-39.253 39.253-39.253s39.253 17.574 39.253 39.253v816.469l220.843-220.843c7.119-7.119 16.955-11.523 27.819-11.523 21.728 0 39.342 17.614 39.342 39.342 0 10.864-4.403 20.699-11.523 27.819z" />
<glyph unicode="&#xe908;" glyph-name="bbb-undecided" d="M512 942.933c-273.344 0-494.933-221.589-494.933-494.933s221.589-494.933 494.933-494.933c273.344 0 494.933 221.589 494.933 494.933-0.388 273.188-221.745 494.545-494.896 494.933zM512 17.92c-237.527 0-430.080 192.553-430.080 430.080s192.553 430.080 430.080 430.080c237.527 0 430.080-192.553 430.080-430.080-0.194-237.448-192.632-429.886-430.061-430.080zM422.229 570.539c0-35.629-28.883-64.512-64.512-64.512s-64.512 28.883-64.512 64.512c0 35.629 28.883 64.512 64.512 64.512s64.512-28.883 64.512-64.512zM721.237 570.539c0-35.629-28.883-64.512-64.512-64.512s-64.512 28.883-64.512 64.512c0 35.629 28.883 64.512 64.512 64.512s64.512-28.883 64.512-64.512zM750.933 295.083h-477.867c-3.182 1.082-6.847 1.707-10.658 1.707-18.851 0-34.133-15.282-34.133-34.133s15.282-34.133 34.133-34.133c3.811 0 7.476 0.625 10.899 1.777l477.626-0.070c13.748 4.618 23.475 17.386 23.475 32.427s-9.728 27.808-23.235 32.356z" />
<glyph unicode="&#xe909;" glyph-name="bbb-time" d="M512 942.933c-273.344 0-494.933-221.589-494.933-494.933s221.589-494.933 494.933-494.933c273.344 0 494.933 221.589 494.933 494.933s-221.589 494.933-494.933 494.933zM512 21.333c-235.641 0-426.667 191.025-426.667 426.667s191.025 426.667 426.667 426.667c235.641 0 426.667-191.025 426.667-426.667-0.194-235.563-191.103-426.472-426.648-426.667zM512 721.067c-18.851 0-34.133-15.282-34.133-34.133v-222.549l-199.68-196.608c-6.231-6.189-10.089-14.761-10.089-24.235 0-18.862 15.291-34.153 34.153-34.153 9.389 0 17.892 3.788 24.066 9.92l208.553 204.798c6.289 6.168 10.199 14.741 10.24 24.227v238.6c0 0.005 0 0.010 0 0.015 0 18.491-14.704 33.548-33.057 34.117z" />
<glyph unicode="&#xe90a;" glyph-name="bbb-sad" d="M512 942.933c-273.344 0-494.933-221.589-494.933-494.933s221.589-494.933 494.933-494.933c273.344 0 494.933 221.589 494.933 494.933-0.388 273.188-221.745 494.545-494.896 494.933zM512 17.92c-237.527 0-430.080 192.553-430.080 430.080s192.553 430.080 430.080 430.080c237.527 0 430.080-192.553 430.080-430.080-0.194-237.448-192.632-429.886-430.061-430.080zM422.229 570.539c0-35.629-28.883-64.512-64.512-64.512s-64.512 28.883-64.512 64.512c0 35.629 28.883 64.512 64.512 64.512s64.512-28.883 64.512-64.512zM721.237 570.539c0-35.629-28.883-64.512-64.512-64.512s-64.512 28.883-64.512 64.512c0 35.629 28.883 64.512 64.512 64.512s64.512-28.883 64.512-64.512zM507.221 368.811c-117.448-1.498-219.251-67.034-272.245-163.236-1.096-3.254-1.253-5.127-1.253-7.037 0-18.851 15.282-34.133 34.133-34.133 9.52 0 18.129 3.897 24.32 10.183 42.958 76.808 123.419 128.095 215.938 129.027 93.501-3.269 174.198-54.572 218.595-129.84 4.601-16.064 17.904-26.819 33.718-26.819 18.851 0 34.133 15.282 34.133 34.133 0 10.171-4.449 19.303-11.507 25.557-56.922 95.631-158.634 159.359-275.437 162.157z" />
<glyph unicode="&#xe90b;" glyph-name="bbb-right-arrow" horiz-adv-x="546" d="M56.661-64c-0.186-0.003-0.406-0.005-0.626-0.005-22.433 0-40.619 18.186-40.619 40.619 0 10.694 4.133 20.424 10.889 27.677l394.9 448.488-394.581 438.955c-6.591 7.226-10.627 16.88-10.627 27.477 0 22.553 18.283 40.835 40.835 40.835 11.956 0 22.711-5.138 30.179-13.326l443.762-492.917-443.392-504.149c-7.475-8.394-18.312-13.655-30.378-13.655-0.12 0-0.24 0.001-0.36 0.002z" />
<glyph unicode="&#xe90c;" glyph-name="bbb-presentation" d="M973.824 942.933h-923.648c-18.851 0-34.133-15.282-34.133-34.133v-665.6c0-18.851 15.282-34.133 34.133-34.133h375.467l-223.232-198.315c-11.144-5.772-18.628-17.216-18.628-30.408 0-18.851 15.282-34.133 34.133-34.133 11.875 0 22.333 6.064 28.448 15.264l231.503 208.68v-183.979c-0.759-2.684-1.195-5.767-1.195-8.951 0-18.851 15.282-34.133 34.133-34.133s34.133 15.282 34.133 34.133c0 3.185-0.436 6.267-1.252 9.192l0.057 183.739 232.789-208.555c6.193-9.326 16.652-15.39 28.526-15.39 18.851 0 34.133 15.282 34.133 34.133 0 13.192-7.484 24.636-18.438 30.319l-223.763 200.452h375.467c18.851 0 34.133 15.282 34.133 34.133v664.576c-0.541 17.946-14.854 32.378-32.701 33.107zM941.056 277.333h-858.112v427.691h858.112v-427.691zM82.944 770.901v106.155h858.112v-105.813h-858.112z" />
<glyph unicode="&#xe90d;" glyph-name="bbb-listen" horiz-adv-x="1195" d="M1078.955 453.12s0 0 0 2.048c0.002 0.51 0.003 1.114 0.003 1.719 0 267.244-215.676 484.114-482.465 486.046-263.656-1.857-477.155-213.204-482.48-475.659-69.471-51.137-114.097-132.227-114.097-223.741 0-151.32 122.015-274.141 273.027-275.446 0.226-0.002 0.346-0.003 0.467-0.003 17.532 0 31.744 14.212 31.744 31.744 0 0.121-0.001 0.241-0.002 0.362v486.382c0 0.001 0 0.001 0 0.002 0 17.532-14.212 31.744-31.744 31.744-0.12 0-0.24-0.001-0.36-0.002-33.066-0.020-64.742-6.026-93.993-16.992 24.089 212.757 201.987 376.688 418.172 376.688 221.365 0 402.585-171.879 417.485-389.461-27.118 8.87-58.536 14.753-91.328 14.753-0.628 0-1.255-0.002-1.882-0.006-0.006 0.002-0.126 0.002-0.247 0.002-17.532 0-31.744-14.212-31.744-31.744 0-0.121 0.001-0.241 0.002-0.362v-486.040c-0.001-0.102-0.002-0.223-0.002-0.343 0-17.532 14.212-31.744 31.744-31.744 0.121 0 0.241 0.001 0.362 0.002 151.202 1.194 273.329 124.059 273.329 275.448 0 92.337-45.433 174.062-115.165 224.041zM238.933 34.645c-100.899 17.344-176.704 104.182-176.704 208.725s75.805 191.381 175.446 208.546l1.258-417.271zM955.733 19.285v417.451c100.899-17.344 176.704-104.182 176.704-208.725s-75.805-191.381-175.446-208.546z" />
<glyph unicode="&#xe90e;" glyph-name="bbb-left-arrow" horiz-adv-x="546" d="M482.304-46.933c-11.676 0.032-22.149 5.157-29.318 13.27l-428.41 487.125 428.373 477.867c7.338 8.014 17.847 13.021 29.525 13.021 22.084 0 39.986-17.902 39.986-39.986 0-10.405-3.974-19.882-10.488-26.995l-382.266-424.589 382.293-434.517c6.081-6.88 9.794-15.978 9.794-25.942 0-21.679-17.574-39.253-39.253-39.253-0.083 0-0.167 0-0.25 0.001z" />
<glyph unicode="&#xe90f;" glyph-name="bbb-happy" d="M512 942.933c-273.344 0-494.933-221.589-494.933-494.933s221.589-494.933 494.933-494.933c273.344 0 494.933 221.589 494.933 494.933-0.388 273.188-221.745 494.545-494.896 494.933zM512 17.92c-237.527 0-430.080 192.553-430.080 430.080s192.553 430.080 430.080 430.080c237.527 0 430.080-192.553 430.080-430.080-0.194-237.448-192.632-429.886-430.061-430.080zM422.229 570.539c0-35.629-28.883-64.512-64.512-64.512s-64.512 28.883-64.512 64.512c0 35.629 28.883 64.512 64.512 64.512s64.512-28.883 64.512-64.512zM721.237 570.539c0-35.629-28.883-64.512-64.512-64.512s-64.512 28.883-64.512 64.512c0 35.629 28.883 64.512 64.512 64.512s64.512-28.883 64.512-64.512zM772.096 364.032c-4.747 2.98-10.516 4.747-16.699 4.747-2.799 0-5.513-0.362-8.098-1.042-8.285-2.228-15.311-7.478-19.836-14.493-45.281-76.955-126.454-128.374-219.847-131.197-92.688 1.162-172.752 52.402-214.787 127.751-6.837 7.516-15.421 11.388-24.909 11.388-18.851 0-34.133-15.282-34.133-34.133 0-1.766 0.134-3.5 0.393-5.194 53.739-97.689 155.574-163.253 272.846-164.672l2.586-0.002c116.357 3.318 217.102 67.117 272.235 160.944 3.439 6.239 4.973 11.854 4.973 17.827 0 11.592-5.778 21.834-14.612 28.004z" />
<glyph unicode="&#xe910;" glyph-name="bbb-hand" d="M828.075 731.307c-13.97-0.064-27.22-3.074-39.184-8.438l0.614 29.259c-1.48 55.948-46.452 100.92-102.261 102.397-14.109-0.062-27.359-3.071-39.324-8.435-3.856 53.71-47.737 95.578-101.662 96.841-54.281-1.28-98.223-43.326-102.5-96.566l-0.024 0.653c-10.969 4.82-23.756 7.625-37.197 7.625-26.649 0-50.723-11.025-67.909-28.762-21.15-21.759-34.177-51.463-34.177-84.21 0-0.764 0.007-1.526 0.021-2.287l-0.002-321.422-47.445 68.267c-14.651 26.922-40.889 45.947-71.835 50.454-2.57 0.24-4.946 0.342-7.347 0.342-24.267 0-46.121-10.337-61.397-26.847-20.872-20.877-38.621-59.447-5.171-126.69 0-1.707 102.4-175.104 177.152-294.571 41.643-65.536 120.149-136.533 214.699-136.533h191.488c129.619 0.194 234.643 105.218 234.837 234.819v441.704c-1.454 55.604-45.866 100.373-101.188 102.395zM866.645 187.904c0-94.257-76.41-170.667-170.667-170.667h-191.829c-68.267 0-129.707 57.003-160.768 106.155-75.435 119.808-174.763 290.475-174.763 290.475-12.629 25.259-14.677 42.667-6.144 51.2 3.779 4.653 9.341 7.731 15.629 8.188 10.396-3.97 18.635-11.435 23.509-20.913l96.029-140.875c6.881-9.705 18.071-15.962 30.722-15.962 20.588 0 37.306 16.571 37.544 37.102v406.892c-0.018 0.536-0.029 1.166-0.029 1.798 0 15.037 5.857 28.706 15.415 38.849 5.65 7.117 14.338 11.658 24.086 11.658 4.361 0 8.509-0.909 12.267-2.547 14.773-6.152 25.273-20.32 26.081-37.031l0.004-242.444c1.731-16.241 15.358-28.78 31.915-28.78s30.184 12.54 31.902 28.64l0.012 330.893c1.665 20.598 17.973 36.906 38.422 38.561 20.602-1.817 36.736-18.069 38.369-38.413l0.010-330.9c1.731-16.241 15.358-28.78 31.915-28.78s30.184 12.54 31.902 28.64l0.012 242.487c0 0 0 0 0 0 0 21.302 17.269 38.571 38.571 38.571s38.571-17.269 38.571-38.571c0 0 0 0 0 0v-301.739c-0.109-0.991-0.171-2.141-0.171-3.305 0-17.72 14.365-32.085 32.085-32.085s32.085 14.365 32.085 32.085c0 1.164-0.062 2.314-0.183 3.446l0.012 178.377c0 21.302 17.269 38.571 38.571 38.571s38.571-17.269 38.571-38.571v-441.003z" />
<glyph unicode="&#xe911;" glyph-name="bbb-group-chat" d="M955.733 4.267l-4.096 11.947-22.187 70.997c46.126 31.591 76.37 83.454 77.82 142.459 0.004 87.941-72.017 163.717-174.758 184.88l-3.072-0.683-37.888-49.835 20.821-2.731c80.896-13.312 139.605-68.267 139.605-132.437-2.116-44.837-27.306-83.348-63.887-104.121-10.893-6.865-17.623-18.162-17.692-31.037l10.923-38.24-45.739 34.133c-6.247 5.281-14.392 8.491-23.287 8.491-3.873 0-7.604-0.609-11.102-1.735-7.394-1.45-16.19-2.321-25.189-2.321-0.295 0-0.589 0.001-0.883 0.003-97.576 0-176.765 62.464-176.765 136.533 0 2.048 0 4.096 0 6.144s0 5.12 0 7.509v6.144l-52.224-15.36v-5.803c0-104.789 102.4-188.416 230.741-190.464 12.064 0.017 23.883 1.009 35.399 2.902l82.702-61.953 9.899-9.557c7.072-7.798 16.82-13.055 27.784-14.317 5.99 0.057 11.313 1.966 15.639 5.152 6.868 6.221 11.211 15.256 11.211 25.306 0 5.697-1.396 11.069-3.864 15.791zM415.403 942.592c-220.16 0-398.336-142.677-398.336-318.805 3.882-106.759 62.973-198.895 149.433-249.086 6.318-3.923 9.528-9.3 9.628-15.432l-53.248-170.681c0-9.803 7.947-17.749 17.749-17.749 4.973 0.010 9.455 2.103 12.622 5.453l182.28 135.176c0.578 0.381 1.286 0.608 2.048 0.608s1.47-0.227 2.062-0.616c20.828-4.034 45.373-6.848 70.392-7.813l5.37-0.029c219.819 3.413 398.336 142.677 398.336 318.464s-178.517 320.512-398.336 320.512zM409.6 373.248c-15.932 0.85-30.883 3.167-45.296 6.831-2.334 0.044-6.909 0.266-11.536 0.266s-9.202-0.222-13.715-0.657c0.318 0.048 0.015 0.050-0.288 0.050-18.25 0-34.929-6.724-47.695-17.83l-54.866-38.837 5.12 16.043 3.072 20.48c-0.007 30.149-15.648 56.643-39.256 71.817-69.183 38.921-115.85 109.954-119.785 192.187-0.020 137.062 148.119 251.067 330.049 251.067s330.069-112.299 330.069-250.539-148.48-247.808-331.435-250.539h-4.437z" />
<glyph unicode="&#xe912;" glyph-name="bbb-confused" d="M512 942.933c-273.344 0-494.933-221.589-494.933-494.933s221.589-494.933 494.933-494.933c273.344 0 494.933 221.589 494.933 494.933-0.388 273.188-221.745 494.545-494.896 494.933zM512 21.333c-235.264 0-425.983 190.72-425.983 425.984s190.72 425.984 425.984 425.984c235.024 0 425.595-190.331 425.983-425.264-0.388-235.146-190.876-425.633-425.947-426.021zM422.229 570.539c0-35.629-28.883-64.512-64.512-64.512s-64.512 28.883-64.512 64.512c0 35.629 28.883 64.512 64.512 64.512s64.512-28.883 64.512-64.512zM721.237 570.539c0-35.629-28.883-64.512-64.512-64.512s-64.512 28.883-64.512 64.512c0 35.629 28.883 64.512 64.512 64.512s64.512-28.883 64.512-64.512zM740.011 305.664c-8.755-1.027-16.317-5.444-21.454-11.882-21.085-25.061-52.157-41.028-86.975-41.706-28.917 3.362-55.035 12.321-78.221 25.774-40.008 30.784-91.171 50.705-146.831 53.726-58.067-3.465-109.434-26.709-148.643-62.923-2.451-4.565-3.989-10.186-3.989-16.166 0-18.851 15.282-34.133 34.133-34.133 5.356 0 10.423 1.234 14.934 3.432 27.058 24.82 62.42 41.277 101.503 44.915 28.365-1.058 54.063-8.511 76.689-20.879l-0.902 0.451c41.494-30.106 91.421-51.237 145.581-59.498l8.36-0.235c54.011 2.127 101.743 27.312 133.904 65.923 4.6 5.769 7.236 12.784 7.236 20.415 0 10.192-4.702 19.285-12.055 25.23-5.864 4.755-13.339 7.604-21.48 7.604-0.63 0-1.257-0.017-1.879-0.051z" />
<glyph unicode="&#xe913;" glyph-name="bbb-close" d="M572.416 448l396.288 396.629c7.731 7.731 12.513 18.411 12.513 30.208 0 23.594-19.127 42.721-42.721 42.721-11.797 0-22.477-4.782-30.208-12.513l-396.288-396.629-396.629 396.288c-7.327 6.101-16.837 9.804-27.212 9.804-23.564 0-42.667-19.103-42.667-42.667 0-10.375 3.703-19.886 9.86-27.281l396.232-396.56-396.288-396.629c-7.731-7.731-12.513-18.411-12.513-30.208 0-23.594 19.127-42.721 42.721-42.721 11.797 0 22.477 4.782 30.208 12.513l396.288 396.629 396.629-396.288c7.731-7.731 18.411-12.513 30.208-12.513 23.594 0 42.721 19.127 42.721 42.721 0 11.797-4.782 22.477-12.513 30.208z" />
<glyph unicode="&#xe914;" glyph-name="bbb-clear-status" d="M93.525 82.091c9.004 56.784 40.246 104.939 84.349 136.103 68.909 47.193 157.656 68.697 289.069 68.697 22.187 0 43.691 0 64.171-2.048h36.181l43.008 60.757-23.552 3.755c-11.654 1.964-25.643 3.429-39.847 4.068l-9.988 0.028c-21.504 0-44.715 2.048-68.267 2.048-146.432 0-247.467-24.576-328.021-79.872-71.795-50.707-118.108-133.347-118.108-226.804 0-0.664 0.002-1.328 0.007-1.991-0.001-18.749 15.281-34.031 34.133-34.031h533.845l-37.205 68.267h-459.776zM466.603 415.573c136.533 0 238.933 107.52 246.784 255.659 0.285 4.552 0.448 9.873 0.448 15.231 0 69.308-27.216 132.259-71.543 178.75-43.94 47.149-106.262 76.864-175.533 77.719-68.592-0.435-130.138-29.577-173.423-75.975-45.704-47.983-73.745-112.888-73.745-184.342 0-3.883 0.083-7.747 0.247-11.59 6.125-147.59 109.891-255.451 246.765-255.451zM337.237 823.467c32.449 34.919 78.469 56.845 129.616 57.343 51.858-0.513 98.413-22.407 131.426-57.26 33.904-35.635 54.713-83.843 54.713-136.912 0-4.219-0.132-8.408-0.391-12.562-6.116-115.826-82.574-197.405-185.998-197.405s-180.907 81.237-185.685 197.632c-0.098 2.37-0.154 5.151-0.154 7.945 0 54.787 21.513 104.549 56.552 141.3zM941.056 315.221c-38.355 38.336-91.331 62.045-149.845 62.045-117.067 0-211.968-94.901-211.968-211.968s94.901-211.968 211.968-211.968c117.067 0 211.968 94.901 211.968 211.968 0 0.027 0 0.054 0 0.082-0.062 58.513-23.789 111.477-62.124 149.842zM898.048 58.539c-27.286-27.208-64.94-44.032-106.524-44.032-83.323 0-150.869 67.547-150.869 150.869s67.547 150.869 150.869 150.869c41.583 0 79.238-16.824 106.527-44.036 27.412-27.369 44.371-65.206 44.371-107.004s-16.959-79.636-44.373-107.006zM829.781 167.424l37.888 37.888c5.503 5.503 8.907 13.106 8.907 21.504 0 16.796-13.616 30.411-30.411 30.411-8.398 0-16.001-3.404-21.504-8.907l-39.595-39.253-34.133 34.133c-5.503 5.503-13.106 8.907-21.504 8.907-16.796 0-30.411-13.616-30.411-30.411 0-8.398 3.404-16.001 8.907-21.504l34.133-34.133-34.133-34.133c-5.576-5.534-9.028-13.201-9.028-21.675 0-16.862 13.67-30.532 30.532-30.532 8.389 0 15.987 3.383 21.506 8.859l34.131 34.131 40.277-40.277c5.503-5.503 13.106-8.907 21.504-8.907 16.796 0 30.411 13.616 30.411 30.411 0 8.398-3.404 16.001-8.907 21.504z" />
<glyph unicode="&#xe915;" glyph-name="bbb-circle" d="M512 942.933c-273.344 0-494.933-221.589-494.933-494.933s221.589-494.933 494.933-494.933c273.344 0 494.933 221.589 494.933 494.933-0.388 273.188-221.745 494.545-494.896 494.933zM512 16.896c-238.092 0-431.104 193.012-431.104 431.104s193.012 431.104 431.104 431.104c238.092 0 431.104-193.012 431.104-431.104-0.194-238.014-193.090-430.91-431.085-431.104z" />
<glyph unicode="&#xe916;" glyph-name="bbb-circle-minus" d="M512 942.933c-273.344 0-494.933-221.589-494.933-494.933s221.589-494.933 494.933-494.933c273.344 0 494.933 221.589 494.933 494.933-0.388 273.188-221.745 494.545-494.896 494.933zM512 16.896c-238.092 0-431.104 193.012-431.104 431.104s193.012 431.104 431.104 431.104c238.092 0 431.104-193.012 431.104-431.104-0.194-238.014-193.090-430.91-431.085-431.104zM722.603 475.648h-421.205c-0.991 0.109-2.141 0.171-3.305 0.171-17.72 0-32.085-14.365-32.085-32.085s14.365-32.085 32.085-32.085c1.164 0 2.314 0.062 3.446 0.183l421.065-0.012c16.241 1.731 28.78 15.358 28.78 31.915s-12.54 30.184-28.64 31.902z" />
<glyph unicode="&#xe917;" glyph-name="bbb-circle-close" d="M862.208 798.208c-89.559 89.526-213.265 144.896-349.904 144.896-273.344 0-494.933-221.589-494.933-494.933s221.589-494.933 494.933-494.933c136.639 0 260.345 55.37 349.906 144.897 89.439 89.646 144.745 213.382 144.745 350.036s-55.306 260.39-144.756 350.047zM817.152 143.189c-78.017-78.030-185.803-126.293-304.862-126.293-238.092 0-431.104 193.012-431.104 431.104s193.012 431.104 431.104 431.104c119.059 0 226.845-48.263 304.862-126.293 78.665-77.706 127.385-185.569 127.385-304.811s-48.721-227.105-127.341-304.768zM546.133 453.803l128.683 130.731c4.282 5.403 6.87 12.32 6.87 19.84 0 17.72-14.365 32.085-32.085 32.085-7.521 0-14.437-2.587-19.907-6.921l-129.299-129.314-117.76 117.76c-5.403 4.282-12.32 6.87-19.84 6.87-17.72 0-32.085-14.365-32.085-32.085 0-7.521 2.587-14.437 6.921-19.907l117.709-117.693-123.221-124.587c-7.486-5.928-12.245-15.016-12.245-25.216 0-17.72 14.365-32.085 32.085-32.085 10.2 0 19.288 4.759 25.165 12.178l123.272 123.288 136.533-136.533c5.403-4.282 12.32-6.87 19.84-6.87 17.72 0 32.085 14.365 32.085 32.085 0 7.521-2.587 14.437-6.921 19.907z" />
<glyph unicode="&#xe918;" glyph-name="bbb-circle-add" d="M512 942.933c-273.344 0-494.933-221.589-494.933-494.933s221.589-494.933 494.933-494.933c273.344 0 494.933 221.589 494.933 494.933-0.388 273.188-221.745 494.545-494.896 494.933zM512 16.896c-238.092 0-431.104 193.012-431.104 431.104s193.012 431.104 431.104 431.104c238.092 0 431.104-193.012 431.104-431.104-0.194-238.014-193.090-430.91-431.085-431.104zM722.603 475.648h-190.805v182.955c0.109 0.991 0.171 2.141 0.171 3.305 0 17.72-14.365 32.085-32.085 32.085s-32.085-14.365-32.085-32.085c0-1.164 0.062-2.314 0.183-3.446l-0.012-182.814h-166.571c-0.991 0.109-2.141 0.171-3.305 0.171-17.72 0-32.085-14.365-32.085-32.085s14.365-32.085 32.085-32.085c1.164 0 2.314 0.062 3.446 0.183l166.089-0.012v-174.080c-0.109-0.991-0.171-2.141-0.171-3.305 0-17.72 14.365-32.085 32.085-32.085s32.085 14.365 32.085 32.085c0 1.164-0.062 2.314-0.183 3.446l0.012 173.939h190.805c16.322 1.647 28.956 15.314 28.956 31.932 0 16.497-12.451 30.087-28.468 31.884z" />
<glyph unicode="&#xe919;" glyph-name="bbb-check" d="M689.152 610.133l-243.371-277.504-114.005 99.328c-5.864 6.208-14.152 10.072-23.342 10.072-17.72 0-32.085-14.365-32.085-32.085 0-10.726 5.264-20.224 13.349-26.049l136.628-120.214c5.568-4.935 12.937-7.948 21.010-7.948 9.592 0 18.191 4.255 24.012 10.98l264.567 301.437c2.746 4.631 4.368 10.207 4.368 16.163 0 17.72-14.365 32.085-32.085 32.085-7.169 0-13.789-2.351-19.131-6.325zM512 942.933c-273.344 0-494.933-221.589-494.933-494.933s221.589-494.933 494.933-494.933c273.344 0 494.933 221.589 494.933 494.933-0.388 273.188-221.745 494.545-494.896 494.933zM512 16.896c-238.092 0-431.104 193.012-431.104 431.104s193.012 431.104 431.104 431.104c238.092 0 431.104-193.012 431.104-431.104-0.194-238.014-193.090-430.91-431.085-431.104z" />
<glyph unicode="&#xe91a;" glyph-name="bbb-chat" d="M512 874.667c244.395 0 443.733-152.917 443.733-341.333s-199.339-337.237-443.733-341.333h-5.461c-22.355 0.21-44.013 2.686-64.908 7.208-6.886 1.685-17.326 3.036-28.024 3.367-0.592 0.012-0.993 0.015-1.395 0.015-18.822 0-36.012-6.989-49.117-18.512l-116.994-87.31 23.893 76.459 3.072 20.139c0 0.063 0 0.138 0 0.213 0 32.113-16.735 60.318-41.959 76.369-103.449 65.754-162.841 161.669-162.841 263.728 0 187.392 199.339 340.992 443.733 340.992zM512 942.933c-282.624 0-512-183.296-512-409.6 0-130.048 75.776-246.101 194.219-320.853 6.396-4.048 10.581-11.085 10.581-19.099 0-0.005 0-0.011 0-0.016l-68.267-217.428c0-12.63 10.239-22.869 22.869-22.869 0 0 0 0 0 0 0.016 0 0.035 0 0.053 0 6.453 0 12.262 2.755 16.317 7.153l233.827 170.682c0.94 1.301 2.454 2.138 4.162 2.138 0.339 0 0.67-0.033 0.99-0.096 26.773-5.241 58.356-8.91 90.552-10.196l6.696-0.039c282.624 4.437 512 183.296 512 409.6s-229.035 409.6-512 409.6v0z" />
<glyph unicode="&#xe91b;" glyph-name="bbb-audio" d="M512 891.733c1.402 0.052 3.048 0.082 4.701 0.082 38.45 0 73.131-16.136 97.641-42.005 25.988-24.629 42.124-59.31 42.124-97.76 0-1.653-0.030-3.3-0.089-4.939l0.007-337.341c0.001-0.202 0.002-0.442 0.002-0.682 0-38.411-16.103-73.061-41.927-97.567-24.627-25.986-59.308-42.122-97.758-42.122-1.653 0-3.3 0.030-4.939 0.089-1.165-0.059-2.811-0.089-4.464-0.089-38.45 0-73.131 16.136-97.641 42.005-25.988 24.629-42.124 59.31-42.124 97.76 0 1.653 0.030 3.3 0.089 4.939l-0.007 334.952c-0.052 1.402-0.082 3.048-0.082 4.701 0 38.45 16.136 73.131 42.005 97.641 24.496 25.011 58.531 40.481 96.18 40.481 2.209 0 4.406-0.053 6.589-0.159zM512 960c-0.662 0.008-1.445 0.012-2.228 0.012-57.615 0-109.674-23.792-146.887-62.086-38.187-37.28-61.84-89.203-61.84-146.651 0-0.78 0.004-1.56 0.013-2.338l-0.001-337.46c0.193-116.492 94.479-210.898 210.907-211.285 116.382 0.387 210.594 94.599 210.981 210.907v337.957c0.008 0.662 0.012 1.445 0.012 2.228 0 57.615-23.792 109.674-62.086 146.887-37.28 38.187-89.203 61.84-146.651 61.84-0.78 0-1.56-0.004-2.338-0.013l0.119 0.001zM759.125 4.267h-212.992v38.912c188.886 14.46 336.698 171.185 336.896 362.476 0 18.871-15.282 34.153-34.133 34.153s-34.133-15.282-34.133-34.133c-0.194-163.174-132.42-295.401-295.576-295.595h-14.355c-163.174 0.194-295.401 132.42-295.595 295.576 0 18.87-15.282 34.152-34.133 34.152s-34.133-15.282-34.133-34.133c0.198-191.311 148.010-348.036 335.66-362.42l1.236-38.988h-212.992c-18.851 0-34.133-15.282-34.133-34.133s15.282-34.133 34.133-34.133h494.251c18.851 0 34.133 15.282 34.133 34.133s-15.282 34.133-34.133 34.133z" />
<glyph unicode="&#xe91c;" glyph-name="bbb-audio-off" d="M362.99 262.268c36.958-38.143 88.654-61.817 145.879-61.817 1.101 0 2.199 0.009 3.296 0.026 116.843-0.002 211.697 94.852 211.697 211.86v215.393l226.692 226.339c9.817 6.38 16.219 17.295 16.219 29.704 0 19.501-15.809 35.31-35.31 35.31-12.141 0-22.85-6.127-29.205-15.458l-179.102-179.146v23.658c0.012 0.831 0.019 1.812 0.019 2.794 0 57.396-23.816 109.229-62.104 146.157-37.103 38.823-89.21 62.922-146.946 62.922-0.747 0-1.493-0.004-2.239-0.012-0.717 0.013-1.698 0.020-2.681 0.020-57.396 0-109.229-23.816-146.157-62.104-38.415-37.049-62.235-88.886-62.235-146.287 0-1.227 0.011-2.452 0.033-3.674l-0.003-337.383c-0.003-0.384-0.004-0.837-0.004-1.291 0-31.987 7.295-62.27 20.313-89.276l-69.037-66.211c-26.719 43.263-42.599 95.681-42.725 151.8-4.211 15.166-17.868 26.085-34.075 26.085s-29.864-10.919-34.015-25.802c-0.059-0.341-0.059-0.451-0.059-0.56 0-75.096 22.961-144.83 62.245-202.563l-130.040-127.983c-10.439-6.262-17.317-17.519-17.317-30.382 0-19.501 15.809-35.31 35.31-35.31 12.863 0 24.12 6.878 30.293 17.157l125.441 124.452c59.943-60.164 140.843-99.412 230.822-105.864l1.167-38.909h-211.862c-17.897-1.881-31.724-16.89-31.724-35.128 0-17.361 12.529-31.795 29.038-34.755l494.559-0.032c15.131 4.211 26.050 17.867 26.050 34.074s-10.919 29.864-25.802 34.015l-212.11 0.059v37.782c188.37 15.291 335.449 171.932 335.449 362.924 0 0.271 0 0.543-0.001 0.814 0.785 2.735 1.236 5.924 1.236 9.218 0 19.501-15.809 35.31-35.31 35.31s-35.31-15.809-35.31-35.31c0-3.294 0.451-6.483 1.295-9.509-0.26-162.897-132.461-295.098-295.587-295.299h-14.497c-0.379-0.002-0.827-0.003-1.276-0.003-82.497 0-157.070 33.922-210.534 88.578l66.331 66.437zM654.654 411.277c0.020-0.872 0.032-1.9 0.032-2.93 0-38.449-16.129-73.131-41.991-97.648-24.634-25.979-59.316-42.108-97.765-42.108-1.030 0-2.058 0.012-3.082 0.035-0.72-0.023-1.747-0.035-2.777-0.035-38.449 0-73.131 16.129-97.648 41.991l-2.528 2.885 247.172 247.172v-148.303zM368.993 411.277v336.861c-0.020 0.872-0.032 1.9-0.032 2.93 0 38.449 16.129 73.131 41.991 97.648 24.706 26.6 59.792 43.155 98.746 43.155 0.81 0 1.617-0.007 2.424-0.021 0.751 0.022 1.778 0.034 2.809 0.034 38.449 0 73.131-16.129 97.648-41.991 25.994-24.636 42.134-59.328 42.134-97.79 0-1.394-0.021-2.783-0.063-4.167l0.005-91.957-282.483-282.483c-1.932 8.968-3.039 19.27-3.039 29.831 0 2.797 0.078 5.576 0.231 8.334z" />
<glyph unicode="&#xe91d;" glyph-name="bbb-line-tool" d="M344.129 183.397l268.25 536.385 57.088-28.55-268.25-536.385-57.088 28.55zM704.853 942.933c0 0 0 0 0 0-60.324 0-109.227-48.902-109.227-109.227s48.902-109.227 109.227-109.227c60.324 0 109.227 48.902 109.227 109.227s-48.902 109.227-109.227 109.227zM704.853 788.651c-24.776 0.385-44.713 20.56-44.713 45.392 0 25.072 20.325 45.397 45.397 45.397s45.397-20.325 45.397-45.397c0-0.118 0-0.236-0.001-0.354-0.57-24.612-20.672-44.361-45.386-44.361-0.244 0-0.488 0.002-0.731 0.006zM319.147 171.179c-60.324 0-109.227-48.902-109.227-109.227s48.902-109.227 109.227-109.227c60.324 0 109.227 48.902 109.227 109.227s-48.902 109.227-109.227 109.227zM319.147 16.896c-25.072 0.001-45.396 20.326-45.396 45.397s20.325 45.397 45.397 45.397c25.072 0 45.397-20.325 45.397-45.397 0-0.12 0-0.24-0.001-0.36-0.193-24.907-20.444-45.038-45.396-45.038 0 0-0.001 0-0.001 0z" />
<glyph unicode="&#xe91e;" glyph-name="bbb-circle-tool" d="M629.077 112.469l21.163-60.075c116.7 42.061 207.583 131.048 251.269 243.584l-58.757 25.728c-37.752-97.924-114.752-173.474-211.202-208.454zM114.005 584.533l60.416-21.163c35.32 99.441 110.833 176.962 206.478 214.211l-20.451 62.269c-115.99-45.265-205.167-137.343-245.545-252.382zM847.189 562.005l60.416 20.48c-42.572 121.976-135.946 216.692-254.091 260.175l-24.095-59.471c102.569-37.641 181.677-117.866 217.004-218.672zM177.493 322.048l-59.733-22.528c43.382-112.292 130.29-199.535 239.492-242.384l25.724 58.747c-94.973 37.137-168.648 111.035-204.652 203.735zM505.856 942.933c-58.603-0.77-105.813-48.457-105.813-107.17 0-59.193 47.986-107.179 107.179-107.179 59.19 0 107.174 47.981 107.179 107.169-0.191 59.237-48.256 107.184-107.519 107.184-0.36 0-0.72-0.002-1.079-0.005zM505.856 792.064c-23.941 0-43.349 19.408-43.349 43.349s19.408 43.349 43.349 43.349c23.941 0 43.349-19.408 43.349-43.349s-19.408-43.349-43.349-43.349zM505.856 167.765c-58.603-0.771-105.813-48.457-105.813-107.17 0-59.193 47.986-107.179 107.179-107.179 59.070 0 106.979 47.786 107.178 106.81 0 0.020 0 0.022 0 0.024 0 59.382-48.138 107.52-107.52 107.52-0.36 0-0.72-0.002-1.079-0.005zM505.856 16.896c-23.941 0-43.349 19.408-43.349 43.349s19.408 43.349 43.349 43.349c23.941 0 43.349-19.408 43.349-43.349s-19.408-43.349-43.349-43.349zM897.707 550.4c-59.193 0-107.179-47.986-107.179-107.179s47.986-107.179 107.179-107.179c59.193 0 107.179 47.986 107.179 107.179-0.193 59.115-48.063 106.985-107.16 107.179zM897.707 399.531c-23.941 0-43.349 19.408-43.349 43.349s19.408 43.349 43.349 43.349c23.941 0 43.349-19.408 43.349-43.349 0.001-0.101 0.001-0.221 0.001-0.341 0-23.941-19.408-43.349-43.349-43.349 0 0-0.001 0-0.001 0zM233.472 442.539c0 59.193-47.986 107.179-107.179 107.179s-107.179-47.986-107.179-107.179c0-59.193 47.986-107.179 107.179-107.179 59.115 0.193 106.985 48.063 107.179 107.16zM82.603 442.539c0.001 23.941 19.409 43.348 43.349 43.348s43.349-19.408 43.349-43.349c0-23.821-19.214-43.155-42.99-43.348-0.12-0.001-0.24-0.001-0.36-0.001-23.941 0-43.349 19.408-43.349 43.349 0 0 0 0.001 0 0.001z" />
<glyph unicode="&#xe91f;" glyph-name="bbb-triangle-tool" d="M150.818 194.314l268.25 536.385 57.088-28.55-268.25-536.385-57.088 28.55zM246.101 94.037h529.408v-63.829h-529.408v63.829zM547.426 702.18l57.088 28.55 265.655-531.195-57.088-28.55-265.655 531.195zM512 724.821c60.324 0 109.227 48.902 109.227 109.227s-48.902 109.227-109.227 109.227c-60.324 0-109.227-48.902-109.227-109.227s48.902-109.227 109.227-109.227zM512 879.104c25.072 0 45.397-20.325 45.397-45.397s-20.325-45.397-45.397-45.397c-25.072 0-45.397 20.325-45.397 45.397s20.325 45.397 45.397 45.397zM897.707 171.179c0 0 0 0 0 0-60.324 0-109.227-48.902-109.227-109.227s48.902-109.227 109.227-109.227c60.324 0 109.227 48.902 109.227 109.227s-48.902 109.227-109.227 109.227zM897.707 16.896c-25.072 0-45.397 20.325-45.397 45.397s20.325 45.397 45.397 45.397c25.072 0 45.397-20.325 45.397-45.397s-20.325-45.397-45.397-45.397c0 0 0 0 0 0zM126.293 171.179c-60.324 0-109.227-48.902-109.227-109.227s48.902-109.227 109.227-109.227c60.324 0 109.227 48.902 109.227 109.227s-48.902 109.227-109.227 109.227zM126.293 16.896c-0.305-0.007-0.664-0.012-1.024-0.012-25.072 0-45.397 20.325-45.397 45.397s20.325 45.397 45.397 45.397c25.068 0 45.391-20.318 45.397-45.385 0-0.004 0-0.008 0-0.012 0-24.712-19.745-44.813-44.32-45.385z" />
<glyph unicode="&#xe920;" glyph-name="bbb-square-tool" d="M862.549 689.664h63.829v-482.987h-63.829v482.987zM290.475 862.379h442.709v-63.829h-442.709v63.829zM97.621 689.664h63.829v-482.987h-63.829v482.987zM290.475 97.451h442.709v-63.829h-442.709v63.829zM129.365 942.933c-61.874-0.194-111.957-50.397-111.957-112.298 0-62.021 50.278-112.299 112.299-112.299s112.298 50.278 112.299 112.298c-0.194 62.062-50.55 112.299-112.639 112.299 0 0 0 0-0.001 0zM129.365 781.824c-26.621 0.194-48.127 21.82-48.127 48.468 0 26.769 21.7 48.469 48.469 48.469 26.648 0 48.274-21.506 48.468-48.108 0-26.976-21.853-48.829-48.811-48.829zM894.635 178.005c-62.021 0-112.298-50.278-112.298-112.299s50.278-112.299 112.299-112.299c61.901 0 112.104 50.083 112.298 111.939 0 0.019 0 0.019 0 0.019 0 62.089-50.236 112.445-112.28 112.639zM894.635 16.896c-26.769 0-48.469 21.7-48.469 48.469s21.7 48.469 48.469 48.469c26.769 0 48.469-21.7 48.469-48.469 0 0 0 0 0 0-0.192-26.691-21.778-48.277-48.451-48.469zM129.365 178.005c-61.874-0.194-111.957-50.397-111.957-112.298 0-62.021 50.278-112.299 112.299-112.299 61.901 0 112.104 50.083 112.298 111.938 0 62.228-50.431 112.659-112.64 112.659 0 0 0 0 0 0zM129.365 16.896c-26.769 0-48.469 21.7-48.469 48.469s21.7 48.469 48.469 48.469c26.769 0 48.469-21.7 48.469-48.469 0 0 0 0 0 0-0.192-26.691-21.778-48.277-48.451-48.469zM894.293 942.933c-61.874-0.194-111.957-50.397-111.957-112.298 0-62.021 50.278-112.299 112.299-112.299s112.298 50.278 112.299 112.298c-0.194 62.062-50.55 112.299-112.639 112.299 0 0 0 0-0.001 0zM894.293 781.824c0 0 0 0 0 0-26.769 0-48.469 21.7-48.469 48.469s21.7 48.469 48.469 48.469c26.769 0 48.469-21.7 48.469-48.469 0 0 0 0 0 0-0.192-26.691-21.778-48.277-48.451-48.469z" />
<glyph unicode="&#xe921;" glyph-name="bbb-text-tool" d="M935.253 942.933h-845.824l-8.875-254.293h36.523q22.528 120.491 68.267 156.331t170.667 34.133h83.968v-746.496q0-96.597-23.211-120.491t-118.443-31.403v-27.648h433.835v27.648c-1.445-0.030-3.148-0.047-4.855-0.047-41.463 0-80.565 10.114-114.972 28.009q-25.582 19.825-25.582 106.524v765.611h83.285q130.048 0 170.667-36.181t68.267-155.989h34.133z" />
<glyph unicode="&#xe922;" glyph-name="bbb-plus" d="M968.021 486.229h-421.888v414.037c0 21.585-17.498 39.083-39.083 39.083s-39.083-17.498-39.083-39.083v-413.696h-411.989c-21.585 0-39.083-17.498-39.083-39.083s17.498-39.083 39.083-39.083h413.355v-413.013c0-21.585 17.498-39.083 39.083-39.083s39.083 17.498 39.083 39.083v413.013h420.523c21.491 0 38.912 17.421 38.912 38.912s-17.421 38.912-38.912 38.912z" />
<glyph unicode="&#xe923;" glyph-name="bbb-fit-to-width" d="M1004.544 443.904c0.059 0.715 0.092 1.548 0.092 2.389s-0.033 1.674-0.099 2.498c0.154 1.019 0.237 2.323 0.237 3.646s-0.084 2.627-0.246 3.907l0.016-0.152c0.051 0.664 0.080 1.438 0.080 2.219s-0.029 1.555-0.086 2.321c-0.288 2.678-0.89 5.222-1.772 7.63-2.492 3.683-4.962 7.021-7.598 10.218l0.16-0.2-127.659 111.616c-5.177 3.733-11.648 5.971-18.642 5.971-17.72 0-32.085-14.365-32.085-32.085 0-8.53 3.328-16.282 8.757-22.029l63.815-55.622h-755.371l63.488 57.344c8.18 5.891 13.444 15.388 13.444 26.114 0 17.72-14.365 32.085-32.085 32.085-9.191 0-17.479-3.864-23.328-10.056l-127.673-111.631c-1.798-1.798-3.379-3.813-4.7-6.003-1.024-1.25-1.924-2.476-2.733-3.765-0.888-2.317-1.489-4.86-1.771-7.5-0.063-0.805-0.092-1.579-0.092-2.359s0.029-1.555 0.085-2.321l-0.006 0.102c-0.134-1.076-0.21-2.321-0.21-3.584s0.076-2.508 0.224-3.731c-0.072-0.568-0.105-1.401-0.105-2.242s0.033-1.674 0.097-2.499c1.63-4.004 3.942-7.522 6.826-10.479l127.652-127.652c5.928-7.486 15.016-12.245 25.216-12.245 17.72 0 32.085 14.365 32.085 32.085 0 10.2-4.759 19.288-12.178 25.165l-72.429 71.048h772.096l-73.387-73.387c-7.486-5.928-12.245-15.016-12.245-25.216 0-17.72 14.365-32.085 32.085-32.085 10.2 0 19.288 4.759 25.165 12.178l127.71 127.725c3.008 2.935 5.431 6.453 7.090 10.373z" />
<glyph unicode="&#xe924;" glyph-name="bbb_applause" d="M1002.496 509.781c2.672 7.958 4.213 17.122 4.213 26.645 0 47.694-38.663 86.357-86.357 86.357-11.862 0-23.165-2.392-33.454-6.719-1.693 33.296-23.787 60.679-53.823 70.705-9.667 3.101-20.14 4.794-31.009 4.794-17.454 0-33.887-4.367-48.268-12.067l-127.451-64.926c4.078 2.361 7.411 5.585 9.83 9.441l24.303 41.418c7.038 12.456 11.184 27.352 11.184 43.217 0 31.719-16.576 59.566-41.538 75.351-8.72 5.242-18.401 9.237-28.683 11.682 3.846 10.476 6.49 22.525 6.49 35.192 0 31.475-16.323 59.138-40.966 74.986-12.726 7.173-27.513 11.273-43.258 11.273-28.995 0-54.742-13.905-70.937-35.41-14.892 19.212-37.994 31.64-63.999 31.64-7.528 0-14.813-1.042-21.719-2.988-26.149-7.217-47.994-24.392-61.298-47.166l-131.334-223.035-3.755 46.763c-0.27 29.953-13.358 56.797-34.038 75.35-12.859 11.424-29.765 18.351-48.288 18.351-1.779 0-3.543-0.064-5.29-0.19-68.032-6.813-65.302-70.984-63.595-95.218v-3.072s29.355-163.499 3.072-271.019 26.283-211.285 151.211-278.869c3.9-2.137 8.544-3.393 13.483-3.393 15.73 0 28.481 12.752 28.481 28.481 0 10.792-6.002 20.182-14.85 25.014-102.549 56.053-144.874 128.416-123.37 215.456 27.989 114.347 0 273.067-2.048 292.864-2.048 31.744 0 32.085 12.629 34.133 0.605 0.079 1.304 0.124 2.014 0.124 4.903 0 9.304-2.154 12.306-5.567 8.692-9.269 14.021-21.749 14.021-35.474 0-0.375-0.004-0.749-0.012-1.122l7.51-124.19c2.633-16.458 16.729-28.884 33.727-28.884 11.37 0 21.441 5.559 27.645 14.108l170.735 289.891c5.699 10.32 15.069 18.023 26.307 21.422 2.598 0.906 5.23 1.382 7.973 1.382 7.806 0 14.712-3.853 18.919-9.761 4.095-5.612 6.524-12.56 6.524-20.074 0-5.122-1.128-9.981-3.15-14.341l-75.688-125.4-27.648-47.104c-2.436-4.107-3.876-9.053-3.876-14.336 0-15.713 12.738-28.452 28.452-28.452 10.431 0 19.551 5.613 24.504 13.984l102.472 172.505 36.864 62.805c5.846 8.592 15.578 14.161 26.612 14.161 4.831 0 9.413-1.068 13.522-2.98 7.522-6.225 12.412-15.746 12.412-26.409 0-5.925-1.51-11.497-4.165-16.353l-26.876-52.046c-2.403-4.045-3.824-8.917-3.824-14.122 0-9.334 4.569-17.601 11.593-22.686-2.046 1.269-4.516 2.528-7.094 3.578-58.36 21.624-84.301-13.875-102.733-48.691 0 0-63.147-153.6-143.019-230.059-100.011-95.573-77.824-254.635-6.144-356.011 44.377-67.91 119.082-112.803 204.424-115.362 41.243 0.359 79.621 10.672 113.313 28.623l131.116 64.552 193.536 98.645c27.968 15.396 46.603 44.674 46.603 78.305 0 13.971-3.216 27.19-8.948 38.959-4.678 8.8-10.959 16.714-18.448 23.285l18.68 9.637c27.968 15.396 46.603 44.674 46.603 78.305 0 13.971-3.216 27.19-8.948 38.959-4.808 9.098-11.324 17.249-19.117 23.958 16.727 11.145 29.349 27.416 35.559 46.574zM542.379 595.456c10.849 17.294 17.284 38.314 17.284 60.837 0 12.405-1.952 24.353-5.565 35.555-4.612 11.425-12.477 21.596-22.465 29.092 3.407-1.633 7.623-2.661 12.079-2.661 10.245 0 19.221 5.439 24.196 13.586 4.411 4.552 10.454 7.296 17.137 7.296s12.726-2.744 17.063-7.168c8.235-6.302 13.49-16.129 13.49-27.184 0-4.987-1.070-9.724-2.992-13.995l-25.172-38.014c-2.694-4.224-4.293-9.373-4.293-14.896 0-15.458 12.531-27.989 27.989-27.989 4.82 0 9.356 1.218 13.316 3.364l-100.158-50.932zM936.619 390.656c-2.262-7.643-7.268-13.87-13.85-17.672l-189.244-95.651-34.133-16.725c-9.346-4.964-15.602-14.637-15.602-25.771 0-16.063 13.022-29.085 29.085-29.085 4.929 0 9.572 1.226 13.64 3.39l130.915 68.19c3.923 2.029 8.564 3.219 13.483 3.219 16.482 0 29.843-13.361 29.843-29.843 0-11.563-6.577-21.591-16.193-26.546l-159.911-83.364-164.523-83.968c-133.461-68.267-221.184 36.181-245.077 68.267-57.685 83.968-76.117 210.261-0.683 283.989 88.747 84.651 153.941 243.029 155.648 247.808 12.288 25.259 14.677 24.235 27.648 19.797 3.406-6.617 5.402-14.44 5.402-22.729 0-11.673-3.959-22.421-10.607-30.975l-55.552-102.286c-1.783-4.003-2.821-8.674-2.821-13.588 0-18.851 15.282-34.133 34.133-34.133 4.454 0 8.708 0.853 12.609 2.404l299.46 153.519c6.242 3.479 13.692 5.527 21.621 5.527 4.458 0 8.764-0.647 12.831-1.853 9.609-2.371 16.938-10.976 17.429-21.371 0.034-0.602 0.052-1.244 0.052-1.891 0-11.883-6.072-22.348-15.283-28.461l-178.302-90.873c-9.23-4.814-15.424-14.313-15.424-25.259 0-15.682 12.713-28.394 28.394-28.394 4.736 0 9.201 1.16 13.127 3.21l178.361 90.72 64.512 34.133c3.923 2.029 8.564 3.219 13.483 3.219 16.482 0 29.843-13.361 29.843-29.843 0-11.563-6.577-21.591-16.193-26.546l-65.021-34.212-77.141-39.253-101.035-51.883c-9.418-4.753-15.763-14.35-15.763-25.429 0-15.681 12.712-28.393 28.393-28.393 4.602 0 8.948 1.095 12.792 3.038l178.355 90.72c3.926 2.114 8.591 3.357 13.546 3.357 16.024 0 29.013-12.99 29.013-29.013 0-3.403-0.586-6.669-1.662-9.703z" />
<glyph unicode="&#xe925;" glyph-name="bbb-undo" d="M517.803 772.949h-307.2l120.491 121.173c5.21 5.192 8.433 12.374 8.433 20.309s-3.223 15.117-8.432 20.309c-5.265 5.051-12.424 8.16-20.31 8.16s-15.045-3.11-20.32-8.169l-167.243-167.244c-4.020-2.564-7.334-5.878-9.822-9.771l-17.143-17.194 17.067-17.067c2.564-4.020 5.878-7.334 9.771-9.822l167.381-167.33c5.198-5.198 12.378-8.412 20.309-8.412 15.863 0 28.722 12.859 28.722 28.722 0 7.931-3.215 15.112-8.412 20.309l-121.173 121.173h307.2c190.587 0 345.088-154.501 345.088-345.088s-154.501-345.088-345.088-345.088c-3.182 1.082-6.847 1.707-10.658 1.707-18.851 0-34.133-15.282-34.133-34.133s15.282-34.133 34.133-34.133c3.811 0 7.476 0.625 10.899 1.777-0.139-0.070-0.019-0.070 0.101-0.070 226.404 0 409.941 183.537 409.941 409.941 0 226.284-183.343 409.747-409.581 409.941z" />
<glyph unicode="&#xe926;" glyph-name="bbb-pen-tool" d="M966.315 885.931c-62.464 61.44-166.912 51.2-243.371-23.893l-601.429-592.896c-3.436-3.355-6.119-7.465-7.78-12.064l-94.961-279.093c-1.167-3.173-1.843-6.836-1.843-10.658 0-9.29 3.991-17.648 10.351-23.453 5.966-5.161 13.767-8.292 22.3-8.292 4.258 0 8.334 0.78 12.093 2.204l267.712 108.125c4.094 1.696 7.603 4 10.596 6.841l601.756 593.223c76.459 75.093 87.040 177.493 24.576 239.957zM197.291 253.781l523.605 515.755 127.317-125.269-523.605-516.096zM163.157 198.144l108.203-106.496-168.96-67.584zM896 691.371l-2.048-2.048-127.317 125.269 2.048 2.048c50.517 50.176 114.688 60.416 152.917 23.893s25.6-98.987-25.6-149.163z" />
<glyph unicode="&#xe927;" glyph-name="bbb-lock" d="M869.035 524.8h-49.835v130.731c0 158.379-136.533 287.403-307.2 287.403s-307.2-129.024-307.2-287.403v-130.731h-49.835c-0.62 0.023-1.349 0.036-2.081 0.036-32.848 0-59.607-26.067-60.721-58.643l-0.003-454.417c1.117-32.678 27.876-58.745 60.724-58.745 0.732 0 1.461 0.013 2.187 0.039l713.964-0.003c0.62-0.023 1.349-0.036 2.081-0.036 32.848 0 59.607 26.067 60.721 58.643l0.003 454.417c-1.117 32.678-27.876 58.745-60.724 58.745-0.732 0-1.461-0.013-2.187-0.039zM273.067 655.531c4.666 124.511 106.729 223.678 231.954 223.678 2.454 0 4.9-0.038 7.336-0.114 1.724 0.076 4.169 0.114 6.623 0.114 125.225 0 227.288-99.168 231.941-223.255l0.013-131.154h-477.867v130.731zM863.573 16.896h-703.147v443.733h703.147v-443.733z" />
<glyph unicode="&#xe928;" glyph-name="bbb-polling" horiz-adv-x="1536" d="M1460.736 861.184h-1075.2c-21.94-6.106-37.773-25.908-37.773-49.408s15.832-43.302 37.413-49.322l1075.56-0.086c4.026-1.138 8.65-1.792 13.427-1.792 28.277 0 51.2 22.923 51.2 51.2s-22.923 51.2-51.2 51.2c-4.777 0-9.401-0.654-13.787-1.878zM1102.336 492.544h-716.8c-21.94-6.106-37.773-25.908-37.773-49.408s15.832-43.302 37.413-49.322l717.16-0.086c4.026-1.138 8.65-1.792 13.427-1.792 28.277 0 51.2 22.923 51.2 51.2s-22.923 51.2-51.2 51.2c-4.777 0-9.401-0.654-13.787-1.878zM743.424 133.632h-358.4c-4.026 1.138-8.65 1.792-13.427 1.792-28.277 0-51.2-22.923-51.2-51.2s22.923-51.2 51.2-51.2c4.777 0 9.401 0.654 13.787 1.878l358.040-0.086c21.94 6.106 37.773 25.908 37.773 49.408s-15.832 43.302-37.413 49.322zM225.28 812.032c0-55.14-44.7-99.84-99.84-99.84s-99.84 44.7-99.84 99.84c0 55.14 44.7 99.84 99.84 99.84s99.84-44.7 99.84-99.84zM225.28 442.88c0-55.14-44.7-99.84-99.84-99.84s-99.84 44.7-99.84 99.84c0 55.14 44.7 99.84 99.84 99.84s99.84-44.7 99.84-99.84zM225.28 83.968c0-55.14-44.7-99.84-99.84-99.84s-99.84 44.7-99.84 99.84c0 55.14 44.7 99.84 99.84 99.84s99.84-44.7 99.84-99.84z" />
<glyph unicode="&#xe929;" glyph-name="bbb-desktop" d="M926.379 891.733h-828.757c0 0 0 0-0.001 0-44.489 0-80.555-36.066-80.555-80.555 0-0.12 0-0.24 0.001-0.36v-595.949c0-44.489 36.066-80.555 80.555-80.555h269.312v-72.363h-88.064c0 0 0 0 0 0-15.835 0-28.672-12.837-28.672-28.672s12.837-28.672 28.672-28.672c0 0 0 0 0 0h466.261c15.835 0 28.672 12.837 28.672 28.672s-12.837 28.672-28.672 28.672h-88.064v72.363h269.312c44.489 0 80.555 36.066 80.555 80.555v595.968c0 0.101 0.001 0.221 0.001 0.341 0 44.489-36.066 80.555-80.555 80.555 0 0-0.001 0-0.001 0zM600.064 61.952h-176.128v72.363h176.128v-72.363zM949.931 214.869c0-12.819-10.392-23.211-23.211-23.211h-829.099c-12.819 0-23.211 10.392-23.211 23.211v595.968c0 12.819 10.392 23.211 23.211 23.211h828.757c12.819 0 23.211-10.392 23.211-23.211v-595.968z" />
<glyph unicode="&#xe92a;" glyph-name="bbb-fit-to-screen" d="M1004.544 435.712c1.418 3.49 2.241 7.539 2.241 11.78 0 8.695-3.459 16.582-9.075 22.36l-100.686 100.686c-5.737 9.259-15.842 15.333-27.365 15.333-17.72 0-32.085-14.365-32.085-32.085 0-11.698 6.261-21.934 15.614-27.54l46.226-46.161h-246.443c-0.991 0.109-2.141 0.171-3.305 0.171-17.72 0-32.085-14.365-32.085-32.085s14.365-32.085 32.085-32.085c1.164 0 2.314 0.062 3.446 0.183l244.937-0.012-44.715-46.421c-7.486-5.928-12.245-15.016-12.245-25.216 0-17.72 14.365-32.085 32.085-32.085 10.2 0 19.288 4.759 25.165 12.178l100.744 100.76c2.33 2.908 4.191 6.313 5.397 10.013zM403.115 448c0 17.72-14.365 32.085-32.085 32.085h-245.077l44.715 46.080c7.486 5.928 12.245 15.016 12.245 25.216 0 17.72-14.365 32.085-32.085 32.085-10.2 0-19.288-4.759-25.165-12.178l-99.379-100.76c-5.712-5.79-9.239-13.747-9.239-22.528s3.527-16.738 9.242-22.532l100.69-100.69c4.835-3.075 10.726-4.901 17.043-4.901 17.72 0 32.085 14.365 32.085 32.085 0 6.665-2.032 12.855-5.51 17.984l-44.643 46.309h245.077c0.001 0 0.001 0 0.002 0 17.6 0 31.891 14.171 32.083 31.726zM433.835 789.333l46.080 46.080v-245.077c1.731-16.241 15.358-28.78 31.915-28.78s30.184 12.54 31.902 28.64l0.012 243.853 46.421-44.715c5.928-7.486 15.016-12.245 25.216-12.245 17.72 0 32.085 14.365 32.085 32.085 0 10.2-4.759 19.288-12.178 25.165l-100.76 99.379c-5.79 5.712-13.747 9.239-22.528 9.239s-16.738-3.527-22.532-9.242l-100.69-100.69c-8.622-5.842-14.214-15.591-14.214-26.647 0-17.72 14.365-32.085 32.085-32.085 11.403 0 21.416 5.948 27.107 14.911zM590.165 106.667l-46.080-46.080v246.443c-1.731 16.241-15.358 28.78-31.915 28.78s-30.184-12.54-31.902-28.64l-0.012-245.218-46.421 44.715c-5.928 7.486-15.016 12.245-25.216 12.245-17.72 0-32.085-14.365-32.085-32.085 0-10.2 4.759-19.288 12.178-25.165l100.76-100.744c5.79-5.712 13.747-9.239 22.528-9.239s16.738 3.527 22.532 9.242l100.69 100.69c4.282 5.403 6.87 12.32 6.87 19.84 0 17.72-14.365 32.085-32.085 32.085-7.521 0-14.437-2.587-19.907-6.921z" />
<glyph unicode="&#xe92b;" glyph-name="bbb-fullscreen" d="M1004.544 923.136c-4.952 11.721-16.352 19.797-29.639 19.797-0.020 0-0.040 0-0.060 0h-201.384c-16.241-1.731-28.78-15.358-28.78-31.915s12.54-30.184 28.64-31.902l124.386-0.012-267.605-267.605c-7.486-5.928-12.245-15.016-12.245-25.216 0-17.72 14.365-32.085 32.085-32.085 10.2 0 19.288 4.759 25.165 12.178l267.656 267.672v-124.245c-0.109-0.991-0.171-2.141-0.171-3.305 0-17.72 14.365-32.085 32.085-32.085s32.085 14.365 32.085 32.085c0 1.164-0.062 2.314-0.183 3.446l0.012 200.905c0.009 0.289 0.015 0.629 0.015 0.97 0 4.067-0.757 7.957-2.137 11.538zM348.501 329.557l-267.605-267.605v124.245c-1.731 16.241-15.358 28.78-31.915 28.78s-30.184-12.54-31.902-28.64l-0.012-201.527c0-17.72 14.365-32.085 32.085-32.085 0 0 0 0 0 0h201.387c0.991-0.109 2.141-0.171 3.305-0.171 17.72 0 32.085 14.365 32.085 32.085s-14.365 32.085-32.085 32.085c-1.164 0-2.314-0.062-3.446-0.183l-124.446 0.012 267.605 267.605c6.991 5.924 11.398 14.71 11.398 24.526 0 17.72-14.365 32.085-32.085 32.085-9.731 0-18.449-4.332-24.334-11.172zM125.952 879.104h124.245c16.241 1.731 28.78 15.358 28.78 31.915s-12.54 30.184-28.64 31.902l-201.186 0.012c-17.72 0-32.085-14.365-32.085-32.085v-201.387c1.731-16.241 15.358-28.78 31.915-28.78s30.184 12.54 31.902 28.64l0.012 124.727 267.605-267.605c5.403-4.282 12.32-6.87 19.84-6.87 17.72 0 32.085 14.365 32.085 32.085 0 7.521-2.587 14.437-6.921 19.907zM974.848 218.283c-0.102 0.001-0.223 0.002-0.343 0.002-17.532 0-31.744-14.212-31.744-31.744 0-0.121 0.001-0.241 0.002-0.362v-124.227l-267.605 267.605c-5.928 7.486-15.016 12.245-25.216 12.245-17.72 0-32.085-14.365-32.085-32.085 0-10.2 4.759-19.288 12.178-25.165l267.672-267.656h-123.904c-16.241-1.731-28.78-15.358-28.78-31.915s12.54-30.184 28.64-31.902l201.527-0.012c0 0 0 0 0 0 17.72 0 32.085 14.365 32.085 32.085 0 0 0 0 0 0v201.387c0 0.002 0 0.005 0 0.007 0 17.532-14.212 31.744-31.744 31.744-0.24 0-0.479-0.003-0.718-0.008z" />
<glyph unicode="&#xe92c;" glyph-name="bbb-settings" d="M1004.544 493.739c-1.185 12.647-9.554 23.075-20.94 27.235l-126.516 44.786c-5.845 17.315-11.846 31.642-18.701 45.471l58.295 118.71c1.902 3.978 3.014 8.647 3.014 13.576 0 7.845-2.816 15.033-7.491 20.607-19.794 23.736-41.027 44.969-64.021 64.161-6.317 5.278-13.504 8.094-21.35 8.094-4.928 0-9.597-1.111-13.77-3.097l-119.955-57.602c-11.707 5.903-26.034 11.905-40.791 16.984l-47.273 127.059c-4.232 11.609-14.66 19.977-27.179 21.153-13.835 1.32-29.763 2.068-45.867 2.068s-32.032-0.747-47.753-2.209c-10.632-1.034-21.060-9.403-25.221-20.788l-44.786-126.516c-17.315-5.845-31.642-11.846-45.471-18.701l-118.71 58.295c-3.978 1.902-8.647 3.014-13.576 3.014-7.845 0-15.033-2.816-20.607-7.491-23.736-19.794-44.969-41.027-64.161-64.021-5.278-6.317-8.094-13.504-8.094-21.35 0-4.928 1.111-9.597 3.097-13.77l57.602-120.297c-5.903-11.707-11.905-26.034-16.984-40.791l-127.059-47.273c-11.609-4.232-19.977-14.66-21.153-27.179-0.010-15.147-2.399-30.507-2.399-45.867s0-30.72 2.389-45.739c1.185-12.647 9.554-23.075 20.94-27.235l126.516-44.786c5.845-17.315 11.846-31.642 18.701-45.471l-58.295-118.71c-1.902-3.978-3.014-8.647-3.014-13.576 0-7.845 2.816-15.033 7.491-20.607 19.794-23.736 41.027-44.969 64.021-64.161 6.285-5.314 13.459-8.154 21.297-8.154 4.952 0 9.64 1.134 13.817 3.157l120.643 57.261c11.707-5.903 26.034-11.905 40.791-16.984l47.273-127.059c4.232-11.609 14.66-19.977 27.179-21.153 15.147-0.010 30.507-2.399 45.867-2.399s30.72 0 45.739 2.389c12.647 1.185 23.075 9.554 27.235 20.94l44.786 126.516c17.315 5.845 31.642 11.846 45.471 18.701l118.71-58.295c3.988-1.94 8.676-3.074 13.628-3.074 7.838 0 15.013 2.841 20.551 7.549 23.741 19.798 44.973 41.030 64.165 64.024 5.278 6.317 8.094 13.504 8.094 21.35 0 4.928-1.111 9.597-3.097 13.77l-57.944 120.638c5.903 11.707 11.905 26.034 16.984 40.791l127.059 47.273c11.609 4.232 19.977 14.66 21.153 27.179 0.010 15.147 2.399 30.507 2.399 45.867s-1.365 30.72-2.731 45.739zM942.421 428.203l-121.515-43.349c-9.605-3.519-16.91-11.273-19.741-20.938-6.819-23.47-15.3-43.621-25.758-62.527-1.401-2.676-2.683-7.669-2.683-12.962s1.281-10.286 3.551-14.686l55.212-116.215q-13.312-14.677-27.989-27.989l-117.419 55.296c-4.221 2.185-9.214 3.467-14.507 3.467s-10.286-1.281-14.686-3.551c-17.181-9.59-37.333-18.070-58.451-24.296-12.017-3.425-19.771-10.73-23.219-20.115l-43.42-121.735c-5.913-0.329-12.834-0.516-19.797-0.516s-13.884 0.187-20.755 0.557l-42.391 121.474c-3.519 9.605-11.273 16.91-20.938 19.741-23.47 6.819-43.621 15.3-62.527 25.758-2.676 1.401-7.669 2.683-12.962 2.683s-10.286-1.281-14.686-3.551l-116.215-55.212q-14.677 13.312-27.989 27.989l55.296 116.395c2.185 4.221 3.467 9.214 3.467 14.507s-1.281 10.286-3.551 14.686c-9.59 17.181-18.070 37.333-24.296 58.451-3.425 12.017-10.73 19.771-20.115 23.219l-122.759 43.42q0 9.899 0 19.797t0 19.797l121.515 43.349c9.605 3.519 16.91 11.273 19.741 20.938 6.819 23.47 15.3 43.621 25.758 62.527 1.401 2.676 2.683 7.669 2.683 12.962s-1.281 10.286-3.551 14.686l-54.188 116.215q13.312 14.677 27.989 27.989l116.395-55.296c4.221-2.185 9.214-3.467 14.507-3.467s10.286 1.281 14.686 3.551c17.181 9.59 37.333 18.070 58.451 24.296 12.017 3.425 19.771 10.73 23.219 20.115l43.42 121.735c5.913 0.329 12.834 0.516 19.797 0.516s13.884-0.187 20.755-0.557l42.391-121.474c3.519-9.605 11.273-16.91 20.938-19.741 23.47-6.819 43.621-15.3 62.527-25.758 2.676-1.401 7.669-2.683 12.962-2.683s10.286 1.281 14.686 3.551l116.215 55.212q14.677-13.312 27.989-27.989l-55.296-116.053c-2.185-4.221-3.467-9.214-3.467-14.507s1.281-10.286 3.551-14.686c9.59-17.181 18.070-37.333 24.296-58.451 3.425-12.017 10.73-19.771 20.115-23.219l121.735-43.42q0-9.899 0-19.797t1.024-20.139zM512 677.717c-126.681 0-229.376-102.695-229.376-229.376s102.695-229.376 229.376-229.376c126.561 0 229.181 102.501 229.376 229.016 0 0.019 0 0.019 0 0.019 0 126.749-102.653 229.523-229.357 229.717zM512 282.453c-91.429 0-165.547 74.118-165.547 165.547s74.118 165.547 165.547 165.547c91.429 0 165.547-74.118 165.547-165.547-0.194-91.351-74.196-165.353-165.528-165.547z" />
<glyph unicode="&#xe92d;" glyph-name="bbb_thumbs_down" d="M860.843 769.877c-38.056 101.947-134.604 173.229-247.8 173.229-3.364 0-6.713-0.063-10.046-0.188l-318.666 0.014c-55.948-1.48-100.92-46.452-102.397-102.261 0.916-23.003 9.4-43.723 22.996-60.032-28.761-17.777-47.732-48.827-48.597-84.366 0.332-23.516 8.645-44.902 22.33-61.75-27.212-18.451-44.756-49.228-44.86-84.108 1.189-36.031 20.494-67.289 49.053-85.094-4.053-6.372-8.054-13.333-11.242-20.727-5.061-11.614-7.851-24.346-7.851-37.729 0-26.585 11.012-50.598 28.723-67.726 21.76-21.152 51.464-34.178 84.211-34.178 0.764 0 1.526 0.007 2.286 0.021l209.123-0.002c-23.848-69.005-41.242-149.327-48.852-232.478-0.724-7.896-0.966-12.337-0.966-16.835 0-27.591 9.093-53.058 24.447-73.568 14.222-16.41 35.187-27.175 58.68-28.006 2.284-0.156 4.785-0.243 7.306-0.243 54.169 0 98.981 40.057 106.432 92.166 21.913 71.23 65.945 194.11 91.203 223.124 37.547 42.325 53.589 59.733 60.075 68.267l6.144 5.803c94.891 92.16 126.293 284.331 68.267 426.667zM750.933 384.171v0c-12.288-10.923-32.085-34.133-68.267-75.776-42.325-47.787-97.621-224.597-102.4-246.101-12.629-49.835-42.325-49.835-50.517-48.811-0.458-0.031-0.992-0.048-1.531-0.048-6.918 0-13.159 2.898-17.574 7.547-6.082 9.762-9.682 21.599-9.682 34.277 0 2.72 0.166 5.401 0.487 8.034 8.924 90.588 28.096 174.037 56.528 253.068 2.541-1.438 5.47 6.13 5.47 14.383 0 18.851-15.282 34.133-34.133 34.133-1.169 0-2.325-0.059-3.464-0.174l-247.323 0.012c-0.973-0.056-2.111-0.087-3.257-0.087-15.395 0-29.452 5.726-40.159 15.163-7.171 6.236-11.72 15.458-11.72 25.743 0 4.993 1.072 9.735 2.998 14.009 6.363 15.856 21.298 27.242 39.027 28.449 16.729 0.008 30.177 13.456 30.177 30.045s-13.448 30.037-30.037 30.037c-6.681-0.059-13.154-0.802-19.398-2.162-2.509 1.379-6.141 2.128-9.943 2.162-22.956 1.214-41.278 19.418-42.674 42.198 1.379 22.924 19.522 41.067 42.193 42.446 1.306-0.164 2.667-0.261 4.052-0.261s2.746 0.097 4.079 0.284c2.044-0.203 4.602-0.308 7.185-0.308s5.141 0.105 7.671 0.312c16.257-0.022 29.705 13.426 29.705 30.015s-13.448 30.037-30.037 30.037c-22.985 1.603-41.135 20.227-41.982 43.269 1.365 22.768 19.33 40.851 41.842 42.398 3.353 0.119 6.388 0.735 9.216 1.779 4.793-1.082 10.564-1.7 16.466-1.771 16.648-0.001 30.096 13.448 30.096 30.037s-13.448 30.037-30.037 30.037c-22.397 1.703-40.126 19.55-41.635 41.846 1.36 22.826 19.325 40.909 41.837 42.456l318.945 0.008c2.66 0.124 5.779 0.194 8.914 0.194 88.71 0 164.246-56.401 192.706-135.3 48.578-118.163 22.978-287.806-53.822-363.582z" />
<glyph unicode="&#xe92e;" glyph-name="bbb_thumbs_up" d="M867.669 199.851c-0.334 23.391-8.647 44.777-22.332 61.625 27.725 17.923 45.685 48.709 45.685 83.69 0 36.95-20.038 69.219-49.84 86.535 4.197 6.020 8.399 12.514 11.871 19.438 5.075 11.539 7.866 24.27 7.866 37.654 0 26.585-11.012 50.598-28.723 67.726-21.76 21.152-51.464 34.178-84.211 34.178-0.764 0-1.526-0.007-2.286-0.021l-209.465 0.002c23.845 69.004 41.239 149.325 48.851 232.476 0.732 7.928 0.978 12.402 0.978 16.934 0 27.561-9.099 52.997-24.457 73.467-14.122 16.672-35.093 27.678-58.655 28.691-2.312 0.158-4.812 0.245-7.333 0.245-54.169 0-98.981-40.057-106.432-92.166-21.913-71.23-65.945-194.11-91.545-222.782-37.205-43.008-53.248-60.075-58.709-66.901l-6.144-5.803c-95.915-93.867-126.635-286.037-68.267-428.373 38.053-101.953 134.604-173.242 247.805-173.242 3.482 0 6.949 0.067 10.398 0.201l318.309-0.015c55.948 1.48 100.92 46.452 102.397 102.261-1.408 23.032-10.343 43.602-24.333 59.65 28.733 17.819 47.703 48.868 48.568 84.407zM739.328 12.8h-318.805c-2.66-0.124-5.779-0.194-8.914-0.194-88.71 0-164.246 56.401-192.706 135.3-48.236 118.505-22.636 288.147 54.164 363.923v0c12.288 10.923 32.085 34.133 68.267 75.776 42.325 47.787 97.621 224.597 102.4 246.101 12.629 49.835 42.325 49.835 50.517 48.811 0.458 0.031 0.992 0.048 1.531 0.048 6.918 0 13.159-2.898 17.574-7.547 6.082-9.762 9.682-21.599 9.682-34.277 0-2.72-0.166-5.401-0.487-8.034-8.92-90.586-28.093-174.036-56.528-253.066-2.541 1.436-5.47-6.132-5.47-14.385 0-18.851 15.282-34.133 34.133-34.133 1.169 0 2.325 0.059 3.464 0.174l244.251-0.012c0.536 0.017 1.166 0.027 1.798 0.027 16.252 0 31.014-6.381 41.917-16.775 7.213-6.27 11.762-15.493 11.762-25.778 0-4.993-1.072-9.735-2.998-14.009-6.461-15.716-21.37-26.962-39.032-28.108-16.723-0.007-30.172-13.455-30.172-30.044s13.448-30.037 30.037-30.037c6.682 0.062 13.155 0.805 19.399 2.162 2.507-1.379 6.139-2.128 9.941-2.162 23.39 0 42.339-18.95 42.339-42.325s-18.95-42.325-42.325-42.325c-1.179 0.17-2.541 0.267-3.925 0.267s-2.746-0.097-4.079-0.284c-2.044 0.201-4.602 0.306-7.185 0.306s-5.141-0.105-7.671-0.31c-16.257 0.022-29.705-13.426-29.705-30.016s13.448-30.037 30.037-30.037c23.376 0 42.325-18.95 42.325-42.325s-18.95-42.325-42.325-42.325c-3.214-0.117-6.249-0.733-9.078-1.772-4.79 1.082-10.561 1.7-16.463 1.772-16.648 0.001-30.096-13.448-30.096-30.037s13.448-30.037 30.037-30.037c21.674-2.022 38.506-20.122 38.506-42.153 0-21.063-15.386-38.533-35.532-41.783z" />
<glyph unicode="&#xe92f;" glyph-name="bbb_file" d="M866.645 716.629l-225.963 226.304h-425.643c-44.977-0.193-81.386-36.602-81.579-81.56v-826.728c0.193-44.977 36.602-81.386 81.56-81.579h593.939c44.977 0.193 81.386 36.602 81.579 81.56v624.317c-0.040 22.521-9.161 42.903-23.896 57.688zM658.091 840.533l130.048-130.048h-108.203c-12.065 0-21.845 9.78-21.845 21.845v108.203zM808.96 13.141h-593.92c-12.065 0-21.845 9.78-21.845 21.845v826.368c0.192 11.917 9.898 21.504 21.843 21.504 0.001 0 0.002 0 0.003 0h383.317v-150.869c0.193-44.977 36.602-81.386 81.56-81.579h150.888v-614.4c0.015-0.306 0.024-0.664 0.024-1.024 0-12.065-9.78-21.845-21.845-21.845-0.008 0-0.017 0-0.025 0z" />
<glyph unicode="&#xe930;" glyph-name="bbb_upload" d="M512 34.645c-14.327 0-25.941 11.614-25.941 25.941v389.803l-98.304-98.304c-4.741-4.666-11.25-7.547-18.432-7.547s-13.691 2.881-18.435 7.55c-4.744 4.7-7.684 11.221-7.684 18.429s2.94 13.729 7.685 18.43l143.021 143.021c4.755 4.747 11.319 7.683 18.569 7.683 3.516 0 6.871-0.691 9.937-1.943 3.145-1.37 5.978-3.328 8.355-5.736l143.022-143.022c4.748-4.703 7.687-11.224 7.687-18.432s-2.94-13.729-7.685-18.43c-4.778-4.589-11.276-7.414-18.434-7.414s-13.656 2.825-18.441 7.421l-98.295 98.295v-389.461c0.002-0.104 0.002-0.227 0.002-0.35 0-14.327-11.614-25.941-25.941-25.941-0.241 0-0.481 0.003-0.72 0.010zM657.749 229.888c-12.63 0-22.869 10.239-22.869 22.869s10.239 22.869 22.869 22.869h159.061c0.387-0.004 0.844-0.006 1.302-0.006 74.49 0 135.711 56.813 142.696 129.472 0.286 3.646 0.424 7.218 0.424 10.821 0 36.75-14.305 70.159-37.65 94.962-25.553 27.403-61.932 44.556-102.318 44.644h-39.611v39.936s0 3.413 0 5.12c-0.247 117.445-95.512 212.558-212.992 212.558-83.419 0-155.637-47.956-190.589-117.802l-17.624-37.071-34.133 17.749c-12.676 6.879-27.754 10.923-43.777 10.923-0.090 0-0.18 0-0.269 0-45.186-2.029-81.937-35.734-88.666-79.347l-3.139-19.298-19.797-7.509c-57.253-19.371-99.398-68.696-108.1-128.845-0.741-6.143-1.105-12.26-1.105-18.461 0-40.532 15.561-77.43 41.036-105.045 28.605-32.253 70.226-52.602 116.604-52.8h145.785c12.63 0 22.869-10.239 22.869-22.869s-10.239-22.869-22.869-22.869h-146.091c-111.358 0.070-201.604 90.36-201.604 201.728 0 86.879 54.922 160.931 131.94 189.33 14.244 63.404 69.062 110.136 134.835 110.361 1.013 0.026 2.177 0.040 3.344 0.040 18.748 0 36.613-3.779 52.875-10.616 42.766 85.073 129.654 142.020 229.843 142.020 142.893 0 258.731-115.838 258.731-258.731 0-0.131 0-0.262 0-0.392v0.020c97.927-5.722 175.175-86.534 175.175-185.388 0-101.136-80.855-183.387-181.451-185.638l-164.732-0.004z" />
<glyph unicode="&#xe931;" glyph-name="bbb-mute" d="M897.365 448l102.4 102.4c3.907 4.732 6.276 10.86 6.276 17.54 0 15.27-12.378 27.648-27.648 27.648-6.681 0-12.808-2.369-17.587-6.314l-102.353-102.362-102.4 102.4c-4.949 4.712-11.661 7.611-19.050 7.611-15.27 0-27.648-12.378-27.648-27.648 0-7.305 2.833-13.947 7.459-18.89l102.386-102.385-102.4-102.4c-6.191-5.109-10.108-12.783-10.108-21.372 0-15.27 12.378-27.648 27.648-27.648 8.589 0 16.263 3.916 21.334 10.061l102.438 102.447 102.4-102.4c4.425-3.139 9.935-5.018 15.884-5.018 15.27 0 27.648 12.378 27.648 27.648 0 6.121-1.989 11.778-5.357 16.359zM558.421-7.68c-7.613 0.054-14.487 3.176-19.454 8.19l-291.501 291.501h-138.581c-50.71 0-91.819 41.109-91.819 91.819v128.341c0 50.71 41.109 91.819 91.819 91.819h138.581l291.499 291.499c4.994 4.948 11.868 8.005 19.457 8.005 15.204 0 27.541-12.272 27.647-27.451v-856.074c0-15.27-12.378-27.648-27.648-27.648zM108.885 550.4c-20.171 0-36.523-16.352-36.523-36.523v-128.341c-0.102-1.023-0.16-2.212-0.16-3.414 0-20.171 16.352-36.523 36.523-36.523 0.056 0 0.112 0 0.169 0h149.837c7.613-0.054 14.487-3.176 19.454-8.19l252.589-252.589v724.651l-252.587-252.587c-4.969-5.016-11.843-8.138-19.446-8.192h-149.856z" />
<glyph unicode="&#xe932;" glyph-name="bbb-unmute" d="M558.421-7.68c-7.613 0.054-14.487 3.176-19.454 8.19l-291.501 291.501h-138.581c-50.71 0-91.819 41.109-91.819 91.819v128.341c0 50.71 41.109 91.819 91.819 91.819h138.581l291.499 291.499c4.994 4.948 11.868 8.005 19.457 8.005 15.204 0 27.541-12.272 27.647-27.451v-856.074c0-15.27-12.378-27.648-27.648-27.648zM108.885 550.4c-20.171 0-36.523-16.352-36.523-36.523v-128.341c-0.102-1.023-0.16-2.212-0.16-3.414 0-20.171 16.352-36.523 36.523-36.523 0.056 0 0.112 0 0.169 0h149.837c7.613-0.054 14.487-3.176 19.454-8.19l252.589-252.589v724.651l-252.587-252.587c-4.969-5.016-11.843-8.138-19.446-8.192h-149.856z" />
<glyph unicode="&#x1f554;" glyph-name="bbb-video" d="M673.451 153.088h-624.299c-0.101-0.001-0.221-0.002-0.341-0.002-17.532 0-31.744 14.212-31.744 31.744 0 0.001 0 0.001 0 0.002v526.336c-0.001 0.102-0.002 0.223-0.002 0.343 0 17.532 14.212 31.744 31.744 31.744 0.121 0 0.241-0.001 0.362-0.002h624.622c0.102 0.001 0.223 0.002 0.343 0.002 17.532 0 31.744-14.212 31.744-31.744 0-0.121-0.001-0.241-0.002-0.362v-526.318c0-0.002 0-0.005 0-0.007 0-17.532-14.212-31.744-31.744-31.744-0.24 0-0.479 0.003-0.718 0.008zM80.896 216.917h560.811v462.165h-560.811v-462.165zM974.848 216.235c-0.005 0-0.012 0-0.018 0-4.688 0-9.141 1.005-13.155 2.812l-236.683 105.049c-11.353 5.109-19.115 16.321-19.115 29.347 0 0.003 0 0.006 0 0.008v168.277c0.278 12.759 7.962 23.657 18.912 28.59l237.088 105.895c3.817 1.73 8.276 2.739 12.971 2.739 17.72 0 32.085-14.365 32.085-32.085 0-0.003 0-0.006 0-0.008v-378.88c0-0.001 0-0.001 0-0.002 0-17.532-14.212-31.744-31.744-31.744-0.12 0-0.24 0.001-0.36 0.002zM770.048 374.272l173.056-76.8v280.235l-173.056-76.8v-126.976z" />
</font>
</defs>
</svg>
