<?xml version="1.0" standalone="no"?>
<!DOCTYPE svg PUBLIC "-//W3C//DTD SVG 1.1//EN" "http://www.w3.org/Graphics/SVG/1.1/DTD/svg11.dtd" >
<!--
2016-12-26: Created with FontForge (http://fontforge.org)
-->
<svg xmlns="http://www.w3.org/2000/svg" xmlns:xlink="http://www.w3.org/1999/xlink" version="1.1">
<metadata>
Created by FontForge 20170731 at Wed Jun 06 13:06:31 2018
 By BigBlueButton Inc.
Copyright (c) 2016-2017, BigBlueButton Inc.
</metadata>
<defs>
<font id="BigBlueButton" horiz-adv-x="1024" >
  <font-face 
    font-family="BigBlueButton"
    font-weight="400"
    font-stretch="normal"
    units-per-em="1024"
    panose-1="2 0 5 3 0 0 0 0 0 0"
    ascent="819"
    descent="-205"
    bbox="-3 -208 1191 826"
    underline-thickness="51"
    underline-position="-102"
    unicode-range="U+0020-E952"
  />
<missing-glyph horiz-adv-x="1048" 
 />
    <glyph glyph-name=".notdef" horiz-adv-x="1048" 
 />
    <glyph glyph-name="space" unicode=" " horiz-adv-x="524" 
 />
    <glyph glyph-name="logout" unicode="&#xe900;" 
d="M160 -117h84c19 0 30 -14 30 -32c0 -16 -7 -34 -30 -34h-84c-83 0 -150 66 -150 150v670c0 83 67 150 150 150h84c16 0 30 -17 30 -32c0 -16 -9 -32 -30 -32h-84c-47 0 -87 -40 -87 -86v-667c0 -47 40 -87 87 -87zM676 -9c-6 -5 -14 -8 -22 -8c-7 0 -15 3 -21 8
s-8 12 -8 19c0 9 5 20 12 27l233 233h-625c-22 0 -35 12 -35 30s13 30 35 30h625l-233 233c-7 7 -11 16 -11 25s4 17 11 23c6 5 14 8 21 8c8 0 16 -3 22 -9l310 -310c-30 -30 -314 -309 -314 -309z" />
    <glyph glyph-name="application" unicode="&#xe901;" 
d="M952 679c31 0 55 -24 55 -55v-634c0 -31 -24 -55 -55 -55h-876c-34 0 -58 24 -58 55v634c3 31 27 55 58 55h876zM946 618h-863v-82h863v82zM83 0h863v471h-863v-471zM246 577c0 13 11 24 24 24s24 -11 24 -24s-11 -24 -24 -24s-24 11 -24 24zM148 577c0 13 11 24 24 24
s24 -11 24 -24s-11 -24 -24 -24s-24 11 -24 24zM342 577c0 13 11 24 24 24s24 -11 24 -24s-11 -24 -24 -24s-24 11 -24 24z" />
    <glyph glyph-name="more" unicode="&#xe902;" 
d="M17 307c0 60 49 109 109 109c61 0 110 -49 110 -109s-49 -109 -110 -109c-60 0 -109 49 -109 109zM403 307c0 60 49 109 109 109s109 -49 109 -109s-49 -109 -109 -109s-109 49 -109 109zM788 307c0 60 49 109 110 109c60 0 109 -49 109 -109s-49 -109 -109 -109
c-61 0 -110 49 -110 109z" />
    <glyph glyph-name="promote" unicode="&#xe903;" horiz-adv-x="1028" 
d="M993 601c10 -8 11 -18 11 -28v-523c0 -14 -5 -20 -11 -25c-10 -8 -14 -8 -17 -7l-529 129c0 -65 -58 -110 -119 -110c-65 0 -120 55 -120 120v44l-128 31v-9c0 -15 -18 -27 -32 -27c-17 0 -31 12 -31 29v184c0 14 17 28 31 28c18 0 32 -11 32 -28v-17l886 215
c7 2 18 1 27 -6zM331 92c20 0 55 7 55 58l-113 27v-30c0 -31 27 -55 58 -55zM944 82v450l-864 -211v-31c287 -69 864 -208 864 -208z" />
    <glyph glyph-name="video_off" unicode="&#xe904;" 
d="M963 78l-236 106c-10 5 -20 17 -20 31v167c0 14 6 21 20 27l236 106c4 2 9 3 13 3c16 0 31 -14 31 -34v-378c0 -18 -15 -31 -31 -31c-4 0 -9 1 -13 3zM945 153v280l-174 -78v-123zM915 662l-212 -208v-410c0 -17 -14 -31 -31 -31h-409s-110 -110 -113 -112
c-5 -4 -12 -6 -18 -6c-10 0 -20 5 -26 13c-4 5 -6 11 -6 17c0 9 5 19 13 27l61 61h-123c-17 0 -31 14 -31 31v526c0 17 14 30 31 30h625c17 0 31 -13 31 -30v-24l160 160c5 5 13 8 20 8c8 0 17 -4 22 -9c8 -8 13 -17 13 -26c0 -6 -2 -12 -7 -17zM81 74h155l406 407v58h-561
v-465zM642 74v318l-314 -318h314z" />
    <glyph glyph-name="user" unicode="&#xe905;" 
d="M860 85c79 -55 123 -143 123 -239c0 -17 -14 -31 -31 -31h-880c-17 0 -31 14 -31 31c0 96 37 179 123 239c115 79 198 86 348 86s263 -28 348 -86zM106 -123v-4h812c-10 65 -44 120 -95 158c-75 51 -171 75 -311 75s-236 -21 -311 -72c-55 -38 -88 -96 -95 -157zM512 239
c-147 0 -263 115 -263 273c0 151 112 290 263 290c154 0 263 -136 263 -290c0 -153 -120 -273 -263 -273zM307 515c0 -105 89 -211 202 -211s201 85 201 211c0 118 -78 222 -198 222c-114 0 -205 -110 -205 -222z" />
    <glyph glyph-name="up_arrow" unicode="&#xe906;" 
d="M659 502c8 -8 12 -18 12 -29c0 -9 -3 -18 -10 -25c-8 -8 -18 -13 -29 -13c-10 0 -20 4 -28 12l-221 222v-816c0 -20 -20 -39 -40 -39s-39 19 -39 39v816l-222 -222c-8 -8 -17 -11 -27 -11s-20 4 -28 11c-8 8 -12 17 -12 27s4 20 12 28l290 286c8 8 17 13 27 13
s20 -5 28 -13z" />
    <glyph glyph-name="undecided" unicode="&#xe907;" 
d="M512 802c273 0 495 -222 495 -495s-222 -495 -495 -495s-495 222 -495 495s222 495 495 495zM512 -123c239 0 430 191 430 430s-191 430 -430 430s-430 -191 -430 -430s191 -430 430 -430zM297 430c0 36 29 65 65 65s65 -29 65 -65s-29 -65 -65 -65s-65 29 -65 65z
M597 430c0 36 29 65 65 65s65 -29 65 -65s-29 -65 -65 -65s-65 29 -65 65zM795 120c0 -20 -17 -35 -34 -35h-498c-17 0 -31 15 -31 35s14 33 31 33h502c17 0 30 -16 30 -33z" />
    <glyph glyph-name="time" unicode="&#xe908;" 
d="M512 802c273 0 495 -222 495 -495s-222 -495 -495 -495s-495 222 -495 495s222 495 495 495zM512 -120c236 0 427 191 427 427s-191 427 -427 427s-427 -191 -427 -427s191 -427 427 -427zM512 580c17 0 31 -12 31 -34v-239c0 -10 -4 -17 -11 -24l-208 -205
c-7 -7 -16 -10 -24 -10s-17 3 -24 10s-10 16 -10 24s3 17 10 24l202 198v222c0 20 14 34 34 34z" />
    <glyph glyph-name="sad" unicode="&#xe909;" 
d="M771 20c-5 -3 -10 -4 -15 -4c-11 0 -24 6 -29 15c-46 77 -130 129 -218 129c-89 0 -174 -51 -215 -129c-4 -7 -17 -13 -29 -13c-7 0 -13 2 -19 6c-7 4 -13 15 -13 26c0 4 1 7 3 11c55 99 160 164 273 164c112 0 218 -65 276 -164c2 -3 4 -8 4 -13c0 -9 -5 -20 -18 -28z
M512 802c273 0 495 -222 495 -495s-222 -495 -495 -495s-495 222 -495 495s222 495 495 495zM512 -123c239 0 430 193 430 430s-191 430 -430 430s-430 -191 -430 -430s191 -430 430 -430zM294 430c0 36 29 65 64 65c36 0 65 -29 65 -65s-29 -65 -65 -65
c-35 0 -64 29 -64 65zM591 430c0 36 29 65 64 65c36 0 65 -29 65 -65s-29 -65 -65 -65c-35 0 -64 29 -64 65z" />
    <glyph glyph-name="right_arrow" unicode="&#xe90a;" 
d="M58 -205c-24 0 -41 17 -41 41c0 10 3 20 10 27l396 449l-396 439c-8 8 -11 16 -11 25c0 11 6 24 15 33c8 8 16 11 25 11c11 0 24 -6 33 -15l443 -493l-443 -503c-10 -10 -21 -14 -31 -14z" />
    <glyph glyph-name="presentation" unicode="&#xe90b;" 
d="M973 802c20 0 34 -14 37 -34v-662c0 -20 -14 -35 -34 -35h-375l222 -201c8 -7 17 -20 17 -33c0 -6 -2 -12 -7 -18s-14 -8 -23 -8c-12 0 -24 4 -32 11l-232 209v-190c0 -19 -11 -36 -32 -36c-17 0 -33 16 -33 36v190c-20 -19 -196 -174 -236 -210c-6 -5 -16 -9 -27 -9
c-9 0 -18 2 -23 9c-4 5 -6 11 -6 17c0 11 5 23 16 32l222 198h-376c-20 0 -34 14 -34 34v666c0 20 14 34 34 34h922zM940 136v427h-858v-427h858zM82 631h858v106h-858v-106z" />
    <glyph glyph-name="listen" unicode="&#xe90c;" 
d="M911 310c62 -44 96 -109 96 -180c0 -123 -99 -229 -225 -229c-14 0 -24 10 -24 24v402c0 14 10 24 24 24c24 0 51 -6 75 -13c-10 170 -140 307 -311 324c-11 1 -21 1 -31 1c-178 0 -332 -135 -348 -315c24 7 51 14 75 14c14 0 24 -11 24 -24v-403c0 -14 -10 -24 -24 -24
c-75 0 -143 34 -184 92c-30 41 -44 88 -44 134c0 71 33 142 95 187c7 219 185 393 403 396c222 -3 399 -184 399 -410zM215 -34v344c-72 -10 -133 -68 -143 -143c-2 -10 -3 -20 -3 -30c0 -81 60 -156 146 -171zM809 -51c75 17 133 71 143 150c2 10 3 20 3 30
c0 81 -60 156 -146 171v-351z" />
    <glyph glyph-name="left_arrow" unicode="&#xe90d;" 
d="M481 -188c-10 0 -20 4 -30 14l-427 486l430 480c7 9 18 13 29 13c10 0 21 -3 29 -10c9 -7 13 -18 13 -29c0 -10 -3 -21 -10 -29l-385 -425l382 -435c7 -8 10 -18 10 -27c0 -10 -4 -21 -13 -28c-7 -7 -18 -10 -28 -10z" />
    <glyph glyph-name="happy" unicode="&#xe90e;" 
d="M512 802c273 0 495 -222 495 -495s-222 -495 -495 -495s-495 222 -495 495s222 495 495 495zM512 -123c239 0 430 191 430 430s-191 430 -430 430s-430 -191 -430 -430s191 -430 430 -430zM294 430c0 36 28 65 64 65s66 -29 66 -65s-30 -65 -66 -65s-64 29 -64 65z
M591 430c0 36 28 65 64 65s66 -29 66 -65s-30 -65 -66 -65s-64 29 -64 65zM509 13h-4c-113 0 -218 65 -273 164c-2 4 -4 10 -4 16c0 11 5 24 17 29c5 2 9 3 14 3c12 0 25 -6 31 -17c44 -79 126 -130 215 -130c92 0 175 51 219 130c4 9 21 17 35 17c5 0 9 -1 13 -3
c9 -6 14 -18 14 -29c0 -6 -1 -11 -4 -16c-58 -99 -160 -164 -273 -164z" />
    <glyph glyph-name="hand" unicode="&#xe90f;" 
d="M829 590c55 0 103 -47 103 -102v-439c0 -130 -106 -234 -236 -234h-191c-96 0 -174 72 -215 137c-75 119 -177 294 -177 294c-12 27 -17 50 -17 68c0 28 11 46 23 58c17 20 42 27 69 27c31 0 53 -26 71 -51l48 -68v321c0 31 10 61 34 85c18 18 42 28 67 28
c13 0 26 -2 39 -8c0 51 48 96 103 96s102 -41 102 -96c10 3 23 7 37 7c55 0 103 -47 103 -102v-28c10 3 23 7 37 7zM860 49v439c0 20 -17 37 -37 37s-38 -17 -38 -37v-178c0 -18 -13 -34 -31 -34c-17 0 -30 17 -30 34v301c0 20 -18 37 -38 37s-45 -16 -45 -37v-243
c0 -16 -15 -27 -29 -27c-17 0 -32 12 -32 27v332c0 20 -17 34 -37 37c-20 0 -38 -17 -38 -37v-332c0 -16 -13 -27 -27 -27c-17 0 -34 10 -34 27v243c0 17 -11 30 -28 37c-3 2 -6 3 -10 3c-9 0 -20 -6 -27 -13c-10 -10 -14 -27 -14 -41v-406c0 -14 -7 -24 -17 -31
c-6 -4 -14 -6 -21 -6c-12 0 -24 5 -30 16l-96 140c-7 10 -13 21 -24 21c-15 0 -22 -8 -22 -21c0 -10 4 -23 12 -37c0 0 99 -171 178 -290c31 -48 92 -106 160 -106h191c96 0 164 76 164 172z" />
    <glyph glyph-name="group_chat" unicode="&#xe910;" 
d="M956 -137c2 -8 4 -17 4 -25s-2 -15 -8 -19c-5 -4 -9 -5 -14 -5c-9 0 -19 6 -30 15c-33 25 -65 48 -96 72c-10 -3 -24 -4 -34 -4c-130 0 -232 86 -232 192v6l55 14v-20c0 -75 78 -137 177 -137c15 0 27 4 39 4c7 0 15 -2 23 -7l44 -35l-10 38c0 14 7 24 17 31
c38 24 65 63 65 107c0 76 -71 120 -161 135l38 51h3c102 -20 175 -97 175 -186c0 -58 -31 -110 -79 -141c8 -29 17 -57 24 -86zM416 802c218 0 393 -144 393 -318s-181 -317 -399 -317h-4c-24 0 -47 4 -71 7h-4l-181 -137c-3 -3 -10 -6 -13 -6c-10 0 -18 7 -18 17l55 170
c0 3 -4 11 -7 14c-89 51 -150 147 -150 249c0 177 177 321 399 321zM416 235c181 0 332 112 332 249s-148 250 -332 250s-331 -113 -331 -250c0 -79 48 -153 120 -191c27 -14 41 -40 41 -71c-2 -14 -5 -27 -10 -38l54 38c14 10 31 17 48 17c20 0 68 -4 78 -4z" />
    <glyph glyph-name="confused" unicode="&#xe911;" 
d="M512 802c273 0 495 -222 495 -495s-222 -495 -495 -495s-495 222 -495 495s222 495 495 495zM512 -120c236 0 427 191 427 427s-191 427 -427 427s-427 -191 -427 -427s191 -427 427 -427zM294 430c0 36 28 65 64 65s66 -29 66 -65s-30 -65 -66 -65s-64 29 -64 65z
M591 430c0 36 28 65 64 65s66 -29 66 -65s-30 -65 -66 -65s-64 29 -64 65zM632 48c-50 0 -106 30 -151 61c-25 17 -48 21 -75 21c-38 0 -75 -21 -102 -45c-7 -5 -16 -7 -24 -7s-16 2 -21 7c-5 7 -7 16 -7 24s2 16 7 21c41 38 92 61 147 61s105 -22 150 -55
c20 -14 51 -27 79 -27c34 0 66 17 86 44c7 7 18 14 28 14c6 0 11 -2 16 -7c7 -7 11 -16 11 -25c0 -8 -3 -16 -8 -23c-36 -44 -79 -64 -136 -64z" />
    <glyph glyph-name="close" unicode="&#xe912;" 
d="M573 307l396 -396c8 -8 13 -20 13 -31s-5 -22 -13 -30s-20 -13 -31 -13s-22 5 -30 13l-396 396l-396 -396c-8 -8 -19 -13 -30 -13s-23 5 -31 13s-13 19 -13 30s5 23 13 31l396 396l-396 396c-7 8 -11 17 -11 27s4 20 11 28c10 10 22 15 34 15c9 0 18 -3 27 -9l396 -396
l396 396c8 8 19 13 30 13s23 -5 31 -13s13 -19 13 -30s-5 -23 -13 -31z" />
    <glyph glyph-name="clear_status" unicode="&#xe913;" 
d="M92 -62h458l37 -68h-532c-20 0 -35 14 -35 34c0 223 203 307 448 307c50 0 94 0 143 -10l-44 -61c-31 0 -65 3 -99 3c-193 0 -356 -48 -376 -205zM469 276c-137 0 -251 116 -251 256c0 145 105 273 251 273c141 0 244 -130 244 -273c0 -138 -107 -256 -244 -256zM284 532
c0 -116 83 -198 185 -198s186 82 186 198c0 98 -76 208 -186 208c-109 0 -185 -100 -185 -208zM829 24l41 -41c6 -6 9 -14 9 -23c0 -8 -2 -15 -9 -22c-6 -6 -15 -9 -22 -9c-9 0 -17 4 -22 9l-41 41l-34 -34c-7 -7 -16 -11 -24 -11s-17 4 -24 11c-6 6 -8 12 -8 19
c0 10 5 19 12 26l34 34l-34 34c-6 7 -9 15 -9 23s3 16 9 21s15 8 23 8s16 -3 21 -8l34 -34l38 38c5 5 14 8 23 8c8 0 17 -3 21 -8c5 -6 7 -15 7 -23s-2 -17 -7 -22zM788 -188c-116 0 -211 96 -211 212s95 211 211 211s212 -95 212 -211s-96 -212 -212 -212zM788 170
c-82 0 -150 -68 -150 -150s68 -150 150 -150s151 68 151 150c0 74 -52 132 -119 147c-10 2 -21 3 -32 3z" />
    <glyph glyph-name="circle" unicode="&#xe914;" 
d="M512 -185c-270 0 -492 222 -492 492s222 491 492 491s491 -221 491 -491s-221 -492 -491 -492zM512 737c-236 0 -431 -194 -431 -430s195 -431 431 -431s430 195 430 431s-194 430 -430 430z" />
    <glyph glyph-name="substract" unicode="&#xe915;" 
d="M727 341c22 0 33 -16 33 -32s-12 -33 -36 -33h-420c-24 0 -36 16 -36 32s12 33 36 33h423zM512 -185c-270 0 -492 222 -492 492s222 491 492 491s491 -221 491 -491s-221 -492 -491 -492zM512 737c-236 0 -431 -194 -431 -430s195 -431 431 -431s430 195 430 431
s-194 430 -430 430z" />
    <glyph glyph-name="circle_close" unicode="&#xe916;" 
d="M556 312l133 -131c7 -7 9 -14 9 -21c0 -17 -16 -33 -33 -33c-7 0 -15 2 -22 9l-133 130l-121 -130c-7 -7 -15 -10 -22 -10c-17 0 -31 16 -31 33c0 7 2 15 9 22l119 131l-119 123c-5 5 -7 12 -7 18c0 17 17 34 34 34c6 0 12 -3 17 -8l121 -124l123 132c5 5 11 8 17 8
c16 0 33 -18 33 -35c0 -6 -2 -12 -7 -17zM512 -185c-270 0 -492 222 -492 492s222 491 492 491s491 -221 491 -491s-221 -492 -491 -492zM512 737c-236 0 -431 -194 -431 -430s195 -431 431 -431s430 195 430 431s-194 430 -430 430z" />
    <glyph glyph-name="add" unicode="&#xe917;" 
d="M727 334c19 0 29 -16 29 -32s-10 -33 -29 -33h-191v-174c0 -22 -17 -33 -33 -33s-32 11 -32 33v174h-167c-23 0 -34 16 -34 32s12 33 34 33h167v185c0 23 16 35 32 35s33 -12 33 -35v-185h191zM512 -185c-270 0 -492 222 -492 492s222 491 492 491s491 -221 491 -491
s-221 -492 -491 -492zM512 737c-236 0 -431 -194 -431 -430s195 -431 431 -431s430 195 430 431s-194 430 -430 430z" />
    <glyph glyph-name="check" unicode="&#xe918;" 
d="M689 481c6 7 14 10 22 10c18 0 37 -17 37 -34c0 -6 -2 -12 -7 -17l-267 -300c-6 -7 -14 -11 -23 -11c-7 0 -15 2 -21 7l-136 120c-10 9 -15 19 -15 28c0 16 14 30 31 30c8 0 17 -3 25 -10l112 -99zM512 -185c-270 0 -492 222 -492 492s222 492 492 492s492 -222 492 -492
s-222 -492 -492 -492zM512 737c-236 0 -430 -194 -430 -430s194 -430 430 -430s430 194 430 430s-194 430 -430 430z" />
    <glyph glyph-name="chat" unicode="&#xe919;" 
d="M512 737c-246 0 -444 -154 -444 -345c0 -102 62 -197 164 -262c22 -15 42 -41 42 -70c0 -3 -1 -6 -1 -9c-1 -7 -3 -17 -3 -17l-24 -75l116 89c14 10 34 17 51 17c31 0 61 -11 92 -11h7c246 0 444 154 444 342s-198 341 -444 341zM512 805c283 0 512 -191 512 -416
s-229 -410 -512 -410h-7c-31 0 -61 4 -92 11c-77 -59 -158 -117 -236 -175c-3 -3 -10 -6 -17 -6c-14 0 -23 10 -23 24l68 218c3 9 -6 21 -10 24c-118 77 -195 191 -195 321c0 225 229 409 512 409z" />
    <glyph glyph-name="audio_on" unicode="&#xe91a;" 
d="M742 -94c-25 0 -62 11 -83 26c-173 115 -407 349 -522 522c-14 21 -25 59 -25 84c0 35 20 83 44 108l18 18c25 24 73 44 108 44s83 -20 108 -44l28 -28c25 -25 44 -73 44 -108c0 -25 -11 -63 -25 -84c54 -64 148 -158 212 -212c21 14 58 24 84 24c34 0 82 -20 107 -44
l28 -28c24 -25 44 -73 44 -108s-20 -83 -44 -108l-18 -18c-25 -24 -73 -44 -108 -44zM281 640c-19 0 -46 -13 -59 -26l-17 -17c-14 -14 -25 -40 -25 -59c0 -14 6 -34 14 -46c110 -167 336 -393 503 -504c12 -8 32 -14 46 -14c19 0 46 11 60 25l18 18c13 13 24 40 24 59
s-12 47 -26 60l-28 28c-14 13 -40 24 -59 24s-46 -11 -60 -24c-5 -5 -16 -10 -24 -10c-7 0 -16 4 -22 8c-79 65 -196 182 -261 261c-4 6 -8 15 -8 22c0 8 5 19 10 24c14 12 25 40 25 60c0 19 -11 45 -25 59l-26 26c-13 14 -40 26 -60 26z" />
    <glyph glyph-name="audio_off" unicode="&#xe91b;" 
d="M851 125h-39c-69 0 -135 54 -149 121c-42 3 -109 6 -151 6s-109 -3 -151 -6c-14 -67 -80 -121 -149 -121h-39c-84 0 -153 68 -153 152v26c0 68 55 135 122 149c101 21 267 37 370 37s269 -16 370 -37c67 -14 122 -81 122 -149v-26c0 -84 -69 -152 -153 -152zM512 320
c62 0 124 -3 185 -9c17 -1 30 -16 30 -34c1 -46 38 -84 85 -84h39c47 0 84 38 85 84v26c-1 38 -31 75 -69 83c-97 19 -256 35 -356 35c-99 0 -258 -16 -356 -35c-37 -8 -68 -45 -68 -83v-26c0 -46 38 -84 84 -84h41c47 0 84 38 85 84c0 18 13 33 30 34c61 6 123 9 185 9z
" />
    <glyph glyph-name="line_tool" unicode="&#xe91c;" 
d="M403 14l-58 29l269 538l58 -29zM703 802c60 0 109 -48 109 -109s-48 -110 -109 -110s-109 49 -109 110s49 109 109 109zM703 648c26 0 48 21 48 45s-21 44 -48 44c-24 0 -44 -20 -44 -44s20 -45 44 -45zM321 31c58 0 109 -49 109 -110s-48 -109 -109 -109
s-109 48 -109 109s48 110 109 110zM321 -123c24 0 44 20 44 44c0 25 -20 45 -44 45c-27 0 -48 -21 -48 -45s21 -44 48 -44z" />
    <glyph glyph-name="circle_tool" unicode="&#xe91d;" 
d="M628 -28c99 34 178 110 212 209l61 -24c-44 -116 -136 -205 -252 -246zM113 444c41 116 132 212 245 256l24 -62c-99 -38 -176 -119 -210 -218zM847 420c-34 106 -117 184 -216 222l21 61c119 -44 215 -140 256 -263zM177 181c38 -96 109 -171 205 -205l-24 -62
c-113 41 -201 130 -242 243zM505 801c60 0 110 -47 110 -108c0 -58 -48 -106 -106 -106c-61 0 -110 48 -110 106c0 61 47 108 106 108zM505 652c24 0 45 17 45 44c0 24 -21 44 -45 44s-45 -20 -45 -44s21 -44 45 -44zM505 27c60 0 110 -48 110 -109
c0 -58 -48 -106 -106 -106c-61 0 -110 48 -110 106c0 61 47 109 106 109zM505 -123c24 0 45 17 45 44c0 24 -21 45 -45 45s-45 -21 -45 -45s21 -44 45 -44zM898 409c58 0 105 -47 105 -105c0 -59 -47 -106 -105 -106s-106 48 -106 106s48 105 106 105zM898 259h4
c22 0 40 22 40 45c0 24 -20 44 -44 44s-45 -20 -45 -44s21 -45 45 -45zM232 300c0 -58 -47 -106 -106 -106c-58 0 -106 48 -106 106s48 106 106 106s106 -48 106 -106zM81 300c0 -24 21 -41 45 -44c24 0 45 20 45 44s-21 45 -45 45s-45 -21 -45 -45z" />
    <glyph glyph-name="triangle_tool" unicode="&#xe91e;" 
d="M210 24l-58 29l269 537l58 -29zM246 -113v65h529v-65h-529zM812 30l-266 531l58 29l266 -531zM512 583c-61 0 -109 49 -109 110c0 60 48 109 109 109s109 -48 109 -109s-48 -110 -109 -110zM512 737c-24 0 -44 -20 -44 -44c0 -25 20 -45 44 -45s44 21 44 45
s-20 44 -44 44zM898 31c60 0 109 -49 109 -110s-48 -109 -109 -109s-110 48 -110 109s49 110 110 110zM898 -123c24 0 44 20 44 44c0 25 -20 45 -44 45s-45 -21 -45 -45s21 -44 45 -44zM126 31c61 0 110 -49 110 -110s-49 -109 -110 -109s-109 48 -109 109s49 110 109 110z
M126 -123c23 0 45 20 45 44c0 26 -23 48 -48 48c-24 0 -45 -23 -45 -48s23 -44 48 -44z" />
    <glyph glyph-name="rectangle_tool" unicode="&#xe91f;" 
d="M864 68v481h64v-481h-64zM290 655v65h444v-65h-444zM99 68v481h65v-481h-65zM290 -109v64h444v-64h-444zM130 802c61 0 112 -52 112 -113s-51 -112 -112 -112s-113 51 -113 112s52 113 113 113zM130 642c27 0 47 20 47 47s-20 48 -47 48s-48 -21 -48 -48s21 -47 48 -47z
M894 37c61 0 113 -51 113 -112s-52 -113 -113 -113s-112 52 -112 113s51 112 112 112zM894 -123c27 0 48 21 48 48s-21 47 -48 47s-47 -20 -47 -47s20 -48 47 -48zM130 37c61 0 112 -51 112 -112s-51 -113 -112 -113s-113 52 -113 113s52 112 113 112zM130 -123
c27 0 47 21 47 48s-20 47 -47 47s-48 -20 -48 -47s21 -48 48 -48zM894 802c61 0 113 -52 113 -113s-52 -112 -113 -112s-112 51 -112 112s51 113 112 113zM894 642c28 0 48 20 48 47s-21 48 -48 48s-47 -21 -47 -48s20 -47 47 -47z" />
    <glyph glyph-name="text_tool" unicode="&#xe920;" 
d="M935 801v-255h-27c-17 82 -41 133 -68 157s-86 37 -171 37h-82v-764c0 -58 10 -92 27 -106c38 -17 79 -28 120 -28v-27h-434v27c65 0 103 15 120 32c17 14 24 54 24 119v747h-86c-82 0 -139 -10 -170 -34s-54 -75 -68 -157h-38l7 252h846z" />
    <glyph glyph-name="plus" unicode="&#xe921;" 
d="M962 345c20 0 40 -19 40 -42c0 -20 -19 -37 -39 -37h-420v-410c0 -20 -18 -37 -38 -37s-37 17 -37 37v413h-413c-20 0 -38 18 -38 38s18 38 38 38h416v413c0 20 18 37 38 37s37 -17 37 -37v-413h416z" />
    <glyph glyph-name="fit_to_width" unicode="&#xe922;" 
d="M993 331c7 -7 11 -15 11 -23s-4 -16 -11 -21l-129 -123c-6 -4 -13 -6 -19 -6c-9 0 -18 4 -26 12c-5 5 -7 12 -7 19s2 14 7 19l75 68h-764l68 -65c8 -6 13 -16 13 -26c0 -6 -2 -12 -6 -18c-6 -8 -16 -13 -26 -13c-7 0 -13 2 -19 6c-3 3 -129 123 -129 123
c-7 7 -11 15 -11 23s4 16 11 21l129 123c6 4 13 6 19 6c9 0 18 -4 26 -12c5 -5 7 -12 7 -19s-2 -14 -7 -19l-75 -69h764l-68 66c-8 6 -13 16 -13 26c0 6 2 12 6 18c6 8 16 13 26 13c7 0 13 -2 19 -6c3 -3 129 -123 129 -123z" />
    <glyph glyph-name="applause" unicode="&#xe923;" 
d="M1004 368c-7 -20 -21 -33 -38 -47c20 -13 29 -35 29 -58c0 -32 -17 -65 -46 -82l-17 -11c16 -16 25 -39 25 -62c0 -30 -15 -61 -46 -77l-324 -164c-34 -17 -75 -28 -113 -28c-82 0 -160 48 -204 116c-38 52 -61 120 -61 187c0 62 20 122 67 168c79 75 144 229 144 229
c11 23 41 51 60 54c5 1 9 1 14 1c10 0 19 -2 29 -9c-5 5 -7 10 -7 16s2 13 6 20l28 51c3 6 4 11 4 17c0 11 -5 22 -15 28c-4 3 -10 4 -15 4c-10 0 -20 -5 -26 -15l-140 -235c-6 -11 -15 -15 -23 -15c-14 0 -28 13 -28 28c0 5 1 9 4 14l102 171c4 6 5 12 5 17
c0 16 -15 27 -31 27c-12 0 -25 -6 -32 -20l-171 -290c-7 -10 -20 -15 -33 -15c-18 0 -35 10 -35 28v123c0 22 -14 44 -26 44h-1c-12 -2 -18 -9 -18 -24c0 -3 0 -6 1 -10c2 -14 15 -89 15 -172c0 -40 -3 -83 -12 -121c-3 -14 -5 -28 -5 -41c0 -68 43 -128 128 -174
c10 -5 14 -14 14 -23c0 -15 -12 -31 -28 -31c-4 0 -9 1 -13 3c-92 50 -156 131 -156 231c0 16 2 31 5 48c7 38 10 77 10 116c0 52 -5 103 -13 154v8c0 24 6 91 65 91c21 0 41 -3 55 -17c20 -20 34 -48 34 -75v-48l133 225c18 27 53 49 88 49c22 0 44 -9 62 -32
c16 22 43 34 70 34c14 0 27 -3 39 -10c27 -17 41 -44 41 -73c0 -12 -2 -24 -7 -36c10 0 21 -3 31 -10c27 -18 41 -46 41 -76c0 -15 -3 -30 -10 -44c-11 -21 -13 -27 -22 -46l117 60c16 9 32 13 47 13c45 0 81 -36 86 -78c11 4 22 6 32 6c48 0 89 -40 89 -88
c0 -8 -2 -16 -4 -24zM543 454l-17 -34l99 51c-4 -1 -7 -2 -11 -2c-16 0 -31 14 -31 30c0 4 1 9 4 13l24 37c2 4 3 8 3 13c0 10 -5 20 -13 28c-5 5 -11 7 -17 7s-12 -2 -17 -7c-7 -7 -16 -13 -26 -13c-4 0 -8 1 -12 3c10 -7 21 -17 24 -31c4 -12 6 -24 6 -37
c0 -21 -5 -41 -16 -58zM898 290l-178 -92c-4 -2 -8 -3 -12 -3c-15 0 -28 15 -28 30c0 9 5 18 16 24l243 123c11 6 16 16 16 25c0 16 -14 32 -31 32c-4 0 -8 -1 -13 -3l-242 -126c-5 -2 -10 -3 -14 -3c-17 0 -29 15 -29 30c0 9 5 18 16 24l177 89c12 6 18 16 18 25
c0 15 -14 29 -32 29c-6 0 -13 -2 -20 -6l-300 -154c-4 -2 -8 -3 -12 -3c-18 0 -36 18 -36 36c0 4 1 8 3 12c0 0 39 60 55 102c4 12 9 28 9 40c0 7 -2 12 -6 15c-2 2 -5 2 -7 2c-6 0 -11 -6 -20 -23c-4 -7 -68 -164 -157 -249c-35 -34 -50 -79 -50 -127
c0 -54 19 -111 50 -156c18 -24 75 -91 160 -91c26 0 55 6 86 22l324 168c11 6 16 15 16 25c0 16 -12 33 -29 33c-4 0 -9 -1 -14 -4l-130 -68c-5 -2 -10 -3 -14 -3c-17 0 -29 15 -29 30c0 9 5 18 16 24l222 113c12 6 16 15 16 25c0 17 -14 36 -30 36c-3 0 -7 -1 -10 -3z" />
    <glyph glyph-name="undo" unicode="&#xe924;" 
d="M519 631c223 0 406 -181 406 -404v-5c0 -226 -184 -410 -410 -410c-27 0 -47 10 -47 30c0 25 34 35 51 35c191 0 345 154 345 345s-154 344 -345 344h-307l119 -119c5 -5 7 -13 7 -21c0 -7 -2 -15 -7 -20s-13 -8 -21 -8c-7 0 -15 3 -20 8l-194 195l194 194c5 5 13 8 21 8
c7 0 15 -3 20 -8s8 -13 8 -20c0 -8 -3 -16 -8 -21l-119 -123h307z" />
    <glyph glyph-name="pen_tool" unicode="&#xe925;" 
d="M966 761c27 -27 40 -61 40 -98c0 -47 -22 -99 -64 -141l-601 -594c-3 -3 -6 -6 -10 -7l-266 -109c-3 -1 -6 -1 -9 -1c-9 0 -18 3 -25 8c-8 8 -12 15 -12 25c0 3 0 6 1 9l96 280c2 7 4 11 7 14l601 590c42 42 94 64 142 64c38 0 73 -13 100 -40zM198 130l126 -127l523 516
l-127 126zM164 75l-62 -174l171 68zM922 717c-16 16 -36 24 -57 24c-32 0 -67 -19 -97 -52l130 -123c30 30 47 65 47 96c0 21 -8 40 -23 55z" />
    <glyph glyph-name="lock" unicode="&#xe926;" 
d="M870 385c31 0 59 -24 59 -61v-450c0 -34 -28 -59 -62 -59h-713c-31 0 -62 25 -62 59v453c0 34 28 58 62 58h51v130c0 157 136 286 307 286s307 -129 307 -286v-130h51zM273 515v-130h478v130c0 130 -113 225 -239 225s-239 -99 -239 -225zM864 -124v445h-704v-445h704z
" />
    <glyph glyph-name="polling" unicode="&#xe927;" 
d="M251 645h722c22 0 34 -18 34 -36s-12 -36 -34 -36h-722c-22 0 -34 18 -34 36s12 36 34 36zM251 135h231c22 0 34 -18 34 -36s-12 -36 -34 -36h-231c-22 0 -34 18 -34 36s12 36 34 36zM251 385h484c22 0 34 -18 34 -36s-12 -36 -34 -36h-484c-22 0 -34 18 -34 36
s12 36 34 36zM12 609c0 40 30 72 68 72s69 -32 69 -72s-31 -72 -69 -72s-68 32 -68 72zM15 349c0 38 29 69 65 69s65 -31 65 -69s-29 -68 -65 -68s-65 30 -65 68zM12 97c0 40 30 72 68 72s69 -32 69 -72s-31 -72 -69 -72s-68 32 -68 72z" />
    <glyph glyph-name="desktop" unicode="&#xe928;" 
d="M925 751c48 0 85 -38 85 -82v-598c0 -44 -38 -81 -82 -81h-269v-72h89c14 0 27 -13 27 -27s-10 -28 -27 -28h-468c-17 0 -27 14 -27 28s10 27 27 27h89v72h-270c-44 0 -82 37 -82 81v598c0 44 38 82 82 82h826zM601 -79v72h-177v-72h177zM952 75v594c0 14 -10 24 -24 24
h-829c-14 0 -24 -10 -24 -24v-594c0 -14 10 -24 24 -24h826c14 0 27 10 27 24z" />
    <glyph glyph-name="fit_to_screen" unicode="&#xe929;" 
d="M594 -34c5 5 11 8 18 8s14 -3 19 -8c8 -8 13 -18 13 -27c0 -6 -2 -12 -6 -18l-102 -102c-5 -7 -12 -11 -20 -11s-17 4 -24 11l-106 109c-5 5 -7 12 -7 18c0 10 5 20 14 26c6 4 12 6 18 6c9 0 18 -4 26 -12l48 -48v246c0 17 13 27 30 27s31 -10 31 -27v-246zM631 645
c-5 -5 -12 -7 -19 -7s-13 2 -18 7l-48 48v-246c0 -17 -14 -27 -31 -27s-30 10 -30 27v246l-48 -48c-8 -8 -17 -12 -27 -12c-6 0 -12 1 -17 5c-9 6 -14 17 -14 27c0 6 2 12 7 17l106 110c7 7 15 10 22 10c8 0 16 -4 22 -10l102 -103c4 -6 6 -11 6 -17c0 -9 -5 -19 -13 -27z
M847 188c-5 5 -7 11 -7 18s2 14 7 19l47 48h-245c-17 0 -28 14 -28 31s11 30 28 30h245l-47 48c-8 8 -13 18 -13 27c0 6 2 12 6 17c6 9 17 13 27 13c6 0 12 -2 17 -6l109 -106c7 -7 10 -15 10 -22c0 -8 -3 -15 -10 -22l-102 -102c-4 -4 -10 -6 -16 -6c-9 0 -20 5 -28 13z
M177 426c5 -5 7 -11 7 -18s-2 -14 -7 -19l-47 -48h245c17 0 28 -14 28 -31s-11 -30 -28 -30h-245l47 -48c8 -8 13 -18 13 -27c0 -6 -2 -12 -6 -17c-6 -9 -17 -13 -27 -13c-6 0 -12 2 -17 6c-4 3 -109 106 -109 106c-7 7 -10 14 -10 21c0 8 4 17 10 23l102 102c5 5 10 7 16 7
c9 0 19 -5 28 -14z" />
    <glyph glyph-name="fullscreen" unicode="&#xe92a;" 
d="M79 -75c0 0 266 263 269 266c6 5 14 8 21 8c9 0 18 -4 24 -11c5 -6 7 -14 7 -21c0 -8 -3 -16 -11 -24l-266 -266h126c21 0 35 -8 35 -31c0 -17 -12 -31 -35 -31h-201c-17 0 -31 14 -31 31v202c0 17 18 27 32 27s30 -10 30 -27v-123zM126 740l263 -262c6 -6 9 -13 9 -20
c0 -8 -4 -15 -9 -21c-8 -9 -17 -13 -26 -13c-6 0 -13 2 -18 6l-266 266v-126c0 -17 -15 -30 -32 -30c-14 0 -30 14 -30 30v201c0 17 14 31 31 31h201c18 0 28 -16 28 -30c0 -17 -11 -32 -28 -32h-123zM973 71c17 0 34 -11 34 -27v-201c0 -17 -14 -31 -31 -31h-201
c-19 0 -29 18 -29 32c0 13 10 30 29 30h123l-273 273c-7 6 -10 14 -10 22c0 9 4 18 12 24c6 5 13 7 19 7c9 0 17 -4 25 -12l271 -270v123c0 17 14 30 31 30zM635 478l263 262h-123c-20 0 -29 15 -29 32c0 14 10 30 29 30h201c17 0 31 -14 31 -31v-201c0 -17 -13 -28 -32 -28
c-16 0 -30 11 -30 28v126l-263 -263c-6 -6 -13 -8 -20 -8c-10 0 -21 4 -27 12c-6 7 -9 14 -9 21c0 6 2 13 9 20z" />
    <glyph glyph-name="settings" unicode="&#xe92b;" 
d="M1004 351v-88c0 -14 -18 -24 -28 -28l-126 -44l-17 -44l58 -120c2 -5 4 -10 4 -15c0 -7 -3 -14 -8 -19l-64 -65c-5 -5 -11 -7 -18 -7c-6 0 -12 1 -17 4l-119 58l-44 -17l-45 -127c-3 -10 -13 -20 -27 -20h-89c-13 0 -24 10 -27 20l-44 127l-45 17l-119 -58
c-6 -3 -12 -5 -17 -5c-7 0 -12 3 -17 8l-65 65c-5 5 -7 11 -7 18c0 5 1 11 3 16l58 120l-17 44l-126 44c-11 4 -21 14 -21 28v88c0 14 11 24 21 28l126 44l17 44l-58 120c-2 5 -3 10 -3 15c0 8 3 15 7 19l65 68c4 5 11 7 18 7c6 0 12 -1 16 -3l123 -62l44 17l44 127
c4 10 14 20 28 20h92c13 0 24 -10 27 -20l44 -127l45 -17l119 58c6 3 12 5 17 5c7 0 13 -3 17 -8l65 -65c5 -5 7 -12 7 -19c0 -5 -1 -10 -3 -15l-58 -120l17 -44l126 -44c10 -4 21 -13 21 -26v-2zM945 287v37l-122 44c-11 4 -17 11 -21 21l-24 61c-4 10 -4 21 0 31l55 116
l-27 27l-117 -54c-10 -5 -19 -4 -30 0l-62 24c-9 4 -17 10 -20 20l-45 123h-40l-45 -123c-3 -10 -9 -17 -17 -20l-61 -24c-12 -5 -21 -5 -31 0l-116 54l-27 -27l54 -109c5 -10 4 -20 0 -31l-24 -61c-3 -10 -10 -17 -20 -21l-123 -44v-41l123 -44c8 -3 13 -10 17 -21l24 -61
c4 -10 5 -20 0 -31l-55 -116l27 -27l117 54c9 5 20 4 30 0l62 -24c10 -4 17 -10 20 -20l41 -126h41l44 122c4 11 10 17 21 21l61 24c10 4 21 4 31 0l116 -55l27 27l-54 117c-5 10 -4 20 0 30l24 62c4 10 10 16 20 20zM512 536c126 0 229 -103 229 -229s-103 -229 -229 -229
s-229 103 -229 229s103 229 229 229zM512 140c92 0 167 75 167 167c0 89 -71 164 -164 164c-92 0 -167 -72 -167 -164s72 -167 164 -167z" />
    <glyph glyph-name="thumbs_down" unicode="&#xe92c;" 
d="M860 628c20 -48 30 -102 30 -157c0 -104 -35 -208 -98 -266l-7 -7c-7 -7 -23 -27 -61 -68c-27 -27 -73 -150 -93 -222c-7 -55 -57 -93 -112 -93c-54 0 -82 60 -82 113c0 79 24 161 48 236h-209c-31 0 -61 10 -85 34c-18 18 -28 42 -28 67c0 13 2 26 8 39c3 7 7 13 10 20
c-27 17 -48 51 -48 85s17 66 48 86c-17 17 -24 37 -24 61c0 34 17 65 48 82c-14 17 -24 42 -24 62c0 55 47 101 102 101h321c113 0 215 -67 256 -173zM802 604c-31 85 -112 136 -201 136h-318c-20 0 -41 -16 -41 -40c0 -20 17 -42 41 -42c17 0 31 -13 31 -30
s-14 -31 -31 -31h-27c-20 0 -41 -17 -41 -41s20 -45 44 -45c17 0 24 -13 24 -30s-13 -31 -30 -31h-21c-20 0 -41 -17 -41 -41c0 -20 21 -41 45 -41h30c17 0 31 -13 31 -30s-14 -31 -31 -31s-35 -14 -41 -31c-1 -3 -2 -7 -2 -11c0 -11 5 -23 13 -30c12 -11 27 -13 44 -13h246
c7 0 18 -2 24 -7s8 -13 8 -21c0 -9 -2 -20 -5 -27c-27 -79 -55 -165 -55 -246c0 -25 5 -42 31 -47c4 -1 8 -1 12 -1c15 0 31 7 39 48c6 31 62 198 103 246c38 41 60 68 68 75c51 51 78 137 78 223c0 49 -9 97 -27 139z" />
    <glyph glyph-name="thumbs_up" unicode="&#xe92d;" 
d="M867 58c0 -34 -17 -65 -44 -89c14 -14 23 -38 23 -58c0 -55 -47 -102 -102 -102h-317c-116 0 -219 68 -260 174c-19 47 -28 98 -28 149c0 106 37 212 97 281l64 75c26 29 76 149 93 222c13 56 50 93 99 93c4 0 9 0 13 -1c52 -6 87 -55 87 -104c0 -4 -1 -8 -1 -12
c-8 -78 -24 -161 -48 -236h208c31 0 62 -9 85 -34c19 -21 29 -45 29 -68c0 -21 -8 -41 -22 -58c31 -16 48 -51 48 -86c0 -32 -14 -65 -45 -85c14 -17 21 -37 21 -61zM741 -130c16 0 37 20 37 44c0 21 -12 45 -37 45c-17 0 -31 14 -31 31s14 30 31 30h27c20 0 41 17 41 41
c0 20 -17 41 -41 41c-17 0 -31 14 -31 31s14 30 31 30h20c20 0 41 22 41 42s-17 41 -41 41h-27c-17 0 -31 13 -31 30s14 31 31 31s34 9 38 27c1 4 1 8 1 12c0 33 -29 46 -56 46h-246c-7 0 -17 0 -24 7c-8 6 -12 15 -12 25c0 8 3 17 9 23c27 79 55 161 55 246
c0 21 -3 41 -31 47c-2 0 -5 1 -8 1c-13 0 -33 -7 -43 -48c-4 -15 -60 -199 -103 -246l-68 -75c-48 -53 -77 -141 -77 -230c0 -47 8 -94 26 -135c31 -85 112 -137 201 -137h318z" />
    <glyph glyph-name="file" unicode="&#xe92e;" 
d="M867 577c14 -17 23 -38 23 -58v-625c0 -44 -37 -82 -81 -82h-594c-44 0 -82 38 -82 82v826c0 44 38 81 82 81h427zM658 700v-110c0 -10 7 -21 21 -21h109zM809 -127c14 0 20 8 20 21v614h-150c-44 0 -82 38 -82 82v150h-382c-10 0 -21 -10 -21 -20v-826
c0 -10 7 -21 21 -21h594z" />
    <glyph glyph-name="upload" unicode="&#xe92f;" 
d="M635 112c0 14 10 25 24 25h160c75 0 144 54 144 129c0 38 -11 79 -38 106s-64 44 -102 44h-41v45c0 116 -96 211 -215 211c-82 0 -154 -47 -192 -119l-17 -38c-23 18 -45 31 -75 31c-44 0 -81 -35 -88 -79l-4 -20l-20 -7c-58 -20 -100 -68 -110 -130c-1 -6 -1 -11 -1 -17
c0 -36 15 -76 42 -105c31 -34 72 -51 116 -51h147c14 0 24 -11 24 -25s-10 -23 -24 -23h-147c-113 0 -201 88 -201 201c0 85 54 160 133 191c14 65 68 109 133 109c20 0 38 -3 55 -10c46 89 138 141 232 141c39 0 79 -9 116 -28c85 -44 144 -133 144 -232
c102 0 174 -93 174 -195c0 -96 -85 -177 -181 -177h-164c-14 0 -24 9 -24 23zM679 242c4 -4 5 -8 5 -12c0 -8 -5 -16 -12 -22c-5 -4 -11 -6 -17 -6s-13 2 -17 6l-105 106v-396c0 -14 -10 -24 -24 -24s-24 10 -24 24v396l-106 -106c-5 -5 -11 -7 -17 -7s-12 2 -17 7
s-7 11 -7 17s2 12 7 17l150 150c3 3 10 7 17 7s14 -4 17 -7z" />
    <glyph glyph-name="video" unicode="&#xe930;" 
d="M48 13c-17 0 -31 14 -31 31v526c0 17 14 31 31 31h624c17 0 31 -14 31 -31v-526c0 -17 -14 -31 -31 -31h-624zM82 75h560v464h-560v-464zM963 78l-236 106c-10 5 -20 17 -20 31v167c0 14 6 21 20 27l236 106c4 2 9 3 13 3c16 0 31 -14 31 -34v-378c0 -18 -15 -31 -31 -31
c-4 0 -9 1 -13 3zM945 153v280l-174 -78v-123z" />
    <glyph glyph-name="unmute" unicode="&#xe931;" 
d="M410 710c-27 -27 -42 -65 -42 -103v-336c0 -37 15 -74 42 -101c28 -28 65 -41 102 -41c38 0 75 14 102 41s41 63 41 101v336c0 40 -14 76 -41 103c-28 28 -65 41 -102 41s-74 -13 -102 -41zM662 758c41 -41 61 -96 61 -151v-336c0 -116 -95 -213 -211 -213
s-212 97 -212 213v336c0 58 24 110 62 151c40 40 95 61 150 61s110 -21 150 -61zM758 -137c20 0 37 -14 37 -34s-14 -34 -34 -34h-495c-20 0 -34 14 -34 34s14 34 34 34h212v38c-191 0 -338 171 -338 362c0 20 14 34 34 34s34 -14 34 -34c0 -164 133 -297 297 -297h14
c164 0 297 133 297 297c0 20 14 34 34 34s34 -14 34 -34c0 -191 -147 -362 -338 -362v-38h212z" />
    <glyph glyph-name="mute" unicode="&#xe932;" 
d="M364 120l-4 3l-67 -67c56 -56 131 -88 212 -88h14c166 0 297 135 297 297v17c3 16 18 26 34 26c3 0 6 0 8 -1c18 -4 25 -17 25 -42c0 -191 -145 -364 -336 -364v-39h212c14 0 28 -18 28 -34c0 -18 -11 -33 -28 -33h-494c-16 0 -28 19 -28 33c0 21 13 38 31 38h212v38
c-88 0 -233 106 -233 106l-137 -135c-8 -8 -18 -12 -26 -12c-17 0 -31 14 -31 33c0 11 5 24 18 37l130 130c-39 60 -60 131 -60 202c0 8 14 20 25 24c3 1 5 1 8 1c16 0 34 -10 34 -25c0 -53 15 -106 43 -152l70 67c-14 28 -21 56 -21 88v339c0 56 22 109 64 148
c39 42 92 64 148 64s108 -23 145 -64c46 -51 63 -92 63 -148v-25l180 181c10 10 21 14 31 14c19 0 34 -15 34 -33c0 -10 -4 -20 -15 -31l-226 -226v-219c0 -117 -95 -212 -212 -212c-56 0 -109 25 -148 64zM614 169c28 28 39 75 39 103v148l-247 -247l4 -4
c28 -28 63 -42 102 -42s77 14 102 42zM371 272c0 -18 7 -43 7 -43l282 283v92c0 39 -14 77 -42 102c-28 28 -63 42 -102 42s-78 -14 -103 -42c-28 -25 -42 -60 -42 -99v-335z" />
    <glyph glyph-name="about" unicode="&#xe933;" 
d="M470 480c0 28 23 51 51 51s51 -23 51 -51s-23 -51 -51 -51s-51 23 -51 51zM512 -205c-283 0 -512 229 -512 512s229 512 512 512s512 -229 512 -512s-229 -512 -512 -512zM512 755c-247 0 -448 -201 -448 -448c0 -248 201 -449 448 -449s448 201 448 449
c0 247 -201 448 -448 448zM567 68h-89v307h88z" />
    <glyph glyph-name="send" unicode="&#xe934;" 
d="M40 -143c-9 0 -23 6 -29 13c-6 6 -11 18 -11 27c0 6 2 14 5 19l212 401l-211 380c-3 5 -5 14 -5 20c0 22 18 40 40 40c5 0 12 -1 17 -3l942 -410c13 -6 24 -22 24 -37s-11 -31 -24 -37l-943 -409c-5 -2 -12 -4 -17 -4zM78 682l193 -345c2 -5 5 -13 5 -19s-3 -14 -5 -19
l-195 -367l868 375z" />
    <glyph glyph-name="exit_fullscreen" unicode="&#xe935;" 
d="M627 440c-1 3 -2 9 -2 13v208c3 14 18 26 33 26c14 0 29 -12 33 -26v-128l277 276c5 10 18 17 29 17c19 0 34 -15 34 -34c0 -11 -7 -24 -17 -29l-276 -277h128c2 0 6 1 8 1c19 0 34 -15 34 -34s-15 -34 -34 -34c-2 0 -6 0 -8 1h-208c-12 0 -26 9 -31 20zM56 -195
c-4 -3 -12 -5 -17 -5c-19 0 -34 15 -34 34c0 5 2 13 5 17l276 278h-128c-2 0 -6 -1 -8 -1c-19 0 -34 15 -34 34s15 34 34 34c2 0 6 0 8 -1h207c19 0 34 -15 34 -34v-208c1 -2 1 -6 1 -8c0 -19 -15 -34 -34 -34s-34 15 -34 34c0 2 1 6 1 8v128zM286 486l-276 277
c-3 4 -5 12 -5 17c0 19 15 34 34 34c5 0 13 -2 17 -5l278 -276v128c4 14 19 26 33 26c15 0 30 -12 33 -26v-207c0 -19 -15 -34 -34 -34h-208c-14 3 -26 18 -26 33c0 14 12 29 26 33h128zM658 -80c-17 1 -32 15 -33 32v208c0 19 15 34 34 34h208c3 1 6 1 9 1
c18 0 34 -15 34 -34s-16 -34 -34 -34c-3 0 -6 1 -9 1h-128l276 -277c3 -4 5 -12 5 -17c0 -19 -15 -34 -34 -34c-5 0 -13 2 -17 5l-277 276v-127c0 -19 -15 -34 -34 -34z" />
    <glyph glyph-name="delete" unicode="&#xe936;" 
d="M343 -34c-19 0 -34 15 -34 34l16 469c0 19 15 35 34 35s34 -16 34 -35l-16 -469c0 -19 -15 -34 -34 -34zM512 -34c-19 0 -34 15 -34 34v471c0 19 15 34 34 34s34 -15 34 -34v-471c0 -19 -15 -34 -34 -34zM681 -34c-19 0 -34 15 -34 34l-16 469c0 19 15 35 34 35
s34 -16 34 -35l16 -469c0 -19 -15 -34 -34 -34zM941 685c19 0 34 -15 34 -34s-15 -34 -34 -34h-102l31 -714c0 -49 -40 -88 -88 -88h-540c-48 0 -88 39 -88 88l32 714h-102c-19 0 -34 15 -34 34s15 34 34 34h257v12c0 56 46 102 103 102h136c57 0 103 -46 103 -102v-12h258z
M410 697v-12h204v12c0 19 -15 34 -34 34h-136c-19 0 -34 -15 -34 -34zM782 -117c10 0 19 8 19 18l-31 717h-516l-31 -717c0 -10 9 -18 19 -18h540z" />
    <glyph glyph-name="unmute_filled" unicode="&#xe937;" 
d="M514 59c-34 0 -83 14 -112 33l323 323v-145c0 -116 -95 -210 -211 -211zM663 757c25 -24 51 -71 58 -105l-414 -413c-2 8 -3 23 -4 31v338c0 50 27 115 62 149c35 35 99 62 149 62s115 -27 149 -62zM212 263c0 -29 8 -74 17 -101l-52 -52c-18 41 -34 109 -34 154
c0 20 15 35 34 35c20 0 35 -16 35 -36zM480 -98c-60 5 -147 38 -194 75l49 48c42 -31 119 -56 172 -56h15c163 0 295 133 295 296c0 19 15 34 34 34s34 -15 34 -34c0 -187 -151 -349 -336 -363v-39h213c18 0 34 -15 34 -34s-16 -34 -34 -34h-495c-19 0 -34 15 -34 34
s15 34 34 34h213v39zM97 -137c-27 0 -48 20 -48 47c0 11 6 26 14 33l831 829c7 7 22 13 33 13c10 0 25 -6 33 -13c7 -8 14 -23 14 -33c0 -11 -7 -26 -14 -33l-830 -829c-7 -8 -22 -14 -33 -14z" />
    <glyph glyph-name="mute_filled" unicode="&#xe938;" 
d="M661 757c35 -34 62 -98 62 -148v-339c0 -116 -95 -210 -211 -211c-116 1 -211 95 -211 211v339c0 48 28 115 62 148c39 40 94 60 149 60s110 -20 149 -60zM759 -137c19 0 34 -15 34 -34s-15 -34 -34 -34h-494c-19 0 -34 15 -34 34s15 34 34 34h213v39
c-186 14 -337 176 -337 363c0 19 15 34 34 34s34 -15 34 -34c0 -163 133 -296 295 -296h15c163 0 296 133 296 296c0 19 15 34 34 34s34 -15 34 -34c0 -187 -151 -349 -337 -363v-39h213z" />
    <glyph glyph-name="listen_filled" unicode="&#xe939;" 
d="M1079 312c77 -54 112 -136 112 -218c0 -140 -102 -281 -269 -282c-18 0 -32 14 -32 32v487c0 18 14 31 33 31c26 0 67 -7 91 -16c-14 216 -201 391 -417 391c-209 0 -395 -169 -416 -376c25 9 66 16 92 16c18 0 32 -14 32 -31v-487c0 -18 -14 -32 -32 -32
c-151 2 -273 125 -273 276c0 77 51 177 114 223c5 261 221 474 482 476c269 -2 483 -221 483 -490z" />
    <glyph glyph-name="template_upload" unicode="&#xe93a;" 
d="M512 537l258 -257c7 -7 13 -21 13 -31c0 -23 -20 -42 -43 -42c-10 0 -23 5 -30 12l-155 156v-454c0 -24 -19 -43 -43 -43s-43 19 -43 43v454l-155 -156c-7 -6 -20 -12 -30 -12c-23 0 -43 20 -43 42c0 10 6 24 13 31zM39 736h946c23 -1 39 -20 39 -44
c0 -22 -18 -40 -39 -41h-946c-22 1 -39 19 -39 42s17 42 39 43z" />
    <glyph glyph-name="template_download" unicode="&#xe93b;" 
d="M512 77l-258 257c-7 7 -13 21 -13 31c0 23 20 42 43 42c10 0 23 -5 30 -12l155 -156v454c0 24 19 43 43 43s43 -19 43 -43v-454l155 155c7 6 20 12 30 12s23 -6 30 -12c7 -7 13 -21 13 -31c0 -9 -6 -23 -13 -30zM985 -122h-946c-23 0 -42 19 -42 43c0 23 19 42 42 42h946
c23 0 42 -19 42 -42c0 -24 -19 -43 -42 -43z" />
    <glyph glyph-name="save_notes" unicode="&#xe93c;" 
d="M879 585c14 -13 25 -40 25 -60v-645c0 -47 -38 -85 -85 -85h-614c-48 0 -85 38 -85 86v853c0 47 38 85 85 85h440zM663 713v-110c0 -13 10 -23 23 -23h112zM819 -143c13 0 23 10 23 23v636h-156c-47 0 -85 38 -85 85v156h-396c-14 0 -23 -10 -23 -24v-853
c0 -13 10 -23 23 -23h614zM512 -22l-184 183c-5 5 -9 15 -9 22c0 17 14 30 31 30c7 0 16 -4 21 -8l111 -111v323c0 17 13 31 30 31s30 -14 30 -31v-323l111 111c5 4 14 8 21 8c17 0 31 -13 31 -30c0 -7 -4 -16 -9 -21z" />
    <glyph glyph-name="multi_whiteboard" unicode="&#xe93d;" 
d="M956 736c37 0 68 -30 68 -68v-522c0 -37 -31 -68 -68 -68h-151v-151c0 -38 -31 -68 -69 -68h-668c-37 0 -68 30 -68 68v522c0 37 31 68 68 68h151v151c0 38 31 68 69 68h668zM753 449c0 9 -7 17 -17 17h-668c-9 0 -17 -8 -17 -17v-524c0 -9 4 -15 11 -15h674
c10 0 17 7 17 17v522zM973 146v522c0 10 -8 17 -17 17h-668c-10 0 -17 -7 -17 -17v-151h465c38 0 69 -31 69 -68v-320h151c9 0 17 8 17 17zM153 37c-15 0 -26 12 -26 26c0 4 2 11 4 14c77 115 135 168 190 173c35 0 78 -19 100 -45c3 -3 8 -6 16 -6c18 0 51 13 99 47
c29 21 73 58 98 83c4 4 12 7 18 7c14 0 25 -11 25 -26c0 -5 -3 -13 -7 -17c-27 -27 -74 -66 -104 -88c-54 -38 -97 -57 -131 -57c-20 0 -37 7 -51 20c-12 16 -38 30 -58 30c-37 -4 -88 -54 -152 -150c-4 -6 -13 -11 -21 -11z" />
    <glyph glyph-name="whiteboard" unicode="&#xe93e;" 
d="M194 116c-17 1 -31 16 -31 34c0 4 2 12 4 16c97 145 171 213 242 221c45 0 98 -24 126 -57c4 -4 11 -6 20 -6c24 0 65 15 127 59c37 27 93 75 125 106c4 2 11 4 16 4c19 0 34 -15 34 -34c0 -4 -2 -11 -4 -15c-34 -34 -94 -85 -133 -113c-67 -48 -122 -72 -165 -72
c-26 0 -48 9 -66 26c-15 20 -48 37 -73 37c-47 -4 -113 -68 -194 -191c-6 -9 -18 -15 -28 -15zM87 661c-12 0 -22 -10 -22 -22v-664c0 -12 10 -22 22 -22h850c12 0 22 10 22 22v664c0 12 -10 22 -22 22h-850zM937 726c48 0 87 -39 87 -87v-664c0 -48 -39 -87 -87 -87h-850
c-48 0 -87 39 -87 87v664c0 48 39 87 87 87h850z" />
    <glyph glyph-name="rooms" unicode="&#xe93f;" 
d="M117 722c0 12 10 22 22 22s21 -10 21 -22s-9 -22 -21 -22s-22 10 -22 22zM205 722c0 12 10 22 22 22s21 -10 21 -22s-9 -22 -21 -22s-22 10 -22 22zM293 722c0 12 9 22 21 22s22 -10 22 -22s-10 -22 -22 -22s-21 10 -21 22zM973 470c28 0 51 -23 51 -51v-571
c0 -28 -23 -51 -51 -51h-790c-28 0 -51 23 -51 51v296h-81c-28 0 -51 23 -51 51v571c0 28 23 51 51 51h791c28 0 50 -23 50 -51v-296h81zM58 759v-74h777v74h-777zM58 202h73v217c0 28 23 51 51 51h653v158h-777v-426zM967 280h-778v-425h778v425zM189 338h777v74h-777v-74z
M248 375c0 12 10 22 22 22s22 -10 22 -22s-9.59961 -21.9199 -21.6641 -21.9199s-22.3359 9.91992 -22.3359 21.9199zM336.213 374.926c0 12.0645 9.78125 21.8447 21.8457 21.8447s21.8457 -9.78027 21.8457 -21.8447c0 -12.0654 -9.78125 -21.8457 -21.8457 -21.8457
s-21.8457 9.78027 -21.8457 21.8457zM424.277 374.926c0 12.0645 9.78027 21.8447 21.8457 21.8447c12.0645 0 21.8447 -9.78027 21.8447 -21.8447c0 -12.0654 -9.78027 -21.8457 -21.8447 -21.8457c-12.0654 0 -21.8457 9.78027 -21.8457 21.8457z" />
    <glyph glyph-name="unlock" unicode="&#xe940;" 
d="M334 698c-5 6 -7 14 -7 21c0 10 4 19 13 25c41 32 118 58 170 58c160 -4 289 -137 289 -298v-120h47c33 0 59 -27 59 -59v-454c0 -33 -26 -59 -59 -59h-668c-23 0 -58 26 -58 63c0 0 -1 396 -1 450c0 32 27 59 59 59h558v131c-1 123 -101 223 -224 223
c-41 -1 -101 -22 -135 -46c-5 -3 -11 -5 -17 -5c-10 0 -20 4 -26 11zM841 -124v443h-658v-443h658z" />
    <glyph glyph-name="record" unicode="&#xe941;" 
d="M512 802c273 0 495 -222 495 -495s-222 -495 -495 -495s-495 222 -495 495s222 495 495 495zM512 -124c238 0 431 193 431 431s-193 431 -431 431s-431 -193 -431 -431s193 -431 431 -431zM352 307c0 88 72 160 160 160s160 -72 160 -160s-72 -160 -160 -160
s-160 72 -160 160z" />
    <glyph glyph-name="network" unicode="&#xe942;" 
d="M378 34c0 74 59 133 132 133c74 0 133 -59 133 -133c0 -73 -59 -133 -133 -133c-73 0 -132 60 -132 133zM248 228c-3 7 -5 14 -5 21c0 13 6 24 17 31c64 40 177 74 252 75c74 -1 185 -34 248 -73c14 -9 19 -22 19 -34c0 -9 -3 -17 -7 -21c-7 -7 -19 -14 -30 -14
c-6 0 -11 1 -16 5c-54 34 -150 63 -214 64c-64 -1 -160 -31 -214 -65c-5 -4 -11 -5 -17 -5c-13 0 -27 7 -33 16zM845 353c-83 56 -233 101 -334 101s-251 -45 -335 -101c-6 -4 -13 -6 -20 -6c-11 0 -22 5 -29 15c-5 6 -7 14 -7 21c0 13 7 26 17 32c94 62 262 113 375 113
s281 -51 375 -113c10 -6 16 -19 16 -31c0 -8 -2 -15 -7 -21c-7 -10 -17 -15 -29 -15c-7 0 -15 2 -22 5zM964 477c-109 89 -312 162 -454 162c-140 0 -341 -71 -450 -160c-7 -5 -16 -8 -25 -8s-19 4 -26 12c-6 7 -9 16 -9 25c0 11 5 22 13 29c120 98 342 177 497 177
c156 0 381 -81 501 -180c8 -7 13 -18 13 -28c0 -9 -3 -18 -9 -25c-7 -8 -17 -13 -27 -13c-9 0 -17 3 -24 9z" />
    <glyph glyph-name="redo" unicode="&#xe943;" 
d="M505 631h307l-119 123c-5 5 -8 13 -8 21c0 7 3 15 8 20s13 8 20 8c8 0 16 -3 21 -8l194 -194l-194 -195c-5 -5 -13 -8 -20 -8c-8 0 -16 3 -21 8s-7 13 -7 20c0 8 2 16 7 21l119 119h-307c-191 0 -345 -153 -345 -344s154 -345 345 -345c17 0 51 -10 51 -35
c0 -20 -20 -30 -47 -30c-226 0 -410 184 -410 410v5c0 223 183 404 406 404z" />
    <glyph glyph-name="thumbs_down_filled" unicode="&#xe944;" 
d="M860 628c20 -48 30 -102 30 -157c0 -104 -35 -208 -98 -266l-7 -7c-7 -7 -23 -27 -61 -68c-27 -27 -73 -150 -93 -222c-7 -55 -57 -93 -112 -93c-54 0 -82 60 -82 113c0 79 24 161 48 236h-209c-31 0 -61 10 -85 34c-18 18 -28 42 -28 67c0 13 2 26 8 39c3 7 7 13 10 20
c-27 17 -48 51 -48 85s17 66 48 86c-17 17 -24 37 -24 61c0 34 17 65 48 82c-14 17 -24 42 -24 62c0 55 47 101 102 101h321c113 0 215 -67 256 -173z" />
    <glyph glyph-name="thumbs_up_filled" unicode="&#xe945;" 
d="M867 58c0 -34 -17 -65 -44 -89c14 -14 23 -38 23 -58c0 -55 -47 -102 -102 -102h-317c-116 0 -219 68 -260 174c-19 47 -28 98 -28 149c0 106 37 212 97 281l64 75c26 29 76 149 93 222c13 56 50 93 99 93c4 0 9 0 13 -1c52 -6 87 -55 87 -104c0 -4 -1 -8 -1 -12
c-8 -78 -24 -161 -48 -236h208c31 0 62 -9 85 -34c19 -21 29 -45 29 -68c0 -21 -8 -41 -22 -58c31 -16 48 -51 48 -86c0 -32 -14 -65 -45 -85c14 -17 21 -37 21 -61z" />
    <glyph glyph-name="checkmark" unicode="&#xe946;" 
d="M901 650c9 10 20 14 31 14c26 0 53 -24 53 -48c0 -8 -3 -17 -10 -24l-561 -627c-8 -9 -20 -16 -32 -16c-10 0 -22 3 -30 10l-289 255c-14 13 -21 27 -21 40c0 23 19 43 44 43c11 0 24 -4 35 -14l255 -226z" />
    <glyph glyph-name="speak_louder" unicode="&#xe947;" 
d="M617 529c3 2 9 3 13 3c8 0 17 -5 21 -12c34 -54 64 -149 66 -213c-2 -63 -30 -157 -63 -210c-4 -7 -13 -12 -21 -12c-4 0 -10 1 -13 3c-6 4 -11 13 -11 20c0 4 1 9 3 12c29 48 53 131 55 187c-2 56 -28 140 -58 188c-2 3 -4 9 -4 13c0 7 6 17 12 21zM732 -19
c-5 4 -10 13 -10 20c0 5 2 11 5 15c48 73 88 204 88 293c0 88 -39 220 -88 293c-2 3 -5 10 -5 14c0 7 6 12 10 20c4 2 10 4 14 4c7 0 16 -4 20 -10c54 -81 97 -224 97 -321c0 -96 -43 -240 -97 -320c-4 -6 -13 -11 -20 -11c-3 0 -10 0 -14 3zM835 -122c-4 4 -8 12 -8 19
c0 5 3 12 6 15c78 96 142 273 142 397c0 122 -63 299 -140 394c-3 3 -6 10 -6 15c0 7 4 15 9 19c3 3 11 6 16 6c6 0 14 -4 18 -9c83 -102 151 -293 151 -425c0 -133 -69 -325 -154 -428c-4 -5 -12 -8 -18 -8c-5 0 -12 1 -16 5zM457 -78c-5 0 -13 3 -16 7l-247 246h-117
c-42 0 -77 35 -77 78v108c0 43 35 78 77 78h117l246 246c4 4 12 7 17 7c13 0 23 -10 23 -24v-722c0 -13 -10 -24 -23 -24zM77 392c-16 0 -30 -14 -30 -31v-109c0 -28 38 -34 79 -34c29 0 59 3 79 3c5 0 12 -3 16 -7l213 -212v610l-213 -213c-4 -4 -12 -7 -17 -7h-127z" />
    <glyph glyph-name="help" unicode="&#xe948;" 
d="M443 119c0 26 22 48 48 48c27 0 49 -22 49 -48s-22 -48 -49 -48c-26 0 -48 22 -48 48zM512 -205c-283 0 -512 229 -512 512s229 512 512 512s512 -229 512 -512s-229 -512 -512 -512zM512 755c-247 0 -448 -201 -448 -448c0 -248 201 -449 448 -449s448 201 448 449
c0 247 -201 448 -448 448zM458 219v20c0 18 5 42 13 57c9 16 29 37 44 47c15 11 36 31 48 46c7 11 11 27 11 42c0 12 -8 29 -18 37c-11 8 -31 14 -45 14c-19 0 -43 -3 -60 -8l-23 -9c-4 -1 -7 -2 -11 -2c-12 0 -23 7 -28 17c-2 4 -3 10 -3 14c0 11 9 24 20 29
c30 12 76 20 111 20c28 0 69 -14 91 -31c20 -17 36 -52 36 -78c0 -16 -2 -33 -7 -47c-4 -10 -14 -25 -21 -34c-12 -13 -34 -32 -48 -43c-12 -9 -29 -25 -39 -37c-6 -11 -9 -28 -9 -40v-14h-62z" />
    <glyph glyph-name="refresh" unicode="&#xe949;" 
d="M487 616c-154 -13 -279 -150 -280 -304v-273l107 107c4 3 10 5 14 5c14 0 26 -12 26 -25c0 -5 -2 -11 -4 -14c-57 -57 -171 -173 -171 -173l-172 172c-4 4 -7 12 -7 18s3 14 7 18s12 7 17 7c6 0 13 -3 17 -7l109 -107v273c1 183 149 344 331 360h4c18 0 27 -14 27 -29
c0 -13 -8 -26 -25 -28zM537 -2c154 13 279 150 280 304v273l-107 -107c-4 -3 -10 -5 -14 -5c-14 0 -26 12 -26 25c0 5 2 11 4 14l172 172s114 -115 172 -172c3 -4 7 -12 7 -18s-4 -14 -7 -18c-4 -4 -12 -7 -18 -7c-5 0 -13 3 -17 7l-109 108v-273
c0 -173 -150 -361 -334 -361c-16 0 -29 12 -29 28c0 13 5 27 26 30z" />
    <glyph glyph-name="copy" unicode="&#xe94a;" 
d="M905 624c13 -13 17 -27 17 -47v-540c0 -37 -31 -68 -69 -68h-105v-106c0 -37 -31 -68 -69 -68h-508c-38 0 -69 31 -69 68v714c0 37 31 68 69 68h105v106c0 37 31 68 69 68h365zM836 618l-109 112v-95c0 -11 7 -17 17 -17h92zM498 590h-327c-11 0 -17 -7 -17 -17v-710
c0 -10 6 -17 17 -17h508c10 0 17 7 17 17v529h-129c-38 0 -69 31 -69 69v129zM550 464c0 -10 6 -20 20 -20h92l-112 112v-92zM874 41l-4 529h-129c-38 0 -69 31 -69 68v130h-327c-10 0 -17 -7 -17 -17v-109h208l194 -195c14 -10 21 -31 21 -48v-375h106c10 0 17 7 17 17z
" />
    <glyph glyph-name="shortucts" unicode="&#xe94b;" 
d="M476 455v-48h-49v48h49zM597 455v-48h-49v48h49zM717 455v-48h-49v48h49zM837 455v-48h-49v48h49zM356 455v-48h-49v48h49zM236 455v-48h-49v48h49zM476 375v-49h-49v49h49zM597 375v-49h-49v49h49zM717 375v-49h-49v49h49zM837 375v-49h-49v49h49zM356 375v-49h-49v49
h49zM236 375v-49h-49v49h49zM476 295v-49h-49v49h49zM597 295v-49h-49v49h49zM717 295v-49h-49v49h49zM837 295v-49h-49v49h49zM356 295v-49h-49v49h49zM236 295v-49h-49v49h49zM267 133v49h490v-49h-490zM935 8h-846c-49 0 -89 40 -89 90v418c0 50 40 90 89 90h846
c49 0 89 -40 89 -90v-418c0 -50 -40 -90 -89 -90zM89 557c-22 0 -40 -18 -40 -41v-418c0 -23 18 -41 40 -41h846c22 0 40 18 40 41v418c0 23 -18 41 -40 41h-846z" />
    <glyph glyph-name="warning" unicode="&#xe94c;" 
d="M453 113c0 31 27 58 58 58c32 0 59 -27 59 -58s-27 -58 -59 -58c-31 0 -58 27 -58 58zM512 -208c-283 0 -512 230 -512 512c0 283 229 512 512 512s512 -229 512 -512c0 -282 -229 -512 -512 -512zM512 751c-247 0 -447 -201 -447 -448s200 -448 447 -448
c248 0 448 201 448 448s-202 448 -448 448zM508 227c-20 0 -37 16 -38 36l-13 249v2c0 21 17 38 38 38h34c22 0 39 -17 39 -38v-2l-13 -250c-1 -19 -18 -35 -38 -35h-9z" />
    <glyph glyph-name="transfer_audio" unicode="&#xe94d;" 
d="M558 -149c-6 0 -15 4 -19 9l-292 291h-138c-51 0 -92 41 -92 92v128c0 51 41 92 92 92h138l292 291c4 5 13 8 19 8c16 0 28 -12 28 -27v-856c0 -15 -12 -28 -28 -28zM109 409c-20 0 -37 -16 -37 -36v-132c0 -20 17 -36 37 -36h150c6 0 15 -4 19 -9l253 -252v724
l-253 -252c-4 -5 -13 -8 -19 -8zM1007 307l-142 -142c-4 -4 -12 -7 -17 -7c-14 0 -25 10 -25 24c0 5 4 13 7 17l86 85h-249c-13 0 -24 11 -24 24s11 23 24 23h250l-86 86c-3 3 -7 11 -7 17c0 5 4 13 7 17c4 4 12 7 18 7c5 0 13 -3 17 -7z" />
    <glyph glyph-name="room" unicode="&#xe94e;" 
d="M58 693h908c32 0 58 -26 58 -58v-656c0 -32 -26 -58 -58 -58h-908c-32 0 -58 26 -58 58v656c0 32 26 58 58 58zM958 476h-892v-489h892v489zM66 542l892 -1v86h-892v-85zM134 584c0 14 11 25 25 25s25 -11 25 -25s-11 -25 -25 -25s-25 11 -25 25zM234 584
c0 14 12 25 26 25s25 -11 25 -25s-11 -25 -25 -25s-26 11 -26 25zM336 584c0 14 11 25 25 25s25 -11 25 -25s-11 -25 -25 -25s-25 11 -25 25z" />
    <glyph glyph-name="new_file" unicode="&#xe94f;" 
d="M537 74c-16 0 -29 13 -29 29v102h-102c-15 1 -26 14 -26 28c0 15 11 28 26 29h102v103c1 14 14 26 29 26c14 0 27 -12 29 -26v-103h102c14 -1 26 -14 26 -29c0 -14 -12 -27 -26 -28h-102v-103c-1 -15 -14 -28 -29 -28zM905 585c14 -13 25 -40 25 -60v-645
c0 -47 -38 -85 -85 -85h-614c-48 0 -85 38 -85 86v853c0 47 38 85 85 85h440zM689 713v-110c0 -13 10 -23 23 -23h112zM845 -143c13 0 23 10 23 23v636h-156c-47 0 -85 38 -85 85v155h-396c-13 0 -23 -11 -23 -23v-853c0 -13 10 -23 23 -23h614z" />
    <glyph glyph-name="pointer" unicode="&#xe950;" 
d="M179 -185c-19 8 -34 30 -34 50v2l13 882c2 28 26 51 54 51c12 0 29 -7 38 -15l614 -632c8 -9 15 -25 15 -37c0 -30 -24 -54 -54 -54c-1 0 -4 0 -6 1l-354 45l-226 -276c-10 -13 -25 -19 -42 -19c-6 0 -12 1 -18 2zM225 713l-13 -806l205 251c9 11 28 19 42 19h7l321 -41z
" />
    <glyph glyph-name="star" unicode="&#xe951;" 
d="M243 -164c-33 1 -60 28 -60 61c0 2 1 7 1 10l46 268l-196 190c-10 10 -18 29 -18 43c0 29 23 56 52 59l269 39l121 245c9 18 33 34 54 34s45 -15 54 -34l120 -244l270 -40c29 -3 52 -30 52 -59c0 -14 -8 -34 -18 -43l-195 -190l46 -269c0 -2 1 -7 1 -10
c0 -33 -27 -60 -60 -60c-8 0 -21 3 -28 7l-239 126l-241 -126c-8 -5 -21 -7 -31 -7zM540 22l241 -126l-45 268c-1 3 -1 8 -1 11c0 14 8 33 18 43l195 189l-270 41c-17 2 -38 18 -45 34l-121 242l-121 -244c-7 -16 -28 -31 -45 -34l-269 -37l194 -190c10 -10 18 -29 18 -43
c0 -3 0 -7 -1 -10l-46 -269l242 126c8 3 18 5 28 5s20 -2 28 -6z" />
    <glyph glyph-name="star_filled" unicode="&#xe952;" 
d="M243 -164c-33 1 -60 28 -60 61c0 2 1 7 1 10l46 268l-196 190c-10 10 -18 29 -18 43c0 29 23 56 52 59l269 39l121 245c9 18 33 34 54 34s45 -15 54 -34l120 -244l270 -40c29 -3 52 -30 52 -59c0 -14 -8 -34 -18 -43l-195 -190l46 -269c0 -2 1 -7 1 -10
c0 -33 -27 -60 -60 -60c-8 0 -21 3 -28 7l-239 126l-241 -126c-8 -5 -21 -7 -31 -7z" />
  </font>
</defs>
</svg>
