<?xml version="1.0" encoding="utf-8"?>
<svg version="1.1" id="Layer_1" xmlns="http://www.w3.org/2000/svg" xmlns:xlink="http://www.w3.org/1999/xlink" x="0px" y="0px"
	 viewBox="0 0 256 256" style="enable-background:new 0 0 256 256;" xml:space="preserve">
<style type="text/css">
	.st0{fill:#FFFFFF;}
	.st1{fill:#FDFDFE;}
	.st2{fill:#6580D2;}
	.st3{fill:#273D85;}
</style>
<circle class="st0" cx="128" cy="128" r="116"/>
<g>
	<path class="st1" d="M133,73c1.4,0.7,2.8,1.4,3.9,2.6c0.4,0.4,0.8,0.5,1.4,0.5c8.5,0,16.9,0,25.4,0c0.8,0,0.9,0.2,0.9,0.9
		c-0.1,1.5,0,3.1,0,4.6c0,0.3-0.1,0.6,0.2,0.8c1.4-1,2.9-1.9,4.4-2.6c0.4-0.2,0.5-0.5,0.5-0.9c0-1.6,0-3.2,0-4.8
		c0-2-1.2-3.3-3.2-3.3c-9.7,0-19.4,0-29,0c0-1.1,0-2.2,0-3.3c0-0.9-0.3-1.2-1.3-1.3c-1.6,0-3.1,0-4.7,0c-2.2,0-1.8,0.5-1.9-2
		c0-0.5,0.2-0.7,0.7-0.7c0.7,0,1.4,0,2.2,0c0.8,0,1.2-0.4,1.2-1.2c0-0.6,0-1.3,0-1.9c0-0.8-0.4-1.1-1.1-1.1c-3.1,0-6.2,0-9.3,0
		c-0.8,0-1.1,0.4-1.2,1.2c0,0.3,0,0.6,0,0.8c0,2.2,0.1,2.2,2.2,2.2c1.9,0,1.9,0,1.9,2c0,0.6-0.2,0.7-0.7,0.7c-1.9,0-3.8,0-5.8,0
		c-1.1,0-1.3,0.3-1.3,1.3c0,1.1,0.1,2.1-0.1,3.2c-9.5,0-19.1,0-28.6,0c-2.4,0-3.5,1.2-3.5,3.6c0,9.7,0,19.3,0,29
		c0,6.2,0,12.4,0,18.6c0,1.9,1.1,3.1,2.9,3.1c5.9,0,11.7,0,17.6,0c0.5,0,0.6-0.1,0.7-0.6c0.2-1.3,0.3-2.5,0.5-3.8
		c0.1-0.7,0-0.9-0.8-0.9c-5,0-9.9,0-14.9,0c-0.6,0-0.8-0.2-0.8-0.8c0-13.9,0-27.9,0-41.8c0-1.1,0-1.1,1.1-1.1c8.4,0,16.7,0,25.1,0
		c0.3,0,0.7,0.1,1-0.2c1.1-1.3,2.5-2.1,4-2.8c1.8-0.6,3.7-1,5.6-0.9C129.9,72.2,131.4,72.5,133,73z M74.2,88.2c0-0.6-0.3-1.3,0-1.7
		c0.3-0.5,1.1-0.4,1.7-0.6c2.1-0.9,3.4-2.4,3.6-4.8c0.1-0.7-0.2-0.9-0.8-0.8c-2.4,0.4-4.3,1.4-5.2,3.9c-0.4-0.6-0.6-1.2-1.1-1.7
		c-0.4-0.4-0.8-0.4-1.2-0.1c-0.4,0.3-0.5,0.6-0.3,1.1c0.8,1.5,1,3.2,1.2,4.8c-0.6-0.2-1.1-0.6-1.7-0.7c-2.9-0.6-6,1.5-6.5,4.8
		c-0.7,4.5,1.2,8.1,4.2,11.2c0.8,0.9,2.6,1.3,3.9,0.4c0.7-0.5,1.5-0.4,2.3,0c1.3,0.8,2.6,0.6,3.8-0.3c3-2.5,4.4-5.8,4.6-9.7
		C82.9,89.3,78.3,86,74.2,88.2z M140.7,179.2c0.3-0.1,0.4,0.2,0.5,0.3c0.9,0.7,1.9,1,3.1,0.7c2.5-0.7,3.6-3.6,2.1-5.8
		c-0.7-1.1-1.6-2-2.5-3.1c-1.5-1.8-3.1-3.7-4.6-5.5c-1-1.1-2.1-1.6-3.7-1.6c-5.2,0.1-10.5,0-15.7,0c-1.5,0-2.6,0.4-3.5,1.5
		c-1.3,1.6-2.7,3.2-4,4.8c-1.1,1.3-2.2,2.5-3.1,3.9c-1.2,1.9-0.6,4.3,1.3,5.3c1.5,0.9,3,0.6,4.4-0.4c0,0.3,0,0.5,0,0.8
		c0,3.8,0,7.6,0,11.4c0,1.1,0.7,1.7,1.7,1.4c0.7-0.2,1-0.7,1-1.4c0-0.3-0.2-0.8,0.4-0.8c0.7,0,0.5,0.5,0.5,0.8c0,1.2,0,2.3,0,3.5
		c0,1.1,0.5,1.5,1.4,1.5c0.9,0,1.4-0.5,1.5-1.5c0-1.2,0-2.4,0-3.7c0-0.5,0.1-0.7,0.6-0.7c3.8,0,7.6,0,11.3,0c0.5,0,0.6,0.2,0.6,0.6
		c-0.1,1.2-0.1,2.4-0.1,3.7c0,1,0.6,1.6,1.4,1.6c0.9,0,1.5-0.6,1.5-1.6c0-1.3,0-2.5,0-3.8c0-0.2-0.1-0.5,0.3-0.5
		c0.2,0,0.5-0.1,0.6,0.1c0.1,0.2,0.1,0.5,0.1,0.8c0,0.9,0.5,1.4,1.2,1.4c0.7,0,1.4-0.6,1.4-1.3C140.7,187.6,140.7,183.4,140.7,179.2
		z M181.1,178.5c1.6-0.5,2.1-1.3,2.1-2.9c0-1.1,0-2.2,0-3.3c0.1-1-0.3-1.8-0.8-2.5c-1.1-1.4-2.3-2.8-3.5-4.3c-0.8-1-1.9-1.4-3.2-1.4
		c-5.3,0-10.7,0-16,0c-1.3,0-2.3,0.4-3.2,1.4c-1.2,1.3-2.4,2.7-3.4,4.2c-0.6,0.9-1,1.8-0.9,3c0.1,1.1,0,2.1,0,3.2
		c0,1.9,0.9,2.9,2.8,2.9c0,5.4,0,10.9,0,16.3c0,1.1,0.5,1.6,1.4,1.6c0.9,0,1.4-0.6,1.5-1.6c0-1.1,0-2.2,0-3.3c0-0.4-0.3-0.9,0.5-0.9
		c0.8,0,0.5,0.5,0.5,0.9c0,1.1,0,2.2,0,3.3c0,1,0.5,1.6,1.4,1.6c1,0,1.5-0.5,1.5-1.6c0-1.2,0-2.4,0-3.6c0-0.5,0.1-0.7,0.6-0.7
		c3.8,0,7.6,0,11.4,0c0.5,0,0.6,0.2,0.6,0.6c0,1.2-0.1,2.4-0.1,3.7c0,1,0.5,1.6,1.4,1.6c0.9,0,1.4-0.6,1.4-1.6c0-1.1,0-2.3,0-3.4
		c0-0.4-0.2-0.9,0.6-0.9c0.7,0,0.5,0.5,0.5,0.9c0,1.2,0,2.4,0,3.6c0,0.6,0.2,1.1,0.8,1.3c1,0.4,1.9-0.3,1.9-1.4c0-5.1,0-10.2,0-15.3
		C181,179.4,181.1,178.9,181.1,178.5z M101.3,178.6c2-0.2,2.7-1,2.7-2.9c0-1.1-0.1-2.2,0-3.3c0.1-1.1-0.3-2.1-1-2.9
		c-1-1.2-2-2.4-2.9-3.6c-0.9-1.2-2.1-1.7-3.6-1.7c-5.3,0.1-10.5,0.1-15.8,0c-1.4,0-2.4,0.5-3.2,1.5c-1.1,1.2-2.1,2.5-3.1,3.8
		c-0.7,0.9-1,1.9-1,3c0,1.1,0,2.1,0,3.2c0,1.6,0.6,2.4,2.2,2.9c0,0.2,0,0.5,0,0.7c0,4.4,0,8.8,0,13.2c0,1,0,1.9,0,2.9
		c0,0.8,0.5,1.3,1.2,1.3c0.7,0.1,1.3-0.4,1.5-1.1c0.1-0.2,0.1-0.5,0.1-0.7c0-1.2,0-2.3,0-3.5c0-0.4,0.2-0.6,0.6-0.6
		c0.4,0,0.5,0.2,0.5,0.5c0,1.3,0,2.6,0,3.8c0,1,0.6,1.5,1.4,1.5c0.9,0,1.4-0.6,1.4-1.5c0-1.3,0-2.5,0-3.8c0-0.4,0.1-0.7,0.6-0.6
		c3.7,0,7.3,0,11,0c0.4,0,0.6,0.1,0.6,0.6c0,1.2,0,2.4,0,3.6c0,1.1,0.5,1.7,1.4,1.7c1,0,1.5-0.6,1.5-1.8c0-1.2,0-2.3,0-3.5
		c0-0.5,0.2-0.6,0.6-0.6c0.5,0,0.5,0.2,0.5,0.6c0,1.3,0,2.6,0,3.8c0,1.1,0.9,1.7,2,1.3c0.7-0.3,0.8-0.9,0.8-1.6c0-4.1,0-8.2,0-12.3
		C101.2,181.3,101.2,180,101.3,178.6z M117.7,114.4c0.1,0.3,0.2,0.4,0.2,0.5c0.7,2.1,1.5,4.3,2.2,6.4c0.2,0.6,0.2,1.2,0.1,1.8
		c-0.4,1.6-0.8,3.2-1.3,4.7c-0.9,2.9-1.7,5.8-2.6,8.7c-1.2,3.9-2.4,7.9-3.6,11.8c-0.2,0.5-0.2,0.7,0.5,0.7c1.6-0.1,3.1-0.1,4.7,0
		c0.6,0,0.8-0.1,1.1-0.6c4.1-6.6,13.9-6.6,17.9,0.1c0.3,0.4,0.5,0.5,1,0.5c1.5,0,3.1,0,4.6,0c0.7,0,0.8-0.1,0.6-0.8
		c-1.9-6.2-3.8-12.4-5.7-18.6c-0.6-2.1-1.2-4.1-1.7-6.2c-0.2-0.6-0.3-1.2-0.1-1.8c0.3-1.8,1.2-3.3,1.7-5c0.2-0.6,0.4-1.3,0.8-2
		c0.1,0.8,0.2,1.4,0.2,2c0.3,5.3,1.2,10.4,2.7,15.5c0.2,0.5,0.2,0.7,0.8,0.3c1.2-0.9,2.5-1.6,3.9-2c0.5-0.1,0.6-0.3,0.5-0.8
		c-0.8-4.2-1.5-8.5-1.8-12.8c-0.2-3.1-0.4-6.2-1-9.3c-0.4-2.3-1.6-3.9-3.7-4.9c-1.2-0.6-2.6-0.9-3.9-1.3c-0.5-0.2-0.8-0.1-1,0.5
		c-0.8,2.1-2,3.9-3.3,5.7c-0.4,0.5-0.7,0.5-1.1,0.1c-0.8-0.7-1.4-1.6-2.2-2.4c-0.3-0.4-0.5-0.3-0.8,0c-0.7,0.8-1.4,1.6-2.1,2.4
		c-0.5,0.5-0.8,0.4-1.2-0.1c-1.3-1.7-2.5-3.5-3.3-5.5c-0.2-0.6-0.5-0.7-1.1-0.5c-0.9,0.3-1.9,0.6-2.8,0.9c-2.6,0.9-4.2,2.7-4.8,5.5
		c-0.3,1.3-0.3,2.5-0.5,3.8c-0.3,3.9-0.5,7.9-1,11.8c-0.3,2.1-0.7,4.2-1,6.3c0,0.3-0.3,0.6,0.2,0.7c1.6,0.4,2.9,1.2,4.2,2.2
		c0.3,0.2,0.5,0.3,0.6-0.2c0.8-3.1,1.8-6.2,2.2-9.4C117.2,120.1,117.4,117.3,117.7,114.4z M176.5,112c4.9-0.1,9.1-1.8,12.1-5.9
		c1.9-2.6,3.2-5.5,3.3-8.8c0.1-6.2-2.7-10.7-7.9-13.9c-2.1-1.2-4.3-1.9-6.7-2.1c-3.1-0.2-6,0.6-8.7,2.3c-4,2.4-6.5,5.9-7.3,10.5
		C159.8,103.1,166.8,112.1,176.5,112z M115.1,95.7c0,0.3,0.2,0.4,0.3,0.6c1.9,2.2,4.5,2.8,7.4,1.6c0.3-0.1,0.5-0.3,0.7,0.2
		c0.8,2.3,2.4,4,3.9,5.7c0.4,0.4,0.6,0.3,0.9,0c1.6-1.6,3-3.3,3.8-5.4c0.2-0.6,0.5-0.6,1.1-0.4c1,0.5,2,0.6,3.1,0.5
		c1.9-0.2,3.3-1.1,4.4-2.8c-0.6,0.1-1,0.1-1.5,0.2c-1.6,0.1-2.2-0.8-1.5-2.2c1.4-2.9,2-5.9,1.4-9.2c-1.3-6.6-8.1-10.9-14.3-9
		c-6.2,1.8-9.9,9.1-7.8,15.4c0.3,1,0.7,1.9,1.2,2.9c0.5,1.2,0.1,1.9-1.2,2.1C116.3,96,115.7,95.9,115.1,95.7z M80.2,160.8
		c-0.7-1-1.2-2-1.5-3c-0.1-0.4-0.4-0.3-0.7-0.3c-1.2,0-2.4,0-3.7,0c-4.4,0-8.7,0-13.1,0c-1.1,0-1.4,0.3-1.4,1.4c0,2.3,0,4.7,0,7
		c0,1.6,0.4,2,2,2c0.7,0,0.8,0.2,0.8,0.8c0,4.8,0,9.5,0,14.3c0,0.4,0,0.7,0,1.1c0.1,0.9,0.7,1.4,1.5,1.3c0.9-0.1,1.4-0.5,1.4-1.5
		c0-0.9,0-1.9,0-2.8c0-4.1,0-8.2,0-12.4c0-0.5,0-0.8,0.6-0.8c0.7,0,0.5,0.4,0.5,0.8c0,6.9,0,13.8,0,20.6c0,0.5,0,1,0,1.5
		c0.1,0.8,0.6,1.2,1.4,1.2c0.9,0,1.4-0.7,1.4-1.7c0-6,0-12.1,0-18.1c0-1.1,0.3-2,0.9-2.9c1.2-1.5,2.4-3.1,3.6-4.6
		C75.6,162.7,77.2,160.9,80.2,160.8z M176.6,160.8c1.8,0.2,3.2,1.1,4.2,2.3c1.7,2,3.3,4,4.8,6.1c0.7,0.9,1.2,1.9,1.2,3.1
		c0,6,0,12,0,18c0,0.2,0,0.5,0,0.7c0.1,0.7,0.6,1.1,1.3,1.1c0.7,0,1.2-0.3,1.4-1c0.1-0.3,0.1-0.5,0.1-0.8c0-5.7,0-11.4,0-17
		c0-1.5,0-3.1,0-4.6c0-0.6,0.3-0.6,0.7-0.6c0.6,0,0.4,0.5,0.4,0.8c0,5,0,10,0,15c0,0.6,0.1,1.1,0.6,1.3c0.6,0.3,1.1,0.3,1.7-0.1
		c0.5-0.4,0.6-0.9,0.6-1.5c0-5,0-9.9,0-14.9c0-0.6,0-0.9,0.7-0.9c1.3,0,1.7-0.5,1.7-1.8c0-2.4,0-4.8,0-7.3c0-0.9-0.4-1.3-1.3-1.3
		c-5.5,0-10.9,0-16.4,0c-0.4,0-0.6,0.1-0.7,0.4C177.6,158.9,177.1,159.8,176.6,160.8z M86.7,143.7c-5.2,0-10.5,0-15.7,0
		c-1.1,0-1.9,0.3-2.7,1.1c-1.8,1.8-3.7,3.6-5.5,5.5c-0.7,0.7-1,1.5-1.1,2.4c-0.1,1.5,1.1,3,2.5,3c1.8,0,3.7,0,5.5,0
		c0.2,0,0.4,0,0.5-0.2c0-0.7,0.1-1.4-0.1-2.1c-0.2-0.5-0.8-0.2-1-0.2c0.6-0.7,1.3-1.5,2-2.3c0,1.5,0,2.8,0,4.1
		c0,0.6,0.1,0.8,0.8,0.8c1.8-0.1,3.7-0.1,5.5,0c0.6,0,0.7-0.2,0.7-0.7c-0.2-4.6,1.8-8,5.8-10.3C84.8,144.1,85.7,144,86.7,143.7z
		 M88.8,146.5c-4.3,0-7.6,3.2-7.6,7.5c0,4.4,3.3,7.7,7.7,7.7c4.1,0,7.4-3.4,7.4-7.6C96.2,149.8,93,146.4,88.8,146.5z M167.8,146.5
		c-4.2,0-7.6,3.5-7.6,7.6c0,4.2,3.5,7.6,7.7,7.5c4.1,0,7.5-3.5,7.4-7.7C175.3,149.8,172,146.4,167.8,146.5z M78.2,125.9
		c-4.2,0-7.5,3.3-7.5,7.5c0,4.2,3.3,7.5,7.5,7.5c4.2,0,7.5-3.3,7.5-7.5C85.7,129.3,82.4,125.9,78.2,125.9z M120.4,154.1
		c0,4.2,3.4,7.6,7.5,7.6c4.1,0,7.5-3.5,7.5-7.6c0-4.1-3.4-7.6-7.4-7.6C123.7,146.5,120.4,149.7,120.4,154.1z M177.7,125.9
		c-4.2,0-7.6,3.3-7.6,7.5c0,4.2,3.4,7.6,7.6,7.6c4.2,0,7.5-3.4,7.5-7.8C185.2,129.2,181.8,125.9,177.7,125.9z M170.3,143.7
		c1.6,0.4,3,1,4.3,2.1c2.7,2.3,3.9,5.3,3.8,8.9c0,0.8,0.2,1,1,1c1.6-0.1,3.2,0,4.8,0c0.7,0,0.9-0.1,0.9-0.9c-0.1-1.3,0-2.5,0-3.9
		c0.7,0.7,1.4,1.4,2.1,2.1c-1-0.1-1.2,0.5-1.1,1.2c0,0.2,0,0.5,0,0.8c-0.1,0.5,0.1,0.7,0.7,0.7c1.7,0,3.3,0,5,0
		c0.9,0,1.5-0.4,2.1-1.1c1-1.3,0.9-2.9-0.3-4.2c-1.9-2.1-4-4-6.1-5.9c-0.6-0.5-1.2-0.8-2-0.8c-4.3,0-8.6,0-12.9,0
		C171.6,143.7,171,143.7,170.3,143.7z M158.1,125.1C158.1,125.1,158.1,125.1,158.1,125.1c2.8,0,5.5,0,8.3,0c2.3,0,3.4-1.1,3.4-3.4
		c0-2.4,0-4.8,0-7.2c0-0.4-0.1-0.6-0.5-0.8c-1.4-0.6-2.7-1.4-4-2.3c-0.2-0.1-0.3-0.4-0.6-0.2c-0.2,0.1-0.1,0.4-0.1,0.6
		c0,2.3,0,4.7,0,7c0,0.7-0.1,1-0.9,1c-5,0-10,0-14.9,0c-0.7,0-0.9,0.1-0.8,0.8c0.2,1.3,0.4,2.6,0.6,3.9c0.1,0.5,0.3,0.6,0.8,0.6
		C152.3,125.1,155.2,125.1,158.1,125.1z M110.8,156.6C110.8,156.6,110.8,156.6,110.8,156.6c2,0,4.1,0,6.1,0c0.4,0,0.7,0,0.6-0.6
		c-0.2-1.4-0.2-2.7,0.1-4.1c0.1-0.5,0-0.7-0.6-0.7c-1.2,0-2.5,0-3.8,0c-2.6,0-5.3,0-7.9,0c-1.5,0-2,0.6-2,2c0,0.5,0,0.9,0,1.4
		c0,1.4,0.4,1.8,1.8,1.8C107,156.6,108.9,156.6,110.8,156.6z M145.2,156.6C145.2,156.6,145.2,156.6,145.2,156.6c2,0,4,0,6,0
		c1.1,0,1.5-0.4,1.5-1.5c0-0.6,0-1.3,0-1.9c0-1.2-0.6-1.8-1.8-1.8c-4.1,0-8.1,0-12.2,0c-0.4,0-0.6,0.1-0.5,0.6
		c0.3,1.3,0.3,2.7,0.1,4c-0.1,0.6,0.1,0.7,0.6,0.7C141,156.6,143.1,156.6,145.2,156.6z M143.5,165.9c1.7,2.1,3.3,4,5,6
		c0.4-2.6,2.3-4.1,3.6-6C149.3,165.9,146.5,165.9,143.5,165.9z M107.5,171.8c1.6-2,3.2-3.9,4.7-5.9c-2.8,0-5.5,0-8.3,0
		C105.4,167.8,106.9,169.4,107.5,171.8z"/>
	<path class="st2" d="M117.7,114.4c-0.3,2.9-0.5,5.7-0.7,8.5c-0.3,3.2-1.4,6.3-2.2,9.4c-0.1,0.4-0.3,0.4-0.6,0.2
		c-1.3-1-2.6-1.8-4.2-2.2c-0.5-0.1-0.3-0.5-0.2-0.7c0.3-2.1,0.7-4.2,1-6.3c0.5-3.9,0.7-7.9,1-11.8c0.1-1.3,0.2-2.6,0.5-3.8
		c0.6-2.7,2.2-4.6,4.8-5.5c0.9-0.3,1.9-0.5,2.8-0.9c0.6-0.2,0.9-0.1,1.1,0.5c0.8,2,2,3.8,3.3,5.5c0.4,0.5,0.7,0.6,1.2,0.1
		c0.8-0.7,1.5-1.5,2.1-2.4c0.3-0.4,0.5-0.4,0.8,0c0.7,0.8,1.3,1.7,2.2,2.4c0.4,0.4,0.7,0.4,1.1-0.1c1.4-1.7,2.5-3.6,3.3-5.7
		c0.2-0.5,0.4-0.6,1-0.5c1.3,0.4,2.6,0.7,3.9,1.3c2.1,1,3.3,2.7,3.7,4.9c0.6,3.1,0.7,6.2,1,9.3c0.3,4.3,0.9,8.6,1.8,12.8
		c0.1,0.5,0,0.7-0.5,0.8c-1.4,0.4-2.7,1.1-3.9,2c-0.5,0.4-0.6,0.2-0.8-0.3c-1.5-5.1-2.4-10.2-2.7-15.5c0-0.6-0.1-1.2-0.2-2
		c-0.5,0.7-0.6,1.4-0.8,2c-0.5,1.7-1.3,3.3-1.7,5c-0.1,0.6,0,1.2,0.1,1.8c0.5,2.1,1.1,4.1,1.7,6.2c1.9,6.2,3.8,12.4,5.7,18.6
		c0.2,0.7,0.1,0.8-0.6,0.8c-1.5-0.1-3.1,0-4.6,0c-0.5,0-0.7-0.1-1-0.5c-4-6.7-13.8-6.7-17.9-0.1c-0.3,0.5-0.6,0.6-1.1,0.6
		c-1.6-0.1-3.1-0.1-4.7,0c-0.7,0-0.7-0.2-0.5-0.7c1.2-3.9,2.4-7.9,3.6-11.8c0.9-2.9,1.7-5.8,2.6-8.7c0.5-1.6,0.8-3.1,1.3-4.7
		c0.2-0.6,0.2-1.2-0.1-1.8c-0.8-2.1-1.5-4.3-2.2-6.4C117.9,114.8,117.8,114.7,117.7,114.4z M127.9,128.6c0.6-0.1,1-0.3,1-1
		c0-0.6-0.5-1.1-1.1-1c-0.6,0-0.9,0.4-0.9,1C126.9,128.2,127.2,128.5,127.9,128.6z M127.8,115.2c0.6-0.1,1.1-0.3,1.1-0.9
		c0-0.6-0.3-1-1-1c-0.6,0-0.9,0.4-1,1C126.9,114.9,127.2,115.2,127.8,115.2z M127.9,110.8c0.5,0,0.9-0.3,0.9-1c0-0.6-0.4-1-1-1
		c-0.6,0-0.9,0.4-0.9,1C126.9,110.4,127.2,110.8,127.9,110.8z M127.9,119.6c0.6-0.1,1-0.4,1-1c0-0.6-0.4-0.9-1-0.9c-0.6,0-1,0.4-1,1
		C127,119.3,127.4,119.5,127.9,119.6z M128.8,123c0.1-0.7-0.4-0.8-0.9-0.9c-0.6,0-0.9,0.4-1,1c0,0.7,0.5,1.1,0.9,1
		C128.4,124.1,128.9,123.7,128.8,123z"/>
	<path class="st3" d="M176.5,112c-9.7,0.1-16.7-8.8-15.1-17.9c0.8-4.5,3.3-8,7.3-10.5c2.7-1.6,5.6-2.5,8.7-2.3
		c2.4,0.2,4.6,0.9,6.7,2.1c5.2,3.1,8,7.7,7.9,13.9c0,3.3-1.4,6.2-3.3,8.8C185.6,110.2,181.4,111.9,176.5,112z M175.8,107.3
		c-0.4,0-0.8,0-1.1-0.1c-4.3-1.1-7.2-3.7-8.6-8c-0.5-1.7-0.5-1.7,1.2-1.7c0,0,0.1,0,0.1,0c0.6,0.1,1-0.3,1-0.9c0-0.6-0.4-1-1-1
		c-0.7,0-1.4,0-2.2,0c-0.8,0-1.1,0.3-1.2,1.2c-0.1,0.7,0.2,1.4,0.3,2c0.9,4.7,3.7,7.9,8.1,9.4c4.6,1.6,8.7,0.7,12.4-2.5
		c0.4-0.3,0.5-0.8,0.2-1.2c-0.3-0.4-0.7-0.6-1.2-0.4c-0.2,0.1-0.4,0.3-0.6,0.4c-1.4,1.2-3,2.1-4.9,2.5c-0.5,0.1-0.7,0.1-0.7-0.5
		c0-0.4,0-0.8,0-1.3c0-0.6-0.4-0.9-1-1c-0.5-0.1-0.7,0.2-0.9,0.7C175.6,105.8,175.7,106.5,175.8,107.3z M174.6,96.6
		c0,1.3,0.9,2.2,2,2.2c1.1,0,1.9-1,1.8-2.1c0-0.3,0.1-0.5,0.3-0.7c0.9-0.9,1.8-1.8,2.7-2.7c1-1,2.1-2,3.1-3.1c0.6-0.7,0.6-1.2,0-1.8
		c-0.6-0.6-1.1-0.5-1.7,0c-0.5,0.4-1,0.9-1.5,1.3c-0.7,0.7-1.4,1.4-2.1,2.1c-0.8,0.7-1.6,1.4-2.3,2.2c-0.3,0.4-0.6,0.6-1.1,0.8
		C175.1,95.2,174.6,95.9,174.6,96.6z M175.8,86.5C175.8,86.5,175.8,86.5,175.8,86.5c0,0.5,0,0.9,0,1.4c0,0.4,0.1,1,0.6,1
		c0.6,0,1.2-0.3,1.2-1c0.1-0.9,0.1-1.9,0-2.8c0-0.6-0.4-0.8-1.1-0.8c-0.7,0-0.7,0.4-0.7,0.9C175.8,85.6,175.8,86.1,175.8,86.5z
		 M186.9,97.4C186.9,97.4,186.9,97.4,186.9,97.4c0.4,0,0.7,0,1.1,0c0.6,0,0.9-0.2,1-0.8c0-0.5-0.2-1-0.7-1c-0.9-0.1-1.8-0.1-2.7,0
		c-0.4,0-0.8,0.4-0.8,0.9c0.1,0.5,0.4,0.8,0.9,0.8C186.1,97.4,186.5,97.4,186.9,97.4z"/>
	<path class="st2" d="M122.6,73.1c-1.5,0.7-2.9,1.5-4,2.8c-0.3,0.3-0.7,0.2-1,0.2c-8.4,0-16.7,0-25.1,0c-1.1,0-1.1,0-1.1,1.1
		c0,13.9,0,27.9,0,41.8c0,0.6,0.2,0.8,0.8,0.8c5,0,9.9,0,14.9,0c0.7,0,0.9,0.2,0.8,0.9c-0.2,1.3-0.4,2.5-0.5,3.8
		c-0.1,0.5-0.3,0.6-0.7,0.6c-5.9,0-11.7,0-17.6,0c-1.7,0-2.9-1.3-2.9-3.1c0-6.2,0-12.4,0-18.6c0-9.7,0-19.3,0-29
		c0-2.4,1.1-3.6,3.5-3.6c9.5,0,19.1,0,28.6,0c0.5,1.6,0.8,1.9,2.4,1.9c0.5,0,0.9,0,1.4,0C122.4,72.6,122.6,72.7,122.6,73.1z"/>
	<path class="st3" d="M115.1,95.7c0.6,0.1,1.2,0.2,1.8,0.2c1.3-0.1,1.8-0.9,1.2-2.1c-0.4-0.9-0.9-1.9-1.2-2.9
		c-2.1-6.4,1.6-13.6,7.8-15.4c6.3-1.8,13.1,2.5,14.3,9c0.6,3.2,0,6.2-1.4,9.2c-0.7,1.4-0.1,2.3,1.5,2.2c0.5,0,0.9-0.1,1.5-0.2
		c-1.1,1.7-2.5,2.6-4.4,2.8c-1.1,0.1-2.1-0.1-3.1-0.5c-0.5-0.2-0.8-0.2-1.1,0.4c-0.8,2.1-2.2,3.8-3.8,5.4c-0.3,0.3-0.5,0.5-0.9,0
		c-1.6-1.7-3.1-3.5-3.9-5.7c-0.2-0.5-0.4-0.3-0.7-0.2c-2.9,1.2-5.5,0.6-7.4-1.6C115.3,96.2,115.1,96,115.1,95.7z M129.5,81.6
		c-0.2,0.2-0.3,0.3-0.3,0.3c-2,3.2-4.7,5.4-8.5,6.1c-0.5,0.1-0.5,0.4-0.4,0.8c0.7,3.3,2.2,6.3,5.1,8.3c1.8,1.3,3.4,1.2,5.2-0.1
		c2.5-1.8,3.9-4.3,4.6-7.3c0.1-0.5-0.1-0.6-0.5-0.8c-1.2-0.3-2.4-0.8-3.3-1.7C129.8,85.8,129.2,83.9,129.5,81.6z"/>
	<path class="st3" d="M101.3,178.6c0,1.3,0,2.7-0.1,4c0,4.1,0,8.2,0,12.3c0,0.7-0.1,1.3-0.8,1.6c-1,0.4-1.9-0.1-2-1.3
		c0-1.3,0-2.6,0-3.8c0-0.4,0-0.6-0.5-0.6c-0.4,0-0.6,0.1-0.6,0.6c0,1.2,0,2.3,0,3.5c0,1.2-0.5,1.8-1.5,1.8c-0.9,0-1.4-0.6-1.4-1.7
		c0-1.2,0-2.4,0-3.6c0-0.4-0.1-0.6-0.6-0.6c-3.7,0-7.3,0-11,0c-0.5,0-0.6,0.2-0.6,0.6c0,1.3,0,2.5,0,3.8c0,0.9-0.5,1.4-1.4,1.5
		c-0.9,0-1.4-0.5-1.4-1.5c0-1.3,0-2.6,0-3.8c0-0.4,0-0.6-0.5-0.5c-0.4,0-0.6,0.1-0.6,0.6c0,1.2,0,2.3,0,3.5c0,0.2,0,0.5-0.1,0.7
		c-0.2,0.7-0.8,1.1-1.5,1.1c-0.7-0.1-1.2-0.5-1.2-1.3c0-1,0-1.9,0-2.9c0-4.4,0-8.8,0-13.2c0-0.2,0-0.5,0-0.7c0-1.6,0-3.1,0-4.7
		c0-2.6,1.9-4.6,4.1-4.7c2.4-0.1,4.8-0.2,7.2-0.1c1.9,0.1,3.7,0,5.6,0.1c1.6,0,3.1-0.1,4.7,0.1c2.1,0.2,3.9,2.1,3.9,4.2
		c0,1.3,0,2.5,0,3.8C101.1,177.6,101,178.1,101.3,178.6z M88.4,188C88.4,188,88.4,188,88.4,188c3.1,0,6.2,0,9.3,0
		c0.5,0,0.7-0.1,0.7-0.7c0-4.5,0-9,0-13.5c0-1.4-0.7-2.2-2.2-2.2c-5.2,0-10.4,0-15.6,0c-1.6,0-2.3,0.8-2.3,2.3c0,4.4,0,8.9,0,13.3
		c0,0.6,0.1,0.8,0.8,0.8C82.2,188,85.3,188,88.4,188z"/>
	<path class="st3" d="M80.2,160.8c-2.9,0.1-4.6,2-6.1,4c-1.2,1.6-2.4,3.1-3.6,4.6c-0.7,0.8-1,1.8-0.9,2.9c0,6,0,12.1,0,18.1
		c0,1.1-0.5,1.7-1.4,1.7c-0.8,0-1.3-0.4-1.4-1.2c-0.1-0.5,0-1,0-1.5c0-6.9,0-13.8,0-20.6c0-0.4,0.1-0.8-0.5-0.8
		c-0.6,0-0.6,0.3-0.6,0.8c0,4.1,0,8.2,0,12.4c0,0.9,0,1.9,0,2.8c0,0.9-0.5,1.4-1.4,1.5c-0.8,0.1-1.4-0.5-1.5-1.3c0-0.4,0-0.7,0-1.1
		c0-4.8,0-9.5,0-14.3c0-0.6-0.1-0.9-0.8-0.8c-1.6,0-2-0.4-2-2c0-2.3,0-4.7,0-7c0-1,0.3-1.4,1.4-1.4c4.4,0,8.7,0,13.1,0
		c1.2,0,2.4,0,3.7,0c0.3,0,0.5-0.1,0.7,0.3C79,158.8,79.5,159.7,80.2,160.8z"/>
	<path class="st3" d="M181.1,178.5c0,0.5-0.1,0.9-0.1,1.4c0,5.1,0,10.2,0,15.3c0,1.1-0.9,1.8-1.9,1.4c-0.6-0.2-0.8-0.7-0.8-1.3
		c0-1.2,0-2.4,0-3.6c0-0.4,0.2-0.9-0.5-0.9c-0.8,0-0.6,0.5-0.6,0.9c0,1.1,0,2.3,0,3.4c0,1-0.5,1.5-1.4,1.6c-0.9,0-1.4-0.6-1.4-1.6
		c0-1.2,0-2.4,0.1-3.7c0-0.4,0-0.6-0.6-0.6c-3.8,0-7.6,0-11.4,0c-0.6,0-0.6,0.2-0.6,0.7c0,1.2,0,2.4,0,3.6c0,1.1-0.5,1.6-1.5,1.6
		c-0.9,0-1.4-0.5-1.4-1.6c0-1.1,0-2.2,0-3.3c0-0.4,0.3-0.9-0.5-0.9c-0.8,0-0.5,0.6-0.5,0.9c0,1.1,0,2.2,0,3.3c0,1.1-0.5,1.6-1.5,1.6
		c-0.9,0-1.4-0.6-1.4-1.6c0-5.4,0-10.9,0-16.3c0-1.7,0-3.5,0.1-5.2c0.2-2.3,1.6-4,3.8-4.5c1-0.2,2.1,0,3.1-0.1
		c2.4-0.2,4.8,0.1,7.1,0c2.4-0.1,4.8,0.1,7.2,0.1c1.9,0,4.6,2.3,4.5,4.5c-0.1,1.4,0,2.7,0,4.1C180.9,177.9,180.8,178.2,181.1,178.5z
		 M168.1,188c3.2,0,6.3,0,9.5,0c0.5,0,0.7-0.1,0.7-0.7c0-4.6,0-9.1,0-13.7c0-1.1-0.7-1.9-1.8-2c-0.3,0-0.6,0-0.8,0
		c-5.1,0-10.2,0-15.3,0c-1.7,0-2.5,0.7-2.5,2.5c0,4.4,0,8.8,0,13.2c0,0.6,0.2,0.7,0.7,0.7C161.7,188,164.9,188,168.1,188z"/>
	<path class="st3" d="M176.6,160.8c0.5-1,0.9-1.9,1.3-2.8c0.1-0.3,0.3-0.4,0.7-0.4c5.5,0,10.9,0,16.4,0c0.9,0,1.3,0.4,1.3,1.3
		c0,2.4,0,4.8,0,7.3c0,1.3-0.4,1.8-1.7,1.8c-0.7,0-0.7,0.3-0.7,0.9c0,5,0,9.9,0,14.9c0,0.6,0,1.1-0.6,1.5c-0.5,0.4-1.1,0.4-1.7,0.1
		c-0.5-0.3-0.6-0.8-0.6-1.3c0-5,0-10,0-15c0-0.3,0.2-0.8-0.4-0.8c-0.5,0-0.7,0-0.7,0.6c0,1.5,0,3.1,0,4.6c0,5.7,0,11.4,0,17
		c0,0.3,0,0.6-0.1,0.8c-0.2,0.7-0.7,1-1.4,1c-0.7,0-1.1-0.4-1.3-1.1c0-0.2,0-0.4,0-0.7c0-6,0-12,0-18c0-1.2-0.6-2.2-1.2-3.1
		c-1.5-2.1-3.1-4.1-4.8-6.1C179.8,161.8,178.4,161,176.6,160.8z"/>
	<path class="st3" d="M140.7,179.2c0,4.2,0,8.4,0,12.6c0,0.8-0.7,1.4-1.4,1.3c-0.7,0-1.2-0.5-1.2-1.4c0-0.3,0-0.6-0.1-0.8
		c-0.1-0.2-0.4-0.1-0.6-0.1c-0.3,0-0.3,0.3-0.3,0.5c0,1.3,0,2.5,0,3.8c0,1-0.6,1.6-1.5,1.6c-0.9,0-1.4-0.6-1.4-1.6
		c0-1.2,0-2.4,0.1-3.7c0-0.5-0.1-0.6-0.6-0.6c-3.8,0-7.6,0-11.3,0c-0.5,0-0.7,0.2-0.6,0.7c0,1.2,0,2.4,0,3.7c0,1-0.5,1.5-1.5,1.5
		c-1,0-1.4-0.5-1.4-1.5c0-1.2,0-2.3,0-3.5c0-0.3,0.2-0.8-0.5-0.8c-0.6,0-0.4,0.5-0.4,0.8c0,0.8-0.3,1.2-1,1.4
		c-1,0.3-1.7-0.3-1.7-1.4c0-3.8,0-7.6,0-11.4c0-0.3,0-0.5,0-0.8c0-1.6-0.1-3.2,0-4.8c0.1-1.2,0-2.4,0.8-3.4c1.1-1.5,2.6-2.4,4.5-2.3
		c4.8,0,9.7,0,14.5,0c0.9,0,1.7,0,2.5,0.3c1.9,0.5,3.2,2.4,3.2,4.4C140.7,175.4,140.7,177.3,140.7,179.2z M128,188
		C128,188,128,188,128,188c3.1,0,6.2,0,9.3,0c0.6,0,0.8-0.1,0.8-0.7c0-4.5,0-9.1,0-13.6c0-1.3-0.7-2.1-2-2.1c-5.3,0-10.5,0-15.8,0
		c-1.4,0-2.2,0.8-2.2,2.2c0,4.5,0,9,0,13.4c0,0.6,0.2,0.7,0.8,0.7C121.8,188,124.9,188,128,188z"/>
	<path class="st2" d="M74.2,88.2c4.1-2.2,8.7,1,8.5,5.8c-0.2,3.8-1.6,7.1-4.6,9.7c-1.1,1-2.4,1.2-3.8,0.3c-0.8-0.5-1.6-0.6-2.3,0
		c-1.3,0.9-3.1,0.5-3.9-0.4c-3-3.1-4.9-6.7-4.2-11.2c0.5-3.3,3.5-5.4,6.5-4.8c0.6,0.1,1.1,0.5,1.7,0.7c0.1,0.6,0.3,1.1,0,1.7
		c-3-1.6-5.3,0-6.1,2.7c0,0.2-0.1,0.3-0.1,0.5c-0.2,0.6,0,1.4,0.5,1.6c0.5,0.2,1.1-0.2,1.3-1c0.5-2.1,2.2-3,4.2-2
		c1,0.5,1.9,0.5,2.9,0c0.8-0.4,1.7-0.7,2.6-0.6c0.5,0.1,1,0,1.1-0.6c0.1-0.6-0.2-0.9-0.7-1c-1-0.4-2-0.2-2.9,0.1
		C74,89.4,74.6,88.7,74.2,88.2z"/>
	<path class="st2" d="M140.7,179.2c0-1.9,0-3.7-0.1-5.6c0-2-1.3-3.9-3.2-4.4c-0.8-0.2-1.7-0.3-2.5-0.3c-4.8,0-9.7,0-14.5,0
		c-1.9,0-3.4,0.9-4.5,2.3c-0.8,1-0.7,2.3-0.8,3.4c-0.1,1.6,0,3.2,0,4.8c-1.4,1-2.9,1.2-4.4,0.4c-1.9-1.1-2.5-3.5-1.3-5.3
		c0.9-1.4,2-2.6,3.1-3.9c1.3-1.6,2.7-3.2,4-4.8c0.9-1.1,2.1-1.6,3.5-1.5c5.2,0,10.5,0.1,15.7,0c1.5,0,2.7,0.5,3.7,1.6
		c1.5,1.8,3.1,3.7,4.6,5.5c0.8,1,1.8,1.9,2.5,3.1c1.4,2.3,0.3,5.2-2.1,5.8c-1.1,0.3-2.1,0-3.1-0.7
		C141.1,179.3,141,179.1,140.7,179.2z"/>
	<path class="st2" d="M137.5,70.8c9.7,0,19.4,0,29,0c2,0,3.2,1.3,3.2,3.3c0,1.6,0,3.2,0,4.8c0,0.4-0.1,0.7-0.5,0.9
		c-1.6,0.7-3.1,1.6-4.4,2.6c-0.3-0.2-0.2-0.5-0.2-0.8c0-1.5-0.1-3.1,0-4.6c0-0.7-0.1-0.9-0.9-0.9c-8.5,0-16.9,0-25.4,0
		c-0.6,0-1-0.1-1.4-0.5c-1.1-1.2-2.5-1.9-3.9-2.6c0.1-0.4,0.4-0.4,0.8-0.4c0.7,0,1.4,0,2.1,0c0.8,0,1.3-0.4,1.5-1.1
		C137.4,71.3,137.4,71,137.5,70.8z"/>
	<path class="st3" d="M86.7,143.7c-0.9,0.3-1.9,0.4-2.7,0.9c-4,2.3-6,5.7-5.8,10.3c0,0.6,0,0.8-0.7,0.7c-1.8,0-3.7,0-5.5,0
		c-0.7,0-0.8-0.2-0.8-0.8c0-1.3,0-2.6,0-4.1c-0.8,0.9-1.4,1.6-2,2.3c0.2,0.1,0.8-0.3,1,0.2c0.2,0.7,0.1,1.4,0.1,2.1
		c0,0.3-0.3,0.2-0.5,0.2c-1.8,0-3.7,0-5.5,0c-1.4,0-2.6-1.5-2.5-3c0.1-0.9,0.4-1.7,1.1-2.4c1.8-1.8,3.7-3.6,5.5-5.5
		c0.7-0.7,1.6-1.1,2.7-1.1C76.2,143.7,81.4,143.7,86.7,143.7z"/>
	<path class="st2" d="M88.8,146.5c4.2,0,7.5,3.3,7.5,7.6c0,4.2-3.3,7.6-7.4,7.6c-4.4,0-7.7-3.3-7.7-7.7
		C81.1,149.7,84.4,146.5,88.8,146.5z"/>
	<path class="st2" d="M167.8,146.5c4.1,0,7.5,3.3,7.6,7.5c0,4.2-3.3,7.6-7.4,7.7c-4.2,0-7.7-3.3-7.7-7.5
		C160.2,149.9,163.6,146.5,167.8,146.5z"/>
	<path class="st2" d="M78.2,125.9c4.2,0,7.6,3.3,7.6,7.6c0,4.2-3.3,7.5-7.5,7.5c-4.2,0-7.5-3.3-7.5-7.5
		C70.7,129.2,74,125.9,78.2,125.9z"/>
	<path class="st2" d="M120.4,154.1c0-4.3,3.2-7.6,7.6-7.6c4,0,7.4,3.5,7.4,7.6c0,4.1-3.4,7.5-7.5,7.6
		C123.8,161.7,120.5,158.3,120.4,154.1z"/>
	<path class="st2" d="M177.7,125.9c4.1,0,7.5,3.3,7.5,7.3c0,4.4-3.2,7.8-7.5,7.8c-4.2,0-7.6-3.4-7.6-7.6
		C170.2,129.2,173.5,125.9,177.7,125.9z"/>
	<path class="st3" d="M137.5,70.8c-0.1,0.2-0.1,0.5-0.2,0.7c-0.2,0.7-0.7,1.2-1.5,1.1c-0.7,0-1.4,0-2.1,0c-0.3,0-0.6,0-0.8,0.4
		c-1.5-0.5-3.1-0.8-4.7-0.9c-1.9-0.1-3.8,0.4-5.6,0.9c0-0.4-0.2-0.4-0.6-0.4c-0.5,0-0.9,0-1.4,0c-1.6,0-2-0.3-2.4-1.9
		c0.2-1,0.1-2.1,0.1-3.2c0-1.1,0.3-1.3,1.3-1.3c1.9,0,3.8,0,5.8,0c0.5,0,0.7-0.1,0.7-0.7c0-2,0-2-1.9-2c-2.1,0-2.2-0.1-2.2-2.2
		c0-0.3,0-0.6,0-0.8c0-0.8,0.3-1.2,1.2-1.2c3.1,0,6.2,0,9.3,0c0.7,0,1.1,0.4,1.1,1.1c0,0.6,0,1.3,0,1.9c0,0.9-0.4,1.2-1.2,1.2
		c-0.7,0-1.4,0-2.2,0c-0.5,0-0.7,0.2-0.7,0.7c0,2.4-0.3,1.9,1.9,2c1.6,0,3.1,0,4.7,0c0.9,0,1.2,0.3,1.3,1.3
		C137.5,68.6,137.5,69.7,137.5,70.8z"/>
	<path class="st3" d="M170.3,143.7c0.7,0,1.4,0,2,0c4.3,0,8.6,0,12.9,0c0.8,0,1.5,0.2,2,0.8c2.1,1.9,4.2,3.9,6.1,5.9
		c1.2,1.3,1.2,2.9,0.3,4.2c-0.5,0.7-1.2,1.1-2.1,1.1c-1.7,0-3.3,0-5,0c-0.5,0-0.7-0.2-0.7-0.7c0-0.2,0-0.5,0-0.8
		c-0.1-0.7,0.1-1.3,1.1-1.2c-0.7-0.7-1.3-1.3-2.1-2.1c0,1.4-0.1,2.6,0,3.9c0,0.7-0.2,0.9-0.9,0.9c-1.6,0-3.2-0.1-4.8,0
		c-0.8,0-1-0.1-1-1c0.2-3.5-1.1-6.5-3.8-8.9C173.3,144.7,171.9,144.1,170.3,143.7z"/>
	<path class="st2" d="M181.1,178.5c-0.3-0.2-0.2-0.5-0.2-0.8c0-1.4-0.1-2.7,0-4.1c0.1-2.2-2.6-4.5-4.5-4.5c-2.4,0-4.8-0.2-7.2-0.1
		c-2.4,0.1-4.8-0.2-7.1,0c-1,0.1-2.1-0.1-3.1,0.1c-2.3,0.4-3.7,2.1-3.8,4.5c-0.1,1.8-0.1,3.5-0.1,5.2c-1.9-0.1-2.8-1-2.8-2.9
		c0-1.1,0-2.1,0-3.2c-0.1-1.1,0.3-2.1,0.9-3c1.1-1.5,2.2-2.9,3.4-4.2c0.8-0.9,1.9-1.4,3.2-1.4c5.3,0,10.7,0,16,0
		c1.3,0,2.4,0.4,3.2,1.4c1.2,1.4,2.3,2.8,3.5,4.3c0.6,0.7,0.9,1.6,0.8,2.5c-0.1,1.1,0,2.2,0,3.3C183.2,177.2,182.7,178,181.1,178.5z
		"/>
	<path class="st2" d="M101.3,178.6c-0.3-0.5-0.2-1.1-0.2-1.6c0-1.3,0-2.5,0-3.8c0-2.1-1.8-4-3.9-4.2c-1.6-0.2-3.2,0-4.7-0.1
		c-1.9-0.1-3.7,0-5.6-0.1c-2.4-0.1-4.8,0.1-7.2,0.1c-2.3,0.1-4.1,2.2-4.1,4.7c0,1.6,0,3.1,0,4.7c-1.6-0.5-2.2-1.2-2.2-2.9
		c0-1.1,0-2.1,0-3.2c0-1.1,0.3-2.1,1-3c1-1.3,2.1-2.6,3.1-3.8c0.8-1,1.8-1.5,3.2-1.5c5.3,0.1,10.5,0,15.8,0c1.5,0,2.7,0.5,3.6,1.7
		c1,1.2,2,2.4,2.9,3.6c0.7,0.8,1.1,1.8,1,2.9c0,1.1,0,2.2,0,3.3C104,177.7,103.3,178.4,101.3,178.6z"/>
	<path class="st2" d="M158.1,125.1c-2.9,0-5.9,0-8.8,0c-0.5,0-0.7-0.1-0.8-0.6c-0.2-1.3-0.4-2.6-0.6-3.9c-0.1-0.7,0.1-0.8,0.8-0.8
		c5,0,10,0,14.9,0c0.8,0,1-0.2,0.9-1c0-2.3,0-4.7,0-7c0-0.2-0.1-0.5,0.1-0.6c0.2-0.1,0.4,0.1,0.6,0.2c1.3,0.9,2.6,1.7,4,2.3
		c0.4,0.2,0.5,0.4,0.5,0.8c0,2.4,0,4.8,0,7.2c0,2.3-1.1,3.4-3.4,3.4C163.7,125.1,160.9,125.1,158.1,125.1
		C158.1,125.1,158.1,125.1,158.1,125.1z"/>
	<path class="st2" d="M110.8,156.6c-1.9,0-3.8,0-5.7,0c-1.4,0-1.8-0.4-1.8-1.8c0-0.5,0-0.9,0-1.4c0-1.4,0.6-2,2-2c2.6,0,5.3,0,7.9,0
		c1.3,0,2.5,0,3.8,0c0.5,0,0.7,0.1,0.6,0.7c-0.3,1.3-0.3,2.7-0.1,4.1c0.1,0.5-0.2,0.6-0.6,0.6C114.8,156.6,112.8,156.6,110.8,156.6
		C110.8,156.6,110.8,156.6,110.8,156.6z"/>
	<path class="st2" d="M145.2,156.6c-2.1,0-4.1,0-6.2,0c-0.5,0-0.7-0.1-0.6-0.7c0.2-1.3,0.2-2.7-0.1-4c-0.1-0.5,0-0.6,0.5-0.6
		c4.1,0,8.1,0,12.2,0c1.2,0,1.8,0.6,1.8,1.8c0,0.6,0,1.3,0,1.9c0,1.1-0.4,1.5-1.5,1.5C149.2,156.6,147.2,156.6,145.2,156.6
		C145.2,156.6,145.2,156.6,145.2,156.6z"/>
	<path class="st3" d="M74.2,88.2c0.4,0.4-0.2,1.2,0.5,1.5c-0.9,0.5-1.7,1.1-2.7,0.3c0.3-0.6,0.2-1.1,0-1.7c-0.2-1.7-0.4-3.3-1.2-4.8
		c-0.3-0.5-0.1-0.8,0.3-1.1c0.4-0.3,0.8-0.3,1.2,0.1c0.5,0.5,0.7,1.1,1.1,1.7c0.9-2.5,2.8-3.5,5.2-3.9c0.7-0.1,0.9,0.1,0.8,0.8
		c-0.2,2.3-1.5,3.9-3.6,4.8c-0.6,0.2-1.4,0.1-1.7,0.6C73.9,86.9,74.2,87.6,74.2,88.2z"/>
	<path class="st3" d="M143.5,165.9c3,0,5.8,0,8.6,0c-1.2,2-3.2,3.4-3.6,6C146.9,169.9,145.3,168,143.5,165.9z"/>
	<path class="st3" d="M107.5,171.8c-0.5-2.4-2.1-4-3.5-5.9c2.8,0,5.4,0,8.3,0C110.6,167.9,109.1,169.8,107.5,171.8z"/>
	<path class="st1" d="M127.9,128.6c-0.7-0.1-1-0.4-1-1c0-0.6,0.3-1,0.9-1c0.6,0,1.1,0.5,1.1,1C128.9,128.3,128.4,128.5,127.9,128.6z
		"/>
	<path class="st1" d="M127.8,115.2c-0.6-0.1-0.9-0.4-0.9-1c0-0.6,0.3-1,1-1c0.6,0,1,0.4,1,1C128.9,114.9,128.4,115.2,127.8,115.2z"
		/>
	<path class="st1" d="M127.9,110.8c-0.7,0-1-0.4-1-1c0-0.6,0.3-1,0.9-1c0.6,0,1,0.4,1,1C128.9,110.5,128.5,110.8,127.9,110.8z"/>
	<path class="st1" d="M127.9,119.6c-0.5,0-0.9-0.3-0.9-0.9c0-0.6,0.4-1,1-1c0.6,0,0.9,0.3,1,0.9
		C128.9,119.2,128.5,119.5,127.9,119.6z"/>
	<path class="st1" d="M128.8,123c0.1,0.7-0.4,1.1-0.9,1.2c-0.4,0-1-0.4-0.9-1c0-0.6,0.3-1,1-1C128.4,122.1,128.9,122.3,128.8,123z"
		/>
	<path class="st1" d="M175.8,107.3c-0.1-0.8-0.2-1.4,0.1-2.1c0.2-0.5,0.4-0.8,0.9-0.7c0.5,0.1,0.9,0.4,1,1c0,0.4,0,0.8,0,1.3
		c0,0.6,0.2,0.6,0.7,0.5c1.9-0.4,3.5-1.3,4.9-2.5c0.2-0.2,0.4-0.3,0.6-0.4c0.5-0.3,0.9-0.1,1.2,0.4c0.3,0.4,0.2,0.9-0.2,1.2
		c-3.7,3.1-7.8,4.1-12.4,2.5c-4.5-1.6-7.2-4.7-8.1-9.4c-0.1-0.7-0.4-1.3-0.3-2c0.1-0.9,0.3-1.2,1.2-1.2c0.7,0,1.4,0,2.2,0
		c0.6,0,1,0.3,1,1c0,0.6-0.4,0.9-1,0.9c0,0-0.1,0-0.1,0c-1.7,0-1.8,0.1-1.2,1.7c1.3,4.3,4.3,6.9,8.6,8
		C175,107.3,175.4,107.3,175.8,107.3z"/>
	<path class="st1" d="M174.6,96.6c0-0.8,0.5-1.5,1.3-1.7c0.5-0.1,0.8-0.4,1.1-0.8c0.7-0.8,1.5-1.5,2.3-2.2c0.7-0.7,1.4-1.4,2.1-2.1
		c0.5-0.5,1-0.9,1.5-1.3c0.6-0.5,1.1-0.6,1.7,0c0.6,0.6,0.6,1.1,0,1.8c-1,1-2,2-3.1,3.1c-0.9,0.9-1.8,1.8-2.7,2.7
		c-0.2,0.2-0.3,0.4-0.3,0.7c0.1,1.1-0.7,2.1-1.8,2.1C175.5,98.8,174.6,97.9,174.6,96.6z"/>
	<path class="st1" d="M175.8,86.5c0-0.4,0-0.9,0-1.3c0-0.5,0.1-0.9,0.7-0.9c0.6,0,1,0.3,1.1,0.8c0.1,0.9,0.1,1.9,0,2.8
		c0,0.7-0.6,1-1.2,1c-0.5,0-0.6-0.6-0.6-1C175.8,87.5,175.8,87,175.8,86.5C175.8,86.5,175.8,86.5,175.8,86.5z"/>
	<path class="st1" d="M186.9,97.4c-0.4,0-0.8,0-1.2,0c-0.6,0-0.9-0.3-0.9-0.8c-0.1-0.5,0.3-0.9,0.8-0.9c0.9-0.1,1.8-0.1,2.7,0
		c0.5,0,0.8,0.5,0.7,1c0,0.5-0.4,0.8-1,0.8C187.6,97.4,187.3,97.4,186.9,97.4C186.9,97.4,186.9,97.4,186.9,97.4z"/>
	<path class="st1" d="M129.5,81.6c-0.3,2.3,0.2,4.1,1.8,5.6c0.9,0.9,2.1,1.4,3.3,1.7c0.5,0.1,0.6,0.3,0.5,0.8
		c-0.7,3-2.1,5.5-4.6,7.3c-1.8,1.3-3.4,1.3-5.2,0.1c-2.9-2-4.3-4.9-5.1-8.3c-0.1-0.4-0.1-0.7,0.4-0.8c3.7-0.7,6.5-2.9,8.5-6.1
		C129.3,81.9,129.3,81.8,129.5,81.6z"/>
	<path class="st1" d="M88.4,188c-3.1,0-6.2,0-9.3,0c-0.6,0-0.8-0.2-0.8-0.8c0-4.4,0-8.9,0-13.3c0-1.6,0.7-2.3,2.3-2.3
		c5.2,0,10.4,0,15.6,0c1.4,0,2.2,0.7,2.2,2.2c0,4.5,0,9,0,13.5c0,0.6-0.2,0.7-0.7,0.7C94.6,188,91.5,188,88.4,188
		C88.4,188,88.4,188,88.4,188z M88.4,183.5C88.4,183.5,88.4,183.5,88.4,183.5c2.7,0,5.3,0,8,0c0.5,0,0.7-0.1,0.7-0.7
		c0-1.6,0-3.2,0-4.8c0-0.6-0.1-0.8-0.7-0.8c-5.3,0-10.7,0-16,0c-0.6,0-0.7,0.2-0.7,0.7c0,1.6,0,3.2,0,4.8c0,0.6,0.1,0.8,0.7,0.7
		C83.1,183.5,85.7,183.5,88.4,183.5z"/>
	<path class="st1" d="M168.1,188c-3.2,0-6.3,0-9.5,0c-0.6,0-0.7-0.1-0.7-0.7c0-4.4,0-8.8,0-13.2c0-1.8,0.7-2.5,2.5-2.5
		c5.1,0,10.2,0,15.3,0c0.3,0,0.6,0,0.8,0c1.1,0.1,1.8,0.9,1.8,2c0,4.6,0,9.1,0,13.7c0,0.6-0.2,0.7-0.7,0.7
		C174.4,188,171.2,188,168.1,188z M168.1,177.2C168.1,177.2,168.1,177.2,168.1,177.2c-2.7,0-5.4,0-8.2,0c-0.6,0-0.7,0.2-0.7,0.7
		c0.1,1.6,0.1,3.3,0.1,4.9c0,0.5,0.1,0.7,0.6,0.7c5.5,0,11,0,16.4,0c0.5,0,0.6-0.2,0.6-0.6c0-1.6,0-3.2,0-4.8c0-0.6-0.1-0.9-0.8-0.8
		C173.5,177.2,170.8,177.2,168.1,177.2z"/>
	<path class="st1" d="M128,188c-3.1,0-6.2,0-9.3,0c-0.6,0-0.8-0.1-0.8-0.7c0-4.5,0-9,0-13.4c0-1.4,0.8-2.2,2.2-2.2
		c5.3,0,10.5,0,15.8,0c1.3,0,2,0.8,2,2.1c0,4.5,0,9.1,0,13.6c0,0.6-0.2,0.7-0.8,0.7C134.1,188,131,188,128,188
		C128,188,128,188,128,188z M128,177.2C128,177.2,128,177.2,128,177.2c-2.6,0-5.3,0-7.9,0c-0.6,0-0.8,0.2-0.8,0.8c0,1.6,0,3.2,0,4.8
		c0,0.5,0.2,0.7,0.7,0.7c5.4,0,10.7,0,16.1,0c0.5,0,0.6-0.2,0.6-0.6c0-1.6,0-3.2,0-4.8c0-0.6-0.1-0.8-0.8-0.8
		C133.2,177.2,130.6,177.2,128,177.2z"/>
	<path class="st1" d="M72,90.1c1,0.8,1.8,0.2,2.7-0.3c1-0.3,1.9-0.5,2.9-0.1c0.5,0.2,0.8,0.5,0.7,1c-0.1,0.6-0.6,0.7-1.1,0.6
		c-1-0.2-1.8,0.1-2.6,0.6c-1,0.5-1.9,0.5-2.9,0c-2-1-3.6-0.2-4.2,2c-0.2,0.8-0.7,1.2-1.3,1c-0.5-0.2-0.7-1-0.5-1.6
		c0.1-0.2,0.1-0.3,0.1-0.5C66.7,90,69.1,88.4,72,90.1z"/>
	<path class="st3" d="M88.4,183.5c-2.7,0-5.3,0-8,0c-0.6,0-0.7-0.2-0.7-0.7c0-1.6,0-3.2,0-4.8c0-0.5,0.1-0.7,0.7-0.7
		c5.3,0,10.7,0,16,0c0.6,0,0.7,0.2,0.7,0.8c0,1.6,0,3.2,0,4.8c0,0.6-0.2,0.7-0.7,0.7C93.7,183.5,91.1,183.5,88.4,183.5
		C88.4,183.5,88.4,183.5,88.4,183.5z"/>
	<path class="st3" d="M168.1,177.2c2.7,0,5.4,0,8.1,0c0.7,0,0.8,0.2,0.8,0.8c-0.1,1.6,0,3.2,0,4.8c0,0.5-0.1,0.6-0.6,0.6
		c-5.5,0-11,0-16.4,0c-0.5,0-0.6-0.2-0.6-0.7c0-1.6,0-3.3-0.1-4.9c0-0.5,0.1-0.7,0.7-0.7C162.6,177.2,165.3,177.2,168.1,177.2
		C168.1,177.2,168.1,177.2,168.1,177.2z"/>
	<path class="st3" d="M128,177.2c2.6,0,5.3,0,7.9,0c0.6,0,0.8,0.2,0.8,0.8c0,1.6,0,3.2,0,4.8c0,0.5-0.1,0.6-0.6,0.6
		c-5.4,0-10.7,0-16.1,0c-0.5,0-0.7-0.1-0.7-0.7c0-1.6,0-3.2,0-4.8c0-0.6,0.1-0.8,0.8-0.8C122.7,177.2,125.3,177.2,128,177.2
		C128,177.2,128,177.2,128,177.2z"/>
</g>
</svg>
