<svg xmlns="http://www.w3.org/2000/svg" viewBox="0 0 256 256"><circle cx="128" cy="128" r="116" fill="#fff"/><path d="M111.7 167.8V192c0 4.1 3.3 7.3 7.3 7.3 4.1 0 7.3-3.3 7.3-7.3v-24.2h-14.6zm17.8 0V192c0 4.1 3.3 7.3 7.3 7.3 4.1 0 7.3-3.3 7.3-7.3v-24.2h-14.6zM94 96.9l-9.1 14.7c-1.3 2.2-1.2 4.9.3 6.9l9.1 12.1s-.3-7.5-.3-33.7zm78-.3-12.8-32.5c-1.2-3.1-4.8-4.7-7.9-3.5s-4.7 4.8-3.5 7.9l5.5 14c-4.5-2.5-6.9-3.2-8.9-3.2h-32.9c-5.7 0-10.6 3.3-13 8.1 2-.9 1.3-.7 23.5-.7h32.4a7.6 7.6 0 0 1 7.6 7.6v8.8c.7.5 2 1.7 4.3 1.7 1.3 0 2.6-.4 3.7-1.2 2.2-1.5 3-4.5 2-7z" fill="#273d85"/><path d="m167.8 145.5-.3-.1c-.5-.1-10.7-.1-10.7-.1v-9.7c-.8.3-1.6.4-2.5.4h-4c1.4 1.7 2.3 3.8 2.3 6.2 0 1.1-.2 2.1-.5 3.1v.1h-5.9c.9-.8 1.4-2 1.4-3.2 0-2.4-2-4.4-4.4-4.4h-8.5V131h19.8c1.4 0 2.5-1.1 2.5-2.5v-34c0-1.4-1.1-2.5-2.5-2.5h-52.8c-1.4 0-2.5 1.1-2.5 2.5v34c0 1.4 1.1 2.5 2.5 2.5h19.8v6.8H113c-2.4 0-4.4 2-4.4 4.4 0 1.3.6 2.4 1.4 3.2h-5.9v-.1c-.3-1-.5-2-.5-3.1 0-2.4.9-4.5 2.3-6.2h-4c-.9 0-1.9-.2-2.7-.5v9.8l-10.5.1h-.1c-4 .8-7.1 4.4-7.1 8.6v47.5c0 2.4 2 4.4 4.4 4.4s4.4-2 4.4-4.4v-39h75.8v39c0 2.4 2 4.4 4.4 4.4s4.4-2 4.4-4.4V154c-.1-4.2-3.1-7.7-7.1-8.5zM128 119.4a7.17 7.17 0 1 1 0-14.4 7.17 7.17 0 1 1 0 14.4z" fill="#6580d2"/><circle cx="128" cy="62.7" r="12.7" fill="#273d85"/></svg>