<?xml version="1.0" encoding="utf-8"?>
<svg version="1.1" id="Layer_1" xmlns="http://www.w3.org/2000/svg" xmlns:xlink="http://www.w3.org/1999/xlink" x="0px" y="0px"
	 viewBox="0 0 256 256" style="enable-background:new 0 0 256 256;" xml:space="preserve">
<style type="text/css">
	.st0{fill:#FFFFFF;}
	.st1{fill:#273D85;}
	.st2{fill:#6580D2;}
	.st3{fill:#DEEBF6;}
	.st4{fill:#F6FAFC;}
</style>
<circle class="st0" cx="128" cy="128" r="116"/>
<g>
	<path class="st1" d="M106.9,181.2c0-3.7-0.1-7.3,0-11c0.2-3.8-1.3-6.6-4.2-8.9c-2.9-2.3-5.7-4.5-8.1-7.3c-14.6-16.8-13-42,2.1-57.4
		c21.5-22,55.2-15.4,68.8,9.5c10.3,18.7,5.6,41-11.3,54.1c-4,3.1-5.8,6.6-5.7,11.6c0.2,7-0.1,14.1,0,21.1c0.1,5.2-1.7,9.3-6.5,11.8
		c-0.6,0.3-0.9,0.7-1.1,1.4c-0.6,2.4-2.1,4.2-4.1,5.4c-6.1,3.5-12.3,3.7-18.4,0.1c-2.1-1.2-3.6-3.1-4.2-5.5
		c-0.1-0.6-0.5-0.8-0.9-1.1c-4.5-3-6.7-7.2-6.5-12.7C106.9,188.5,106.9,184.8,106.9,181.2C106.9,181.2,106.9,181.2,106.9,181.2z
		 M127.6,168.6C127.6,168.6,127.6,168.5,127.6,168.6c2.6,0,5.1-0.1,7.6,0c1.4,0.1,1.8-0.4,1.7-1.8c-0.3-5.1,2-8.9,6.1-11.8
		c1.3-0.9,2.7-1.8,4-2.7c8.9-6.6,13.5-15.5,13.2-26.5c-0.2-9-3.7-16.6-10.3-22.8c-10.7-10-26.1-13-40.1-3.6
		c-15.5,10.3-20.8,33.9-5.6,49.5c2.2,2.3,4.9,4,7.5,5.8c4.6,3.1,6.9,7.2,6.7,12.7c-0.1,1.2,0.4,1.3,1.4,1.3
		C122.4,168.5,125,168.6,127.6,168.6z M127.6,202.4C127.6,202.5,127.6,202.5,127.6,202.4c2.5,0,5.1,0,7.6,0c2.2,0,3.8-1.5,3.8-3.5
		c0-2.1-1.4-3.4-3.8-3.4c-5,0-10.1,0-15.1,0c-2.3,0-3.6,1.2-3.6,3.2c-0.1,2.1,1.4,3.6,3.6,3.7C122.6,202.5,125.1,202.4,127.6,202.4z
		 M127.5,185.5C127.5,185.5,127.5,185.5,127.5,185.5c2.7,0,5.4,0,8.1,0c2,0,3.5-1.5,3.4-3.4c-0.1-1.8-1.5-3.3-3.4-3.3
		c-5.3,0-10.5,0-15.8,0c-2,0-3.3,1.3-3.3,3.2c0,2.1,1.3,3.5,3.3,3.5C122.4,185.5,124.9,185.5,127.5,185.5z"/>
	<path class="st1" d="M210.4,80.9c0,2.5-1.1,4.2-3.5,4.8c-2.5,0.7-5.1,1-7.6,1.6c-2.8,0.6-3.1,1-3.6,3.7c-0.4,2.3-0.7,4.6-1.3,6.9
		c-0.6,2.6-2.5,4-5,4.1c-2.3,0-4.4-1.4-5.1-3.8c-0.7-2.5-1.2-5.1-1.6-7.6c-0.3-1.9-1.3-2.9-3.2-3.2c-2.5-0.4-4.9-0.8-7.3-1.4
		c-2.7-0.7-4.1-2.5-4.1-5.1c0-2.3,1.2-4,3.4-4.5c2.6-0.6,5.2-1.2,7.8-1.6c2-0.3,3.1-1.4,3.4-3.4c0.4-2.5,1-5,1.7-7.4
		c0.6-2.2,2.2-3.4,4.5-3.6c2.8-0.2,4.8,1.1,5.4,3.8c0.7,2.6,1.2,5.2,1.7,7.8c0.3,1.5,1.1,2.3,2.7,2.6c2.7,0.5,5.3,1,7.9,1.7
		C209.1,76.7,210.4,78.4,210.4,80.9z"/>
	<path class="st2" d="M89.2,80.7c0,2.4-1.3,4.3-3.7,4.9c-2.5,0.7-5.1,1.2-7.6,1.7c-1.8,0.4-2.8,1.4-3,3.2c-0.4,2.3-0.8,4.6-1.3,6.9
		c-0.6,2.8-2.6,4.5-5.2,4.5c-2.6,0-4.5-1.6-5.2-4.5c-0.6-2.4-1.1-4.9-1.5-7.4c-0.3-1.5-1.1-2.2-2.5-2.5c-2.5-0.5-5.1-1-7.6-1.6
		c-2.9-0.6-4.4-2.4-4.4-5.1c0-2.6,1.5-4.3,4.5-4.9c2.5-0.5,5-1.1,7.5-1.5c1.7-0.3,2.5-1.3,2.8-2.8c0.5-2.3,0.8-4.7,1.4-7
		c0.7-3.1,2.3-4.5,4.9-4.5c2.6-0.1,4.7,1.5,5.4,4.4c0.6,2.4,1.1,4.8,1.6,7.2c0.3,1.5,1.2,2.3,2.6,2.6c2.5,0.6,5.1,1.1,7.6,1.8
		C87.9,76.7,89.2,78.5,89.2,80.7z"/>
	<path class="st1" d="M89.2,178.4c-0.1,2.5-1.7,4.2-4.5,4.7c-2.3,0.4-4.5,0.9-6.8,1.3c-1.8,0.3-2.7,1.3-3,3
		c-0.4,2.2-0.8,4.5-1.3,6.7c-0.4,1.9-1.4,3.4-3.2,4.2c-3.1,1.3-6.3-0.3-7.1-3.6c-0.6-2.6-1.1-5.2-1.7-7.8c-0.3-1.3-1-2.1-2.4-2.4
		c-2.7-0.5-5.3-0.9-8-1.5c-2.8-0.6-4.2-2.3-4.2-4.9c0-2.5,1.3-4.2,4.1-4.8c2.5-0.6,5.1-1.1,7.6-1.6c1.7-0.3,2.7-1.2,3-3
		c0.4-2.2,0.7-4.4,1.2-6.5c0.6-3.1,2.4-4.8,5.1-4.8c2.7-0.1,4.7,1.5,5.5,4.5c0.6,2.3,1,4.5,1.4,6.8c0.3,1.7,1.3,2.7,3,3
		c2.6,0.5,5.1,1,7.6,1.6C87.9,174.1,89.3,176,89.2,178.4z"/>
	<path class="st1" d="M56.9,135.3c-3.6,0-7.2,0-10.8,0c-3.7,0-5.8-2-6-5.4c-0.1-2.9,2.1-5.1,5.5-5.1c7.6-0.1,15.2-0.1,22.8-0.1
		c3,0,5.4,2.7,5.3,5.5c-0.1,2.8-2.5,5-5.5,5C64.5,135.2,60.7,135.2,56.9,135.3C56.9,135.2,56.9,135.3,56.9,135.3z"/>
	<path class="st1" d="M199,135.3c-3.7,0-7.4,0-11.1,0c-3.4,0-5.8-2.1-5.8-5.2c-0.1-2.9,2.1-5.2,5.4-5.3c7.7-0.1,15.4-0.1,23.1-0.1
		c3.1,0,5.4,2.6,5.3,5.5c0,3-2.3,5.1-5.6,5.1C206.5,135.3,202.7,135.2,199,135.3C199,135.2,199,135.2,199,135.3z"/>
	<path class="st2" d="M175.3,180.5c0-2.5,1.8-4.3,4.4-4.4c2.6-0.1,2.8-0.3,3.3-2.8c0.4-2.4,1.5-4.3,4-4.8c2.1-0.4,3.9,0.6,4.6,2.6
		c0.4,1.1,0.6,2.2,0.9,3.4c0.2,1.2,0.9,1.7,2.1,1.7c0.5,0,1.1,0,1.7,0.1c2.3,0.4,3.8,2.5,3.7,4.6c-0.2,2.3-1.9,3.8-4.3,3.9
		c-2.8,0.1-2.9,0.2-3.3,3c-0.3,1.8-0.8,3.5-2.7,4.2c-2.6,1.1-5.1,0-6-2.7c-0.3-0.7-0.4-1.5-0.6-2.2c-0.4-2.1-0.7-2.3-2.8-2.3
		C177.1,184.8,175.3,183.2,175.3,180.5z"/>
	<path class="st1" d="M122.5,56.8c0-3.1,0-6.2,0-9.3c0-3.3,2.1-5.4,5.2-5.5c3-0.1,5.3,2.1,5.4,5.3c0.1,6.5,0.1,13.1,0,19.6
		c0,2.9-2.5,5.1-5.3,5.1c-2.7,0-5.2-2.6-5.3-5.4C122.4,63.3,122.4,60,122.5,56.8C122.4,56.8,122.5,56.8,122.5,56.8z"/>
	<path class="st2" d="M158.9,58.4c2.9,0,5.4,2.6,5.4,5.6c0,2.7-2.5,5.2-5.3,5.2c-2.9,0-5.5-2.7-5.5-5.6
		C153.6,60.7,155.9,58.3,158.9,58.4z"/>
	<path class="st1" d="M92.2,65.2c0-0.2-0.1-0.4-0.1-0.6c0-0.1,0-0.2,0-0.3c0-0.6,0-1.1,0-1.7c0-0.1,0-0.2,0-0.3
		c0.5-1.7,1.7-3.3,3.1-3.8c1.6-0.6,3.7-0.6,5.3,0.8c1.6,1.5,2.6,3.3,2.1,5.6c-0.5,2.2-2.2,3.8-4.3,4.1c-2.4,0.3-4.2-0.7-5.5-2.7
		c-0.1-0.2-0.3-0.5-0.4-0.7C92.4,65.5,92.3,65.4,92.2,65.2z"/>
	<path class="st3" d="M92.2,65.2c0.1,0.1,0.1,0.3,0.2,0.4C92.4,65.5,92.3,65.4,92.2,65.2z"/>
	<path class="st3" d="M92.1,64.4c0,0.1,0,0.2,0,0.3c0-0.1-0.1-0.1-0.1-0.2C92,64.4,92.1,64.4,92.1,64.4z"/>
	<path class="st3" d="M92.2,62.4c0,0.1,0,0.2,0,0.3c0-0.1-0.1-0.2-0.1-0.2C92,62.4,92.1,62.4,92.2,62.4z"/>
	<path class="st4" d="M127.6,168.6c-2.6,0-5.2,0-7.8,0c-1,0-1.5-0.1-1.4-1.3c0.2-5.5-2.1-9.7-6.7-12.7c-2.6-1.8-5.2-3.5-7.5-5.8
		c-15.2-15.5-9.9-39.1,5.6-49.5c14-9.3,29.4-6.3,40.1,3.6c6.6,6.2,10.2,13.8,10.3,22.8c0.2,11.1-4.4,19.9-13.2,26.5
		c-1.3,1-2.7,1.8-4,2.7c-4.1,2.9-6.4,6.7-6.1,11.8c0.1,1.4-0.3,1.8-1.7,1.8C132.8,168.4,130.2,168.5,127.6,168.6
		C127.6,168.5,127.6,168.6,127.6,168.6z M127.7,103.9c-2.7,0-4.7,1.7-5.2,4.4c-0.6,3.2-1.1,6.3-1.6,9.5c-0.2,1.5-1,2.3-2.6,2.5
		c-3.6,0.5-7.1,1.1-10.7,1.6c-1.9,0.3-3.3,1.3-3.9,3.2c-1,3.2,0.8,6.2,4.2,6.8c3.1,0.6,6.2,0.9,9.4,1.4c2.8,0.4,3.3,0.9,3.8,3.7
		c0.5,2.7,0.8,5.5,1.4,8.2c0.5,2.8,2.6,4.6,5.1,4.6c2.5,0,4.6-1.7,5.2-4.5c0.6-2.9,1-5.8,1.6-8.6c0.5-2.6,1.1-3.1,3.7-3.4
		c3.2-0.4,6.5-0.8,9.7-1.3c2.7-0.4,4.3-2.4,4.3-5c0-2.6-1.7-4.5-4.4-5c-3.4-0.6-6.8-1.2-10.1-1.7c-1.8-0.3-2.8-1.2-3.1-3.1
		c-0.4-2.7-0.9-5.5-1.3-8.2C132.6,105.7,130.6,103.9,127.7,103.9z"/>
	<path class="st4" d="M127.6,202.4c-2.5,0-5,0-7.5,0c-2.2,0-3.7-1.5-3.6-3.7c0.1-2,1.4-3.2,3.6-3.2c5,0,10.1,0,15.1,0
		c2.4,0,3.8,1.3,3.8,3.4c0,2-1.6,3.5-3.8,3.5C132.7,202.5,130.1,202.5,127.6,202.4C127.6,202.5,127.6,202.5,127.6,202.4z"/>
	<path class="st4" d="M127.5,185.5c-2.5,0-5.1,0-7.6,0c-2.1,0-3.4-1.4-3.3-3.5c0-1.9,1.3-3.2,3.3-3.2c5.3,0,10.5,0,15.8,0
		c1.9,0,3.4,1.5,3.4,3.3c0.1,1.8-1.4,3.3-3.4,3.4C132.9,185.5,130.2,185.5,127.5,185.5C127.5,185.5,127.5,185.5,127.5,185.5z"/>
	<path class="st2" d="M127.7,103.9c2.9,0,4.9,1.8,5.4,5c0.4,2.7,1,5.5,1.3,8.2c0.3,1.9,1.2,2.8,3.1,3.1c3.4,0.5,6.8,1.1,10.1,1.7
		c2.7,0.4,4.4,2.4,4.4,5c0,2.7-1.6,4.6-4.3,5c-3.2,0.5-6.5,0.9-9.7,1.3c-2.6,0.4-3.2,0.9-3.7,3.4c-0.6,2.9-1,5.8-1.6,8.6
		c-0.6,2.8-2.7,4.5-5.2,4.5c-2.5,0-4.6-1.8-5.1-4.6c-0.5-2.7-0.9-5.5-1.4-8.2c-0.5-2.8-0.9-3.3-3.8-3.7c-3.1-0.5-6.3-0.8-9.4-1.4
		c-3.4-0.6-5.2-3.7-4.2-6.8c0.6-1.9,2-2.9,3.9-3.2c3.6-0.6,7.1-1.2,10.7-1.6c1.6-0.2,2.3-1,2.6-2.5c0.5-3.2,1-6.3,1.6-9.5
		C123,105.6,125,103.9,127.7,103.9z"/>
</g>
</svg>
