<?xml version="1.0" encoding="utf-8"?>
<svg version="1.1" id="Layer_1" xmlns="http://www.w3.org/2000/svg" xmlns:xlink="http://www.w3.org/1999/xlink" x="0px" y="0px"
	 viewBox="0 0 256 256" style="enable-background:new 0 0 256 256;" xml:space="preserve">
<style type="text/css">
	.st0{fill:#FFFFFF;}
	.st1{fill:#273D85;}
	.st2{fill:#6580D2;}
</style>
<circle class="st0" cx="128" cy="128" r="116"/>
<g>
	<path class="st1" d="M108.7,200.1c2.9,0,5.6,0,8.2,0c0.4,0,0.5-0.3,0.5-0.6c0-0.6,0-1.3,0-1.9c0-1.6,0.9-2.5,2.5-2.5
		c2.4,0,4.8,0,7.1,0c0.1,0,0.3,0,0.4,0c0.1-0.4-0.2-0.4-0.4-0.6c-2-1.9-3.2-4.1-3.2-7c0-14.8,0-29.5,0-44.3c0-0.7,0.1-1.3,0.4-1.9
		c2.1-4.7,4.1-9.5,6.2-14.2c1.5-3.3,1.7-6.6,0.6-10.1c-2.1-6.8-4-13.6-6.1-20.4c-0.9-2.7-1-5.4-1-8.1c0-8.3,0-16.6,0-24.8
		c0-5.5,4.4-9.7,10.1-9.8c9.7,0,19.4,0,29,0c6.6,0,13.3,0,19.9,0c4.9,0,9,3.4,9.8,8.2c0.1,0.5,0.1,0.9,0.1,1.4
		c0,40.7,0,81.5,0,122.2c0,1.1,0,2.1-0.2,3.1c-0.3,2.1-1.2,3.9-2.8,5.4c-0.2,0.2-0.6,0.3-0.7,0.9c0.9,0,1.8,0,2.6,0
		c1.4,0,2.8,0,4.2,0c1.5,0,2.4,1,2.5,2.5c0,0.8-0.3,1.8,0.1,2.4c0.5,0.6,1.5,0.2,2.3,0.2c1.4,0.1,2.5,1.3,2.5,2.9
		c0.1,1.5-1,2.9-2.5,3c-0.7,0.1-1.4,0-2,0c-47.4,0-94.8,0-142.2,0c-0.3,0-0.6,0-0.9,0c-2,0-3.2-1.1-3.2-2.8c0-1.9,1.1-3,3.2-3
		c6,0,12,0,18,0c0.3,0,0.8,0.2,1-0.2c0.2-0.3-0.2-0.6-0.4-0.9c-0.6-1-0.9-2.1-0.9-3.3c-0.2-8.2-0.4-16.4-0.6-24.6
		c-0.2-7.5-0.3-14.9-0.5-22.4c0-0.7-0.1-1.1-0.9-1.4c-1.4-0.5-2.4-1.5-3-2.8c-2.7-5.6-5.1-11.4-7.6-17.1c-0.5-1.1-1-2.2-1.5-3.2
		c-0.8-1.6-0.9-3.3-0.4-5c2.5-8,4.7-16.2,7.2-24.2c1-3.1,2.8-5.3,6.1-6.3c2.4-0.7,4.7-1.6,7-2.4c1.9-0.6,2.9,0.1,3.2,2
		c0.7,5.7,1.4,11.3,3,16.8c0.9,3,1.9,5.9,3.3,8.7c0.6,1.3,1.4,2.5,3,2.5c1.6,0,2.3-1.2,3-2.4c2.5-4.7,3.8-9.8,4.8-15
		c0.7-3.5,1.1-7,1.4-10.5c0.2-2.2,1.3-2.9,3.3-2.2c2.7,0.9,5.4,1.9,8.1,2.8c2.5,0.9,4.1,2.6,4.8,5c2.3,7.3,4.4,14.6,6.5,21.9
		c0.1,0.4,0.2,0.7,0.3,1.1c1.4,3.2,0.9,6.1-0.6,9.2c-2.7,5.7-5.2,11.6-7.8,17.4c-0.8,1.8-1.9,3.2-3.8,3.8c-0.5,0.2-0.6,0.6-0.6,1
		c-0.1,3.6-0.2,7.3-0.3,10.9c-0.3,12-0.5,24-0.7,35.9C110.3,197.1,109.9,198.7,108.7,200.1z M158.3,61.6c-7.3,0-14.6,0-21.9,0
		c-2.9,0-4.5,1.4-4.5,4.3c-0.1,4.1-0.1,8.2,0,12.3c0.1,2.6,1.7,4.3,4.2,4.3c14.8,0,29.6,0,44.4,0c2.6,0,4.2-1.6,4.2-4.2
		c0-4.2,0-8.3,0-12.5c0-2.6-1.7-4.2-4.3-4.2C173.1,61.6,165.7,61.6,158.3,61.6z M158.3,190.5C158.3,190.5,158.3,190.5,158.3,190.5
		c7.4-0.1,14.8-0.1,22.2-0.1c2.6,0,4.3-1.6,4.3-4.3c0-3.7,0-7.4,0-11.1c0-2.7-1.7-4.5-4.4-4.5c-14.7,0-29.4,0-44,0
		c-2.7,0-4.4,1.6-4.4,4.3c-0.1,3.8-0.1,7.5,0,11.3c0,2.8,1.7,4.3,4.5,4.3C143.7,190.5,151,190.5,158.3,190.5z M158.3,140.2
		C158.3,140.2,158.3,140.2,158.3,140.2c-7.4,0-14.7,0-22.1,0c-2.5,0-3.9,1.4-4,3.9c-0.1,2.5,1.3,4.3,3.7,4.4
		c1.6,0.1,3.3,0.1,4.9,0.1c13,0,26.1,0,39.1,0c1,0,2,0,2.8-0.6c1.7-1.1,2.4-3.1,1.8-5.1c-0.5-1.7-2-2.8-4.1-2.8
		C173.1,140.1,165.7,140.2,158.3,140.2z M158.3,163.9C158.3,163.9,158.3,163.9,158.3,163.9c4.5,0,9,0,13.5,0c3,0,6,0,9,0
		c2.2,0,3.7-1.4,4-3.5c0.3-2.8-1.4-4.8-4.2-4.8c-4.1,0-8.2,0-12.3,0c-10.6,0-21.2,0-31.8,0c-1.3,0-2.5,0.3-3.3,1.4
		c-1.1,1.5-1.2,3.2-0.5,4.9c0.7,1.6,2.1,2.1,3.8,2c0.3,0,0.5,0,0.8,0C144.2,163.9,151.3,163.9,158.3,163.9z M158.3,97.6
		c7.5,0,14.9,0,22.4,0c1.9,0,3.4-1.2,3.8-3c0.6-2.3-0.8-5.4-4.6-5.3c-14.6,0.1-29.2,0.1-43.8,0.1c-0.4,0-0.8,0-1.2,0.1
		c-1.9,0.5-3,2.4-2.8,4.4c0.3,2.4,1.6,3.7,3.8,3.8C143.4,97.6,150.9,97.6,158.3,97.6z M158.4,112.8c7.4,0,14.8,0,22.2,0
		c0.7,0,1.3,0,1.9-0.3c1.7-0.8,2.6-2.6,2.1-4.7c-0.4-1.9-1.9-3.2-3.9-3.2c-14.9,0-29.9,0-44.8,0c-2.3,0-3.8,1.8-3.8,4.3
		c0,2.3,1.6,3.9,3.9,3.9C143.5,112.8,150.9,112.8,158.4,112.8z M98,200.1c-1.2-2.1-1.5-2.8-1.5-4.4c-0.3-8.5-0.8-16.9-1.3-25.4
		c-0.3-5-0.5-10-0.7-15c-0.1-1.7-1.2-2.9-2.7-2.8c-1.4,0-2.4,1.2-2.5,2.8c-0.3,5.9-0.6,11.8-0.9,17.7c-0.4,7.7-0.8,15.3-1.2,23
		c-0.1,1.3-0.4,2.5-1.2,3.5c-0.1,0.2-0.4,0.3-0.2,0.7C89.9,200.1,93.9,200.1,98,200.1z M166.3,123.3
		C166.3,123.3,166.3,123.3,166.3,123.3c-4.8,0-9.5,0-14.3,0c-1.5,0-2.7,0.5-3.5,1.9c-1.6,2.8,0.2,6.4,3.6,6.4c9.3-0.1,18.7,0,28-0.1
		c0.2,0,0.5,0,0.7,0c2.4-0.2,3.9-1.9,3.8-4.3c-0.1-2.3-1.7-3.8-4.1-3.8C175.8,123.3,171.1,123.3,166.3,123.3z M158.4,198
		C158.4,198,158.4,197.9,158.4,198c-6.2-0.1-12.5-0.1-18.7,0c-0.3,0-0.8-0.2-1,0.2c-0.5,0.9,0.1,2,1.1,2c11.3,0,22.7,0,34,0
		c1.2,0,2.3,0,3.5,0c0.3,0,0.5,0.1,0.7-0.2c0.5-0.9-0.1-2-1.1-2C170.7,198,164.6,198,158.4,198z M111.3,121.6
		C111.3,121.6,111.3,121.6,111.3,121.6c0.1,3.2,0,6.4,0.1,9.6c0,0.4-0.2,0.9,0.2,1c0.5,0.1,0.4-0.5,0.6-0.8c0.9-2.7,1.7-5.4,2.8-8.1
		c1-2.5,1.2-4.8,0.1-7.3c-0.6-1.4-1-3-1.5-4.4c-0.2-0.6-0.5-1.1-1.2-1c-0.7,0.1-1,0.7-1,1.3c0,0.2,0,0.3,0,0.5
		C111.3,115.4,111.3,118.5,111.3,121.6z M72.2,132.3c0.3-0.2,0.2-0.4,0.2-0.6c0-6.6,0-13.2,0.1-19.9c0-0.6-0.2-1.2-0.9-1.3
		c-0.8-0.2-1,0.4-1.2,1c-0.7,2.2-1.4,4.5-2.2,6.7c-0.3,0.9-0.3,1.7,0,2.6c1.2,3.5,2.3,7,3.5,10.4C71.7,131.5,71.8,132,72.2,132.3z
		 M136.3,127.1c0,1.9,1.6,3.6,3.4,3.6c1.9,0,3.6-1.6,3.6-3.5c0-1.9-1.7-3.7-3.5-3.7C137.9,123.5,136.3,125.1,136.3,127.1z"/>
	<path class="st1" d="M77.8,62.9c-0.2-3.4,0.6-6.4,2.9-8.9c3.6-3.9,8.1-4.7,13-3.7c1.6,0.3,3.1,0.9,4.8,0.9c1.2,0.1,2.3-0.2,3.4-0.7
		c1.1-0.5,1.7-0.3,2.4,0.7c0.9,1.4,1,3,0.5,4.6c-0.2,0.7-0.1,1.2,0.2,1.8c1,2.1,1.2,4.3,1,6.6c-0.1,0.8,0.1,1.4,0.8,2
		c1.5,1.2,1.8,2.9,1.2,4.7c-0.6,1.8-1.8,3-3.8,3c-0.7,0-0.8,0.5-0.9,1c-0.9,2.8-2.4,5.2-4.9,6.9c-5.7,4-13.2,2.1-16.9-4.2
		c-0.6-1-1-2-1.3-3.1c-0.1-0.3-0.1-0.6-0.6-0.6c-1.8,0-3-1.1-3.6-2.7c-0.7-1.7-0.6-3.5,0.8-4.7c1-0.9,1.2-1.7,1.1-2.9
		C77.8,63.5,77.8,63.2,77.8,62.9z"/>
	<path class="st2" d="M92.1,89.8c0.8,0,1.9-0.1,2.7,0.7c1.3,1.3,1.3,2.9-0.2,4.3c-0.6,0.6-0.8,1.1-0.7,1.9c0.4,2.9,0.7,5.9,1.1,8.8
		c0.1,0.6,0,1.2-0.4,1.6c-0.7,0.9-1.5,1.7-2.2,2.5c-0.4,0.4-0.7,0.5-1.1,0c-0.7-0.9-1.5-1.8-2.3-2.7c-0.4-0.5-0.4-1-0.3-1.5
		c0.3-2.8,0.6-5.6,0.9-8.4c0.1-0.9,0.1-1.6-0.7-2.3c-0.9-0.8-1.3-2-0.7-3.1c0.5-1.1,1.5-1.8,2.8-1.7C91.3,89.8,91.6,89.8,92.1,89.8z
		"/>
	<path class="st1" d="M144.9,70.4c1.7,0,3.5,0,5.2,0c1.6,0,2.6,1,2.6,2.4c0,1.4-1,2.3-2.5,2.3c-3.5,0-6.9,0-10.4,0
		c-1.6,0-2.3-0.8-2.4-2.3c0-1.6,0.7-2.4,2.3-2.4C141.4,70.4,143.1,70.4,144.9,70.4C144.9,70.4,144.9,70.4,144.9,70.4z"/>
	<path class="st2" d="M175.5,75.1c-1.3,0-2.3-1.1-2.3-2.4c0-1.3,1-2.3,2.3-2.4c1.3,0,2.4,1.1,2.4,2.3
		C177.9,74,176.8,75.1,175.5,75.1z"/>
	<path class="st2" d="M164.7,72.8c0-1.4,1-2.4,2.3-2.3c1.2,0,2.3,1.1,2.3,2.3c0,1.3-1.1,2.5-2.3,2.5
		C165.7,75.2,164.7,74.1,164.7,72.8z"/>
	<path class="st1" d="M158.6,70.4c1.3,0,2.4,1,2.4,2.2c0,1.3-1,2.5-2.3,2.5c-1.2,0-2.2-1-2.2-2.3C156.5,71.4,157.4,70.4,158.6,70.4z
		"/>
	<path class="st2" d="M172.6,174.1c3.6,0,6.6,2.9,6.6,6.3c0,3.3-3,6.4-6.4,6.4c-3.5,0-6.5-2.9-6.5-6.4
		C166.3,176.9,169.1,174.1,172.6,174.1z"/>
	<path class="st2" d="M145,182.9c-1.7,0-3.5,0-5.2,0c-1.6,0-2.5-0.9-2.5-2.4c0-1.5,0.8-2.3,2.5-2.3c3.4,0,6.9,0,10.3,0
		c1.7,0,2.8,1.4,2.4,3c-0.3,1.1-1,1.7-2.2,1.7C148.6,182.9,146.8,182.9,145,182.9C145,182.9,145,182.9,145,182.9z"/>
	<path class="st1" d="M161.1,180.6c0,1.3-1.1,2.4-2.3,2.4c-1.3,0-2.3-1.2-2.2-2.6c0.1-1.3,1-2.2,2.3-2.2
		C160.2,178.3,161.2,179.3,161.1,180.6z"/>
</g>
</svg>
