<?xml version="1.0" encoding="utf-8"?>
<svg version="1.1" id="Layer_1" xmlns="http://www.w3.org/2000/svg" xmlns:xlink="http://www.w3.org/1999/xlink" x="0px" y="0px"
	 viewBox="0 0 256 256" style="enable-background:new 0 0 256 256;" xml:space="preserve">
<style type="text/css">
	.st0{fill:#FFFFFF;}
	.st1{fill:#273D85;}
	.st2{fill:#6580D2;}
</style>
<circle class="st0" cx="128" cy="128" r="116"/>
<g>
	<path class="st0" d="M108.2,102.2c0,12.3,0,24.5,0,36.7c2.4,0,4.6,0,7,0c0-12.3,0-24.4,0-36.6c8.6,0,17,0,25.6,0
		c0,12.3,0,24.4,0,36.6c2.4,0,4.7,0,7.1,0c0-12.3,0-24.5,0-36.6c14.2,0,28.2,0,42.2,0c0,9,0,18,0,27.1c-1.9,0-3.7,0-5.6,0
		c0,3.1,0,5.9,0,8.8c0,0.2,0,0.5,0.1,0.8c2.8,0,5.6,0,8.4,0c4.8,0,8.2-3.4,8.2-8.2c0-22.9-0.1-45.7,0-68.6c0-4.4-3.3-9.3-9.1-9.1
		c-7.6,0.2-15.2,0.1-22.8,0.1c-34.9,0-69.8,0.1-104.8-0.1c-6.1,0-9.9,3.9-9.7,9.8c0.2,6,0,12,0,18c0,16.7,0,33.5,0,50.2
		c0,4.5,3.5,8,8.1,8c2.4,0,4.9,0,7.3,0c0.4,0,0.9-0.1,1.3-0.1c0-3.3,0-6.4,0-9.6c-1.9,0-3.7,0-5.5,0c0-9.1,0-18.1,0-27
		C80.1,102.2,94.1,102.2,108.2,102.2z M123.5,189.4c-0.6,0-1,0-1.4,0c-3.4-0.2-6.1,1.2-8.3,3.6c-2,2-3.2,4.4-2.4,7.4
		c0.5,1.8,2.3,2.9,4.1,2.7c1.8-0.2,3.3-1.8,3.3-3.6c0-1.1,0.4-1.8,1.3-2.1c1.1-0.4,2.3-0.9,3.4-0.9c3.4-0.1,6.9,0,10.3,0.2
		c2.2,0.2,2.9,1.1,3.2,3.2c0,0.2,0.1,0.4,0.2,0.6c0.6,1.9,2.5,2.9,4.4,2.5c1.9-0.5,3.4-2.5,3.2-4.5c-0.4-4.4-4.8-8.6-9.3-9
		c-1-0.1-2-0.1-3-0.2c0-1,0-1.8,0-2.8c0.5,0,1,0,1.4,0c2.8,0,5.6,0,8.4,0c2.8,0,5.4-2.6,5.5-5.3c0-8.6,0.1-17.3,0-25.9
		c0-3.7-2.9-6.7-6.5-6.7c-8.8-0.1-17.7-0.1-26.5,0c-3.5,0-6.4,2.8-6.6,6.4c-0.1,1.3,0,2.7,0,4.1c0,7.3,0,14.6,0.1,22
		c0,3.2,2.5,5.6,5.7,5.6c2.8,0,5.5,0,8.3,0c0.4,0,0.9,0,1.4,0C123.5,187.6,123.5,188.4,123.5,189.4z M177.8,186.7c0.6,0,1,0,1.5,0
		c2.8,0,5.6,0.1,8.4-0.1c1.9-0.1,3.2-1.5,3.2-3.4c0-6.2,0-12.5,0-18.7c0-2.9-2.6-5.4-5.5-5.4c-7.2-0.1-14.3-0.1-21.5-0.1
		c-3.1,0-5.4,2-5.9,5c-0.2,0.9-0.2,1.9-0.3,2.9c-1.5,0-3.1,0-4.7,0c0,0.5-0.1,0.9-0.1,1.2c0,5,0,10-0.1,15c0,2.3,1.2,3.5,3.5,3.5
		c3.9,0,7.9,0,11.8,0c0.4,0,0.8,0,1.2,0.1c0,0.3,0.1,0.6,0.1,0.8c0,1.8,0,1.7-1.7,2.1c-3.1,0.7-8,4.5-7.8,9.2
		c0.1,2.1,1.4,3.7,3.3,3.8c1.7,0.1,3.3-1.3,3.4-3.4c0.1-1.6,0.9-2.5,2.2-3c2.8-1,5.7-0.8,8.5-0.2c1.7,0.4,3.1,1.3,3,3.6
		c-0.1,1.6,1.2,2.7,2.8,3c1.4,0.2,2.8-0.5,3.5-1.9c0.8-1.5,0.8-3.1,0.2-4.6c-1.3-3.4-3.9-5.5-7.4-6.4c-0.6-0.2-1.2-0.2-1.7-0.3
		C177.8,188.5,177.8,187.7,177.8,186.7z M78.2,186.7c0,0.7,0,1.3,0,1.8c0.1,0.8-0.2,1.1-1,1.2c-3.8,0.6-6.4,2.9-8,6.3
		c-0.5,1-0.6,2.3-0.5,3.5c0.1,1.9,1.7,3.3,3.4,3.3c1.8,0,3.2-1.3,3.4-3.1c0.3-2.3,1.5-3.6,3.8-3.8c2-0.1,4-0.2,5.9,0.1
		c1.2,0.2,2.4,1,3.4,1.7c0.5,0.4,0.4,1.4,0.5,2.1c0.2,1.4,0.9,2.3,2.2,2.8c1.2,0.5,2.4,0.2,3.3-0.7c1.6-1.4,2-3.8,0.7-6
		c-1.9-3.5-4.7-6-8.9-6.3c0-0.9,0-1.8,0-2.7c0.4,0,0.7-0.1,1.1-0.1c4,0,8,0,12,0c2.4,0,3.4-1.1,3.4-3.4c0-4.9,0-9.7,0-14.6
		c0-0.6,0-1.1,0-1.8c-1.6,0-3.1,0-4.8,0c0-0.5-0.1-1-0.1-1.4c-0.1-4.2-2.5-6.5-6.7-6.5c-6.7,0-13.5,0-20.2-0.1c-3.7,0-6,2.2-6,6
		c0,6.1,0,12.2,0,18.3c0,0.5,0.2,1.1,0.4,1.6c0.7,1.4,1.9,1.9,3.5,1.9C72.1,186.7,75.1,186.7,78.2,186.7z M74.4,138.8
		c10.6,0,21,0,31.4,0c0-0.5,0-0.8,0.1-1.2c0-4.2,0-8.5,0-12.7c0-3.6-2-5.7-5.6-5.7c-2,0-3.9,0-5.9,0c-4.6,0-9.1,0-13.7,0
		c-4.3,0-6.4,2.2-6.3,6.4c0,1.7,0,3.4,0,5.1C74.4,133.3,74.4,136,74.4,138.8z M150.3,138.8c10.6,0,21,0,31.4,0
		c0-0.2,0.1-0.4,0.1-0.6c0-4.5,0-9,0-13.6c0-3-2.3-5.5-5.3-5.5c-7-0.1-14-0.1-21,0c-3,0-5.1,2.3-5.1,5.4c0,2.3,0,4.6,0,6.9
		C150.3,133.9,150.3,136.3,150.3,138.8z M63,167c-2.1,0-3.9,0-5.8,0c-2,0-2.4,0.4-2.4,2.4c0,3.3,0,6.7,0,10c0,6.7,0,13.4,0,20.1
		c0,1.7,0.6,2.4,2.4,2.4c1.2,0,2.3,0,3.5,0c1.9,0,2.3-0.5,2.3-2.3c0-5.4,0-10.9,0-16.3C63,177.9,63,172.5,63,167z M193.1,167
		c0,0.6-0.1,1-0.1,1.4c0,5.3,0,10.5,0,15.8c0,5.1,0,10.1-0.1,15.2c0,1.8,0.6,2.5,2.4,2.5c1.1,0,2.1,0,3.2,0c2.1,0,2.6-0.5,2.6-2.6
		c0-7,0-14,0-21c0-3.1,0-6.2,0-9.3c0-1-0.3-1.9-1.4-1.9C197.6,167,195.4,167,193.1,167z M128,144.5C128,144.5,128,144.4,128,144.5
		c2.5,0,5-0.1,7.5,0c0.7,0,1.1-0.2,1.3-0.9c2.3-6.5-2.5-13-9.4-12.6c-6.1,0.4-10.3,6.4-8.4,12.1c0.3,0.9,0.7,1.4,1.8,1.4
		C123.3,144.4,125.7,144.5,128,144.5z M138.3,132c0.1-0.2,0.1-0.3,0.1-0.4c0-3.3,0-6.6-0.1-9.9c0-2.2-0.9-3.2-3.1-3.3
		c-4.8,0-9.7,0-14.5,0.1c-2.1,0-3.1,1.3-3,3.4c0,2.2,0,4.4,0,6.7c0,0.9,0,1.9,0,3.1C124.8,125.9,131.5,125.6,138.3,132z
		 M173.5,156.1C173.5,156,173.5,156,173.5,156.1c1.8,0,3.6,0,5.4-0.1c0.4,0,1-0.3,1.3-0.7c1.6-2.2,1.9-4.6,1-7.1
		c-1.1-3.1-3.3-5.1-6.6-5.6c-3.5-0.5-6.3,0.8-8.1,3.8c-1.8,2.9-1.7,6,0.1,8.8c0.3,0.4,1,0.8,1.6,0.8
		C170,156.1,171.7,156.1,173.5,156.1z M82.4,142.5c-5.6-0.2-10.3,6.6-6.8,12.4c0.5,0.7,0.9,1.1,1.8,1.1c3.6,0,7.1,0.1,10.7,0
		c0.4,0,1-0.3,1.3-0.7c1.8-2.6,2-5.4,0.6-8.2C88.5,144.3,86.1,142.6,82.4,142.5z M167.2,116.2C167.2,116.2,167.2,116.2,167.2,116.2
		c1.4,0,2.9,0.1,4.3,0c0.5,0,1.1-0.4,1.3-0.8c2.2-4-0.9-8.9-5.5-9c-4.6-0.1-7.9,4.7-5.9,8.7c0.4,0.8,0.9,1.2,1.8,1.2
		C164.5,116.1,165.9,116.2,167.2,116.2z M89,116.2C89,116.2,89,116.2,89,116.2c1.4,0,2.7-0.1,4.1,0c1,0.1,1.4-0.4,1.7-1.2
		c0.9-2.5,0.6-4.7-1.2-6.6c-1.8-1.9-4.1-2.4-6.7-1.7c-3.3,1-5.3,4.7-4.1,7.8c0.4,1,0.9,1.7,2.1,1.6C86.3,116.1,87.7,116.2,89,116.2z
		 M128,115.8C128,115.8,128,115.8,128,115.8c1.2-0.1,2.5,0,3.7-0.1c1.9-0.1,2.4-0.5,2.6-2.4c0.4-2.6-0.7-4.7-2.8-6
		c-2.3-1.5-4.8-1.5-7.1,0c-2.2,1.4-3.2,4.1-2.7,6.5c0.4,1.5,0.9,1.9,2.4,1.9C125.5,115.8,126.7,115.8,128,115.8z"/>
	<path class="st1" d="M108.2,102.2c-14.1,0-28.1,0-42.2,0c0,9,0,17.9,0,27c1.8,0,3.6,0,5.5,0c0,3.3,0,6.4,0,9.6
		c-0.4,0-0.9,0.1-1.3,0.1c-2.4,0-4.9,0-7.3,0c-4.6,0-8.1-3.4-8.1-8c0-16.7,0-33.5,0-50.2c0-6,0.2-12,0-18c-0.2-5.9,3.6-9.8,9.7-9.8
		c34.9,0.1,69.8,0.1,104.8,0.1c7.6,0,15.2,0.2,22.8-0.1c5.9-0.2,9.2,4.8,9.1,9.1c-0.1,22.9,0,45.7,0,68.6c0,4.9-3.3,8.2-8.2,8.2
		c-2.8,0-5.6,0-8.4,0c0-0.4-0.1-0.6-0.1-0.8c0-2.9,0-5.7,0-8.8c1.9,0,3.7,0,5.6,0c0-9.1,0-18,0-27.1c-14,0-28.1,0-42.2,0
		c0,12.2,0,24.4,0,36.6c-2.4,0-4.7,0-7.1,0c0-12.2,0-24.4,0-36.6c-8.5,0-17,0-25.6,0c0,12.2,0,24.4,0,36.6c-2.4,0-4.6,0-7,0
		C108.2,126.6,108.2,114.4,108.2,102.2z M160,94.1c0-1.7,0-3.3,0-4.9c0-3.4,2-5.4,5.4-5.4c5.6,0,11.2,0,16.8,0
		c0.5,0,1.1,0.1,1.6,0.2c2,0.7,3.3,2.5,3.4,4.7c0.1,1.7,0,3.5,0,5.4c1.1-0.1,2-0.1,3-0.1c0-10.4,0-20.6,0-30.9
		c-14.1,0-28.2,0-42.2,0c0,10.4,0,20.7,0,31C152,94.1,155.9,94.1,160,94.1z M66,63c0,10.4,0,20.7,0,31c1,0,1.9,0,2.9,0
		c0-1.7,0-3.3,0-4.9c0.1-3.5,1.9-5.3,5.4-5.3c5.3,0,10.6,0,15.9,0c3.6,0,5.7,2,5.8,5.7c0,1.5,0,3,0,4.6c4.1,0,8,0,12.1,0
		c0-10.4,0-20.6,0-31C94.1,63,80.1,63,66,63z M115.3,87.3c8.5,0,17,0,25.4,0c0-8.1,0-16.2,0-24.2c-8.5,0-16.9,0-25.4,0
		C115.3,71.2,115.3,79.2,115.3,87.3z M173.2,95.6C173.2,95.6,173.2,95.6,173.2,95.6c1.6,0,3.2,0,4.8,0c1,0,1.5-0.5,1.5-1.5
		c0-0.9-0.5-1.5-1.4-1.5c-3.1,0-6.2-0.1-9.4,0c-1,0-1.5,0.6-1.5,1.6c0,1,0.7,1.4,1.6,1.4C170.2,95.6,171.7,95.6,173.2,95.6z
		 M82.9,95.6C82.9,95.6,82.9,95.6,82.9,95.6c1.4,0,2.8-0.1,4.2,0c1.1,0,1.8-0.3,1.8-1.5c-0.1-1.1-0.8-1.5-1.8-1.5
		c-2.8,0-5.6,0-8.4,0c-1.2,0-2.1,0.7-2.1,1.6c0,0.9,0.8,1.5,2,1.5C80.1,95.6,81.5,95.6,82.9,95.6z"/>
	<path class="st1" d="M123.5,189.4c0-1,0-1.9,0-2.9c-0.5,0-0.9,0-1.4,0c-2.8,0-5.5,0-8.3,0c-3.2,0-5.7-2.5-5.7-5.6
		c0-7.3,0-14.6-0.1-22c0-1.4-0.1-2.7,0-4.1c0.3-3.5,3.1-6.4,6.6-6.4c8.8-0.1,17.7-0.1,26.5,0c3.6,0,6.5,3.1,6.5,6.7
		c0,8.6,0,17.3,0,25.9c0,2.8-2.6,5.3-5.5,5.3c-2.8,0-5.6,0-8.4,0c-0.4,0-0.9,0-1.4,0c0,1,0,1.8,0,2.8c1,0.1,2,0.1,3,0.2
		c4.5,0.4,8.9,4.6,9.3,9c0.2,2-1.3,4.1-3.2,4.5c-1.9,0.4-3.8-0.6-4.4-2.5c-0.1-0.2-0.1-0.4-0.2-0.6c-0.3-2.2-1-3.1-3.2-3.2
		c-3.4-0.2-6.9-0.3-10.3-0.2c-1.1,0-2.3,0.5-3.4,0.9c-0.9,0.3-1.4,1-1.3,2.1c0,1.8-1.5,3.4-3.3,3.6c-1.8,0.2-3.5-0.9-4.1-2.7
		c-0.9-3,0.4-5.3,2.4-7.4c2.3-2.4,5-3.7,8.3-3.6C122.5,189.5,122.9,189.4,123.5,189.4z M127.8,158c-1.2,0-2.5,0-3.7,0
		c-1.1,0-1.7,0.6-1.8,1.6c0,0.9,0.7,1.6,1.8,1.6c2.5,0,5.1,0,7.6,0.1c1.1,0,1.7-0.5,1.8-1.6c0.1-0.9-0.7-1.7-1.8-1.7
		C130.4,158,129.1,158,127.8,158z"/>
	<path class="st1" d="M177.8,186.7c0,1,0,1.8,0,2.8c0.5,0.1,1.1,0.1,1.7,0.3c3.5,1,6.1,3,7.4,6.4c0.6,1.5,0.6,3.1-0.2,4.6
		c-0.7,1.4-2.1,2.2-3.5,1.9c-1.6-0.3-2.9-1.4-2.8-3c0.1-2.3-1.3-3.2-3-3.6c-2.8-0.6-5.7-0.8-8.5,0.2c-1.4,0.5-2.2,1.4-2.2,3
		c-0.1,2-1.6,3.4-3.4,3.4c-1.9-0.1-3.2-1.7-3.3-3.8c-0.2-4.7,4.7-8.5,7.8-9.2c1.7-0.4,1.7-0.4,1.7-2.1c0-0.2,0-0.5-0.1-0.8
		c-0.4,0-0.8-0.1-1.2-0.1c-3.9,0-7.9,0-11.8,0c-2.3,0-3.5-1.2-3.5-3.5c0-5,0-10,0.1-15c0-0.4,0-0.7,0.1-1.2c1.6,0,3.1,0,4.7,0
		c0.1-1.1,0.1-2,0.3-2.9c0.5-3,2.8-5,5.9-5c7.2,0,14.3,0,21.5,0.1c2.9,0,5.5,2.5,5.5,5.4c0.1,6.2,0,12.5,0,18.7
		c0,1.9-1.2,3.3-3.2,3.4c-2.8,0.1-5.6,0.1-8.4,0.1C178.8,186.7,178.3,186.7,177.8,186.7z M177.7,180.9c0.7-2.1,0-3.7-1.7-5
		c-1.3-0.9-2.9-0.9-4.3,0c-1.5,1-2.1,2.7-1.6,5c0.6,0,1.2,0,1.8,0c0.1-1.4,0.1-3.1,2-3.1c2,0,1.9,1.7,2,3.2
		C176.6,180.9,177.1,180.9,177.7,180.9z"/>
	<path class="st1" d="M78.2,186.7c-3.2,0-6.2,0-9.2,0c-1.5,0-2.7-0.5-3.5-1.9c-0.2-0.5-0.4-1.1-0.4-1.6c0-6.1,0-12.2,0-18.3
		c0-3.7,2.3-6,6-6c6.7,0,13.5,0.1,20.2,0.1c4.2,0,6.6,2.3,6.7,6.5c0,0.4,0.1,0.9,0.1,1.4c1.6,0,3.1,0,4.8,0c0,0.7,0,1.2,0,1.8
		c0,4.9,0,9.7,0,14.6c0,2.3-1.1,3.4-3.4,3.4c-4,0-8,0-12,0c-0.3,0-0.6,0-1.1,0.1c0,0.9,0,1.8,0,2.7c4.2,0.3,7,2.8,8.9,6.3
		c1.2,2.2,0.9,4.6-0.7,6c-1,0.8-2.1,1.2-3.3,0.7c-1.2-0.5-2-1.4-2.2-2.8c-0.1-0.7-0.1-1.8-0.5-2.1c-1-0.8-2.2-1.6-3.4-1.7
		c-1.9-0.3-3.9-0.2-5.9-0.1c-2.4,0.2-3.5,1.4-3.8,3.8c-0.2,1.8-1.6,3.1-3.4,3.1c-1.7,0-3.3-1.4-3.4-3.3c0-1.2,0.1-2.4,0.5-3.5
		c1.6-3.4,4.1-5.7,8-6.3c0.8-0.1,1.1-0.4,1-1.2C78.2,188,78.2,187.4,78.2,186.7z M86.1,180.9c0.4-2.1,0.1-3.8-1.7-5
		c-1.4-1-3.1-1-4.6,0.1c-1.7,1.2-1.9,2.9-1.7,4.8c0.7,0,1.4,0,2.1,0c0.2-2.2,0.7-3.1,2-3.1c2.1,0,2,1.8,2.1,3.2
		C84.9,180.9,85.5,180.9,86.1,180.9z"/>
	<path class="st1" d="M74.4,138.8c0-2.8,0-5.5,0-8.2c0-1.7,0-3.4,0-5.1c-0.1-4.2,2.1-6.4,6.3-6.4c4.6,0,9.1,0,13.7,0
		c2,0,3.9,0,5.9,0c3.6,0.1,5.6,2.1,5.6,5.7c0,4.2,0,8.5,0,12.7c0,0.4,0,0.7-0.1,1.2C95.3,138.8,84.9,138.8,74.4,138.8z M89.7,127.6
		C89.7,127.6,89.7,127.6,89.7,127.6c0.8,0,1.6,0,2.3,0c0.9,0,1.4-0.6,1.3-1.3c-0.1-0.5-0.8-1.3-1.2-1.3c-1.5-0.2-3.1-0.1-4.7-0.1
		c-0.9,0-1.3,0.7-1.3,1.5c0,0.8,0.5,1.2,1.4,1.2C88.2,127.6,88.9,127.6,89.7,127.6z"/>
	<path class="st1" d="M150.3,138.8c0-2.5,0-5,0-7.4c0-2.3,0-4.6,0-6.9c0-3.1,2.1-5.3,5.1-5.4c7-0.1,14-0.1,21,0c3,0,5.3,2.5,5.3,5.5
		c0,4.5,0,9,0,13.6c0,0.2,0,0.3-0.1,0.6C171.3,138.8,160.9,138.8,150.3,138.8z M166.4,127.6C166.4,127.6,166.4,127.6,166.4,127.6
		c0.8,0,1.7,0.1,2.4-0.1c0.5-0.2,1.4-0.9,1.3-1.2c-0.1-0.6-0.8-1.4-1.3-1.4c-1.5-0.2-3.1-0.1-4.6,0c-0.9,0-1.3,0.7-1.2,1.5
		c0,0.8,0.5,1.3,1.4,1.2C165,127.6,165.7,127.6,166.4,127.6z"/>
	<path class="st2" d="M63,167c0,5.5,0,10.9,0,16.2c0,5.4,0,10.9,0,16.3c0,1.8-0.5,2.3-2.3,2.3c-1.2,0-2.3,0.1-3.5,0
		c-1.7,0-2.4-0.7-2.4-2.4c0-6.7,0-13.4,0-20.1c0-3.3,0-6.7,0-10c0-2,0.3-2.4,2.4-2.4C59.1,167,61,167,63,167z"/>
	<path class="st2" d="M193.1,167c2.3,0,4.5-0.1,6.7,0c1.2,0,1.4,0.9,1.4,1.9c0,3.1,0,6.2,0,9.3c0,7,0,14,0,21c0,2.1-0.5,2.6-2.6,2.6
		c-1.1,0-2.1,0-3.2,0c-1.8,0-2.4-0.6-2.4-2.5c0-5.1,0.1-10.1,0.1-15.2c0-5.3,0-10.5,0-15.8C193.1,168,193.1,167.6,193.1,167z"/>
	<path class="st2" d="M128,144.5c-2.4,0-4.8-0.1-7.1,0c-1.1,0-1.5-0.5-1.8-1.4c-1.9-5.7,2.3-11.7,8.4-12.1c6.9-0.4,11.7,6,9.4,12.6
		c-0.3,0.7-0.6,0.9-1.3,0.9C133,144.4,130.5,144.4,128,144.5C128,144.4,128,144.5,128,144.5z"/>
	<path class="st1" d="M138.3,132c-6.7-6.3-13.5-6-20.6-0.3c0-1.2,0-2.1,0-3.1c0-2.2,0-4.4,0-6.7c0-2.1,0.9-3.3,3-3.4
		c4.8-0.1,9.7-0.1,14.5-0.1c2.2,0,3.1,1.1,3.1,3.3c0,3.3,0,6.6,0.1,9.9C138.4,131.7,138.3,131.7,138.3,132z"/>
	<path class="st2" d="M173.5,156.1c-1.8,0-3.5,0.1-5.3,0c-0.6,0-1.3-0.3-1.6-0.8c-1.8-2.9-2-5.9-0.1-8.8c1.8-3,4.6-4.2,8.1-3.8
		c3.3,0.4,5.5,2.5,6.6,5.6c0.9,2.5,0.6,5-1,7.1c-0.3,0.4-0.8,0.7-1.3,0.7C177.1,156.1,175.3,156,173.5,156.1
		C173.5,156,173.5,156,173.5,156.1z"/>
	<path class="st2" d="M82.4,142.5c3.7,0,6.1,1.7,7.6,4.7c1.4,2.8,1.2,5.6-0.6,8.2c-0.2,0.4-0.8,0.7-1.3,0.7c-3.6,0-7.1-0.1-10.7,0
		c-0.9,0-1.4-0.3-1.8-1.1C72.1,149.1,76.8,142.3,82.4,142.5z"/>
	<path class="st2" d="M167.2,116.2c-1.4,0-2.7-0.1-4.1,0c-0.9,0.1-1.4-0.4-1.8-1.2c-2-4,1.3-8.8,5.9-8.7c4.7,0.1,7.7,5,5.5,9
		c-0.2,0.4-0.8,0.7-1.3,0.8C170.1,116.2,168.7,116.2,167.2,116.2C167.2,116.2,167.2,116.2,167.2,116.2z"/>
	<path class="st2" d="M89,116.2c-1.4,0-2.7-0.1-4.1,0c-1.2,0.1-1.8-0.6-2.1-1.6c-1.1-3.1,0.8-6.8,4.1-7.8c2.5-0.8,4.8-0.2,6.7,1.7
		c1.8,1.9,2.1,4.2,1.2,6.6c-0.3,0.8-0.7,1.3-1.7,1.2C91.7,116.1,90.4,116.2,89,116.2C89,116.2,89,116.2,89,116.2z"/>
	<path class="st2" d="M128,115.8c-1.3,0-2.5,0-3.8,0c-1.5,0-2.1-0.4-2.4-1.9c-0.6-2.4,0.5-5.1,2.7-6.5c2.3-1.5,4.8-1.5,7.1,0
		c2.1,1.3,3.2,3.4,2.8,6c-0.3,1.9-0.8,2.3-2.6,2.4C130.5,115.8,129.2,115.8,128,115.8C128,115.8,128,115.8,128,115.8z"/>
	<path class="st0" d="M160,94.1c-4.1,0-8.1,0-12.1,0c0-10.3,0-20.6,0-31c14.1,0,28.1,0,42.2,0c0,10.2,0,20.5,0,30.9
		c-1,0-1.8,0.1-3,0.1c0-1.9,0-3.6,0-5.4c-0.1-2.2-1.3-4-3.4-4.7c-0.5-0.2-1-0.2-1.6-0.2c-5.6,0-11.2,0-16.8,0c-3.4,0-5.4,2-5.4,5.4
		C160,90.8,160,92.4,160,94.1z M173.8,68c-3.7,0-6.8,3.1-6.9,6.8c-0.1,3.5,3.3,6.9,6.8,6.9c3.8,0,7-3,7-6.8
		C180.8,71.1,177.7,68,173.8,68z"/>
	<path class="st0" d="M66,63c14.1,0,28,0,42.1,0c0,10.4,0,20.7,0,31c-4,0-7.9,0-12.1,0c0-1.6,0-3.1,0-4.6c-0.1-3.7-2.1-5.7-5.8-5.7
		c-5.3,0-10.6,0-15.9,0c-3.5,0-5.3,1.8-5.4,5.3c0,1.6,0,3.2,0,4.9c-1,0-1.9,0-2.9,0C66,83.7,66,73.4,66,63z M82.1,68
		c-3.9,0-6.9,2.9-6.9,6.7c0,3.7,3.1,7,6.7,7c3.9,0,7.1-3.1,7.1-7C89,71.1,85.9,68.1,82.1,68z"/>
	<path class="st0" d="M115.3,87.3c0-8.1,0-16.1,0-24.2c8.5,0,16.9,0,25.4,0c0,8.1,0,16.1,0,24.2C132.3,87.3,123.8,87.3,115.3,87.3z
		 M121,75.1c0,3.7,3.2,6.9,7,6.9c3.9,0,7.1-3.1,7.1-6.9c0-3.9-3.1-7-6.9-7C124.1,68,121,71.1,121,75.1z"/>
	<path class="st0" d="M173.2,95.6c-1.5,0-3,0-4.4,0c-0.9,0-1.5-0.4-1.6-1.4c0-1,0.5-1.6,1.5-1.6c3.1,0,6.2,0,9.4,0
		c0.9,0,1.5,0.6,1.4,1.5c0,0.9-0.5,1.5-1.5,1.5C176.4,95.6,174.8,95.6,173.2,95.6C173.2,95.6,173.2,95.6,173.2,95.6z"/>
	<path class="st0" d="M82.9,95.6c-1.4,0-2.9,0-4.3,0c-1.3,0-2-0.6-2-1.5c0-0.9,0.9-1.6,2.1-1.6c2.8,0,5.6,0,8.4,0
		c1,0,1.8,0.4,1.8,1.5c0.1,1.2-0.7,1.5-1.8,1.5C85.7,95.5,84.3,95.6,82.9,95.6C82.9,95.6,82.9,95.6,82.9,95.6z"/>
	<path class="st0" d="M127.8,158c1.3,0,2.6,0,3.9,0c1.1,0,1.9,0.7,1.8,1.7c-0.1,1.1-0.8,1.6-1.8,1.6c-2.5,0-5.1,0-7.6-0.1
		c-1.1,0-1.8-0.7-1.8-1.6c0-1,0.7-1.6,1.8-1.6C125.3,158,126.6,158,127.8,158z"/>
	<path class="st0" d="M177.7,180.9c-0.5,0-1.1,0-1.8,0c-0.1-1.4,0-3.2-2-3.2c-1.9,0-1.9,1.7-2,3.1c-0.7,0-1.3,0-1.8,0
		c-0.4-2.3,0.1-4,1.6-5c1.4-0.9,2.9-0.9,4.3,0C177.7,177.1,178.3,178.7,177.7,180.9z"/>
	<path class="st0" d="M86.1,180.9c-0.6,0-1.2,0-1.8,0c-0.2-1.4,0-3.2-2.1-3.2c-1.2,0-1.8,0.9-2,3.1c-0.7,0-1.3,0-2.1,0
		c-0.2-1.9-0.1-3.6,1.7-4.8c1.5-1,3.2-1.1,4.6-0.1C86.2,177.1,86.5,178.8,86.1,180.9z"/>
	<path class="st0" d="M89.7,127.6c-0.7,0-1.5,0-2.2,0c-0.8,0-1.4-0.4-1.4-1.2c0-0.8,0.4-1.5,1.3-1.5c1.6-0.1,3.1-0.1,4.7,0.1
		c0.5,0.1,1.1,0.8,1.2,1.3c0.1,0.7-0.4,1.3-1.3,1.3C91.2,127.6,90.4,127.6,89.7,127.6C89.7,127.6,89.7,127.6,89.7,127.6z"/>
	<path class="st0" d="M166.4,127.6c-0.7,0-1.4,0-2.1,0c-0.9,0-1.3-0.4-1.4-1.2c0-0.8,0.3-1.5,1.2-1.5c1.5-0.1,3.1-0.1,4.6,0
		c0.5,0.1,1.2,0.9,1.3,1.4c0.1,0.3-0.8,1.1-1.3,1.2C168,127.7,167.2,127.6,166.4,127.6C166.4,127.6,166.4,127.6,166.4,127.6z"/>
	<path class="st2" d="M173.8,68c3.9,0,7,3.1,6.9,6.9c0,3.8-3.2,6.8-7,6.8c-3.6,0-6.9-3.4-6.8-6.9C167.1,71.1,170.2,68,173.8,68z"/>
	<path class="st2" d="M82.1,68c3.8,0,6.9,3.1,6.9,6.8c0,3.9-3.2,7-7.1,7c-3.6,0-6.7-3.4-6.7-7C75.3,70.9,78.3,68,82.1,68z"/>
	<path class="st2" d="M121,75.1c0-3.9,3.1-7,7.1-7c3.8,0,6.9,3.1,6.9,7c0,3.8-3.2,6.9-7.1,6.9C124.2,81.9,121,78.7,121,75.1z"/>
</g>
</svg>
