<svg xmlns="http://www.w3.org/2000/svg" viewBox="0 0 256 256"><circle cx="128" cy="128" r="116" fill="#fff"/><path d="M167 153.4h11.7v19.5H167z" fill="#6580d2"/><path d="M50 94.8v93.6a11.65 11.65 0 0 0 11.7 11.7h132.6a11.65 11.65 0 0 0 11.7-11.7V94.8H50zm89.7 89.8h-78v-74.1h78v74.1zm50.7 0h-35.1v-74.1h35.1v74.1z" fill="#273d85"/><path d="M167 122.2h11.7v19.5H167zm-93.6 0H128v50.7H73.4z" fill="#6580d2"/><path d="M194.3 55.8H61.7A11.65 11.65 0 0 0 50 67.5v15.6h156V67.5c0-6.4-5.2-11.7-11.7-11.7zM69.5 77.3c-4.3 0-7.8-3.5-7.8-7.8s3.5-7.8 7.8-7.8 7.8 3.5 7.8 7.8-3.5 7.8-7.8 7.8zm124.8-2H128V63.6h66.3v11.7z" fill="#273d85"/></svg>