<svg xmlns="http://www.w3.org/2000/svg" viewBox="0 0 256 256"><circle cx="128" cy="128" r="116" fill="#fff"/><path d="M128 50c-13 0-23.6 10.6-23.6 23.6 0 11 7.6 20.3 17.8 22.9l4.5 4.8a1.75 1.75 0 0 0 2.5 0l4.5-4.8c10.2-2.6 17.8-11.8 17.8-22.9.1-13-10.5-23.6-23.5-23.6zm-5.7 61.7-12.1-12.8c-.8-.9-2.2-.7-2.8.4a23.45 23.45 0 0 0-3 11.5V129c0 2.9 2.3 5.2 5.2 5.2H121c1 0 1.7-.8 1.7-1.7v-19.7c.1-.4-.1-.8-.4-1.1zm26.3-12.5c-.6-1-2-1.2-2.8-.4l-12.1 12.8c-.3.3-.5.7-.5 1.2v19.7c0 1 .8 1.7 1.7 1.7h11.4c2.9 0 5.2-2.3 5.2-5.2v-18.4c.1-4.1-1-8-2.9-11.4z" fill="#6580d2"/><path d="M183.5 177.2h-4.2v-18.4c0-2.9-2.3-5.2-5.2-5.2h-40.9V145c0-2.9-2.3-5.2-5.2-5.2s-5.2 2.3-5.2 5.2v8.7H81.9c-2.9 0-5.2 2.3-5.2 5.2v18.4h-4.2c-2.9 0-5.2 2.3-5.2 5.2v18.4c0 2.9 2.3 5.2 5.2 5.2h18.4c2.9 0 5.2-2.3 5.2-5.2v-18.4c0-2.9-2.3-5.2-5.2-5.2h-3.8v-13.2h35.7v13.2h-4.2c-2.9 0-5.2 2.3-5.2 5.2v18.4c0 2.9 2.3 5.2 5.2 5.2H137c2.9 0 5.2-2.3 5.2-5.2v-18.4c0-2.9-2.3-5.2-5.2-5.2h-3.8v-13.2h35.7v13.2h-3.8c-2.9 0-5.2 2.3-5.2 5.2v18.4c0 2.9 2.3 5.2 5.2 5.2h18.4c2.9 0 5.2-2.3 5.2-5.2v-18.4c0-2.9-2.4-5.3-5.2-5.3z" fill="#273d85"/></svg>