<svg xmlns="http://www.w3.org/2000/svg" viewBox="0 0 256 256"><circle cx="128" cy="128" r="116" fill="#fff"/><path d="M195.2 102.5h-15.3v-8h-18.6v8H94v-8H75.3v8h-14c-6.1 0-11.3 4.9-11.3 11v74.1c0 6.1 5.2 11 11.3 11h133.9c6.1 0 10.8-4.9 10.8-11v-74.1c0-6.1-4.7-11-10.8-11zm-97.1 69.4h-8.8L72.7 144v27.9h-9.6v-43.3h9.4l16.7 28.5v-28.5h8.9v43.3zm37.8-35.7h-20.6v10.3h17.9v6.9h-17.9V165h20.6v6.9h-29.6v-43.3h29.6v7.6zm46.6 35.7H174l-7.6-27.2-7.6 27.2h-8.5l-10.1-43.3h9.2l5.9 28.1 7.7-28.1h6.9l7.8 28.2 5.9-28.2h9.2l-10.3 43.3z" fill="#273d85"/><path d="M63.4 83.9h6.1c1.5 2.1 3.1 4.4 5.8 6v4.6H94v-4.6c2.7-1.5 4.9-3.9 6.3-6h55.1c1.5 2.1 3.1 4.4 5.9 6v4.6h18.6v-4.6c2.7-1.5 4.8-3.9 6.3-6h6.1c5.7 0 10.4-4.2 10.4-9.3s-4.6-9.3-10.4-9.3h-6.6c-3.2-4.8-8.6-8.1-14.9-8.1s-11.7 3.2-14.9 8.1H99.8c-3.2-4.8-8.6-8.1-14.9-8.1S73.2 60.4 70 65.3h-6.6c-5.7 0-10.4 4.2-10.4 9.3s4.6 9.3 10.4 9.3z" fill="#6580d2"/></svg>