<?xml version="1.0" encoding="utf-8"?>
<svg version="1.1" id="Layer_1" xmlns="http://www.w3.org/2000/svg" xmlns:xlink="http://www.w3.org/1999/xlink" x="0px" y="0px"
	 viewBox="0 0 256 256" style="enable-background:new 0 0 256 256;" xml:space="preserve">
<style type="text/css">
	.st0{fill:#FFFFFF;}
	.st1{fill:#273D85;}
	.st2{fill:#6580D2;}
	.st3{fill:#01324D;}
	.st4{fill:#F8FCFE;}
</style>
<circle class="st0" cx="128" cy="128" r="116"/>
<g>
	<path class="st1" d="M99.9,178.6c0.4-6.6,0.9-13.2,1.2-19.7c0-0.8,0.7-1.8,0-2.3c-0.6-0.4-1.6-0.1-2.5-0.1c-0.6,0-0.7,0.2-0.7,0.7
		c0.1,0.9,0.1,1.8,0.2,2.8c0.5,6.6,0.8,13.2,1.4,19.8c0,0.7,0,1.4,0,2.1c0.1-0.7,0.4-1.4,0.1-2.1C99.8,179.4,99.9,179,99.9,178.6
		L99.9,178.6L99.9,178.6z M126.7,97.4c1.1,2.1,2.1,4.2,2.6,6.6c0.5,2.1,0.7,4.3,1.5,6.3c0.4,2,0.8,4,1.2,6c0.1,0.8,0.5,1,1.3,1
		c6.7,0,13.4,0,20,0c0.9,0,1.2,0.3,1.1,1.2c-0.1,2.6-0.1,5.2,0,7.8c0,0.8-0.2,1-1,1c-2.6,0-5.3,0-7.9,0c-3.1,0.1-5.3,2.6-4.9,5.4
		c0.1,0.9,0.6,1.7,1.1,2.5c-4.2,0-8.3,0-12.6,0c0.9-1.8,1.7-3.5,2.5-5.2c0.5-1.1,0.5-1.1-0.7-1.1c-3.2,0-6.3,0-9.5-0.1
		c-0.3,0-0.8,0.3-0.9-0.5c-0.2-1.8-0.6-2.1-2.4-2.1c-6.5,0-12.9,0-19.4,0c-6.7,0-13.4,0-20,0c-1.3,0-2,0.5-2,1.7
		c0,0.8-0.3,0.8-0.9,0.8c-3,0-6,0-9,0.1c-0.4,0-0.8-0.1-1.2,0.2c1,2,2.1,4,3.1,6.2c-6,0-11.8,0-17.6,0c-2.6,0-5.2,0-7.8,0
		c-2,0-3.3,1.1-3.3,2.7c-0.1,1.8-0.1,3.6,0,5.5c0,1.5,1,2.4,2.5,2.6c0.8,0.1,1.6,0.1,2.3,0c1.1-0.1,1.3,0.3,1.2,1.3
		c0,11.1,0,22.2,0,33.3c0,7.8,0,15.5,0,23.3c0,1.7,0,1.7,1.8,1.7c1.8,0,3.6,0,5.3,0c1.9,0,1.9,0,1.9-1.9c0-18.7,0-37.3,0-56
		c0-1.7,0-1.7,1.7-1.7c10.2,0,20.3,0,30.5,0c28.5,0,57,0,85.4,0c8.4,0,16.8,0,25.3,0c0.8,0,1.2,0.2,1.1,1.1c-0.1,0.8,0,1.6,0,2.3
		c0,0.6,0.2,0.7,0.8,0.7c2.2,0,4.3,0,6.5,0c1.8,0,1.8,0,1.8-1.7c0-0.6,0-1.1,0-1.7c-0.1-0.7,0.2-0.8,0.8-0.8
		c1.3,0.1,2.5,0.1,3.8,0.1c1.9,0,3-1.1,3-3c0-1.4-0.1-2.8,0-4.2c0.2-2.3-1.6-3.7-3.7-3.7c-8.5,0.1-17.1,0-25.6,0c-0.5,0-0.9,0-1.5,0
		c0.3-0.4,0.4-0.8,0.6-1.1c0.9-1.7,0.7-3.3-0.4-4.9c-1.2-1.6-2.8-2-4.6-2c-2.9,0-5.7,0-8.6,0c-0.8,0-1.1-0.1-1.1-1
		c0.1-2.7,0.1-5.3,0-8c0-0.8,0.2-1,1-1c3,0,6.1,0,9.1,0c4.2,0,8.3-0.2,12.5,0.1c5.4,0.3,10-3.8,10-9.9c0-13.7,0-27.4,0-41.1
		c0-1.1-0.1-2.3-0.4-3.4c-1.1-4.2-5.1-7.3-9.4-7.3c-21.4,0-42.7,0-64.1,0c-5.2,0-9.4,4.3-9.4,9.5c0,8.5,0,17,0,25.5
		c0,0.8,0.2,1.2,0.8,1.7C123.2,93.7,125.1,95.3,126.7,97.4z M98.9,122.3C98.9,122.3,98.9,122.3,98.9,122.3c2.7,0,5.5,0,8.2,0
		c2.8,0,5.6,0,8.3,0c0.7,0,0.9-0.1,0.8-0.8c-0.1-1.7-0.1-3.4-0.2-5.1c0-0.8,0.4-1.3,1.1-1.4c0.8-0.1,1.3,0.3,1.5,1
		c0.1,0.3,0.1,0.6,0.2,1c0.2,1.6,0.4,3.2,0.6,4.7c0,0.4,0.1,0.7,0.6,0.7c1.5,0,2.6,0.8,3.4,2c0.3,0.4,0.6,0.5,1,0.5c1.5,0,3,0,4.6,0
		c0.7,0,0.8-0.2,0.7-0.8c-0.4-1.6-0.8-3.2-1.1-4.9c-0.9-4.8-2-9.6-3-14.4c-0.8-3.9-3-6.8-6.4-8.8c-2.7-1.7-5.7-2.7-8.6-4.1
		c-1.6-0.8-1.6-0.8-2.5,0.8c-0.2,0.4-0.4,0.7-0.7,1c-4.7,6.2-15.1,5.2-18.5-1.7c-0.3-0.6-0.5-0.9-1.2-0.6c-2.5,1.2-5,2.3-7.5,3.4
		c-4.9,2.3-7.7,6.2-8.5,11.7c-0.3,2-0.8,3.9-1.2,5.9c-0.9,3.9-1.7,7.9-2.6,11.8c-0.2,0.7,0.1,0.7,0.7,0.7c1.4,0,2.8,0,4.2,0
		c0.5,0,0.9-0.1,1.2-0.6c0.8-1.1,1.8-1.8,3.2-1.9c0.6,0,0.7-0.2,0.8-0.8c0.1-1.7,0.3-3.4,0.5-5.1c0.1-0.9,0.4-1.7,1.5-1.7
		c0.9,0,1.4,0.8,1.4,1.9c0,1.5,0.1,3,0,4.6c0,0.8,0.2,1,1,1C88,122.2,93.4,122.3,98.9,122.3z M189.3,205.5
		C189.3,205.5,189.3,205.5,189.3,205.5c5.3,0,10.5,0,15.8,0c2.1,0,3.3-1.1,3.3-3.2c0-6.4,0-12.8,0-19.1c0-2.3-1.1-3.3-3.4-3.3
		c-10.3,0-20.7,0-31,0c-2.6,0-3.6,1-3.6,3.6c0,6.2,0,12.5,0,18.7c0,2.2,1.2,3.3,3.4,3.3C179,205.5,184.2,205.5,189.3,205.5z
		 M109.1,205.6c1.7,0.1,3.4,0.1,4.8-0.9c1.1-0.7,2.1-1.7,2.2-3.1c0-1.2,0.1-2.5,0.2-3.7c0.4-4.5,0.8-8.9,1.1-13.4
		c0.5-6,1-12.1,1.5-18.1c0.4-5,0.9-9.9,1.3-14.9c0.1-1.3-0.5-2-1.7-2c-3.7,0-7.5,0-11.2,0c-1.4,0-2.1,0.7-2.1,2.1
		c-0.4,8.6-1.1,17.2-1.7,25.8c-0.3,4.7-0.8,9.4-1.2,14.1c-0.2,2.8-0.5,5.5-0.7,8.3c-0.1,1,0.1,2,0.7,2.8
		C104,205.1,106.3,205.8,109.1,205.6z M86.3,149.6C86.3,149.6,86.3,149.6,86.3,149.6c-1.7,0-3.5,0-5.2,0c-1.7,0-2.2,0.5-2,2.2
		c0.5,5.1,1,10.3,1.5,15.4c0.6,6.2,1.1,12.4,1.7,18.6c0.4,4.8,1,9.5,1,14.3c0,2.8,1.6,4.8,4.4,5.4c1.6,0.3,3.2,0.3,4.8,0.1
		c3-0.3,5.3-2.7,5.3-5.5c0-4.3-0.6-8.5-1-12.8c-0.1-1.8-0.4-3.6-0.5-5.4c-0.4-5.9-0.8-11.8-1.3-17.6c-0.2-2.6-0.6-5.2-0.7-7.8
		c-0.1-1.5,0-3.1-0.1-4.7c-0.2-1.6-0.9-2.2-2.5-2.2C89.7,149.6,88,149.6,86.3,149.6z M189.4,176.2
		C189.4,176.2,189.4,176.2,189.4,176.2c5.3,0,10.6,0,15.9,0c2.1,0,3.2-1,3.2-3.1c0-5.1,0-10.2,0-15.2c0-1.7-0.8-3.4-3.3-3.4
		c-10.5,0-21.1,0-31.6,0c-1.7,0-3,1.4-3.1,3.1c-0.2,5.2-0.1,10.4-0.1,15.6c0,2.1,1.1,3.2,3.3,3.2
		C178.9,176.2,184.2,176.2,189.4,176.2z M98.8,94.1c2,0,3.7-0.6,5.1-1.9c1.4-1.3,1.7-2.8,1.5-4.5c0-0.4,0-0.6,0.4-0.9
		c2.8-2.1,4.3-5,5.1-8.3c0.2-0.6,0.4-0.9,1-0.8c1,0.1,1.7-0.4,2.2-1.2c0.7-1.1,0.9-2.3,0.8-3.5c-0.1-1.4-1.2-2.5-2.6-2.2
		c-1.4,0.3-1.7-0.4-1.8-1.4c0-1.1-0.6-1.1-1.4-1c-7.1,0.5-13.2-1.7-18.2-6.8c-0.5-0.5-0.7-0.4-1,0.1c-1.7,2.6-3,5.3-3.6,8.3
		c-0.1,0.6-0.2,1.2-1.1,0.8c-0.7-0.3-1.4,0-1.9,0.5c-1.2,1.2-1,2.6-0.6,3.9c0.4,1.3,1.1,2.3,2.6,2.4c0.8,0,1,0.4,1.1,1
		c0.8,3.2,2.5,5.8,5,8c0.5,0.4,0.6,0.9,0.6,1.5c-0.1,0.9-0.1,1.8,0.3,2.6C93.8,93.1,96.1,94,98.8,94.1z M76.4,92.6
		c-2.2,0-4.1-0.1-6.1,0c-2.3,0.1-4.4,0.8-6.3,2.1c-3.3,2.4-5.1,5.5-5.2,9.6c-0.1,3.1,0,6.3,0,9.4c0,5.6,0,11.2,0,16.8
		c0,0.8,0.2,1.1,1,1c0.9-0.1,1.9,0,2.8,0c0.7,0,0.8-0.2,0.5-0.7c-0.7-1.1-0.5-2.2-0.1-3.4c2.1-7,3.6-14.2,5.1-21.4
		c0.9-4.4,2.4-8.5,6-11.5C74.7,93.8,75.5,93.3,76.4,92.6z M114.4,67.5c1.5-7.5-3.6-13.9-10.1-16.2c-4.1-1.5-8.2-1.3-12.3,0.2
		c-0.8,0.3-1.1,0.7-1.1,1.5c-0.1,1.8,0.8,3.3,1.8,4.6c4.6,5.5,10.6,7.6,17.6,6.8c0.7-0.1,1.2,0,1.7,0.5
		C112.8,65.8,113.6,66.6,114.4,67.5z M127.4,156.5C127.4,156.5,127.4,156.5,127.4,156.5c-1,0-2.1,0-3.1,0c-0.5,0-0.8,0.1-0.8,0.7
		c-0.2,3.7-0.5,7.5-0.8,11.2c-0.1,0.7,0.2,0.7,0.7,0.7c1.6,0,3.1,0,4.7,0c2.6,0.1,4.4-1.2,5.5-3.4c0.8-1.6,1.1-3.4,1-5.2
		c-0.2-2.2-1.9-3.8-4.1-3.9C129.4,156.5,128.4,156.5,127.4,156.5z M134.6,201.3c0-2.3-1.2-4-3.1-4.7c-0.4-0.1-0.7-0.2-0.9-0.6
		c-2.1-3.8-5.6-5.9-9.1-8.1c-0.6-0.4-0.7-0.2-0.8,0.4c-0.1,1.8-0.2,3.6-0.3,5.3c-0.1,0.7,0.2,1,0.7,1.3c1.5,0.9,2.9,1.9,4.2,3.1
		c0.4,0.3,0.5,0.6,0.2,1.1c-0.8,1.7-0.4,3.4,0.9,4.8c1.4,1.5,3.5,2,5.2,1.2C133.4,204.4,134.4,203,134.6,201.3z M79.1,193.6
		c-0.1-1.8-0.3-3.5-0.4-5.2c0-0.5-0.1-0.8-0.7-0.4c-2.4,1.7-4.8,3.5-6.6,5.9c-1,1.3-1.6,2.8-3.4,3.2c-0.1,0-0.1,0.1-0.2,0.1
		c-1.7,1.5-2,4.3-0.6,6.2c1.4,2,4,2.6,6,1.5c2.2-1.2,3-3.6,2-5.9c-0.2-0.5-0.2-0.9,0.2-1.3c0.9-0.7,1.7-1.5,2.6-2.1
		C79,195.2,79.5,194.5,79.1,193.6z M72.4,156.5C72.4,156.5,72.4,156.5,72.4,156.5c-0.8,0-1.6,0-2.3,0c-1.8,0-3.5,1.3-3.8,3.1
		c-0.4,2.3-0.2,4.5,1.1,6.5c1.1,1.8,2.7,2.8,4.9,2.8c1.1,0,2.3,0,3.4,0c1,0.1,1.3-0.2,1.2-1.2c-0.4-3.3-0.7-6.6-1-9.8
		c-0.2-1.5-0.2-1.5-1.8-1.5C73.5,156.5,73,156.5,72.4,156.5z M132.4,149.6C132.4,149.6,132.4,149.6,132.4,149.6
		c-1.3,0-2.5,0.1-3.8,0c-0.6,0-0.8,0.2-0.8,0.7c0,1.1,0.1,2.3,0,3.4c0,0.6,0.2,0.8,0.8,0.8c2.4,0,4.8,0,7.2,0.1
		c0.7,0,0.9-0.2,0.9-0.9c0-1.1,0-2.3,0-3.4c0-0.7-0.2-0.8-0.8-0.8C134.8,149.6,133.6,149.6,132.4,149.6z M67.8,154.6
		C67.8,154.6,67.8,154.6,67.8,154.6c1.2,0,2.4,0,3.6,0c0.6,0,0.8-0.2,0.8-0.8c0-1.2,0-2.4,0-3.6c0-0.5-0.2-0.7-0.7-0.7
		c-2.4,0-4.7,0-7.1,0c-0.5,0-0.7,0.1-0.7,0.7c0,1.2,0,2.4,0,3.7c0,0.5,0.2,0.7,0.7,0.7C65.4,154.6,66.6,154.6,67.8,154.6z M83,67.5
		c0.2-0.3,0.4-0.5,0.5-0.7c0.1-0.3,0.2-0.6,0.3-0.9c1-2.7,2.3-5.4,4.3-7.5c0.2-0.2,0.4-0.4,0.2-0.8c-0.6-1-0.9-2.2-0.9-3.5
		C84,56.2,81.6,63.2,83,67.5z"/>
	<path class="st1" d="M126.7,97.4c-1.6-2-3.5-3.7-5.7-5.1c-0.6-0.4-0.8-0.9-0.8-1.7c0-8.5,0-17,0-25.5c0-5.2,4.2-9.5,9.4-9.5
		c21.4,0,42.7,0,64.1,0c4.3,0,8.3,3.1,9.4,7.3c0.3,1.1,0.4,2.2,0.4,3.4c0,13.7,0,27.4,0,41.1c0,6.1-4.6,10.2-10,9.9
		c-4.1-0.2-8.3-0.1-12.5-0.1c-3,0-6.1,0-9.1,0c-0.8,0-1,0.2-1,1c0,2.7,0.1,5.3,0,8c0,0.9,0.3,1,1.1,1c2.9,0,5.7,0,8.6,0
		c1.8,0,3.4,0.4,4.6,2c1.2,1.5,1.3,3.2,0.4,4.9c-0.2,0.3-0.4,0.6-0.6,1.1c0.6,0,1,0,1.5,0c8.5,0,17.1,0,25.6,0
		c2.1,0,3.9,1.3,3.7,3.7c-0.1,1.4,0,2.8,0,4.2c0,1.9-1.1,3-3,3c-1.3,0-2.5,0-3.8-0.1c-0.6,0-0.9,0.1-0.8,0.8c0.1,0.6,0,1.1,0,1.7
		c0,1.7,0,1.7-1.8,1.7c-2.2,0-4.3,0-6.5,0c-0.6,0-0.8-0.1-0.8-0.7c0-0.8-0.1-1.6,0-2.3c0.1-0.9-0.2-1.1-1.1-1.1
		c-8.4,0-16.8,0-25.3,0c-28.5,0-57,0-85.4,0c-10.2,0-20.3,0-30.5,0c-1.7,0-1.7,0-1.7,1.7c0,18.7,0,37.3,0,56c0,1.9,0,1.9-1.9,1.9
		c-1.8,0-3.6,0-5.3,0c-1.8,0-1.8,0-1.8-1.7c0-7.8,0-15.5,0-23.3c0-11.1,0-22.2,0-33.3c0-1-0.2-1.4-1.2-1.3c-0.8,0.1-1.6,0-2.3,0
		c-1.5-0.1-2.5-1-2.5-2.6c-0.1-1.8,0-3.6,0-5.5c0.1-1.6,1.4-2.7,3.3-2.7c2.6,0,5.2,0,7.8,0c5.8,0,11.6,0,17.6,0
		c-1.1-2.1-2.1-4.1-3.1-6.2c0.4-0.3,0.8-0.2,1.2-0.2c3,0,6-0.1,9-0.1c0.6,0,0.9-0.1,0.9-0.8c0-1.2,0.7-1.7,2-1.7c6.7,0,13.4,0,20,0
		c6.5,0,12.9,0,19.4,0c1.8,0,2.2,0.3,2.4,2.1c0.1,0.7,0.6,0.4,0.9,0.5c3.2,0,6.3,0.1,9.5,0.1c1.2,0,1.2,0,0.7,1.1
		c-0.8,1.7-1.6,3.4-2.5,5.2c4.3,0,8.4,0,12.6,0c-0.5-0.8-1-1.6-1.1-2.5c-0.4-2.9,1.8-5.4,4.9-5.4c2.6-0.1,5.3-0.1,7.9,0
		c0.8,0,1-0.2,1-1c-0.1-2.6-0.1-5.2,0-7.8c0-0.9-0.2-1.2-1.1-1.2c-6.7,0-13.4,0-20,0c-0.8,0-1.2-0.3-1.3-1c-0.4-2-0.8-4-1.2-6
		c0.8,0.2,1.7,0.2,2.5,0.2c12.9,0,25.8,0,38.7,0c0.8,0,1.6-0.2,2.4-0.1c5.8,0.3,11.6,0.1,17.5,0.1c3.4,0,4.9-1.7,4.9-5.1
		c0-12.7,0-25.4,0-38.2c0-2.9-1.9-4.8-4.8-4.8c-9-0.1-18.1-0.2-27.1-0.1c-2.9,0-5.8,0.1-8.7,0.1c-8.3,0-16.7,0-25,0
		c-0.5,0-1,0-1.4,0.1c-2.1,0.6-3.1,2-3.1,4.6C126.7,77.1,126.7,87.2,126.7,97.4z"/>
	<path class="st2" d="M126.7,97.4c0-10.1,0-20.2,0-30.4c0-2.5,1-3.9,3.1-4.6c0.5-0.1,1-0.1,1.4-0.1c8.3,0,16.7,0,25,0
		c2.9,0,5.8-0.1,8.7-0.1c9,0,18.1,0.1,27.1,0.1c2.9,0,4.8,1.9,4.8,4.8c0,12.7,0,25.4,0,38.2c0,3.4-1.5,5.1-4.9,5.1
		c-5.8,0-11.6,0.2-17.5-0.1c-0.8,0-1.6,0.1-2.4,0.1c-12.9,0-25.8,0-38.7,0c-0.8,0-1.7,0.1-2.5-0.2c-0.8-2-1.1-4.2-1.5-6.3
		C128.8,101.6,127.8,99.5,126.7,97.4z M167.1,101.8C167.1,101.8,167.1,101.8,167.1,101.8c5,0,10,0,15,0c2,0,4.1,0,6.1,0
		c1.4,0,2.2-1.1,2.1-2.4c-0.1-1.5-1-2.2-2.7-2.2c-13.7,0-27.4,0-41.2,0c-0.4,0-0.7,0.1-1.1,0.1c-1,0.2-1.5,0.9-1.6,1.8
		c-0.2,1.4,0.7,2.8,2.7,2.8C153.5,101.7,160.3,101.8,167.1,101.8z M167,91.9C167,91.9,167,91.9,167,91.9c6.9,0,13.8,0,20.7,0
		c1.7,0,2.7-0.9,2.7-2.4c0-1.4-1-2.2-2.6-2.2c-10.7,0-21.4,0-32.2,0c-3.1,0-6.2,0-9.2,0c-1.7,0-2.6,1-2.4,2.6c0.2,1.5,0.8,2,2.5,2
		C153.3,91.9,160.2,91.9,167,91.9z M167.1,82.1C167.1,82.1,167.1,82.1,167.1,82.1c6.8,0,13.6,0,20.3,0c0.4,0,0.8,0,1.2-0.1
		c1.4-0.3,2.1-1.9,1.5-3.2c-0.5-1.1-1.4-1.4-2.6-1.4c-8.5,0-17,0-25.5,0c-5.2,0-10.4,0-15.6,0c-1.8,0-2.8,1.1-2.6,2.7
		c0.2,1.2,1.1,1.9,2.7,1.9C153.5,82.1,160.3,82.1,167.1,82.1z M155.3,67.9C155.3,67.9,155.3,67.9,155.3,67.9c-3.1,0-6.2,0-9.2,0
		c-1.3,0-2.1,0.9-2.2,2.2c0,1.2,0.8,2.2,2.1,2.2c6.2,0,12.3,0,18.5,0c0.6,0,0.8-0.3,0.7-0.8c0-0.8-0.1-1.6,0-2.3
		c0.1-1-0.1-1.3-1.2-1.3C161.1,68,158.2,67.9,155.3,67.9z M182.7,72.4C182.7,72.4,182.7,72.4,182.7,72.4c1.8,0,3.6,0,5.3,0
		c1.5,0,2.4-0.8,2.4-2.1c0-1.4-0.9-2.3-2.4-2.3c-3.6,0-7.1,0-10.7,0c-0.6,0-1,0.1-0.9,0.9c0.1,0.9,0,1.9,0,2.8
		c0,0.6,0.2,0.8,0.8,0.8C179.1,72.4,180.9,72.4,182.7,72.4z M137.5,70.1c0-2.2,0-2.2-2-2.2c-2.3,0-2.3,0-2.3,2.3
		c0,2.1,0,2.1,2.1,2.1C137.4,72.3,137.4,72.3,137.5,70.1z M133.2,81.9c1.2,0,2.4,0,3.5,0c0.3,0,0.7,0,0.7-0.5c0-1.2,0.5-2.7-0.2-3.7
		c-0.5-0.7-2-0.1-3.1-0.2c-0.1,0-0.1,0-0.2,0c-0.5,0-0.8,0.2-0.7,0.7C133.2,79.5,133.2,80.7,133.2,81.9z"/>
	<path class="st1" d="M98.9,122.3c-5.5,0-10.9,0-16.4,0c-0.8,0-1-0.2-1-1c0.1-1.5,0-3,0-4.6c0-1.2-0.5-1.9-1.4-1.9
		c-1.1,0-1.4,0.8-1.5,1.7c-0.2,1.7-0.4,3.4-0.5,5.1c0,0.6-0.2,0.8-0.8,0.8c-1.4,0.1-2.5,0.7-3.2,1.9c-0.3,0.5-0.6,0.6-1.2,0.6
		c-1.4,0-2.8,0-4.2,0c-0.5,0-0.8,0-0.7-0.7c0.9-3.9,1.7-7.8,2.6-11.8c0.4-2,0.9-3.9,1.2-5.9c0.8-5.4,3.6-9.3,8.5-11.7
		c2.5-1.2,5-2.3,7.5-3.4c0.7-0.3,0.9,0,1.2,0.6c3.4,7,13.8,7.9,18.5,1.7c0.2-0.3,0.5-0.7,0.7-1c0.9-1.6,0.9-1.6,2.5-0.8
		c2.9,1.4,5.9,2.5,8.6,4.1c3.4,2.1,5.6,5,6.4,8.8c1,4.8,2.1,9.6,3,14.4c0.3,1.6,0.7,3.3,1.1,4.9c0.2,0.6,0,0.9-0.7,0.8
		c-1.5-0.1-3,0-4.6,0c-0.4,0-0.8-0.1-1-0.5c-0.8-1.2-1.9-2-3.4-2c-0.5,0-0.6-0.3-0.6-0.7c-0.2-1.6-0.4-3.2-0.6-4.7
		c0-0.3-0.1-0.7-0.2-1c-0.3-0.7-0.8-1.1-1.5-1c-0.7,0.1-1.2,0.6-1.1,1.4c0.1,1.7,0.1,3.4,0.2,5.1c0,0.7-0.2,0.8-0.8,0.8
		c-2.8,0-5.6,0-8.3,0C104.4,122.2,101.6,122.2,98.9,122.3C98.9,122.3,98.9,122.3,98.9,122.3z"/>
	<path class="st1" d="M189.3,205.5c-5.2,0-10.3,0-15.5,0c-2.2,0-3.4-1.2-3.4-3.3c0-6.2,0-12.5,0-18.7c0-2.6,1-3.6,3.6-3.6
		c10.3,0,20.7,0,31,0c2.3,0,3.4,1.1,3.4,3.3c0,6.4,0,12.8,0,19.1c0,2.1-1.2,3.2-3.3,3.2C199.9,205.5,194.6,205.5,189.3,205.5
		C189.3,205.5,189.3,205.5,189.3,205.5z M189.5,188.1C189.5,188.1,189.5,188.1,189.5,188.1c2.2,0,4.3,0,6.5,0c1.3,0,2.1-0.7,2.1-1.9
		c0-1.2-0.8-1.9-2.1-1.9c-4.3,0-8.5,0-12.8,0c-1.4,0-2.1,0.8-2.1,2c0,1.1,0.8,1.8,2.1,1.8C185.3,188.1,187.4,188.1,189.5,188.1z
		 M189.6,193.6c-0.8,0-1.6,0-2.3,0c-1,0-1.7,0.9-1.7,2c0,0.9,0.6,1.6,1.6,1.7c1.6,0.1,3.1,0.1,4.7,0c1.2,0,1.8-0.7,1.7-1.8
		c0-1.1-0.8-1.8-1.8-1.8C191,193.6,190.3,193.6,189.6,193.6z"/>
	<path class="st1" d="M109.1,205.6c-2.8,0.2-5.1-0.5-6.7-3c-0.5-0.9-0.7-1.8-0.7-2.8c0.2-2.8,0.5-5.5,0.7-8.3
		c0.4-4.7,0.8-9.4,1.2-14.1c0.6-8.6,1.3-17.2,1.7-25.8c0.1-1.4,0.7-2,2.1-2.1c3.7,0,7.5,0,11.2,0c1.2,0,1.8,0.7,1.7,2
		c-0.4,5-0.9,9.9-1.3,14.9c-0.5,6-1,12.1-1.5,18.1c-0.4,4.5-0.7,8.9-1.1,13.4c-0.1,1.2-0.2,2.5-0.2,3.7c0,1.4-1.1,2.3-2.2,3.1
		C112.5,205.7,110.8,205.7,109.1,205.6z"/>
	<path class="st1" d="M86.3,149.6c1.7,0,3.5,0,5.2,0c1.6,0,2.3,0.6,2.5,2.2c0.2,1.5,0.1,3.1,0.1,4.7c0.1,2.6,0.5,5.2,0.7,7.8
		c0.5,5.9,0.9,11.7,1.3,17.6c0.1,1.8,0.4,3.6,0.5,5.4c0.4,4.3,0.9,8.5,1,12.8c0,2.8-2.3,5.2-5.3,5.5c-1.6,0.2-3.2,0.2-4.8-0.1
		c-2.8-0.5-4.4-2.5-4.4-5.4c-0.1-4.8-0.6-9.5-1-14.3c-0.5-6.2-1.1-12.4-1.7-18.6c-0.5-5.1-1-10.3-1.5-15.4c-0.2-1.7,0.3-2.2,2-2.2
		C82.8,149.6,84.5,149.6,86.3,149.6C86.3,149.6,86.3,149.6,86.3,149.6z"/>
	<path class="st1" d="M189.4,176.2c-5.2,0-10.5,0-15.7,0c-2.2,0-3.3-1-3.3-3.2c0-5.2-0.1-10.4,0.1-15.6c0.1-1.7,1.4-3.1,3.1-3.1
		c10.5,0,21.1,0,31.6,0c2.5,0,3.3,1.7,3.3,3.4c0,5.1,0,10.2,0,15.2c0,2.1-1,3.1-3.2,3.1C200,176.2,194.7,176.2,189.4,176.2
		C189.4,176.2,189.4,176.2,189.4,176.2z M189.5,168.3C189.5,168.3,189.5,168.3,189.5,168.3c2.2,0,4.4,0,6.6,0c1.5,0,2.4-1.1,2.4-2.7
		c0-1.5-1-2.6-2.4-2.6c-4.3,0-8.6,0-12.9,0c-1.6,0-2.5,1.1-2.5,2.6c0,1.6,1,2.7,2.6,2.7C185.3,168.3,187.4,168.3,189.5,168.3z"/>
	<path class="st1" d="M98.8,94.1c-2.7-0.1-5-1-6.4-3.5c-0.5-0.8-0.4-1.7-0.3-2.6c0-0.6-0.1-1.1-0.6-1.5c-2.5-2.1-4.2-4.8-5-8
		c-0.2-0.6-0.3-0.9-1.1-1c-1.4-0.1-2.2-1.1-2.6-2.4c-0.4-1.4-0.6-2.8,0.6-3.9c0.5-0.5,1.2-0.8,1.9-0.5c0.9,0.4,1-0.3,1.1-0.8
		c0.6-3,1.9-5.8,3.6-8.3c0.3-0.5,0.5-0.6,1-0.1c5,5.1,11.1,7.3,18.2,6.8c0.8-0.1,1.4,0,1.4,1c0,1,0.4,1.7,1.8,1.4
		c1.4-0.3,2.5,0.8,2.6,2.2c0.1,1.2-0.1,2.5-0.8,3.5c-0.5,0.8-1.2,1.3-2.2,1.2c-0.6-0.1-0.9,0.2-1,0.8c-0.8,3.3-2.4,6.2-5.1,8.3
		c-0.3,0.2-0.4,0.5-0.4,0.9c0.2,1.7-0.1,3.3-1.5,4.5C102.4,93.4,100.8,94.1,98.8,94.1z"/>
	<path class="st1" d="M76.4,92.6c-0.9,0.7-1.7,1.3-2.5,1.9c-3.6,3-5,7.1-6,11.5c-1.5,7.2-3,14.4-5.1,21.4c-0.4,1.2-0.6,2.3,0.1,3.4
		c0.3,0.5,0.2,0.8-0.5,0.7c-0.9-0.1-1.9-0.1-2.8,0c-0.8,0-1-0.2-1-1c0-5.6,0-11.2,0-16.8c0-3.1-0.1-6.3,0-9.4c0.1-4.1,2-7.2,5.2-9.6
		c1.9-1.4,4-2,6.3-2.1C72.3,92.5,74.3,92.6,76.4,92.6z"/>
	<path class="st1" d="M114.4,67.5c-0.8-0.9-1.6-1.7-2.3-2.6c-0.5-0.5-1-0.6-1.7-0.5c-7.1,0.8-13-1.3-17.6-6.8
		c-1.1-1.3-1.9-2.8-1.8-4.6c0-0.8,0.4-1.2,1.1-1.5c4.1-1.5,8.2-1.7,12.3-0.2C110.8,53.6,115.9,60,114.4,67.5z"/>
	<path class="st1" d="M127.4,156.5c1,0,2,0,3,0c2.2,0.1,3.9,1.7,4.1,3.9c0.2,1.8-0.2,3.6-1,5.2c-1.1,2.2-2.9,3.5-5.5,3.4
		c-1.6,0-3.1,0-4.7,0c-0.5,0-0.8,0-0.7-0.7c0.3-3.7,0.6-7.5,0.8-11.2c0-0.6,0.3-0.7,0.8-0.7C125.3,156.5,126.4,156.5,127.4,156.5
		C127.4,156.5,127.4,156.5,127.4,156.5z"/>
	<path class="st1" d="M134.6,201.3c-0.2,1.7-1.1,3.1-2.9,3.9c-1.7,0.8-3.7,0.2-5.2-1.2c-1.4-1.4-1.7-3.1-0.9-4.8
		c0.2-0.5,0.2-0.8-0.2-1.1c-1.3-1.2-2.7-2.2-4.2-3.1c-0.5-0.3-0.8-0.7-0.7-1.3c0.2-1.8,0.3-3.5,0.3-5.3c0-0.7,0.2-0.8,0.8-0.4
		c3.5,2.2,7,4.3,9.1,8.1c0.2,0.4,0.5,0.5,0.9,0.6C133.4,197.3,134.6,199.1,134.6,201.3z"/>
	<path class="st1" d="M79.1,193.6c0.4,0.9-0.2,1.5-1,2.1c-0.9,0.7-1.7,1.4-2.6,2.1c-0.4,0.4-0.5,0.7-0.2,1.3c1,2.3,0.1,4.7-2,5.9
		c-2,1.1-4.6,0.5-6-1.5c-1.3-1.9-1.1-4.6,0.6-6.2c0.1,0,0.1-0.1,0.2-0.1c1.8-0.4,2.4-1.9,3.4-3.2c1.8-2.4,4.1-4.2,6.6-5.9
		c0.6-0.4,0.6-0.1,0.7,0.4C78.8,190.1,79,191.8,79.1,193.6z"/>
	<path class="st1" d="M72.4,156.5c0.5,0,1,0,1.6,0c1.6,0,1.6,0,1.8,1.5c0.3,3.3,0.6,6.6,1,9.8c0.1,1-0.2,1.3-1.2,1.2
		c-1.1-0.1-2.3,0-3.4,0c-2.2,0-3.8-1.1-4.9-2.8c-1.3-2-1.4-4.3-1.1-6.5c0.3-1.8,2-3.1,3.8-3.1C70.9,156.5,71.7,156.5,72.4,156.5
		C72.4,156.5,72.4,156.5,72.4,156.5z"/>
	<path class="st3" d="M132.4,149.6c1.2,0,2.4,0,3.6,0c0.6,0,0.9,0.1,0.8,0.8c-0.1,1.1,0,2.3,0,3.4c0,0.7-0.2,0.9-0.9,0.9
		c-2.4-0.1-4.8-0.1-7.2-0.1c-0.6,0-0.8-0.2-0.8-0.8c0-1.1,0-2.3,0-3.4c0-0.6,0.1-0.8,0.8-0.7C129.9,149.6,131.2,149.6,132.4,149.6
		C132.4,149.6,132.4,149.6,132.4,149.6z"/>
	<path class="st1" d="M99.9,178.6c0,0.4-0.1,0.7-0.1,1.1c0,0-0.1,0-0.1,0l0,0.1c-0.7-6.6-1-13.2-1.4-19.8c-0.1-0.9-0.1-1.8-0.2-2.8
		c-0.1-0.5,0.1-0.7,0.7-0.7c0.8,0.1,1.9-0.3,2.5,0.1c0.6,0.4,0,1.5,0,2.3C100.8,165.5,100.3,172,99.9,178.6
		C99.9,178.6,99.9,178.6,99.9,178.6z"/>
	<path class="st1" d="M67.8,154.6c-1.2,0-2.4,0-3.6,0c-0.5,0-0.7-0.2-0.7-0.7c0-1.2,0-2.4,0-3.7c0-0.6,0.2-0.7,0.7-0.7
		c2.4,0,4.7,0,7.1,0c0.5,0,0.7,0.2,0.7,0.7c0,1.2,0,2.4,0,3.6c0,0.6-0.2,0.8-0.8,0.8C70.2,154.6,69,154.6,67.8,154.6
		C67.8,154.6,67.8,154.6,67.8,154.6z"/>
	<path class="st1" d="M83,67.5c-1.3-4.3,1-11.2,4.5-13.4c0,1.3,0.3,2.4,0.9,3.5c0.2,0.3,0,0.5-0.2,0.8c-2.1,2.2-3.3,4.8-4.3,7.5
		c-0.1,0.3-0.2,0.6-0.3,0.9C83.4,67,83.2,67.2,83,67.5z"/>
	<path class="st1" d="M99.7,179.8L99.7,179.8c0-0.1,0.1,0,0.1,0c0.3,0.7-0.1,1.4-0.1,2.1C99.7,181.2,99.7,180.5,99.7,179.8z"/>
	<polygon class="st1" points="99.9,178.6 99.9,178.6 100,178.6 	"/>
	<path class="st4" d="M167.1,101.8c-6.8,0-13.6,0-20.5,0c-2.1,0-2.9-1.3-2.7-2.8c0.1-0.9,0.5-1.7,1.6-1.8c0.4-0.1,0.7-0.1,1.1-0.1
		c13.7,0,27.4,0,41.2,0c1.7,0,2.5,0.7,2.7,2.2c0.1,1.4-0.8,2.4-2.1,2.4c-2,0.1-4.1,0-6.1,0C177.1,101.8,172.1,101.8,167.1,101.8
		C167.1,101.8,167.1,101.8,167.1,101.8z"/>
	<path class="st4" d="M167,91.9c-6.9,0-13.7,0-20.6,0c-1.7,0-2.3-0.6-2.5-2c-0.2-1.5,0.8-2.5,2.4-2.6c3.1,0,6.2,0,9.2,0
		c10.7,0,21.4,0,32.2,0c1.6,0,2.6,0.8,2.6,2.2c0,1.5-0.9,2.4-2.7,2.4C180.8,91.9,173.9,91.9,167,91.9C167,91.9,167,91.9,167,91.9z"
		/>
	<path class="st4" d="M167.1,82.1c-6.8,0-13.6,0-20.5,0c-1.6,0-2.6-0.6-2.7-1.9c-0.2-1.6,0.8-2.7,2.6-2.7c5.2,0,10.4,0,15.6,0
		c8.5,0,17,0,25.5,0c1.1,0,2,0.3,2.6,1.4c0.6,1.3-0.1,2.8-1.5,3.2c-0.4,0.1-0.8,0.1-1.2,0.1C180.7,82.1,173.9,82.1,167.1,82.1
		C167.1,82.1,167.1,82.1,167.1,82.1z"/>
	<path class="st4" d="M155.3,67.9c2.9,0,5.8,0.1,8.7,0c1.1,0,1.3,0.3,1.2,1.3c-0.1,0.8,0,1.6,0,2.3c0,0.6-0.1,0.8-0.7,0.8
		c-6.2,0-12.3,0-18.5,0c-1.3,0-2.1-0.9-2.1-2.2c0-1.3,0.9-2.2,2.2-2.2C149.2,67.9,152.3,67.9,155.3,67.9
		C155.3,67.9,155.3,67.9,155.3,67.9z"/>
	<path class="st4" d="M182.7,72.4c-1.8,0-3.6,0-5.4,0c-0.6,0-0.9-0.2-0.8-0.8c0-0.9,0.1-1.9,0-2.8c0-0.7,0.3-0.9,0.9-0.9
		c3.6,0,7.1,0,10.7,0c1.5,0,2.4,0.9,2.4,2.3c0,1.3-0.9,2.1-2.4,2.1C186.2,72.4,184.5,72.4,182.7,72.4
		C182.7,72.4,182.7,72.4,182.7,72.4z"/>
	<path class="st4" d="M137.5,70.1c0,2.2,0,2.2-2.2,2.2c-2.1,0-2.1,0-2.1-2.1c0-2.3,0-2.3,2.3-2.3C137.5,67.9,137.5,67.9,137.5,70.1z
		"/>
	<path class="st4" d="M133.2,81.9c0-1.2,0-2.4,0-3.7c0-0.5,0.2-0.7,0.7-0.7c0.1,0,0.1,0,0.2,0c1.1,0.1,2.6-0.5,3.1,0.2
		c0.6,0.9,0.1,2.4,0.2,3.7c0,0.5-0.3,0.5-0.7,0.5C135.6,81.9,134.4,81.9,133.2,81.9z"/>
	<path class="st4" d="M189.5,188.1c-2.1,0-4.2,0-6.3,0c-1.3,0-2.1-0.6-2.1-1.8c0-1.2,0.8-2,2.1-2c4.3,0,8.5,0,12.8,0
		c1.3,0,2.1,0.7,2.1,1.9c0,1.1-0.8,1.9-2.1,1.9C193.8,188.1,191.6,188.1,189.5,188.1C189.5,188.1,189.5,188.1,189.5,188.1z"/>
	<path class="st4" d="M189.6,193.6c0.7,0,1.4,0,2.1,0c1.1,0,1.8,0.8,1.8,1.8c0,1.1-0.6,1.8-1.7,1.8c-1.6,0-3.1,0-4.7,0
		c-1,0-1.6-0.7-1.6-1.7c0-1,0.8-1.9,1.7-2C188.1,193.6,188.8,193.6,189.6,193.6z"/>
	<path class="st4" d="M189.5,168.3c-2.1,0-4.2,0-6.3,0c-1.6,0-2.6-1-2.6-2.7c0-1.6,1-2.6,2.5-2.6c4.3,0,8.6,0,12.9,0
		c1.4,0,2.4,1.1,2.4,2.6c0,1.5-0.9,2.6-2.4,2.7C193.9,168.3,191.7,168.2,189.5,168.3C189.5,168.3,189.5,168.3,189.5,168.3z"/>
</g>
</svg>
