<svg xmlns="http://www.w3.org/2000/svg" viewBox="0 0 256 256"><circle cx="128" cy="128" r="116" fill="#fff"/><path d="M112 81.7c-1 0-1.9.8-1.9 1.9s.8 1.9 1.9 1.9h15.3c.3-1.3.9-2.6 1.6-3.7.1-.1-16.9-.1-16.9-.1zm69.7-13H102c-1.4 0-2.6 1.1-2.6 2.6v53.4c0 1.4 1.1 2.6 2.6 2.6h13.3v-5.1h-10.8V73.8h74.6v48.3h-26.5v5.1h29c1.4 0 2.6-1.1 2.6-2.6V71.3c0-1.4-1.1-2.6-2.5-2.6zM138.6 80c-4.5 0-8.1 3.6-8.1 8.1 0 2.2.9 4.3 2.5 5.9h11.3c1.6-1.5 2.5-3.6 2.5-5.9 0-4.4-3.7-8.1-8.2-8.1zm36.1 6.7c-.5-.4-1-.7-1.6-.9l-.9-4.1c-.3-1.3-1.5-2.1-2.8-1.8a2.37 2.37 0 0 0-1.8 1.8h-19.4c.8 1.1 1.3 2.4 1.6 3.7h18.3l.4 2-8 8.5-14.4 1.7h-18.2c-5.1 0-9.3 4.1-9.3 9.3l-.1 28.6c0 2.8 2 4.2 3.9 4.2a3.84 3.84 0 0 0 3.9-3.9v-8.4l.1-20.5c0-.5.4-.8.8-.8.5 0 .8.4.8.8l-.1 59.5c1.4-.6 3-1 4.7-1.1v-.9c-.8-1.6-1.2-3.4-1.2-5.3 0-4.4 2.4-8.3 6-10.4v-13.4h2v12.5c1.3-.4 2.6-.7 4-.7 2 0 3.8.5 5.4 1.3v-43.2l13.9-1.6c.9-.1 1.8-.5 2.4-1.2l9.4-10c1.8-1.7 1.8-4.2.2-5.7z" fill="#273d85"/><path d="M162.9 178.4c0-4.9-4.1-8.9-9-8.9h-20.4c-4.9 0-9 4-9 8.9v8.9h3.4c0-5.2 4.2-9.3 9.3-9.3h13.5c5.1 0 9.3 4.2 9.3 9.3h3l-.1-8.9zm-19.2-27.2a7.92 7.92 0 0 0-7.9 7.9 7.85 7.85 0 0 0 7.9 7.9 7.92 7.92 0 0 0 7.9-7.9 7.85 7.85 0 0 0-7.9-7.9zm-52.7 0a7.92 7.92 0 0 0-7.9 7.9A7.92 7.92 0 0 0 91 167a7.92 7.92 0 0 0 7.9-7.9 7.92 7.92 0 0 0-7.9-7.9zm59.6 29.4h-13.5c-3.7 0-6.6 3-6.6 6.6h26.8c-.1-3.6-3-6.6-6.7-6.6zm-53.3 0H83.8c-3.7 0-6.6 3-6.6 6.6H104c-.1-3.6-3.1-6.6-6.7-6.6zm20.3-38.1c-1.8-.4-3.6.7-4 2.5l-4 17.5c-.9.7-8.4 6.1-9.4 6.9H80.8c-4.9 0-9 4-9 8.9v8.9h2.7c0-5.1 4.2-9.3 9.3-9.3h13.5c1.7 0 3.3.5 4.7 1.3l.1-2.9 12.5-9.2c.7-.5 1.1-1.2 1.3-2l4.3-18.8c.3-1.6-.8-3.4-2.6-3.8z" fill="#6580d2"/></svg>