<?xml version="1.0" encoding="UTF-8" standalone="no"?>
<svg
   xmlns:sketch="http://www.bohemiancoding.com/sketch/ns"
   xmlns:dc="http://purl.org/dc/elements/1.1/"
   xmlns:cc="http://creativecommons.org/ns#"
   xmlns:rdf="http://www.w3.org/1999/02/22-rdf-syntax-ns#"
   xmlns:svg="http://www.w3.org/2000/svg"
   xmlns="http://www.w3.org/2000/svg"
   xmlns:sodipodi="http://sodipodi.sourceforge.net/DTD/sodipodi-0.dtd"
   xmlns:inkscape="http://www.inkscape.org/namespaces/inkscape"
   width="32px"
   height="32px"
   viewBox="0 0 32 32"
   version="1.1"
   id="svg3007"
   inkscape:version="0.48.4 r9939"
   sodipodi:docname="icon-7-thumb-down.svg"
   inkscape:export-filename="/var/lib/lxc/bbb-dev090-14/rootfs/home/ubuntu/dev/bigbluebutton/bigbluebutton-client/branding/default/style/css/assets/images/icon-7-thumb-down.png"
   inkscape:export-xdpi="50"
   inkscape:export-ydpi="50">
  <metadata
     id="metadata3020">
    <rdf:RDF>
      <cc:Work
         rdf:about="">
        <dc:format>image/svg+xml</dc:format>
        <dc:type
           rdf:resource="http://purl.org/dc/dcmitype/StillImage" />
        <dc:title>icon 7 thumb down</dc:title>
      </cc:Work>
    </rdf:RDF>
  </metadata>
  <sodipodi:namedview
     pagecolor="#ffffff"
     bordercolor="#666666"
     borderopacity="1"
     objecttolerance="10"
     gridtolerance="10"
     guidetolerance="10"
     inkscape:pageopacity="0"
     inkscape:pageshadow="2"
     inkscape:window-width="753"
     inkscape:window-height="480"
     id="namedview3018"
     showgrid="false"
     inkscape:zoom="7.375"
     inkscape:cx="16"
     inkscape:cy="16"
     inkscape:window-x="65"
     inkscape:window-y="24"
     inkscape:window-maximized="0"
     inkscape:current-layer="svg3007" />
  <!-- Generator: Sketch 3.0.3 (7891) - http://www.bohemiancoding.com/sketch -->
  <title
     id="title3009">icon 7 thumb down</title>
  <desc
     id="desc3011">Created with Sketch.</desc>
  <defs
     id="defs3013" />
  <g
     id="Page-1"
     stroke="none"
     stroke-width="1"
     fill="none"
     fill-rule="evenodd"
     sketch:type="MSPage"
     style="fill:#000000;stroke:#000000;stroke-opacity:1">
    <g
       id="icon-7-thumb-down"
       sketch:type="MSArtboardGroup"
       fill="#929292"
       style="fill:#000000;stroke:#000000;stroke-opacity:1">
      <path
         d="M19.2488133,2 L23.5023733,2 C24.8817744,2 26,3.10966206 26,4.5 C26,5.06280636 25.8126296,5.58217601 25.4978577,6.00000757 C26.8803322,6.00334775 28,7.11175892 28,8.5 C28,9.13578601 27.763488,9.71613998 27.3722702,10.1573008 L27.3722702,10.1573008 C28.3231922,10.5104957 29,11.4206732 29,12.5 C29,13.135786 28.763488,13.71614 28.3722702,14.1573008 C29.3231922,14.5104957 30,15.4206732 30,16.5 C30,17.8807119 28.8845825,19 27.4915915,19 L21.4997555,19 C22.5490723,24.0168457 22.0463867,30.0000007 18,30 C13.9536133,29.9999993 16.066359,25.2123529 14.5,22.2373047 C12.9337003,19.2623697 10.000223,19.0000199 10,19 L3.99508929,19 C2.8932319,19 2,18.1066027 2,17.0081158 L2,5.99188419 C2,4.89179693 2.88670635,4 3.99810135,4 L10,4 L16,2 L19.2488133,2 L19.2488133,2 Z M10.5,18 C10.5000014,18.0000003 13.8047349,18.723683 15.3710938,21.6987305 C16.9374527,24.6737787 15.1291504,28.9999996 18,29 C21.1514893,29.0000004 21.5007324,23.5 20.2999878,18 L20.2999878,18 L27.5069036,18 C28.3361142,18 29,17.3284271 29,16.5 C29,15.6657972 28.331518,15 27.5069036,15 L24,15 L24,14 L26.5069036,14 C27.3361142,14 28,13.3284271 28,12.5 C28,11.6657972 27.331518,11 26.5069036,11 L23,11 L23,11 L23,10 L25.5069036,10 C26.3361142,10 27,9.32842712 27,8.5 C27,7.66579723 26.331518,7 25.5069036,7 L22,7 L22,7 L22,6 L23.4983244,6 C24.3288106,6 25,5.32842712 25,4.5 C25,3.66579723 24.3276769,3 23.4983244,3 L19.7508378,3 L16,3 L10,5 L4.00292933,5 C3.43788135,5 3,5.44704472 3,5.99850233 L3,17.0014977 C3,17.5525106 3.44769743,18 3.9999602,18 L10.5,18 L10.5,18 L10.5,18 Z"
         id="thumb-down"
         sketch:type="MSShapeGroup"
         style="fill:#000000;stroke:#000000;stroke-opacity:1" />
    </g>
  </g>
</svg>
