<svg width="221" height="125" viewBox="0 0 221 125" fill="none" xmlns="http://www.w3.org/2000/svg">
<rect width="221" height="125" rx="4" fill="#4E5A66"/>
<path d="M0 4C0 1.79086 1.79086 0 4 0H44V125H4C1.79086 125 0 123.209 0 121V4Z" fill="#DCE4EC"/>
<rect x="60" y="61" width="145" height="52" fill="#363A43"/>
<rect x="60" y="19" width="32" height="26" fill="white"/>
<path fill-rule="evenodd" clip-rule="evenodd" d="M69.1194 38.9841C69.2646 37.9745 69.839 37.0718 70.7178 36.5043C71.9685 35.6956 73.5975 35.3355 76.0006 35.3355C78.3377 35.3355 80.0171 35.7081 81.288 36.5075C82.1656 37.0593 82.7389 37.9614 82.8823 38.9841H69.1194ZM81.8908 35.6635C80.4336 34.7462 78.5616 34.3193 76.0006 34.3193C73.3655 34.3193 71.5467 34.7348 70.1046 35.6668H70.104C68.7868 36.5178 68 37.9478 68 39.4925C68 39.7732 68.2424 40.0003 68.5415 40.0003H83.4585C83.7582 40.0003 84 39.7732 84 39.4925C84 37.9256 83.2115 36.4939 81.8908 35.6635Z" fill="#4E5A66"/>
<path fill-rule="evenodd" clip-rule="evenodd" d="M73.9768 25.9943C74.5815 25.3637 75.3674 25.0162 76.1912 25.0162C77.0161 25.0162 77.8339 25.3806 78.4365 26.0171C79.0862 26.7041 79.416 27.6073 79.365 28.5599C79.2576 30.551 77.9527 31.9413 76.1912 31.9413C74.4047 31.9413 73.0999 30.5537 73.0174 28.5659C72.9778 27.6095 73.3282 26.6721 73.9768 25.9943ZM76.1912 32.9575C78.482 32.9575 80.2425 31.131 80.3786 28.6143C80.4442 27.3803 80.0163 26.2094 79.173 25.3187C78.3801 24.4807 77.2932 24 76.1912 24C75.0892 24 74.0425 24.4584 73.2452 25.2904C72.4057 26.167 71.9534 27.3765 72.0038 28.6077C72.1079 31.1283 73.8689 32.9575 76.1912 32.9575Z" fill="#4E5A66"/>
<rect x="98" y="19" width="31" height="26" fill="white"/>
<path fill-rule="evenodd" clip-rule="evenodd" d="M106.119 38.9841C106.265 37.9745 106.839 37.0718 107.718 36.5043C108.968 35.6956 110.598 35.3355 113.001 35.3355C115.338 35.3355 117.017 35.7081 118.288 36.5075C119.166 37.0593 119.739 37.9614 119.882 38.9841H106.119ZM118.891 35.6635C117.434 34.7462 115.562 34.3193 113.001 34.3193C110.366 34.3193 108.547 34.7348 107.105 35.6668H107.104C105.787 36.5178 105 37.9478 105 39.4925C105 39.7732 105.242 40.0003 105.541 40.0003H120.459C120.758 40.0003 121 39.7732 121 39.4925C121 37.9256 120.212 36.4939 118.891 35.6635Z" fill="#4E5A66"/>
<path fill-rule="evenodd" clip-rule="evenodd" d="M110.977 25.9943C111.582 25.3637 112.367 25.0162 113.191 25.0162C114.016 25.0162 114.834 25.3806 115.436 26.0171C116.086 26.7041 116.416 27.6073 116.365 28.5599C116.258 30.551 114.953 31.9413 113.191 31.9413C111.405 31.9413 110.1 30.5537 110.017 28.5659C109.978 27.6095 110.328 26.6721 110.977 25.9943ZM113.191 32.9575C115.482 32.9575 117.242 31.131 117.379 28.6143C117.444 27.3803 117.016 26.2094 116.173 25.3187C115.38 24.4807 114.293 24 113.191 24C112.089 24 111.042 24.4584 110.245 25.2904C109.406 26.167 108.953 27.3765 109.004 28.6077C109.108 31.1283 110.869 32.9575 113.191 32.9575Z" fill="#4E5A66"/>
<rect x="136" y="19" width="31" height="26" fill="white"/>
<path fill-rule="evenodd" clip-rule="evenodd" d="M172.119 38.9841C172.265 37.9745 172.839 37.0718 173.718 36.5043C174.968 35.6956 176.598 35.3355 179.001 35.3355C181.338 35.3355 183.017 35.7081 184.288 36.5075C185.166 37.0593 185.739 37.9614 185.882 38.9841H172.119ZM184.891 35.6635C183.434 34.7462 181.562 34.3193 179.001 34.3193C176.366 34.3193 174.547 34.7348 173.105 35.6668H173.104C171.787 36.5178 171 37.9478 171 39.4925C171 39.7732 171.242 40.0003 171.541 40.0003H186.459C186.758 40.0003 187 39.7732 187 39.4925C187 37.9256 186.212 36.4939 184.891 35.6635Z" fill="#4E5A66"/>
<path fill-rule="evenodd" clip-rule="evenodd" d="M176.977 25.9943C177.582 25.3637 178.367 25.0162 179.191 25.0162C180.016 25.0162 180.834 25.3806 181.436 26.0171C182.086 26.7041 182.416 27.6073 182.365 28.5599C182.258 30.551 180.953 31.9413 179.191 31.9413C177.405 31.9413 176.1 30.5537 176.017 28.5659C175.978 27.6095 176.328 26.6721 176.977 25.9943ZM179.191 32.9575C181.482 32.9575 183.242 31.131 183.379 28.6143C183.444 27.3803 183.016 26.2094 182.173 25.3187C181.38 24.4807 180.293 24 179.191 24C178.089 24 177.042 24.4584 176.245 25.2904C175.406 26.167 174.953 27.3765 175.004 28.6077C175.108 31.1283 176.869 32.9575 179.191 32.9575Z" fill="#4E5A66"/>
<rect x="173" y="19" width="32" height="26" fill="white"/>
<path fill-rule="evenodd" clip-rule="evenodd" d="M145.119 38.9841C145.265 37.9745 145.839 37.0718 146.718 36.5043C147.968 35.6956 149.598 35.3355 152.001 35.3355C154.338 35.3355 156.017 35.7081 157.288 36.5075C158.166 37.0593 158.739 37.9614 158.882 38.9841H145.119ZM157.891 35.6635C156.434 34.7462 154.562 34.3193 152.001 34.3193C149.366 34.3193 147.547 34.7348 146.105 35.6668H146.104C144.787 36.5178 144 37.9478 144 39.4925C144 39.7732 144.242 40.0003 144.541 40.0003H159.459C159.758 40.0003 160 39.7732 160 39.4925C160 37.9256 159.212 36.4939 157.891 35.6635Z" fill="#4E5A66"/>
<path fill-rule="evenodd" clip-rule="evenodd" d="M149.977 25.9943C150.582 25.3637 151.367 25.0162 152.191 25.0162C153.016 25.0162 153.834 25.3806 154.436 26.0171C155.086 26.7041 155.416 27.6073 155.365 28.5599C155.258 30.551 153.953 31.9413 152.191 31.9413C150.405 31.9413 149.1 30.5537 149.017 28.5659C148.978 27.6095 149.328 26.6721 149.977 25.9943ZM152.191 32.9575C154.482 32.9575 156.242 31.131 156.379 28.6143C156.444 27.3803 156.016 26.2094 155.173 25.3187C154.38 24.4807 153.293 24 152.191 24C151.089 24 150.042 24.4584 149.245 25.2904C148.406 26.167 147.953 27.3765 148.004 28.6077C148.108 31.1283 149.869 32.9575 152.191 32.9575Z" fill="#4E5A66"/>
<path fill-rule="evenodd" clip-rule="evenodd" d="M182.119 38.9841C182.265 37.9745 182.839 37.0718 183.718 36.5043C184.968 35.6956 186.598 35.3355 189.001 35.3355C191.338 35.3355 193.017 35.7081 194.288 36.5075C195.166 37.0593 195.739 37.9614 195.882 38.9841H182.119ZM194.891 35.6635C193.434 34.7462 191.562 34.3193 189.001 34.3193C186.366 34.3193 184.547 34.7348 183.105 35.6668H183.104C181.787 36.5178 181 37.9478 181 39.4925C181 39.7732 181.242 40.0003 181.541 40.0003H196.459C196.758 40.0003 197 39.7732 197 39.4925C197 37.9256 196.212 36.4939 194.891 35.6635Z" fill="#4E5A66"/>
<path fill-rule="evenodd" clip-rule="evenodd" d="M186.977 25.9943C187.582 25.3637 188.367 25.0162 189.191 25.0162C190.016 25.0162 190.834 25.3806 191.436 26.0171C192.086 26.7041 192.416 27.6073 192.365 28.5599C192.258 30.551 190.953 31.9413 189.191 31.9413C187.405 31.9413 186.1 30.5537 186.017 28.5659C185.978 27.6095 186.328 26.6721 186.977 25.9943ZM189.191 32.9575C191.482 32.9575 193.242 31.131 193.379 28.6143C193.444 27.3803 193.016 26.2094 192.173 25.3187C191.38 24.4807 190.293 24 189.191 24C188.089 24 187.042 24.4584 186.245 25.2904C185.406 26.167 184.953 27.3765 185.004 28.6077C185.108 31.1283 186.869 32.9575 189.191 32.9575Z" fill="#4E5A66"/>
<path fill-rule="evenodd" clip-rule="evenodd" d="M124.334 80.4731H141.667V78.3338H124.334V80.4731ZM124.333 90.4579H141.666V81.8062H124.333V90.4579ZM142.333 77H123.667C123.299 77 123 77.2986 123 77.6669V80.4724V81.8062V91.1241C123 91.4931 123.299 91.791 123.667 91.791H131.257L126.742 95.8366C126.467 96.0828 126.445 96.5034 126.69 96.7779C126.937 97.0524 127.358 97.0745 127.632 96.8303L132.333 92.6172V96.3331C132.333 96.7014 132.632 97 133 97C133.368 97 133.667 96.7014 133.667 96.3331V92.6172L138.368 96.8303C138.496 96.9441 138.654 97 138.813 97C138.996 97 139.178 96.9255 139.31 96.7779C139.555 96.5034 139.533 96.0828 139.258 95.8366L134.743 91.791H142.333C142.701 91.791 143 91.4931 143 91.1241V81.8062V80.4724V77.6669C143 77.2986 142.701 77 142.333 77Z" fill="white"/>
</svg>
