<svg width="221" height="125" viewBox="0 0 221 125" fill="none" xmlns="http://www.w3.org/2000/svg">
<rect width="221" height="125" rx="4" fill="#4E5A66"/>
<path d="M0 4C0 1.79086 1.79086 0 4 0H44V125H4C1.79086 125 0 123.209 0 121V4Z" fill="#DCE4EC"/>
<rect x="184" y="5" width="32" height="26" fill="white"/>
<path fill-rule="evenodd" clip-rule="evenodd" d="M193.119 24.9841C193.265 23.9745 193.839 23.0718 194.718 22.5043C195.968 21.6956 197.598 21.3355 200.001 21.3355C202.338 21.3355 204.017 21.7081 205.288 22.5075C206.166 23.0593 206.739 23.9614 206.882 24.9841H193.119ZM205.891 21.6635C204.434 20.7462 202.562 20.3193 200.001 20.3193C197.366 20.3193 195.547 20.7348 194.105 21.6668H194.104C192.787 22.5178 192 23.9478 192 25.4925C192 25.7732 192.242 26.0003 192.541 26.0003H207.459C207.758 26.0003 208 25.7732 208 25.4925C208 23.9256 207.212 22.4939 205.891 21.6635Z" fill="#4E5A66"/>
<path fill-rule="evenodd" clip-rule="evenodd" d="M197.977 11.9943C198.582 11.3637 199.367 11.0162 200.191 11.0162C201.016 11.0162 201.834 11.3806 202.436 12.0171C203.086 12.7041 203.416 13.6073 203.365 14.5599C203.258 16.551 201.953 17.9413 200.191 17.9413C198.405 17.9413 197.1 16.5537 197.017 14.5659C196.978 13.6095 197.328 12.6721 197.977 11.9943ZM200.191 18.9575C202.482 18.9575 204.242 17.131 204.379 14.6143C204.444 13.3803 204.016 12.2094 203.173 11.3187C202.38 10.4807 201.293 10 200.191 10C199.089 10 198.042 10.4584 197.245 11.2904C196.406 12.167 195.953 13.3765 196.004 14.6077C196.108 17.1283 197.869 18.9575 200.191 18.9575Z" fill="#4E5A66"/>
<rect x="184" y="35" width="31" height="26" fill="white"/>
<path fill-rule="evenodd" clip-rule="evenodd" d="M192.119 54.9841C192.265 53.9745 192.839 53.0718 193.718 52.5043C194.968 51.6956 196.598 51.3355 199.001 51.3355C201.338 51.3355 203.017 51.7081 204.288 52.5075C205.166 53.0593 205.739 53.9614 205.882 54.9841H192.119ZM204.891 51.6635C203.434 50.7462 201.562 50.3193 199.001 50.3193C196.366 50.3193 194.547 50.7348 193.105 51.6668H193.104C191.787 52.5178 191 53.9478 191 55.4925C191 55.7732 191.242 56.0003 191.541 56.0003H206.459C206.758 56.0003 207 55.7732 207 55.4925C207 53.9256 206.212 52.4939 204.891 51.6635Z" fill="#4E5A66"/>
<path fill-rule="evenodd" clip-rule="evenodd" d="M196.977 41.9943C197.582 41.3637 198.367 41.0162 199.191 41.0162C200.016 41.0162 200.834 41.3806 201.436 42.0171C202.086 42.7041 202.416 43.6073 202.365 44.5599C202.258 46.551 200.953 47.9413 199.191 47.9413C197.405 47.9413 196.1 46.5537 196.017 44.5659C195.978 43.6095 196.328 42.6721 196.977 41.9943ZM199.191 48.9575C201.482 48.9575 203.242 47.131 203.379 44.6143C203.444 43.3803 203.016 42.2094 202.173 41.3187C201.38 40.4807 200.293 40 199.191 40C198.089 40 197.042 40.4584 196.245 41.2904C195.406 42.167 194.953 43.3765 195.004 44.6077C195.108 47.1283 196.869 48.9575 199.191 48.9575Z" fill="#4E5A66"/>
<rect x="184" y="65" width="31" height="26" fill="white"/>
<path fill-rule="evenodd" clip-rule="evenodd" d="M193.119 84.9841C193.265 83.9745 193.839 83.0718 194.718 82.5043C195.968 81.6956 197.598 81.3355 200.001 81.3355C202.338 81.3355 204.017 81.7081 205.288 82.5075C206.166 83.0593 206.739 83.9614 206.882 84.9841H193.119ZM205.891 81.6635C204.434 80.7462 202.562 80.3193 200.001 80.3193C197.366 80.3193 195.547 80.7348 194.105 81.6668H194.104C192.787 82.5178 192 83.9478 192 85.4925C192 85.7732 192.242 86.0003 192.541 86.0003H207.459C207.758 86.0003 208 85.7732 208 85.4925C208 83.9256 207.212 82.4939 205.891 81.6635Z" fill="#4E5A66"/>
<path fill-rule="evenodd" clip-rule="evenodd" d="M197.977 71.9943C198.582 71.3637 199.367 71.0162 200.191 71.0162C201.016 71.0162 201.834 71.3806 202.436 72.0171C203.086 72.7041 203.416 73.6073 203.365 74.5599C203.258 76.551 201.953 77.9413 200.191 77.9413C198.405 77.9413 197.1 76.5537 197.017 74.5659C196.978 73.6095 197.328 72.6721 197.977 71.9943ZM200.191 78.9575C202.482 78.9575 204.242 77.131 204.379 74.6143C204.444 73.3803 204.016 72.2094 203.173 71.3187C202.38 70.4807 201.293 70 200.191 70C199.089 70 198.042 70.4584 197.245 71.2904C196.406 72.167 195.953 73.3765 196.004 74.6077C196.108 77.1283 197.869 78.9575 200.191 78.9575Z" fill="#4E5A66"/>
<rect x="184" y="95" width="32" height="26" fill="white"/>
<path fill-rule="evenodd" clip-rule="evenodd" d="M193.119 114.984C193.265 113.974 193.839 113.072 194.718 112.504C195.968 111.696 197.598 111.335 200.001 111.335C202.338 111.335 204.017 111.708 205.288 112.508C206.166 113.059 206.739 113.961 206.882 114.984H193.119ZM205.891 111.664C204.434 110.746 202.562 110.319 200.001 110.319C197.366 110.319 195.547 110.735 194.105 111.667H194.104C192.787 112.518 192 113.948 192 115.492C192 115.773 192.242 116 192.541 116H207.459C207.758 116 208 115.773 208 115.492C208 113.926 207.212 112.494 205.891 111.664Z" fill="#4E5A66"/>
<path fill-rule="evenodd" clip-rule="evenodd" d="M197.977 101.994C198.582 101.364 199.367 101.016 200.191 101.016C201.016 101.016 201.834 101.381 202.436 102.017C203.086 102.704 203.416 103.607 203.365 104.56C203.258 106.551 201.953 107.941 200.191 107.941C198.405 107.941 197.1 106.554 197.017 104.566C196.978 103.61 197.328 102.672 197.977 101.994ZM200.191 108.958C202.482 108.958 204.242 107.131 204.379 104.614C204.444 103.38 204.016 102.209 203.173 101.319C202.38 100.481 201.293 100 200.191 100C199.089 100 198.042 100.458 197.245 101.29C196.406 102.167 195.953 103.377 196.004 104.608C196.108 107.128 197.869 108.958 200.191 108.958Z" fill="#4E5A66"/>
<rect x="53" y="26" width="117.723" height="82" fill="#363A43"/>
<line x1="176.5" y1="7" x2="176.5" y2="118" stroke="white" stroke-dasharray="2 2"/>
<path fill-rule="evenodd" clip-rule="evenodd" d="M98.1341 58.557H125.867V55.1341H98.1341V58.557ZM98.133 74.5327H125.866V60.6899H98.133V74.5327ZM126.933 53H97.067C96.4778 53 96 53.4778 96 54.067V58.5559V60.6899V75.5986C96 76.189 96.4778 76.6657 97.067 76.6657H109.212L101.987 83.1385C101.547 83.5324 101.512 84.2055 101.905 84.6447C102.3 85.0839 102.973 85.1192 103.411 84.7286L110.933 77.9876V83.933C110.933 84.5222 111.411 85 112 85C112.589 85 113.067 84.5222 113.067 83.933V77.9876L120.589 84.7286C120.793 84.9106 121.047 85 121.301 85C121.593 85 121.885 84.8808 122.095 84.6447C122.488 84.2055 122.453 83.5324 122.013 83.1385L114.788 76.6657H126.933C127.522 76.6657 128 76.189 128 75.5986V60.6899V58.5559V54.067C128 53.4778 127.522 53 126.933 53Z" fill="white"/>
</svg>
