<svg width="221" height="125" viewBox="0 0 221 125" fill="none" xmlns="http://www.w3.org/2000/svg">
<rect width="221" height="125" rx="4" fill="#4E5A66"/>
<path d="M0 4C0 1.79086 1.79086 0 4 0H44V91H0V4Z" fill="#DCE4EC"/>
<rect x="60" y="12" width="145" height="101" fill="#363A43"/>
<rect x="4" y="95" width="18" height="13" fill="white"/>
<rect x="4" y="110" width="18" height="13" fill="white"/>
<rect x="26" y="95" width="18" height="13" fill="white"/>
<rect x="26" y="110" width="18" height="13" fill="white"/>
<path fill-rule="evenodd" clip-rule="evenodd" d="M9.55969 105.492C9.63229 104.987 9.91952 104.535 10.3589 104.252C10.9842 103.847 11.7988 103.667 13.0003 103.667C14.1688 103.667 15.0085 103.854 15.644 104.253C16.0828 104.529 16.3694 104.98 16.4412 105.492H9.55969ZM15.9454 103.831C15.2168 103.373 14.2808 103.159 13.0003 103.159C11.6828 103.159 10.7734 103.367 10.0523 103.833H10.052C9.39338 104.258 9 104.973 9 105.746C9 105.886 9.12119 106 9.27074 106H16.7293C16.8791 106 17 105.886 17 105.746C17 104.962 16.6058 104.246 15.9454 103.831Z" fill="#4E5A66"/>
<path fill-rule="evenodd" clip-rule="evenodd" d="M11.9884 98.9971C12.2908 98.6819 12.6837 98.5081 13.0956 98.5081C13.5081 98.5081 13.917 98.6903 14.2182 99.0086C14.5431 99.3521 14.708 99.8037 14.6825 100.28C14.6288 101.275 13.9764 101.971 13.0956 101.971C12.2024 101.971 11.5499 101.277 11.5087 100.283C11.4889 99.8048 11.6641 99.336 11.9884 98.9971ZM13.0956 102.479C14.241 102.479 15.1212 101.566 15.1893 100.307C15.2221 99.6902 15.0082 99.1047 14.5865 98.6593C14.19 98.2403 13.6466 98 13.0956 98C12.5446 98 12.0212 98.2292 11.6226 98.6452C11.2028 99.0835 10.9767 99.6883 11.0019 100.304C11.054 101.564 11.9345 102.479 13.0956 102.479Z" fill="#4E5A66"/>
<path fill-rule="evenodd" clip-rule="evenodd" d="M9.55969 120.492C9.63229 119.987 9.91952 119.535 10.3589 119.252C10.9842 118.847 11.7988 118.667 13.0003 118.667C14.1688 118.667 15.0085 118.854 15.644 119.253C16.0828 119.529 16.3694 119.98 16.4412 120.492H9.55969ZM15.9454 118.831C15.2168 118.373 14.2808 118.159 13.0003 118.159C11.6828 118.159 10.7734 118.367 10.0523 118.833H10.052C9.39338 119.258 9 119.973 9 120.746C9 120.886 9.12119 121 9.27074 121H16.7293C16.8791 121 17 120.886 17 120.746C17 119.962 16.6058 119.246 15.9454 118.831Z" fill="#4E5A66"/>
<path fill-rule="evenodd" clip-rule="evenodd" d="M11.9884 113.997C12.2908 113.682 12.6837 113.508 13.0956 113.508C13.5081 113.508 13.917 113.69 14.2182 114.009C14.5431 114.352 14.708 114.804 14.6825 115.28C14.6288 116.275 13.9764 116.971 13.0956 116.971C12.2024 116.971 11.5499 116.277 11.5087 115.283C11.4889 114.805 11.6641 114.336 11.9884 113.997ZM13.0956 117.479C14.241 117.479 15.1212 116.566 15.1893 115.307C15.2221 114.69 15.0082 114.105 14.5865 113.659C14.19 113.24 13.6466 113 13.0956 113C12.5446 113 12.0212 113.229 11.6226 113.645C11.2028 114.084 10.9767 114.688 11.0019 115.304C11.054 116.564 11.9345 117.479 13.0956 117.479Z" fill="#4E5A66"/>
<path fill-rule="evenodd" clip-rule="evenodd" d="M31.5597 105.492C31.6323 104.987 31.9195 104.535 32.3589 104.252C32.9842 103.847 33.7988 103.667 35.0003 103.667C36.1688 103.667 37.0085 103.854 37.644 104.253C38.0828 104.529 38.3694 104.98 38.4412 105.492H31.5597ZM37.9454 103.831C37.2168 103.373 36.2808 103.159 35.0003 103.159C33.6828 103.159 32.7734 103.367 32.0523 103.833H32.052C31.3934 104.258 31 104.973 31 105.746C31 105.886 31.1212 106 31.2707 106H38.7293C38.8791 106 39 105.886 39 105.746C39 104.962 38.6058 104.246 37.9454 103.831Z" fill="#4E5A66"/>
<path fill-rule="evenodd" clip-rule="evenodd" d="M33.9884 98.9971C34.2908 98.6819 34.6837 98.5081 35.0956 98.5081C35.5081 98.5081 35.917 98.6903 36.2182 99.0086C36.5431 99.3521 36.708 99.8037 36.6825 100.28C36.6288 101.275 35.9764 101.971 35.0956 101.971C34.2024 101.971 33.5499 101.277 33.5087 100.283C33.4889 99.8048 33.6641 99.336 33.9884 98.9971ZM35.0956 102.479C36.241 102.479 37.1212 101.566 37.1893 100.307C37.2221 99.6902 37.0082 99.1047 36.5865 98.6593C36.19 98.2403 35.6466 98 35.0956 98C34.5446 98 34.0212 98.2292 33.6226 98.6452C33.2028 99.0835 32.9767 99.6883 33.0019 100.304C33.054 101.564 33.9345 102.479 35.0956 102.479Z" fill="#4E5A66"/>
<path fill-rule="evenodd" clip-rule="evenodd" d="M31.5597 120.492C31.6323 119.987 31.9195 119.535 32.3589 119.252C32.9842 118.847 33.7988 118.667 35.0003 118.667C36.1688 118.667 37.0085 118.854 37.644 119.253C38.0828 119.529 38.3694 119.98 38.4412 120.492H31.5597ZM37.9454 118.831C37.2168 118.373 36.2808 118.159 35.0003 118.159C33.6828 118.159 32.7734 118.367 32.0523 118.833H32.052C31.3934 119.258 31 119.973 31 120.746C31 120.886 31.1212 121 31.2707 121H38.7293C38.8791 121 39 120.886 39 120.746C39 119.962 38.6058 119.246 37.9454 118.831Z" fill="#4E5A66"/>
<path fill-rule="evenodd" clip-rule="evenodd" d="M33.9884 113.997C34.2908 113.682 34.6837 113.508 35.0956 113.508C35.5081 113.508 35.917 113.69 36.2182 114.009C36.5431 114.352 36.708 114.804 36.6825 115.28C36.6288 116.275 35.9764 116.971 35.0956 116.971C34.2024 116.971 33.5499 116.277 33.5087 115.283C33.4889 114.805 33.6641 114.336 33.9884 113.997ZM35.0956 117.479C36.241 117.479 37.1212 116.566 37.1893 115.307C37.2221 114.69 37.0082 114.105 36.5865 113.659C36.19 113.24 35.6466 113 35.0956 113C34.5446 113 34.0212 113.229 33.6226 113.645C33.2028 114.084 32.9767 114.688 33.0019 115.304C33.054 116.564 33.9345 117.479 35.0956 117.479Z" fill="#4E5A66"/>
<path fill-rule="evenodd" clip-rule="evenodd" d="M114.734 50.1199H150.267V45.7343H114.734V50.1199ZM114.733 70.5888H150.266V52.8527H114.733V70.5888ZM151.633 43H113.367C112.612 43 112 43.6122 112 44.3671V50.1184V52.8527V71.9545C112 72.7109 112.612 73.3216 113.367 73.3216H128.927L119.671 81.6149C119.107 82.1197 119.062 82.9821 119.565 83.5448C120.071 84.1074 120.934 84.1527 121.495 83.6522L131.133 75.0153V82.6329C131.133 83.3878 131.745 84 132.5 84C133.255 84 133.867 83.3878 133.867 82.6329V75.0153L143.505 83.6522C143.767 83.8855 144.092 84 144.417 84C144.792 84 145.165 83.8473 145.435 83.5448C145.938 82.9821 145.893 82.1197 145.329 81.6149L136.073 73.3216H151.633C152.388 73.3216 153 72.7109 153 71.9545V52.8527V50.1184V44.3671C153 43.6122 152.388 43 151.633 43Z" fill="white"/>
</svg>
