<?xml version="1.0" encoding="utf-8"?>
<!-- Generator: Adobe Illustrator 25.1.0, SVG Export Plug-In . SVG Version: 6.00 Build 0)  -->
<svg version="1.1" id="Camada_1" xmlns="http://www.w3.org/2000/svg" xmlns:xlink="http://www.w3.org/1999/xlink" x="0px" y="0px"
	 viewBox="0 0 192 108" enable-background="new 0 0 192 108" xml:space="preserve">
<g>
	<g>
		<rect fill="#202020" width="192" height="108"/>
	</g>
	<g>
		<rect fill="#FFC845" width="38.4" height="76.8"/>
	</g>
	<g>
		<g>
			<rect x="3.84" y="80.64" fill="#2CCCD3" width="30.72" height="23.52"/>
		</g>
		<path fill="#F0F0F0" d="M20.55,92.34c1.64-0.56,2.82-2.11,2.82-3.94c0-2.3-1.86-4.16-4.16-4.16s-4.16,1.86-4.16,4.16
			c0,1.83,1.18,3.38,2.82,3.94c-3.96,0.64-6.98,4.08-6.98,8.22h16.65C27.53,96.42,24.5,92.99,20.55,92.34z"/>
	</g>
	<g>
		<rect x="55.2" y="20.4" fill="#F0F0F0" width="124.8" height="67.2"/>
		<g>
			<polygon fill="#00BF6F" points="107.62,32.4 132.56,75.6 82.68,75.6 			"/>
			<polygon fill="#00BF6F" points="137.55,49.68 152.52,75.6 122.59,75.6 			"/>
			<circle fill="#FFC845" cx="127.58" cy="42.16" r="5.77"/>
		</g>
	</g>
</g>
</svg>
