<svg width="221" height="125" viewBox="0 0 221 125" fill="none" xmlns="http://www.w3.org/2000/svg">
<rect width="221" height="125" rx="4" fill="#4E5A66"/>
<path d="M0 4C0 1.79086 1.79086 0 4 0H44V125H4C1.79086 125 0 123.209 0 121V4Z" fill="#DCE4EC"/>
<rect x="60" y="40" width="145" height="76" fill="#363A43"/>
<rect x="60" y="10" width="32" height="26" fill="white"/>
<path fill-rule="evenodd" clip-rule="evenodd" d="M69.1194 29.9841C69.2646 28.9745 69.839 28.0718 70.7178 27.5043C71.9685 26.6956 73.5975 26.3355 76.0006 26.3355C78.3377 26.3355 80.0171 26.7081 81.288 27.5075C82.1656 28.0593 82.7389 28.9614 82.8823 29.9841H69.1194ZM81.8908 26.6635C80.4336 25.7462 78.5616 25.3193 76.0006 25.3193C73.3655 25.3193 71.5467 25.7348 70.1046 26.6668H70.104C68.7868 27.5178 68 28.9478 68 30.4925C68 30.7732 68.2424 31.0003 68.5415 31.0003H83.4585C83.7582 31.0003 84 30.7732 84 30.4925C84 28.9256 83.2115 27.4939 81.8908 26.6635Z" fill="#4E5A66"/>
<path fill-rule="evenodd" clip-rule="evenodd" d="M73.9768 16.9943C74.5815 16.3637 75.3674 16.0162 76.1912 16.0162C77.0161 16.0162 77.8339 16.3806 78.4365 17.0171C79.0862 17.7041 79.416 18.6073 79.365 19.5599C79.2576 21.551 77.9527 22.9413 76.1912 22.9413C74.4047 22.9413 73.0999 21.5537 73.0174 19.5659C72.9778 18.6095 73.3282 17.6721 73.9768 16.9943ZM76.1912 23.9575C78.482 23.9575 80.2425 22.131 80.3786 19.6143C80.4442 18.3803 80.0163 17.2094 79.173 16.3187C78.3801 15.4807 77.2932 15 76.1912 15C75.0892 15 74.0425 15.4584 73.2452 16.2904C72.4057 17.167 71.9534 18.3765 72.0038 19.6077C72.1079 22.1283 73.8689 23.9575 76.1912 23.9575Z" fill="#4E5A66"/>
<rect x="98" y="10" width="31" height="26" fill="white"/>
<path fill-rule="evenodd" clip-rule="evenodd" d="M106.119 29.9841C106.265 28.9745 106.839 28.0718 107.718 27.5043C108.968 26.6956 110.598 26.3355 113.001 26.3355C115.338 26.3355 117.017 26.7081 118.288 27.5075C119.166 28.0593 119.739 28.9614 119.882 29.9841H106.119ZM118.891 26.6635C117.434 25.7462 115.562 25.3193 113.001 25.3193C110.366 25.3193 108.547 25.7348 107.105 26.6668H107.104C105.787 27.5178 105 28.9478 105 30.4925C105 30.7732 105.242 31.0003 105.541 31.0003H120.459C120.758 31.0003 121 30.7732 121 30.4925C121 28.9256 120.212 27.4939 118.891 26.6635Z" fill="#4E5A66"/>
<path fill-rule="evenodd" clip-rule="evenodd" d="M110.977 16.9943C111.582 16.3637 112.367 16.0162 113.191 16.0162C114.016 16.0162 114.834 16.3806 115.436 17.0171C116.086 17.7041 116.416 18.6073 116.365 19.5599C116.258 21.551 114.953 22.9413 113.191 22.9413C111.405 22.9413 110.1 21.5537 110.017 19.5659C109.978 18.6095 110.328 17.6721 110.977 16.9943ZM113.191 23.9575C115.482 23.9575 117.242 22.131 117.379 19.6143C117.444 18.3803 117.016 17.2094 116.173 16.3187C115.38 15.4807 114.293 15 113.191 15C112.089 15 111.042 15.4584 110.245 16.2904C109.406 17.167 108.953 18.3765 109.004 19.6077C109.108 22.1283 110.869 23.9575 113.191 23.9575Z" fill="#4E5A66"/>
<rect x="136" y="10" width="31" height="26" fill="white"/>
<rect x="173" y="10" width="32" height="26" fill="white"/>
<path fill-rule="evenodd" clip-rule="evenodd" d="M145.119 29.9841C145.265 28.9745 145.839 28.0718 146.718 27.5043C147.968 26.6956 149.598 26.3355 152.001 26.3355C154.338 26.3355 156.017 26.7081 157.288 27.5075C158.166 28.0593 158.739 28.9614 158.882 29.9841H145.119ZM157.891 26.6635C156.434 25.7462 154.562 25.3193 152.001 25.3193C149.366 25.3193 147.547 25.7348 146.105 26.6668H146.104C144.787 27.5178 144 28.9478 144 30.4925C144 30.7732 144.242 31.0003 144.541 31.0003H159.459C159.758 31.0003 160 30.7732 160 30.4925C160 28.9256 159.212 27.4939 157.891 26.6635Z" fill="#4E5A66"/>
<path fill-rule="evenodd" clip-rule="evenodd" d="M149.977 16.9943C150.582 16.3637 151.367 16.0162 152.191 16.0162C153.016 16.0162 153.834 16.3806 154.436 17.0171C155.086 17.7041 155.416 18.6073 155.365 19.5599C155.258 21.551 153.953 22.9413 152.191 22.9413C150.405 22.9413 149.1 21.5537 149.017 19.5659C148.978 18.6095 149.328 17.6721 149.977 16.9943ZM152.191 23.9575C154.482 23.9575 156.242 22.131 156.379 19.6143C156.444 18.3803 156.016 17.2094 155.173 16.3187C154.38 15.4807 153.293 15 152.191 15C151.089 15 150.042 15.4584 149.245 16.2904C148.406 17.167 147.953 18.3765 148.004 19.6077C148.108 22.1283 149.869 23.9575 152.191 23.9575Z" fill="#4E5A66"/>
<path fill-rule="evenodd" clip-rule="evenodd" d="M182.119 29.9841C182.265 28.9745 182.839 28.0718 183.718 27.5043C184.968 26.6956 186.598 26.3355 189.001 26.3355C191.338 26.3355 193.017 26.7081 194.288 27.5075C195.166 28.0593 195.739 28.9614 195.882 29.9841H182.119ZM194.891 26.6635C193.434 25.7462 191.562 25.3193 189.001 25.3193C186.366 25.3193 184.547 25.7348 183.105 26.6668H183.104C181.787 27.5178 181 28.9478 181 30.4925C181 30.7732 181.242 31.0003 181.541 31.0003H196.459C196.758 31.0003 197 30.7732 197 30.4925C197 28.9256 196.212 27.4939 194.891 26.6635Z" fill="#4E5A66"/>
<path fill-rule="evenodd" clip-rule="evenodd" d="M186.977 16.9943C187.582 16.3637 188.367 16.0162 189.191 16.0162C190.016 16.0162 190.834 16.3806 191.436 17.0171C192.086 17.7041 192.416 18.6073 192.365 19.5599C192.258 21.551 190.953 22.9413 189.191 22.9413C187.405 22.9413 186.1 21.5537 186.017 19.5659C185.978 18.6095 186.328 17.6721 186.977 16.9943ZM189.191 23.9575C191.482 23.9575 193.242 22.131 193.379 19.6143C193.444 18.3803 193.016 17.2094 192.173 16.3187C191.38 15.4807 190.293 15 189.191 15C188.089 15 187.042 15.4584 186.245 16.2904C185.406 17.167 184.953 18.3765 185.004 19.6077C185.108 22.1283 186.869 23.9575 189.191 23.9575Z" fill="#4E5A66"/>
<path fill-rule="evenodd" clip-rule="evenodd" d="M118.134 68.557H145.867V65.1341H118.134V68.557ZM118.133 84.5327H145.866V70.6899H118.133V84.5327ZM146.933 63H117.067C116.478 63 116 63.4778 116 64.067V68.5559V70.6899V85.5986C116 86.189 116.478 86.6657 117.067 86.6657H129.212L121.987 93.1385C121.547 93.5324 121.512 94.2055 121.905 94.6447C122.3 95.0839 122.973 95.1192 123.411 94.7286L130.933 87.9876V93.933C130.933 94.5222 131.411 95 132 95C132.589 95 133.067 94.5222 133.067 93.933V87.9876L140.589 94.7286C140.793 94.9106 141.047 95 141.301 95C141.593 95 141.885 94.8808 142.095 94.6447C142.488 94.2055 142.453 93.5324 142.013 93.1385L134.788 86.6657H146.933C147.522 86.6657 148 86.189 148 85.5986V70.6899V68.5559V64.067C148 63.4778 147.522 63 146.933 63Z" fill="white"/>
</svg>
