<?xml version="1.0" encoding="utf-8"?>
<!-- Generator: Adobe Illustrator 25.1.0, SVG Export Plug-In . SVG Version: 6.00 Build 0)  -->
<svg version="1.1" id="Camada_1" xmlns="http://www.w3.org/2000/svg" xmlns:xlink="http://www.w3.org/1999/xlink" x="0px" y="0px"
	 viewBox="0 0 192 108" enable-background="new 0 0 192 108" xml:space="preserve">
<g>
	<g>
		<rect fill="#06172A" width="192" height="108"/>
	</g>
	<g>
		<rect fill="#92BCEA" width="38.4" height="108"/>
	</g>
	<g>
		<g>
			<g>
				<rect x="52.8" y="9.84" fill="#0F70D7" width="34.56" height="25.92"/>
			</g>
			<g>
				<rect x="143.04" y="9.84" fill="#0F70D7" width="34.56" height="25.92"/>
			</g>
			<g>
				<rect x="97.92" y="9.84" fill="#0F70D7" width="34.56" height="25.92"/>
			</g>
		</g>
		<g>
			<path fill="#FFFFFF" d="M71.43,22.74c1.64-0.56,2.82-2.11,2.82-3.94c0-2.3-1.86-4.16-4.16-4.16s-4.16,1.86-4.16,4.16
				c0,1.83,1.18,3.38,2.82,3.94c-3.96,0.64-6.98,4.08-6.98,8.22h16.65C78.41,26.82,75.38,23.39,71.43,22.74z"/>
			<path fill="#FFFFFF" d="M116.55,22.74c1.64-0.56,2.82-2.11,2.82-3.94c0-2.3-1.86-4.16-4.16-4.16c-2.3,0-4.16,1.86-4.16,4.16
				c0,1.83,1.18,3.38,2.82,3.94c-3.96,0.64-6.98,4.08-6.98,8.22h16.65C123.53,26.82,120.5,23.39,116.55,22.74z"/>
			<path fill="#FFFFFF" d="M161.67,22.74c1.64-0.56,2.82-2.11,2.82-3.94c0-2.3-1.86-4.16-4.16-4.16s-4.16,1.86-4.16,4.16
				c0,1.83,1.18,3.38,2.82,3.94c-3.96,0.64-6.98,4.08-6.98,8.22h16.65C168.65,26.82,165.62,23.39,161.67,22.74z"/>
		</g>
	</g>
	<g>
		<rect x="52.8" y="45.36" fill="#FFFFFF" width="124.8" height="52.8"/>
		<g>
			<polygon fill="#008081" points="107.44,54.96 126.84,88.56 88.04,88.56 			"/>
			<polygon fill="#008081" points="130.72,68.4 142.36,88.56 119.08,88.56 			"/>
			<circle fill="#DF2721" cx="122.96" cy="62.55" r="4.49"/>
		</g>
	</g>
</g>
</svg>
