<svg width="221" height="125" viewBox="0 0 221 125" fill="none" xmlns="http://www.w3.org/2000/svg">
<rect width="221" height="125" rx="4" fill="#4E5A66"/>
<path d="M0 4C0 1.79086 1.79086 0 4 0H44V125H4C1.79086 125 0 123.209 0 121V4Z" fill="#DCE4EC"/>
<rect x="60" y="12" width="64.604" height="45" fill="white"/>
<path fill-rule="evenodd" clip-rule="evenodd" d="M84.8607 42.5016C85.0225 41.377 85.6623 40.3715 86.6411 39.7394C88.0342 38.8386 89.8487 38.4375 92.5254 38.4375C95.1287 38.4375 96.9992 38.8525 98.4149 39.743C99.3924 40.3576 100.031 41.3624 100.191 42.5016H84.8607ZM99.0863 38.8029C97.4632 37.7812 95.378 37.3057 92.5254 37.3057C89.5904 37.3057 87.5645 37.7685 85.9581 38.8065H85.9574C84.4902 39.7545 83.6139 41.3473 83.6139 43.0678C83.6139 43.3806 83.8839 43.6334 84.217 43.6334H100.833C101.166 43.6334 101.436 43.3806 101.436 43.0678C101.436 41.3225 100.557 39.7279 99.0863 38.8029Z" fill="#4E5A66"/>
<path fill-rule="evenodd" clip-rule="evenodd" d="M90.2713 28.0329C90.9448 27.3305 91.8201 26.9434 92.7378 26.9434C93.6566 26.9434 94.5675 27.3493 95.2387 28.0583C95.9624 28.8236 96.3297 29.8296 96.2729 30.8907C96.1533 33.1084 94.6998 34.6571 92.7378 34.6571C90.7479 34.6571 89.2944 33.1114 89.2026 30.8973C89.1585 29.832 89.5488 28.7879 90.2713 28.0329ZM92.7378 35.7889C95.2894 35.7889 97.2503 33.7545 97.4019 30.9512C97.475 29.5767 96.9984 28.2725 96.059 27.2803C95.1759 26.3469 93.9653 25.8115 92.7378 25.8115C91.5102 25.8115 90.3444 26.3221 89.4563 27.2489C88.5212 28.2253 88.0174 29.5725 88.0736 30.9439C88.1896 33.7515 90.151 35.7889 92.7378 35.7889Z" fill="#4E5A66"/>
<rect x="60" y="63" width="64.604" height="45" fill="white"/>
<path fill-rule="evenodd" clip-rule="evenodd" d="M84.8607 93.5016C85.0225 92.377 85.6623 91.3715 86.6411 90.7394C88.0342 89.8386 89.8487 89.4375 92.5254 89.4375C95.1287 89.4375 96.9992 89.8525 98.4149 90.743C99.3924 91.3576 100.031 92.3624 100.191 93.5016H84.8607ZM99.0863 89.8029C97.4632 88.7812 95.378 88.3057 92.5254 88.3057C89.5904 88.3057 87.5645 88.7685 85.9581 89.8065H85.9574C84.4902 90.7545 83.6139 92.3473 83.6139 94.0678C83.6139 94.3806 83.8839 94.6334 84.217 94.6334H100.833C101.166 94.6334 101.436 94.3806 101.436 94.0678C101.436 92.3225 100.557 90.7279 99.0863 89.8029Z" fill="#4E5A66"/>
<path fill-rule="evenodd" clip-rule="evenodd" d="M90.2713 79.0329C90.9448 78.3305 91.8201 77.9434 92.7378 77.9434C93.6566 77.9434 94.5675 78.3493 95.2387 79.0583C95.9624 79.8236 96.3297 80.8296 96.2729 81.8907C96.1533 84.1084 94.6998 85.6571 92.7378 85.6571C90.7479 85.6571 89.2944 84.1114 89.2026 81.8973C89.1585 80.832 89.5488 79.7879 90.2713 79.0329ZM92.7378 86.7889C95.2894 86.7889 97.2503 84.7545 97.4019 81.9512C97.475 80.5767 96.9984 79.2725 96.059 78.2803C95.1759 77.3469 93.9653 76.8115 92.7378 76.8115C91.5102 76.8115 90.3444 77.3221 89.4563 78.2489C88.5212 79.2253 88.0174 80.5725 88.0736 81.9439C88.1896 84.7515 90.151 86.7889 92.7378 86.7889Z" fill="#4E5A66"/>
<rect x="128" y="12" width="64.604" height="45" fill="white"/>
<path fill-rule="evenodd" clip-rule="evenodd" d="M152.861 42.5016C153.022 41.377 153.662 40.3715 154.641 39.7394C156.034 38.8386 157.849 38.4375 160.525 38.4375C163.129 38.4375 164.999 38.8525 166.415 39.743C167.392 40.3576 168.031 41.3624 168.191 42.5016H152.861ZM167.086 38.8029C165.463 37.7812 163.378 37.3057 160.525 37.3057C157.59 37.3057 155.564 37.7685 153.958 38.8065H153.957C152.49 39.7545 151.614 41.3473 151.614 43.0678C151.614 43.3806 151.884 43.6334 152.217 43.6334H168.833C169.166 43.6334 169.436 43.3806 169.436 43.0678C169.436 41.3225 168.557 39.7279 167.086 38.8029Z" fill="#4E5A66"/>
<path fill-rule="evenodd" clip-rule="evenodd" d="M158.271 28.0329C158.945 27.3305 159.82 26.9434 160.738 26.9434C161.657 26.9434 162.568 27.3493 163.239 28.0583C163.962 28.8236 164.33 29.8296 164.273 30.8907C164.153 33.1084 162.7 34.6571 160.738 34.6571C158.748 34.6571 157.294 33.1114 157.203 30.8973C157.159 29.832 157.549 28.7879 158.271 28.0329ZM160.738 35.7889C163.289 35.7889 165.25 33.7545 165.402 30.9512C165.475 29.5767 164.998 28.2725 164.059 27.2803C163.176 26.3469 161.965 25.8115 160.738 25.8115C159.51 25.8115 158.344 26.3221 157.456 27.2489C156.521 28.2253 156.017 29.5725 156.074 30.9439C156.19 33.7515 158.151 35.7889 160.738 35.7889Z" fill="#4E5A66"/>
<rect x="128" y="63" width="64.604" height="45" fill="white"/>
<path fill-rule="evenodd" clip-rule="evenodd" d="M152.861 93.5016C153.022 92.377 153.662 91.3715 154.641 90.7394C156.034 89.8386 157.849 89.4375 160.525 89.4375C163.129 89.4375 164.999 89.8525 166.415 90.743C167.392 91.3576 168.031 92.3624 168.191 93.5016H152.861ZM167.086 89.8029C165.463 88.7812 163.378 88.3057 160.525 88.3057C157.59 88.3057 155.564 88.7685 153.958 89.8065H153.957C152.49 90.7545 151.614 92.3473 151.614 94.0678C151.614 94.3806 151.884 94.6334 152.217 94.6334H168.833C169.166 94.6334 169.436 94.3806 169.436 94.0678C169.436 92.3225 168.557 90.7279 167.086 89.8029Z" fill="#4E5A66"/>
<path fill-rule="evenodd" clip-rule="evenodd" d="M158.271 79.0329C158.945 78.3305 159.82 77.9434 160.738 77.9434C161.657 77.9434 162.568 78.3493 163.239 79.0583C163.962 79.8236 164.33 80.8296 164.273 81.8907C164.153 84.1084 162.7 85.6571 160.738 85.6571C158.748 85.6571 157.294 84.1114 157.203 81.8973C157.159 80.832 157.549 79.7879 158.271 79.0329ZM160.738 86.7889C163.289 86.7889 165.25 84.7545 165.402 81.9512C165.475 80.5767 164.998 79.2725 164.059 78.2803C163.176 77.3469 161.965 76.8115 160.738 76.8115C159.51 76.8115 158.344 77.3221 157.456 78.2489C156.521 79.2253 156.017 80.5725 156.074 81.9439C156.19 84.7515 158.151 86.7889 160.738 86.7889Z" fill="#4E5A66"/>
</svg>
