<?xml version="1.0" encoding="utf-8"?>
<!-- Generator: Adobe Illustrator 25.1.0, SVG Export Plug-In . SVG Version: 6.00 Build 0)  -->
<svg version="1.1" id="Camada_1" xmlns="http://www.w3.org/2000/svg" xmlns:xlink="http://www.w3.org/1999/xlink" x="0px" y="0px"
	 viewBox="0 0 192 108" enable-background="new 0 0 192 108" xml:space="preserve">
<g>
	<g>
		<rect fill="#202020" width="192" height="108"/>
	</g>
	<g>
		<rect fill="#FFC845" width="38.4" height="76.8"/>
	</g>
	<g>
		<g>
			<g>
				<rect x="55.2" y="20.4" fill="#2CCCD3" width="124.8" height="67.2"/>
			</g>
		</g>
		<path fill="#F0F0F0" d="M121.16,53.85c4.34-1.48,7.46-5.59,7.46-10.43c0-6.09-4.93-11.02-11.02-11.02s-11.02,4.93-11.02,11.02
			c0,4.84,3.12,8.95,7.46,10.43c-10.48,1.7-18.48,10.79-18.48,21.75h44.08C139.64,64.64,131.64,55.55,121.16,53.85z"/>
	</g>
	<g>
		<rect x="3.84" y="80.64" fill="#F0F0F0" width="30.72" height="23.52"/>
		<g>
			<polygon fill="#00BF6F" points="15.63,84.68 24.55,100.12 6.72,100.12 			"/>
			<polygon fill="#00BF6F" points="26.33,90.86 31.68,100.12 20.98,100.12 			"/>
			<circle fill="#FFC845" cx="22.77" cy="88.17" r="2.06"/>
		</g>
	</g>
</g>
</svg>
