<svg width="221" height="125" viewBox="0 0 221 125" fill="none" xmlns="http://www.w3.org/2000/svg">
<rect width="221" height="125" rx="4" fill="#4E5A66"/>
<path d="M0 4C0 1.79086 1.79086 0 4 0H44V91H0V4Z" fill="#DCE4EC"/>
<rect x="67" y="15" width="64.604" height="45" fill="white"/>
<path fill-rule="evenodd" clip-rule="evenodd" d="M91.8606 45.5016C92.0223 44.377 92.6622 43.3715 93.641 42.7394C95.0341 41.8386 96.8486 41.4375 99.5253 41.4375C102.129 41.4375 103.999 41.8525 105.415 42.743C106.392 43.3576 107.031 44.3624 107.191 45.5016H91.8606ZM106.086 41.8029C104.463 40.7812 102.378 40.3057 99.5253 40.3057C96.5902 40.3057 94.5644 40.7685 92.958 41.8065H92.9573C91.4901 42.7545 90.6138 44.3473 90.6138 46.0678C90.6138 46.3806 90.8838 46.6334 91.2169 46.6334H107.832C108.166 46.6334 108.436 46.3806 108.436 46.0678C108.436 44.3225 107.557 42.7279 106.086 41.8029Z" fill="#4E5A66"/>
<path fill-rule="evenodd" clip-rule="evenodd" d="M97.2713 31.0329C97.9448 30.3305 98.8201 29.9434 99.7378 29.9434C100.657 29.9434 101.568 30.3493 102.239 31.0583C102.962 31.8236 103.33 32.8296 103.273 33.8907C103.153 36.1084 101.7 37.6571 99.7378 37.6571C97.7479 37.6571 96.2944 36.1114 96.2026 33.8973C96.1585 32.832 96.5488 31.7879 97.2713 31.0329ZM99.7378 38.7889C102.289 38.7889 104.25 36.7545 104.402 33.9512C104.475 32.5767 103.998 31.2725 103.059 30.2803C102.176 29.3469 100.965 28.8115 99.7378 28.8115C98.5102 28.8115 97.3444 29.3221 96.4563 30.2489C95.5212 31.2253 95.0174 32.5725 95.0736 33.9439C95.1896 36.7515 97.151 38.7889 99.7378 38.7889Z" fill="#4E5A66"/>
<rect x="67" y="66" width="64.604" height="45" fill="white"/>
<path fill-rule="evenodd" clip-rule="evenodd" d="M91.8606 96.5016C92.0223 95.377 92.6622 94.3715 93.641 93.7394C95.0341 92.8386 96.8486 92.4375 99.5253 92.4375C102.129 92.4375 103.999 92.8525 105.415 93.743C106.392 94.3576 107.031 95.3624 107.191 96.5016H91.8606ZM106.086 92.8029C104.463 91.7812 102.378 91.3057 99.5253 91.3057C96.5902 91.3057 94.5644 91.7685 92.958 92.8065H92.9573C91.4901 93.7545 90.6138 95.3473 90.6138 97.0678C90.6138 97.3806 90.8838 97.6334 91.2169 97.6334H107.832C108.166 97.6334 108.436 97.3806 108.436 97.0678C108.436 95.3225 107.557 93.7279 106.086 92.8029Z" fill="#4E5A66"/>
<path fill-rule="evenodd" clip-rule="evenodd" d="M97.2713 82.0329C97.9448 81.3305 98.8201 80.9434 99.7378 80.9434C100.657 80.9434 101.568 81.3493 102.239 82.0583C102.962 82.8236 103.33 83.8296 103.273 84.8907C103.153 87.1084 101.7 88.6571 99.7378 88.6571C97.7479 88.6571 96.2944 87.1114 96.2026 84.8973C96.1585 83.832 96.5488 82.7879 97.2713 82.0329ZM99.7378 89.7889C102.289 89.7889 104.25 87.7545 104.402 84.9512C104.475 83.5767 103.998 82.2725 103.059 81.2803C102.176 80.3469 100.965 79.8115 99.7378 79.8115C98.5102 79.8115 97.3444 80.3221 96.4563 81.2489C95.5212 82.2253 95.0174 83.5725 95.0736 84.9439C95.1896 87.7515 97.151 89.7889 99.7378 89.7889Z" fill="#4E5A66"/>
<rect x="135" y="15" width="64.604" height="45" fill="white"/>
<path fill-rule="evenodd" clip-rule="evenodd" d="M159.861 45.5016C160.022 44.377 160.662 43.3715 161.641 42.7394C163.034 41.8386 164.849 41.4375 167.525 41.4375C170.129 41.4375 171.999 41.8525 173.415 42.743C174.392 43.3576 175.031 44.3624 175.191 45.5016H159.861ZM174.086 41.8029C172.463 40.7812 170.378 40.3057 167.525 40.3057C164.59 40.3057 162.564 40.7685 160.958 41.8065H160.957C159.49 42.7545 158.614 44.3473 158.614 46.0678C158.614 46.3806 158.884 46.6334 159.217 46.6334H175.832C176.166 46.6334 176.436 46.3806 176.436 46.0678C176.436 44.3225 175.557 42.7279 174.086 41.8029Z" fill="#4E5A66"/>
<path fill-rule="evenodd" clip-rule="evenodd" d="M165.271 31.0329C165.945 30.3305 166.82 29.9434 167.738 29.9434C168.657 29.9434 169.568 30.3493 170.239 31.0583C170.962 31.8236 171.33 32.8296 171.273 33.8907C171.153 36.1084 169.7 37.6571 167.738 37.6571C165.748 37.6571 164.294 36.1114 164.203 33.8973C164.159 32.832 164.549 31.7879 165.271 31.0329ZM167.738 38.7889C170.289 38.7889 172.25 36.7545 172.402 33.9512C172.475 32.5767 171.998 31.2725 171.059 30.2803C170.176 29.3469 168.965 28.8115 167.738 28.8115C166.51 28.8115 165.344 29.3221 164.456 30.2489C163.521 31.2253 163.017 32.5725 163.074 33.9439C163.19 36.7515 165.151 38.7889 167.738 38.7889Z" fill="#4E5A66"/>
<rect x="135" y="66" width="64.604" height="45" fill="white"/>
<path fill-rule="evenodd" clip-rule="evenodd" d="M159.861 96.5016C160.022 95.377 160.662 94.3715 161.641 93.7394C163.034 92.8386 164.849 92.4375 167.525 92.4375C170.129 92.4375 171.999 92.8525 173.415 93.743C174.392 94.3576 175.031 95.3624 175.191 96.5016H159.861ZM174.086 92.8029C172.463 91.7812 170.378 91.3057 167.525 91.3057C164.59 91.3057 162.564 91.7685 160.958 92.8065H160.957C159.49 93.7545 158.614 95.3473 158.614 97.0678C158.614 97.3806 158.884 97.6334 159.217 97.6334H175.832C176.166 97.6334 176.436 97.3806 176.436 97.0678C176.436 95.3225 175.557 93.7279 174.086 92.8029Z" fill="#4E5A66"/>
<path fill-rule="evenodd" clip-rule="evenodd" d="M165.271 82.0329C165.945 81.3305 166.82 80.9434 167.738 80.9434C168.657 80.9434 169.568 81.3493 170.239 82.0583C170.962 82.8236 171.33 83.8296 171.273 84.8907C171.153 87.1084 169.7 88.6571 167.738 88.6571C165.748 88.6571 164.294 87.1114 164.203 84.8973C164.159 83.832 164.549 82.7879 165.271 82.0329ZM167.738 89.7889C170.289 89.7889 172.25 87.7545 172.402 84.9512C172.475 83.5767 171.998 82.2725 171.059 81.2803C170.176 80.3469 168.965 79.8115 167.738 79.8115C166.51 79.8115 165.344 80.3221 164.456 81.2489C163.521 82.2253 163.017 83.5725 163.074 84.9439C163.19 87.7515 165.151 89.7889 167.738 89.7889Z" fill="#4E5A66"/>
<rect x="4" y="95" width="36" height="26" fill="#363A43"/>
<path fill-rule="evenodd" clip-rule="evenodd" d="M16.867 104.258H28.1335V102.867H16.867V104.258ZM16.8665 110.748H28.133V105.124H16.8665V110.748ZM28.5665 102H16.4335C16.1941 102 16 102.194 16 102.433V104.257V105.124V111.181C16 111.421 16.1941 111.614 16.4335 111.614H21.3672L18.4323 114.244C18.2535 114.404 18.2391 114.677 18.3987 114.856C18.5592 115.034 18.8327 115.048 19.0106 114.89L22.0665 112.151V114.567C22.0665 114.806 22.2606 115 22.5 115C22.7394 115 22.9335 114.806 22.9335 114.567V112.151L25.9894 114.89C26.0723 114.964 26.1754 115 26.2785 115C26.3973 115 26.5157 114.952 26.6013 114.856C26.7609 114.677 26.7465 114.404 26.5677 114.244L23.6328 111.614H28.5665C28.8059 111.614 29 111.421 29 111.181V105.124V104.257V102.433C29 102.194 28.8059 102 28.5665 102Z" fill="white"/>
</svg>
