<?xml version="1.0" encoding="utf-8"?>
<!-- Generator: Adobe Illustrator 21.0.0, SVG Export Plug-In . SVG Version: 6.00 Build 0)  -->
<svg version="1.1" id="Layer_1" xmlns="http://www.w3.org/2000/svg" xmlns:xlink="http://www.w3.org/1999/xlink" x="0px" y="0px"
	 viewBox="0 0 900 1359" style="enable-background:new 0 0 900 1359;" xml:space="preserve">
<style type="text/css">
	.st0{fill:none;stroke:#7895AF;stroke-miterlimit:10;}
	.st1{fill:#7895AF;}
	.st2{font-family:'HelveticaLTStd-Bold';}
	.st3{font-size:14px;}
	.st4{enable-background:new    ;}
	.st5{font-family:'HelveticaLTStd-Fractions';}
	.st6{font-family:'MyriadPro-Regular';}
	.st7{font-size:24px;}
	.st8{font-size:12px;}
	.st9{fill:#8A9AA7;}
	.st10{fill:#FFFFFF;}
	.st11{fill:none;}
	.st12{fill:none;stroke:#DCE2E5;stroke-miterlimit:10;}
	.st13{font-family:'SourceSansPro-Bold';}
	.st14{font-size:10px;}
	.st15{fill:none;stroke:#8A9AA7;stroke-width:2;stroke-linecap:round;stroke-miterlimit:10;}
	.st16{fill:none;stroke:#8A9AA7;stroke-width:2;stroke-miterlimit:10;}
	.st17{fill:none;stroke:#FFFFFF;stroke-width:1.75;stroke-linecap:round;stroke-miterlimit:10;}
	.st18{fill:none;stroke:#FFFFFF;stroke-width:1.75;stroke-linecap:round;stroke-linejoin:round;}
</style>
<title>icon-bbb</title>
<line class="st0" x1="45" y1="45" x2="855" y2="45"/>
<line class="st0" x1="45" y1="1304" x2="855" y2="1304"/>
<text transform="matrix(1 0 0 1 648 81)" class="st1 st2 st3">Document Number:</text>
<text transform="matrix(1 0 0 1 777.9 81)" class="st4"><tspan x="0" y="0" class="st1 st5 st3"> </tspan><tspan x="4.3" y="0" class="st1 st6 st3">MCU</tspan><tspan x="32.8" y="0" class="st1 st5 st3"> </tspan><tspan x="37.1" y="0" class="st1 st6 st3">-</tspan><tspan x="41.4" y="0" class="st1 st5 st3"> 0001</tspan></text>
<text transform="matrix(1 0 0 1 45 1277)" class="st4"><tspan x="0" y="0" class="st1 st6 st7">BigBlueButton</tspan><tspan x="144.6" y="0" class="st1 st5 st7"> </tspan><tspan x="152" y="0" class="st1 st6 st7">-</tspan><tspan x="159.4" y="0" class="st1 st5 st7"> </tspan><tspan x="166.8" y="0" class="st1 st6 st7">Icon</tspan><tspan x="209.8" y="0" class="st1 st5 st7"> </tspan><tspan x="217.2" y="0" class="st1 st6 st7">Set</tspan></text>
<rect x="477" y="1224" class="st0" width="378" height="80"/>
<text transform="matrix(1 0 0 1 495 1247.62)" class="st1 st2 st8">Document </text>
<text transform="matrix(1 0 0 1 557 1247.62)" class="st1 st2 st8">V</text>
<text transform="matrix(1 0 0 1 564.35 1247.62)" class="st1 st2 st8">ersion:</text>
<text transform="matrix(1 0 0 1 604.36 1247.62)" class="st1 st5 st8"> 1</text>
<text transform="matrix(1 0 0 1 495 1287.62)" class="st1 st2 st8">Author: </text>
<text transform="matrix(1 0 0 1 541.65 1287.62)" class="st1 st6 st8">T</text>
<text transform="matrix(1 0 0 1 548.33 1287.62)" class="st4"><tspan x="0" y="0" class="st1 st6 st8">yler</tspan><tspan x="18.4" y="0" class="st1 st5 st8"> </tspan><tspan x="22.1" y="0" class="st1 st6 st8">Copeland</tspan></text>
<text transform="matrix(1 0 0 1 675 1287.62)" class="st1 st2 st8">Email: </text>
<text transform="matrix(1 0 0 1 714.35 1287.62)" class="st1 st6 st8">tyler@tylercopeland.me</text>
<text transform="matrix(1 0 0 1 675 1247.62)" class="st1 st2 st8">Date Modified: </text>
<text transform="matrix(1 0 0 1 761 1247.62)" class="st1 st5 st8">02/15/16</text>
<line class="st0" x1="477" y1="1264" x2="855" y2="1264"/>
<line class="st0" x1="648" y1="1224" x2="648" y2="1304"/>
<path class="st9" d="M818,883.3h-9.9c-3.8,0.1-7.3-2.2-8.6-5.8c-1.9-4.8-0.9-11.2,2.3-14.3l0.2-0.2c0.2-0.2,0.8-0.8,2-2.2
	c0.8-1,2.3-5.1,3-7.4c0.7-2.8,2.8-3.2,3.8-3.1c0.8,0,1.5,0.4,2,0.9c0.6,0.8,0.9,1.8,0.8,2.9c-0.2,2.7-0.8,5.3-1.6,7.9h7
	c1.1,0,2.1,0.4,2.9,1.2c0.9,0.9,1.2,2.3,0.7,3.5c-0.5,1.3-1.8,2.1-3.2,2.2c-0.6,0-1-0.4-1-1s0.4-1,1-1c0.6,0,1.1-0.4,1.3-0.9
	c0.2-0.5,0.1-1-0.3-1.3c-0.4-0.4-0.9-0.6-1.5-0.6h-8.2c-0.7,0-1.2-0.5-1.2-1.2c0-0.2,0.1-0.5,0.2-0.7c0.9-2.7,1.5-5.4,1.8-8.2
	c0.1-0.5-0.1-1-0.3-1.4c-0.2-0.2-0.4-0.3-0.6-0.3c-0.3,0-1.3,0-1.7,1.6c-0.2,0.7-2.1,6.6-3.5,8.2c-1.3,1.4-1.9,2.2-2.3,2.5l0,0
	c-2.6,2.5-3.4,8.2-1.8,12.1c1,2.8,3.7,4.7,6.7,4.5h9.9c0.6,0,1,0.4,1,1S818.6,883.3,818,883.3z"/>
<path class="st9" d="M820.4,873.6c-0.6,0-1-0.4-1-1s0.4-1,1-1c0.8,0,1.4-0.6,1.4-1.4c0-0.8-0.6-1.4-1.4-1.4c-0.6,0-1-0.4-1-1
	s0.4-1,1-1c1.9,0,3.4,1.5,3.4,3.4C823.8,872.1,822.3,873.6,820.4,873.6z"/>
<path class="st9" d="M819.7,878.5c-0.6,0-1-0.4-1-1s0.4-1,1-1c0.8,0,1.4-0.6,1.4-1.4c0-0.8-0.6-1.4-1.4-1.4c-0.6,0-1-0.4-1-1
	s0.4-1,1-1c1.9,0,3.4,1.5,3.4,3.4C823.1,876.9,821.6,878.5,819.7,878.5z"/>
<path class="st9" d="M818.8,883.3h-4.5c-0.6,0-1-0.4-1-1s0.4-1,1-1h4.5c0.8,0,1.4-0.6,1.4-1.4c0-0.8-0.6-1.4-1.4-1.4
	c-0.6,0-1-0.4-1-1s0.4-1,1-1c1.9,0,3.4,1.5,3.4,3.4C822.2,881.8,820.7,883.3,818.8,883.3z"/>
<path class="st9" d="M83.2,1000.5H93c3.8-0.1,7.3,2.2,8.6,5.8c1.9,4.8,0.9,11.2-2.3,14.3l-0.2,0.2c-0.2,0.2-0.8,0.8-2,2.2
	c-0.8,1-2.3,5.1-3,7.4c-0.7,2.8-2.8,3.2-3.8,3.1c-0.8,0-1.5-0.4-2-0.9c-0.6-0.8-0.9-1.8-0.8-2.9c0.2-2.7,0.8-5.3,1.6-7.9h-7
	c-1.1,0-2.1-0.4-2.9-1.2c-0.9-0.9-1.2-2.3-0.7-3.5c0.5-1.3,1.8-2.1,3.2-2.2c0.6,0,1,0.4,1,1s-0.4,1-1,1c-0.6,0-1.1,0.4-1.3,0.9
	c-0.2,0.5-0.1,1,0.3,1.3c0.4,0.4,0.9,0.6,1.4,0.6h8.2c0.7,0,1.2,0.5,1.2,1.2c0,0.2-0.1,0.5-0.2,0.7c-0.9,2.7-1.5,5.4-1.8,8.2
	c-0.1,0.5,0.1,1,0.3,1.4c0.2,0.2,0.4,0.3,0.6,0.3c0.3,0,1.3,0,1.7-1.6c0.2-0.7,2.1-6.6,3.5-8.2c1.3-1.4,1.9-2.2,2.3-2.5l0,0
	c2.6-2.5,3.4-8.2,1.8-12.1c-1-2.8-3.8-4.7-6.8-4.5h-9.8c-0.6,0-1-0.4-1-1S82.6,1000.5,83.2,1000.5z"/>
<path class="st9" d="M80.8,1010.1c0.6,0,1,0.4,1,1s-0.4,1-1,1c-0.8,0-1.4,0.6-1.4,1.4c0,0.8,0.6,1.4,1.4,1.4c0.6,0,1,0.4,1,1
	s-0.4,1-1,1c-1.9,0-3.4-1.5-3.4-3.4C77.4,1011.7,78.9,1010.1,80.8,1010.1z"/>
<path class="st9" d="M81.6,1005.3c0.6,0,1,0.4,1,1s-0.4,1-1,1c-0.8,0-1.4,0.6-1.4,1.4c0,0.8,0.6,1.4,1.4,1.4c0.6,0,1,0.4,1,1
	s-0.4,1-1,1c-1.9,0-3.4-1.5-3.4-3.4C78.1,1006.8,79.7,1005.3,81.6,1005.3z"/>
<path class="st9" d="M82.4,1000.5H87c0.6,0,1,0.4,1,1s-0.4,1-1,1h-4.6c-0.8,0-1.4,0.6-1.4,1.4c0,0.8,0.6,1.4,1.4,1.4
	c0.6,0,1,0.4,1,1s-0.4,1-1,1c-1.9,0-3.4-1.5-3.4-3.4C79,1002,80.5,1000.5,82.4,1000.5z"/>
<path class="st9" d="M168.9,1028.2c-0.2,0-0.3,0-0.5-0.1c-4.4-2.4-6.3-5.9-5.3-9.8c0.9-3.8-0.1-9.5-0.1-9.5v-0.1
	c-0.1-0.8-0.2-3.1,2.3-3.3c0.7,0,1.4,0.2,1.9,0.6c0.8,0.7,1.2,1.7,1.2,2.7l0.1,1.6l4.6-7.8c0.5-0.8,1.3-1.4,2.2-1.7
	c1.1-0.3,2.3,0.1,3,1c0.8,1,0.8,2.3,0.2,3.4l-3.6,6.1c-0.2,0.5-0.8,0.7-1.3,0.5c-0.5-0.2-0.7-0.8-0.5-1.3c0-0.1,0.1-0.1,0.1-0.2
	l3.6-6.1c0.2-0.4,0.1-0.9-0.1-1.2c-0.2-0.3-0.6-0.4-0.9-0.3c-0.4,0.1-0.7,0.4-0.9,0.8l-6,10.2c-0.3,0.6-1,0.7-1.6,0.4
	c-0.3-0.2-0.6-0.5-0.6-0.9l-0.3-4.4c0-0.5-0.2-0.9-0.5-1.3c-0.1-0.1-0.2-0.2-0.4-0.2c-0.4,0-0.5,0-0.4,1.2c0.1,0.7,1.1,6.3,0.1,10.3
	c-0.8,3.1,0.7,5.6,4.3,7.6c0.5,0.2,0.8,0.8,0.6,1.3C169.8,1028,169.4,1028.3,168.9,1028.2z"/>
<path class="st9" d="M175,1010.1c-0.6,0-1-0.4-1-1c0-0.2,0-0.4,0.1-0.5l3.9-6.6c0.9-1.4,2.7-1.9,4.2-1.1c1.4,0.9,1.9,2.7,1.1,4.2
	l-1,1.8c-0.3,0.5-0.9,0.7-1.4,0.4c-0.5-0.3-0.7-0.9-0.4-1.4l1-1.8c0.3-0.5,0.1-1.1-0.3-1.4c-0.5-0.3-1.1-0.1-1.4,0.3l0,0l-3.9,6.6
	C175.6,1009.9,175.3,1010.1,175,1010.1z"/>
<path class="st9" d="M183.8,1011.3c-0.6,0-1-0.4-1-1c0-0.2,0-0.4,0.1-0.5l0.9-1.5c0.3-0.5,0.1-1.1-0.4-1.4c-0.3-0.3-0.9-0.3-1.2,0.1
	c-0.2,0.5-0.8,0.7-1.3,0.5c-0.5-0.2-0.7-0.8-0.5-1.3c0-0.1,0.1-0.1,0.1-0.2c0.8-1.3,2.5-1.7,3.8-0.9c0,0,0.1,0.1,0.1,0.1
	c1.4,0.9,1.9,2.7,1.1,4.2l-0.9,1.5C184.5,1011.1,184.2,1011.3,183.8,1011.3z"/>
<path class="st9" d="M179,1033.5c-2.9-0.1-5.6-1.6-7.2-4.1c-2.5-3.6-3.3-9.2,0.2-12.5c2.8-2.7,5-8,5-8.1c0.6-1.2,1.5-2.5,3.6-1.7
	c0.6,0.2,1,0.7,1.2,1.3c0.4,1.1,0.2,2.4-0.4,3.4l-0.6,1.2l8.1-4.1c0.8-0.4,1.8-0.5,2.7-0.3c1.1,0.3,1.9,1.3,2,2.5
	c0.1,1.2-0.5,2.4-1.6,3l-6.3,3.2c-0.5,0.2-1.1,0-1.3-0.5c-0.2-0.5,0-1.1,0.4-1.3l6.3-3.2c0.4-0.2,0.6-0.6,0.6-1.1
	c0-0.4-0.3-0.7-0.6-0.8c-0.4-0.1-0.8-0.1-1.2,0.1l-10.5,5.4c-0.6,0.3-1.3,0.1-1.6-0.5c-0.2-0.3-0.2-0.7,0-1.1l2-3.6
	c0.4-0.5,0.5-1.3,0.2-1.9c-0.5-0.2-0.5-0.2-1,0.7c-0.1,0.2-2.4,5.7-5.5,8.7c-2.7,2.6-2,7,0,9.9c0.8,1.2,3.9,4.8,8.6,2.4l7.5-3.8
	c0.5-0.2,1.1,0,1.3,0.5c0.2,0.5,0,1.1-0.4,1.3l-7.5,3.8C181.7,1033.1,180.4,1033.5,179,1033.5z M179.4,1015.4L179.4,1015.4z"/>
<path class="st9" d="M188.8,1020.2c-0.6,0-1-0.4-1-1c0-0.4,0.2-0.7,0.5-0.9l6.8-3.5c0.5-0.3,0.7-0.9,0.4-1.4s-0.9-0.7-1.4-0.4
	l-6.8,3.5c-0.5,0.2-1.1,0-1.3-0.5c-0.2-0.5,0-1.1,0.4-1.3l6.8-3.5c1.5-0.8,3.3-0.2,4.1,1.3c0.8,1.5,0.2,3.3-1.3,4.1l-6.8,3.5
	C189,1020.2,188.9,1020.2,188.8,1020.2z"/>
<path class="st9" d="M188.5,1024.9c-0.6,0-1-0.4-1-1c0-0.4,0.2-0.7,0.5-0.9l6.6-3.4c0.2-0.1,0.4-0.4,0.5-0.6c0.2-0.5,0-1.1-0.5-1.3
	c-0.3-0.1-0.6-0.1-0.9,0.1l-6.3,3.2c-0.5,0.2-1.1,0-1.3-0.5c-0.2-0.5,0-1.1,0.4-1.3l6.3-3.2c1.5-0.8,3.3-0.2,4.1,1.3
	c0.8,1.5,0.2,3.3-1.3,4.1l-6.6,3.4C188.9,1024.9,188.7,1024.9,188.5,1024.9z"/>
<path class="st9" d="M187,1030.3c-0.6,0-1-0.4-1-1c0-0.4,0.2-0.7,0.5-0.9l6.8-3.5c0.5-0.3,0.7-0.9,0.4-1.4c-0.3-0.5-0.9-0.7-1.4-0.4
	l-4.6,2.3c-0.5,0.3-1.1,0.1-1.4-0.4c-0.3-0.5-0.1-1.1,0.4-1.4c0,0,0,0,0.1,0l4.6-2.3c1.5-0.8,3.3-0.2,4.1,1.3
	c0.8,1.5,0.2,3.3-1.3,4.1l0,0l-6.8,3.5C187.3,1030.2,187.1,1030.3,187,1030.3z"/>
<path class="st9" d="M271.8,1020.2c0.6-1,0.9-2.1,0.9-3.2v-9.9c0-3.4-2.8-6.2-6.2-6.2c-3.4,0-6.2,2.8-6.2,6.2v9.9
	c0,3.4,2.7,6.2,6.1,6.2c1.5,0,3-0.5,4.1-1.6C270.9,1021.1,271.3,1020.6,271.8,1020.2z M270.7,1017c0,2.3-1.9,4.2-4.2,4.2
	c-2.3,0-4.2-1.9-4.2-4.2v-9.9c0-2.3,1.9-4.2,4.2-4.2c2.3,0,4.2,1.9,4.2,4.2V1017L270.7,1017z"/>
<path class="st9" d="M271.8,1020.2c-0.5,0.4-0.9,0.9-1.2,1.4c0.1-0.1,0.2-0.2,0.3-0.3C271.2,1021,271.6,1020.6,271.8,1020.2z"/>
<path class="st9" d="M267.5,1028.9v-1.1c0.6,0,1.2-0.2,1.8-0.3c-0.1-0.5-0.1-0.9-0.1-1.4c0-0.2,0-0.4,0-0.7
	c-0.8,0.3-1.7,0.4-2.5,0.4h-0.4c-4.8,0-8.7-3.9-8.7-8.7c0-0.6-0.4-1-1-1s-1,0.4-1,1c0,5.6,4.3,10.2,9.9,10.6v1.1h-6.2
	c-0.6,0-1,0.4-1,1s0.4,1,1,1h11.5c-0.5-0.6-0.8-1.3-1.1-2L267.5,1028.9L267.5,1028.9z"/>
<path class="st9" d="M277.4,1017.2c0-0.6-0.4-1-1-1s-1,0.4-1,1c0,0.4,0,0.7-0.1,1.1c0.7-0.2,1.3-0.3,2-0.3
	C277.4,1017.7,277.4,1017.5,277.4,1017.2z"/>
<path class="st10" d="M277.4,1021.2c-2.8,0-5,2.2-5,5c0,2.8,2.2,5,5,5c2.8,0,5-2.2,5-5c0-1.3-0.5-2.6-1.5-3.6
	C280,1021.7,278.7,1021.2,277.4,1021.2z M280,1028.8c-0.4,0.4-1,0.4-1.4,0l-1.3-1.3l-1.2,1.2c-0.4,0.4-1.1,0.3-1.4-0.1
	c-0.3-0.4-0.3-0.9,0-1.3l1.2-1.2l-1.1-1.1c-0.4-0.4-0.5-1-0.1-1.4c0.4-0.4,1-0.5,1.4-0.1c0,0,0.1,0.1,0.1,0.1l1.1,1.1l1.3-1.3
	c0.4-0.4,1.1-0.3,1.4,0.1c0.3,0.4,0.3,0.9,0,1.3l-1.3,1.3l1.3,1.3C280.4,1027.7,280.4,1028.4,280,1028.8L280,1028.8z"/>
<path class="st9" d="M282.3,1021.2c-2.7-2.8-7.1-2.8-9.9-0.1s-2.8,7.1-0.1,9.9c2.7,2.8,7.1,2.8,9.9,0.1c1.3-1.3,2.1-3.1,2.1-5
	C284.3,1024.3,283.6,1022.5,282.3,1021.2z M280.9,1029.6c-1.9,2-5.1,2-7.1,0.1s-2-5.1-0.1-7.1c1.9-2,5.1-2,7.1-0.1c0,0,0,0,0.1,0.1
	C282.8,1024.6,282.8,1027.7,280.9,1029.6z"/>
<path class="st9" d="M278.7,1026l1.3-1.3c0.4-0.4,0.3-1.1-0.1-1.4c-0.4-0.3-0.9-0.3-1.3,0l-1.3,1.3l-1.1-1.1c-0.4-0.4-1-0.5-1.4-0.1
	c-0.4,0.4-0.5,1-0.1,1.4c0,0,0.1,0.1,0.1,0.1l1.1,1.1l-1.2,1.2c-0.4,0.4-0.5,1-0.1,1.4s1,0.5,1.4,0.1c0,0,0.1-0.1,0.1-0.1l1.2-1.2
	l1.3,1.3c0.4,0.4,1,0.5,1.4,0.1c0.4-0.4,0.5-1,0.1-1.4c0,0-0.1-0.1-0.1-0.1L278.7,1026z"/>
<path class="st11" d="M461.1,400.3c0-0.7-0.5-1.2-1.2-1.2c-0.7,0-1.2,0.5-1.2,1.2l0,0v5.6c0,0.6-0.4,1-1,1s-1-0.4-1-1v-9.4
	c0-0.7-0.5-1.2-1.2-1.2c-0.7,0-1.2,0.5-1.2,1.2v7.6c0,0.6-0.4,1-1,1s-1-0.4-1-1v-10.4c0-0.7-0.5-1.2-1.2-1.2c-0.7,0-1.2,0.5-1.2,1.2
	l0,0v10.4c0,0.6-0.4,1-1,1s-1-0.4-1-1v-7.6c0-0.5-0.4-0.9-0.8-1.1c-0.4-0.2-0.8-0.1-1.1,0.3c-0.3,0.3-0.5,0.8-0.5,1.3v12.8
	c0,0.6-0.5,1.2-1.2,1.2c-0.4,0-0.8-0.2-1-0.5l-3-4.4c-0.2-0.3-0.4-0.5-0.7-0.7c-0.2,0-0.4,0.1-0.5,0.3c-0.3,0.3-0.2,0.8,0.2,1.6
	c0,0,3.1,5.4,5.5,9.1c1,1.5,2.9,3.3,5,3.3h6c3,0,5.3-2.4,5.4-5.4L461.1,400.3L461.1,400.3z"/>
<path class="st9" d="M459.9,397.1c-0.4,0-0.8,0.1-1.2,0.3v-0.9c0-1.8-1.5-3.2-3.2-3.2c-0.4,0-0.8,0.1-1.2,0.3c0-1.8-1.4-3.2-3.2-3.2
	s-3.2,1.4-3.2,3.2h-0.1c-1.1-0.5-2.4-0.2-3.3,0.7c-0.7,0.7-1.1,1.7-1.1,2.7V407l-1.5-2.2c-0.5-0.8-1.3-1.4-2.2-1.5
	c-0.8-0.1-1.6,0.2-2.1,0.8c-0.6,0.6-1.2,1.9-0.2,4c0,0,3.2,5.5,5.5,9.2c1.3,2,3.8,4.3,6.7,4.3h6c4.1,0,7.3-3.3,7.4-7.4v-13.9
	C463.1,398.6,461.7,397.2,459.9,397.1z M461.1,414.1c0,3-2.4,5.3-5.4,5.4h-6c-2.2,0-4.1-1.8-5-3.3c-2.4-3.7-5.5-9.1-5.5-9.1
	c-0.4-0.8-0.5-1.3-0.2-1.6c0.1-0.2,0.3-0.2,0.5-0.3c0.3,0.1,0.6,0.4,0.7,0.7l3,4.4c0.4,0.5,1.1,0.7,1.6,0.3c0.3-0.2,0.5-0.6,0.5-1
	v-12.7c0-0.5,0.2-0.9,0.5-1.3c0.3-0.3,0.7-0.4,1.1-0.3c0.5,0.2,0.8,0.6,0.8,1.1v7.6c0,0.6,0.4,1,1,1s1-0.4,1-1v-10.4
	c0-0.7,0.5-1.2,1.2-1.2c0.7,0,1.2,0.5,1.2,1.2l0,0v10.4c0,0.6,0.4,1,1,1s1-0.4,1-1v-7.6c0-0.7,0.5-1.2,1.2-1.2
	c0.7,0,1.2,0.5,1.2,1.2v9.4c0,0.6,0.4,1,1,1s1-0.4,1-1v-5.6c0-0.7,0.5-1.2,1.2-1.2c0.7,0,1.2,0.5,1.2,1.2l0,0L461.1,414.1
	L461.1,414.1z"/>
<path class="st11" d="M270,393c-7.2,0-13,5.8-13,13s5.8,13,13,13s13-5.8,13-13S277.2,393,270,393L270,393z M274.4,400.4
	c1.1,0,2,0.9,2,2s-0.9,2-2,2s-2-0.9-2-2C272.4,401.3,273.2,400.4,274.4,400.4C274.4,400.3,274.4,400.3,274.4,400.4L274.4,400.4z
	 M265.3,400.4c1.1,0,2,0.9,2,2s-0.9,2-2,2s-2-0.9-2-2C263.3,401.3,264.2,400.4,265.3,400.4C265.3,400.3,265.3,400.3,265.3,400.4
	L265.3,400.4z M278.2,409.9c-1.7,3-4.9,4.8-8.3,4.9h-0.1c-3.5,0-6.6-2-8.3-5c-0.2-0.5,0-1.1,0.4-1.3c0.5-0.2,1.1,0,1.3,0.4
	c1.3,2.4,3.8,3.9,6.5,3.9c2.8-0.1,5.3-1.6,6.7-4c0.1-0.2,0.4-0.4,0.6-0.5c0.3-0.1,0.5,0,0.7,0.1
	C278.3,408.8,278.5,409.4,278.2,409.9L278.2,409.9z"/>
<path class="st9" d="M270,391c-8.3,0-15,6.7-15,15s6.7,15,15,15s15-6.7,15-15S278.3,391,270,391z M270,419c-7.2,0-13-5.8-13-13
	s5.8-13,13-13s13,5.8,13,13l0,0C283,413.2,277.2,419,270,419z"/>
<circle class="st9" cx="265.3" cy="402.3" r="2"/>
<circle class="st9" cx="274.4" cy="402.3" r="2"/>
<path class="st9" d="M277.9,408.5c-0.2-0.1-0.5-0.2-0.7-0.1c-0.3,0.1-0.5,0.2-0.6,0.5c-1.4,2.4-3.9,3.9-6.7,4
	c-2.7,0-5.2-1.5-6.5-3.9c-0.3-0.4-1-0.5-1.4-0.2c-0.3,0.2-0.5,0.7-0.4,1.1c1.6,3,4.8,5,8.3,5h0.1c3.4-0.1,6.6-2,8.3-4.9
	C278.5,409.5,278.4,408.8,277.9,408.5C277.9,408.5,277.9,408.5,277.9,408.5z"/>
<path class="st11" d="M180,393c-7.2,0-13,5.8-13,13s5.8,13,13,13s13-5.8,13-13S187.2,393,180,393L180,393z M184.4,400.4
	c1.1,0,2,0.9,2,2s-0.9,2-2,2s-2-0.9-2-2C182.4,401.3,183.2,400.4,184.4,400.4C184.4,400.3,184.4,400.3,184.4,400.4L184.4,400.4z
	 M175.3,400.4c1.1,0,2,0.9,2,2s-0.9,2-2,2s-2-0.9-2-2C173.3,401.3,174.2,400.4,175.3,400.4C175.3,400.3,175.3,400.3,175.3,400.4
	L175.3,400.4z M187.9,414.7c-0.5,0.3-1.1,0.1-1.4-0.3c-1.4-2.4-3.9-3.9-6.6-4c-2.7,0-5.2,1.5-6.5,3.9c-0.3,0.4-1,0.5-1.4,0.2
	c-0.3-0.2-0.5-0.7-0.4-1.1c1.6-3,4.8-5,8.3-5c3.4,0.1,6.6,2,8.4,4.9C188.5,413.8,188.3,414.4,187.9,414.7L187.9,414.7z"/>
<path class="st9" d="M180,391c-8.3,0-15,6.7-15,15s6.7,15,15,15s15-6.7,15-15S188.3,391,180,391z M180,419c-7.2,0-13-5.8-13-13
	s5.8-13,13-13s13,5.8,13,13l0,0C193,413.2,187.2,419,180,419z"/>
<circle class="st9" cx="175.3" cy="402.3" r="2"/>
<circle class="st9" cx="184.4" cy="402.3" r="2"/>
<path class="st9" d="M179.9,408.4c-3.5,0-6.6,2-8.3,5c-0.2,0.5,0.1,1.1,0.7,1.2c0.4,0.1,0.8,0,1.1-0.4c1.3-2.4,3.8-3.9,6.5-3.9
	c2.8,0.1,5.3,1.6,6.6,4c0.2,0.5,0.7,0.8,1.3,0.6c0.5-0.2,0.8-0.7,0.6-1.3c0-0.1-0.1-0.3-0.2-0.4
	C186.5,410.4,183.3,408.5,179.9,408.4z"/>
<path class="st11" d="M360,393c-7.2,0-13,5.8-13,13s5.8,13,13,13s13-5.8,13-13S367.2,393,360,393L360,393z M364.4,400.4
	c1.1,0,2,0.9,2,2s-0.9,2-2,2s-2-0.9-2-2C362.4,401.3,363.2,400.4,364.4,400.4C364.4,400.3,364.4,400.3,364.4,400.4L364.4,400.4z
	 M355.3,400.4c1.1,0,2,0.9,2,2s-0.9,2-2,2s-2-0.9-2-2C353.3,401.3,354.2,400.4,355.3,400.4C355.3,400.3,355.3,400.3,355.3,400.4
	L355.3,400.4z M367.3,412.6h-14.5c-0.6,0-1-0.4-1-1s0.4-1,1-1h14.5c0.6,0,1,0.4,1,1C368.3,412.2,367.8,412.6,367.3,412.6
	L367.3,412.6z"/>
<path class="st9" d="M360,391c-8.3,0-15,6.7-15,15s6.7,15,15,15s15-6.7,15-15S368.3,391,360,391z M360,419c-7.2,0-13-5.8-13-13
	s5.8-13,13-13s13,5.8,13,13l0,0C373,413.2,367.2,419,360,419z"/>
<circle class="st9" cx="355.3" cy="402.3" r="2"/>
<circle class="st9" cx="364.4" cy="402.3" r="2"/>
<path class="st9" d="M367.3,410.6h-14.5c-0.6,0-1,0.4-1,1s0.4,1,1,1h14.5c0.6,0,1-0.4,1-1S367.8,410.6,367.3,410.6z"/>
<path class="st11" d="M90,393.1c-7.1,0-12.9,5.8-12.9,12.9s5.8,12.9,12.9,12.9c7.1,0,12.9-5.8,12.9-12.9
	C102.9,398.9,97.1,393.1,90,393.1z M94.4,400.3c1.1,0,2,0.9,2,2s-0.9,2-2,2s-2-0.9-2-2C92.4,401.2,93.3,400.3,94.4,400.3
	C94.4,400.3,94.4,400.3,94.4,400.3L94.4,400.3z M85.3,400.3c1.1,0,2,0.9,2,2s-0.9,2-2,2s-2-0.9-2-2
	C83.3,401.2,84.2,400.3,85.3,400.3C85.3,400.3,85.3,400.3,85.3,400.3L85.3,400.3z M97.8,411.9c-1,1.2-2.5,1.9-4.1,2h-0.2
	c-1.6-0.2-3.1-0.9-4.5-1.8l0,0c-0.7-0.4-1.5-0.6-2.3-0.6c-1.2,0.1-2.3,0.6-3.1,1.4c-0.4,0.4-1,0.4-1.4,0c-0.4-0.4-0.4-1,0-1.4
	c1.2-1.1,2.8-1.8,4.5-1.9c1.6,0.1,3.2,0.7,4.5,1.6c0.7,0.4,1.5,0.7,2.3,0.8c1,0,2-0.5,2.6-1.3c0.2-0.2,0.4-0.3,0.7-0.4
	c0.3,0,0.5,0,0.7,0.2C98,410.9,98.1,411.5,97.8,411.9z"/>
<path class="st9" d="M90,391c-8.3,0-15,6.7-15,15s6.7,15,15,15s15-6.7,15-15S98.3,391,90,391z M90,418.9c-7.1,0-12.9-5.8-12.9-12.9
	s5.8-12.9,12.9-12.9c7.1,0,12.9,5.8,12.9,12.9C102.9,413.1,97.1,418.9,90,418.9z"/>
<circle class="st9" cx="85.3" cy="402.3" r="2"/>
<circle class="st9" cx="94.4" cy="402.3" r="2"/>
<path class="st9" d="M96.9,410.3c-0.3,0-0.5,0.2-0.7,0.4c-0.7,0.8-1.6,1.2-2.6,1.3c-0.8-0.1-1.6-0.4-2.3-0.8c-1.3-1-2.9-1.6-4.5-1.6
	c-1.7,0.1-3.2,0.8-4.5,1.9c-0.3,0.4-0.2,1.1,0.2,1.4c0.3,0.2,0.8,0.3,1.1,0c0.9-0.8,2-1.3,3.1-1.4c0.8,0,1.6,0.2,2.3,0.6l0,0
	c1.3,1,2.9,1.6,4.5,1.8h0.2c1.6-0.1,3.1-0.8,4.1-2c0.3-0.4,0.3-1-0.2-1.4C97.4,410.4,97.2,410.3,96.9,410.3z"/>
<path class="st11" d="M360,546.5c-6.9,0-12.5,5.6-12.5,12.5s5.6,12.5,12.5,12.5s12.5-5.6,12.5-12.5l0,0
	C372.5,552.1,366.9,546.5,360,546.5z M361,559c0,0.3-0.1,0.5-0.3,0.7l-6.1,6c-0.4,0.4-1,0.4-1.4,0c-0.4-0.4-0.4-1,0-1.4l5.8-5.8V552
	c0-0.6,0.4-1,1-1s1,0.4,1,1L361,559L361,559z"/>
<path class="st9" d="M360,544.5c-8,0-14.5,6.5-14.5,14.5s6.5,14.5,14.5,14.5s14.5-6.5,14.5-14.5S368,544.5,360,544.5L360,544.5z
	 M360,571.5c-6.9,0-12.5-5.6-12.5-12.5s5.6-12.5,12.5-12.5s12.5,5.6,12.5,12.5l0,0C372.5,565.9,366.9,571.5,360,571.5z"/>
<path class="st9" d="M360,551c-0.6,0-1,0.4-1,1v6.5l-5.8,5.8c-0.4,0.4-0.4,1,0,1.4c0.4,0.4,1,0.4,1.4,0l6.1-6
	c0.2-0.2,0.3-0.4,0.3-0.7v-7C361,551.4,360.6,551,360,551C360,551,360,551,360,551z"/>
<path class="st11" d="M540,545.5c-7.5,0-13.5,6-13.5,13.5s6,13.5,13.5,13.5s13.5-6,13.5-13.5l0,0C553.5,551.5,547.5,545.5,540,545.5
	z"/>
<path class="st9" d="M540,543.5c-8.6,0-15.5,6.9-15.5,15.5s6.9,15.5,15.5,15.5s15.5-6.9,15.5-15.5l0,0
	C555.5,550.4,548.6,543.5,540,543.5z M540,572.5c-7.5,0-13.5-6-13.5-13.5s6-13.5,13.5-13.5s13.5,6,13.5,13.5l0,0
	C553.5,566.5,547.5,572.5,540,572.5z"/>
<path class="st11" d="M450,545.5c-7.5,0-13.5,6-13.5,13.5s6,13.5,13.5,13.5s13.5-6,13.5-13.5l0,0C463.5,551.5,457.5,545.5,450,545.5
	z M457.1,555.3l-8.3,9.4c-0.4,0.4-1,0.5-1.4,0.1L443,561c-0.4-0.4-0.4-1-0.1-1.4c0.4-0.4,1-0.4,1.4-0.1l3.6,3.1l7.6-8.7
	c0.4-0.4,1-0.5,1.4-0.1C457.4,554.2,457.4,554.8,457.1,555.3z"/>
<path class="st9" d="M455.5,553.9l-7.6,8.7l-3.6-3.1c-0.4-0.4-1-0.3-1.4,0.1c-0.4,0.4-0.3,1,0.1,1.4l4.3,3.8c0.4,0.4,1,0.3,1.4-0.1
	l8.3-9.4c0.3-0.5,0.1-1.1-0.3-1.4C456.3,553.6,455.9,553.7,455.5,553.9z"/>
<path class="st9" d="M450,543.5c-8.6,0-15.5,6.9-15.5,15.5s6.9,15.5,15.5,15.5s15.5-6.9,15.5-15.5l0,0
	C465.5,550.4,458.6,543.5,450,543.5z M450,572.5c-7.5,0-13.5-6-13.5-13.5s6-13.5,13.5-13.5s13.5,6,13.5,13.5l0,0
	C463.5,566.5,457.5,572.5,450,572.5z"/>
<path class="st11" d="M720,545.5c-7.5,0-13.5,6-13.5,13.5s6,13.5,13.5,13.5s13.5-6,13.5-13.5l0,0C733.5,551.5,727.5,545.5,720,545.5
	z M726.6,560.1h-6v5.5c0,0.6-0.4,1-1,1s-1-0.4-1-1v-5.5h-5.2c-0.6,0-1-0.4-1-1s0.4-1,1-1h5.2v-5.7c0-0.6,0.4-1,1-1s1,0.4,1,1v5.7h6
	c0.6,0,1,0.4,1,1S727.1,560.1,726.6,560.1z"/>
<path class="st9" d="M720,543.5c-8.6,0-15.5,6.9-15.5,15.5s6.9,15.5,15.5,15.5s15.5-6.9,15.5-15.5l0,0
	C735.5,550.4,728.6,543.5,720,543.5z M720,572.5c-7.5,0-13.5-6-13.5-13.5s6-13.5,13.5-13.5s13.5,6,13.5,13.5l0,0
	C733.5,566.5,727.5,572.5,720,572.5z"/>
<path class="st9" d="M726.6,558.1h-6v-5.7c0-0.6-0.4-1-1-1s-1,0.4-1,1v5.7h-5.2c-0.6,0-1,0.4-1,1s0.4,1,1,1h5.2v5.5c0,0.6,0.4,1,1,1
	s1-0.4,1-1v-5.5h6c0.6,0,1-0.4,1-1S727.1,558.1,726.6,558.1z"/>
<path class="st11" d="M639.5,549.5c-5.3-5.3-13.8-5.3-19.1,0c-5.3,5.3-5.3,13.8,0,19.1c5.3,5.3,13.8,5.3,19.1,0c0,0,0,0,0,0
	C644.8,563.3,644.8,554.8,639.5,549.5C639.6,549.5,639.6,549.5,639.5,549.5z M635.3,564.5c-0.4,0.4-1,0.4-1.4,0l-4.2-4.2l-3.9,3.9
	c-0.4,0.4-1.1,0.3-1.4-0.1c-0.3-0.4-0.3-0.9,0-1.3l3.9-3.9l-3.7-3.7c-0.4-0.4-0.3-1.1,0.1-1.4c0.4-0.3,0.9-0.3,1.3,0l3.7,3.7l4-4
	c0.4-0.4,1.1-0.3,1.4,0.1c0.3,0.4,0.3,0.9,0,1.3l-4,4l4.2,4.2C635.7,563.4,635.7,564.1,635.3,564.5
	C635.3,564.5,635.3,564.5,635.3,564.5L635.3,564.5z"/>
<path class="st9" d="M641,548c-6.1-6-15.9-6-21.9,0.1s-6,15.9,0.1,21.9c6,6,15.8,6,21.8,0C647.1,564,647.1,554.1,641,548
	C641,548,641,548,641,548z M639.6,568.5c-5.3,5.3-13.8,5.3-19.1,0c-5.3-5.3-5.3-13.8,0-19.1c5.3-5.3,13.8-5.3,19.1,0
	c5.3,5.2,5.3,13.7,0.1,19C639.7,568.4,639.6,568.5,639.6,568.5L639.6,568.5z"/>
<path class="st9" d="M631,558.8l4-4c0.4-0.4,0.3-1.1-0.1-1.4c-0.4-0.3-0.9-0.3-1.3,0l-4,4l-3.6-3.7c-0.4-0.4-1.1-0.3-1.4,0.1
	c-0.3,0.4-0.3,0.9,0,1.3l3.7,3.7l-3.9,3.9c-0.4,0.4-0.5,1-0.1,1.4s1,0.5,1.4,0.1c0,0,0.1-0.1,0.1-0.1l3.9-3.9l4.2,4.2
	c0.4,0.4,1.1,0.3,1.4-0.1c0.3-0.4,0.3-0.9,0-1.3L631,558.8z"/>
<rect x="45" y="207.1" class="st12" width="90" height="90"/>
<path class="st9" d="M96.4,267.8c-0.4,0-0.7-0.2-0.9-0.4l-13.6-15.5l13.6-15.2c0.5-0.5,1.2-0.6,1.8-0.1c0.5,0.5,0.6,1.2,0.1,1.8
	c0,0,0,0,0,0l-12.1,13.5l12.2,13.8c0.5,0.5,0.4,1.3-0.1,1.8C97,267.7,96.7,267.8,96.4,267.8z"/>
<path class="st9" d="M173.6,267.8c-0.7,0-1.3-0.6-1.3-1.2c0-0.3,0.1-0.6,0.3-0.8l12.1-13.8l-12.1-13.5c-0.5-0.5-0.4-1.3,0.1-1.8
	c0.5-0.4,1.3-0.4,1.7,0.1l13.6,15.2l-13.6,15.5C174.2,267.7,173.9,267.8,173.6,267.8z"/>
<rect x="797" y="244.2" class="st11" width="26" height="13"/>
<rect x="797" y="239" class="st11" width="26" height="3.2"/>
<path class="st9" d="M824,237h-28c-0.6,0-1,0.4-1,1v20.2c0,0.6,0.4,1,1,1h11.4l-6.8,6.1c-0.4,0.4-0.4,1,0,1.4
	c0.4,0.4,0.9,0.4,1.3,0.1l7-6.3v5.6c0,0.6,0.4,1,1,1s1-0.4,1-1v-5.6l7,6.3c0.4,0.4,1,0.4,1.4,0c0.4-0.4,0.4-1,0-1.4
	c0,0-0.1,0-0.1-0.1l-6.8-6.1H824c0.6,0,1-0.4,1-1V238C825,237.4,824.6,237,824,237z M823,257.2h-26v-13h26V257.2z M797,242.2V239h26
	v3.2L797,242.2L797,242.2z"/>
<text transform="matrix(1 0 0 1 62.46 314.3)" class="st9 st13 st14">LEFT ARR</text>
<text transform="matrix(1 0 0 1 102.84 314.3)" class="st9 st13 st14">O</text>
<text transform="matrix(1 0 0 1 109.54 314.3)" class="st9 st13 st14">W</text>
<rect x="765" y="207" class="st12" width="90" height="90"/>
<text transform="matrix(1 0 0 1 776.95 314.3)" class="st9 st13 st14">PRESEN</text>
<text transform="matrix(1 0 0 1 811.46 314.3)" class="st9 st13 st14">T</text>
<text transform="matrix(1 0 0 1 816.52 314.3)" class="st9 st13 st14">A</text>
<text transform="matrix(1 0 0 1 821.46 314.3)" class="st9 st13 st14">TION</text>
<rect x="765" y="207" class="st12" width="90" height="90"/>
<rect x="225" y="207.1" class="st12" width="90" height="90"/>
<text transform="matrix(1 0 0 1 258.6 314.38)" class="st9 st13 st14">CH</text>
<text transform="matrix(1 0 0 1 270.99 314.38)" class="st9 st13 st14">A</text>
<text transform="matrix(1 0 0 1 275.93 314.38)" class="st9 st13 st14">T</text>
<rect x="315" y="207.1" class="st12" width="90" height="90"/>
<text transform="matrix(1 0 0 1 347.25 314.38)" class="st9 st13 st14">MORE</text>
<rect x="405" y="207.1" class="st12" width="90" height="90"/>
<text transform="matrix(1 0 0 1 431.02 314.38)" class="st9 st13 st14">UNMUTE</text>
<rect x="495" y="207.1" class="st12" width="90" height="90"/>
<text transform="matrix(1 0 0 1 526.72 314.38)" class="st9 st13 st14">VIDEO</text>
<rect x="315" y="514" class="st12" width="90" height="90"/>
<text transform="matrix(1 0 0 1 349.25 620.22)" class="st9 st13 st14">TIME</text>
<rect x="315" y="361" class="st12" width="90" height="90"/>
<text transform="matrix(1 0 0 1 334.4 467.14)" class="st9 st13 st14">UNDECIDED</text>
<path class="st9" d="M270,239.6c7.2,0,13,4.5,13,10s-5.8,9.9-13,10h-0.1c-0.6,0-1.2-0.1-1.8-0.2c-0.3-0.1-0.6-0.1-0.9-0.1
	c-0.5,0-1.1,0.2-1.5,0.5l-3.5,2.6l0.7-2.2l0.1-0.6c0-0.9-0.5-1.8-1.2-2.3c-3-1.9-4.8-4.7-4.8-7.7C257,244.1,262.9,239.6,270,239.6
	 M270,237.6c-8.3,0-15,5.4-15,12c0,3.8,2.2,7.2,5.7,9.4c0.2,0.1,0.3,0.3,0.3,0.6l-2,6.4c0,0.4,0.3,0.7,0.7,0.7h0
	c0.2,0,0.4-0.1,0.5-0.2l6.9-5c0,0,0.1-0.1,0.1-0.1c0.9,0.2,1.8,0.3,2.7,0.3h0.1c8.3-0.1,15-5.4,15-12S278.3,237.6,270,237.6
	L270,237.6L270,237.6z"/>
<circle class="st9" cx="348.7" cy="252.1" r="3.2"/>
<circle class="st9" cx="360" cy="252.1" r="3.2"/>
<circle class="st9" cx="371.3" cy="252.1" r="3.2"/>
<path class="st9" d="M450,239.6c2.3,0,4.2,1.9,4.2,4.2v9.9c0,2.3-1.9,4.2-4.2,4.2c-2.3,0-4.2-1.9-4.2-4.2v-9.9
	C445.8,241.5,447.7,239.6,450,239.6 M450,237.6c-3.4,0-6.2,2.8-6.2,6.2v9.9c0,3.4,2.8,6.2,6.2,6.2c3.4,0,6.2-2.8,6.2-6.2v-9.9
	C456.2,240.4,453.4,237.6,450,237.6L450,237.6z"/>
<path class="st9" d="M457.2,265.6H451v-1.1c5.6-0.4,9.9-5,9.9-10.6c0-0.6-0.4-1-1-1s-1,0.4-1,1c0,4.8-3.9,8.7-8.7,8.7h-0.4
	c-4.8,0-8.7-3.9-8.7-8.7c0-0.6-0.4-1-1-1s-1,0.4-1,1c0,5.6,4.3,10.2,9.9,10.6v1.1h-6.2c-0.6,0-1,0.4-1,1s0.4,1,1,1h14.5
	c0.6,0,1-0.5,1-1C458.2,266,457.8,265.6,457.2,265.6z"/>
<path class="st9" d="M545.1,261.3h-19.6c-0.6,0-1-0.4-1-1v-16.5c0-0.6,0.4-1,1-1h19.6c0.6,0,1,0.4,1,1v16.5
	C546.1,260.9,545.6,261.3,545.1,261.3z M526.5,259.3h17.6v-14.5h-17.6V259.3z"/>
<path class="st9" d="M554.5,259.3c-0.1,0-0.3,0-0.4-0.1l-7.4-3.3c-0.4-0.2-0.6-0.5-0.6-0.9v-5.3c0-0.4,0.2-0.7,0.6-0.9l7.4-3.3
	c0.5-0.2,1.1,0,1.3,0.5c0.1,0.1,0.1,0.3,0.1,0.4v11.9C555.5,258.9,555.1,259.3,554.5,259.3C554.5,259.3,554.5,259.3,554.5,259.3z
	 M548.1,254.4l5.4,2.4V248l-5.4,2.4V254.4L548.1,254.4z"/>
<rect x="585" y="207.1" class="st12" width="90" height="90"/>
<text transform="matrix(1 0 0 1 617.58 314.38)" class="st9 st13 st14">MUTE</text>
<rect x="675" y="207.1" class="st12" width="90" height="90"/>
<text transform="matrix(1 0 0 1 697.25 314.38)" class="st9 st13 st14">VIDEO OFF</text>
<rect x="45" y="361" class="st12" width="90" height="90"/>
<text transform="matrix(1 0 0 1 66.32 466.64)" class="st9 st13 st14">C</text>
<text transform="matrix(1 0 0 1 71.75 466.64)" class="st9 st13 st14">ONF</text>
<text transform="matrix(1 0 0 1 90.15 466.64)" class="st9 st13 st14">U</text>
<text transform="matrix(1 0 0 1 96.6 466.64)" class="st9 st13 st14">SED</text>
<rect x="135" y="361" class="st12" width="90" height="90"/>
<text transform="matrix(1 0 0 1 171.36 466.72)" class="st9 st13 st14">SAD</text>
<rect x="135" y="361" class="st12" width="90" height="90"/>
<rect x="225" y="361" class="st12" width="90" height="90"/>
<text transform="matrix(1 0 0 1 255.62 466.72)" class="st9 st13 st14">HAP</text>
<text transform="matrix(1 0 0 1 273.65 466.72)" class="st9 st13 st14">P</text>
<text transform="matrix(1 0 0 1 279.37 466.72)" class="st9 st13 st14">Y</text>
<rect x="405" y="361" class="st12" width="90" height="90"/>
<text transform="matrix(1 0 0 1 437.49 466.72)" class="st9 st13 st14">HAND</text>
<rect x="225" y="514" class="st12" width="90" height="90"/>
<text transform="matrix(1 0 0 1 255.98 619.8)" class="st9 st13 st14">C</text>
<text transform="matrix(1 0 0 1 261.74 619.8)" class="st9 st13 st14">L</text>
<text transform="matrix(1 0 0 1 266.45 619.8)" class="st9 st13 st14">OSE</text>
<rect x="495" y="514" class="st12" width="90" height="90"/>
<text transform="matrix(1 0 0 1 524.67 619.72)" class="st9 st13 st14">CIRCLE</text>
<rect x="405" y="514" class="st12" width="90" height="90"/>
<text transform="matrix(1 0 0 1 435.25 619.72)" class="st9 st13 st14">CHECK</text>
<rect x="675" y="514" class="st12" width="90" height="90"/>
<text transform="matrix(1 0 0 1 710.96 619.72)" class="st9 st13 st14">ADD</text>
<rect x="765" y="514" class="st12" width="90" height="90"/>
<text transform="matrix(1 0 0 1 787.21 619.72)" class="st9 st13 st14">SU</text>
<text transform="matrix(1 0 0 1 799.21 619.72)" class="st9 st13 st14">B</text>
<text transform="matrix(1 0 0 1 804.92 619.72)" class="st9 st13 st14">T</text>
<text transform="matrix(1 0 0 1 810.38 619.72)" class="st9 st13 st14">R</text>
<text transform="matrix(1 0 0 1 816.2401 619.72)" class="st9 st13 st14">A</text>
<text transform="matrix(1 0 0 1 821.72 619.72)" class="st9 st13 st14">C</text>
<text transform="matrix(1 0 0 1 827.33 619.72)" class="st9 st13 st14">T</text>
<path class="st9" d="M271.8,559l11.6-11.6c0.5-0.5,0.5-1.3,0-1.8c-0.5-0.5-1.3-0.5-1.8,0L270,557.2l-11.6-11.6
	c-0.5-0.5-1.3-0.5-1.8,0c-0.5,0.5-0.5,1.3,0,1.8l11.6,11.6l-11.6,11.6c-0.5,0.5-0.5,1.3,0,1.8c0.5,0.5,1.3,0.5,1.8,0l11.6-11.6
	l11.6,11.6c0.5,0.5,1.3,0.5,1.8,0c0.5-0.5,0.5-1.3,0-1.8l0,0L271.8,559z"/>
<rect x="135" y="207.1" class="st12" width="90" height="90"/>
<text transform="matrix(1 0 0 1 149.39 314.22)" class="st9 st13 st14">RIGHT ARR</text>
<text transform="matrix(1 0 0 1 195.92 314.22)" class="st9 st13 st14">O</text>
<text transform="matrix(1 0 0 1 202.62 314.22)" class="st9 st13 st14">W</text>
<rect x="585" y="361" class="st12" width="90" height="90"/>
<text transform="matrix(1 0 0 1 601.95 467.22)" class="st9 st13 st14">GROUP CH</text>
<text transform="matrix(1 0 0 1 647.65 467.22)" class="st9 st13 st14">A</text>
<text transform="matrix(1 0 0 1 652.59 467.22)" class="st9 st13 st14">T</text>
<rect x="585" y="361" class="st12" width="90" height="90"/>
<rect x="45" y="514" class="st12" width="90" height="90"/>
<text transform="matrix(1 0 0 1 78.4 620.14)" class="st9 st13 st14">U</text>
<text transform="matrix(1 0 0 1 84.85 620.14)" class="st9 st13 st14">SER</text>
<rect x="675" y="361" class="st12" width="90" height="90"/>
<text transform="matrix(1 0 0 1 696.75 467.14)" class="st9 st13 st14">UP ARR</text>
<text transform="matrix(1 0 0 1 728.54 467.14)" class="st9 st13 st14">O</text>
<text transform="matrix(1 0 0 1 735.24 467.14)" class="st9 st13 st14">W</text>
<text transform="matrix(1 0 0 1 148.86 620.14)" class="st9 st13 st14">CLEAR </text>
<text transform="matrix(1 0 0 1 178.52 620.14)" class="st9 st13 st14">S</text>
<text transform="matrix(1 0 0 1 183.77 620.14)" class="st9 st13 st14">T</text>
<text transform="matrix(1 0 0 1 188.83 620.14)" class="st9 st13 st14">A</text>
<text transform="matrix(1 0 0 1 193.77 620.14)" class="st9 st13 st14">T</text>
<text transform="matrix(1 0 0 1 199.23 620.14)" class="st9 st13 st14">U</text>
<text transform="matrix(1 0 0 1 205.68 620.14)" class="st9 st13 st14">S</text>
<rect x="765" y="361" class="st12" width="90" height="90"/>
<text transform="matrix(1 0 0 1 788.37 467.14)" class="st9 st13 st14">PROM</text>
<text transform="matrix(1 0 0 1 814.3 467.14)" class="st9 st13 st14">O</text>
<text transform="matrix(1 0 0 1 820.78 467.14)" class="st9 st13 st14">TE</text>
<rect x="495" y="361" class="st12" width="90" height="90"/>
<text transform="matrix(1 0 0 1 511.33 467.14)" class="st9 st13 st14">APPLIC</text>
<text transform="matrix(1 0 0 1 542.15 467.14)" class="st9 st13 st14">A</text>
<text transform="matrix(1 0 0 1 547.09 467.14)" class="st9 st13 st14">TION</text>
<rect x="585" y="514" class="st12" width="90" height="90"/>
<text transform="matrix(1 0 0 1 599.94 620.14)" class="st9 st13 st14">CIRCLE C</text>
<text transform="matrix(1 0 0 1 638.36 620.14)" class="st9 st13 st14">L</text>
<text transform="matrix(1 0 0 1 643.07 620.14)" class="st9 st13 st14">OSE</text>
<path class="st11" d="M90,559.1c3.5,0,6-2.7,6.3-6.7c0.1-1.8-0.6-3.7-1.8-5c-1.1-1.2-2.7-2-4.4-2c-1.7,0-3.2,0.7-4.4,1.9
	c-1.3,1.4-2,3.2-1.9,5.1C83.9,556.4,86.5,559.1,90,559.1z"/>
<path class="st11" d="M99.8,567.6c-2.3-1.6-5.4-2.3-9.8-2.3s-7.4,0.7-9.8,2.3c-1.7,1.1-2.7,2.9-3,4.9h25.4
	C102.4,570.5,101.4,568.8,99.8,567.6z"/>
<path class="st9" d="M100.9,566c-2.7-1.8-6.2-2.7-10.9-2.7s-8.2,0.8-10.9,2.7l0,0c-2.5,1.7-3.9,4.5-3.9,7.5c0,0.6,0.4,1,1,1h27.6
	c0.6,0,1-0.4,1-1C104.8,570.5,103.4,567.7,100.9,566z M77.3,572.5c0.3-2,1.3-3.8,3-4.9c2.3-1.6,5.3-2.3,9.8-2.3s7.4,0.7,9.8,2.3
	c1.6,1.1,2.7,2.9,2.9,4.9H77.3L77.3,572.5z"/>
<path class="st9" d="M90,561.1c4.5,0,8-3.6,8.3-8.5c0.1-2.4-0.7-4.8-2.4-6.5c-1.5-1.6-3.6-2.6-5.9-2.6c-2.2,0-4.3,0.9-5.8,2.5
	c-1.7,1.8-2.6,4.1-2.4,6.5C81.9,557.5,85.4,561.1,90,561.1z M85.6,547.4c1.1-1.2,2.7-1.9,4.4-1.9c1.7,0,3.3,0.8,4.4,2
	c1.3,1.3,1.9,3.2,1.8,5c-0.2,3.9-2.8,6.7-6.3,6.7s-6.1-2.7-6.3-6.6C83.7,550.6,84.3,548.8,85.6,547.4L85.6,547.4z"/>
<rect x="45" y="667" class="st12" width="90" height="90"/>
<text transform="matrix(1 0 0 1 71.76 773.22)" class="st9 st13 st14">L</text>
<text transform="matrix(1 0 0 1 76.47 773.22)" class="st9 st13 st14">OGOUT</text>
<rect x="135" y="666.9" class="st12" width="90" height="90"/>
<text transform="matrix(1 0 0 1 164.75 773.22)" class="st9 st13 st14">LI</text>
<text transform="matrix(1 0 0 1 172.59 773.22)" class="st9 st13 st14">S</text>
<text transform="matrix(1 0 0 1 177.84 773.22)" class="st9 st13 st14">TEN</text>
<rect x="135" y="514" class="st12" width="90" height="90"/>
<path class="st9" d="M643.1,419.1l-0.1-0.4l-0.7-2.1c1.4-0.9,2.3-2.5,2.3-4.2c0-2.6-2.1-4.8-5.1-5.4h-0.1l-1.1,1.5l0.6,0.1
	c2.4,0.4,4.1,2,4.1,3.9c-0.1,1.3-0.8,2.5-1.9,3.1c-0.3,0.2-0.5,0.5-0.5,0.9l0.3,1.1l-1.3-1c-0.3-0.2-0.7-0.3-1-0.2
	c-0.3,0.1-0.5,0.1-0.8,0.1c-2.9,0-5.2-1.8-5.2-4c0-0.1,0-0.1,0-0.2s0-0.1,0-0.2v-0.2l-1.7,0.4v0.2c0,3.1,3,5.5,6.8,5.6
	c0.3,0,0.7,0,1-0.1l2.5,1.8l0.4,0.3l0,0c0.2,0.2,0.5,0.4,0.8,0.4c0.2,0,0.3-0.1,0.5-0.1C643.2,420.1,643.3,419.6,643.1,419.1
	L643.1,419.1z"/>
<path class="st9" d="M627.2,391.5c-6.5,0-11.7,4.2-11.7,9.4c0.1,3.1,1.8,5.8,4.4,7.4c0.2,0.1,0.2,0.3,0.2,0.4l-1.6,5
	c0,0.3,0.2,0.5,0.5,0.5l0,0c0.1,0,0.3-0.1,0.4-0.2l5.3-3.9c0,0,0.1,0,0.1,0c0.7,0.1,1.4,0.2,2.1,0.2h0.1c6.5-0.1,11.7-4.2,11.7-9.4
	S633.7,391.5,627.2,391.5z M627.1,408.3c-0.4,0-0.9,0-1.3-0.1c-0.2-0.1-0.5-0.1-0.8-0.1c-0.5,0-1,0.2-1.4,0.5l-1.6,1.2l0.2-0.5
	l0.1-0.6c0-0.9-0.4-1.7-1.2-2.1c-2.1-1.2-3.4-3.3-3.5-5.7c0-4.1,4.4-7.4,9.7-7.4s9.7,3.3,9.7,7.4s-4.4,7.3-9.8,7.4L627.1,408.3
	L627.1,408.3z"/>
<path class="st9" d="M730,399.8l-9.2-9.2c-0.5-0.5-1.3-0.5-1.8,0c0,0,0,0,0,0l-9.1,9.2c-0.5,0.5-0.5,1.3,0,1.8
	c0.5,0.5,1.3,0.5,1.8,0l7-7v26c0,0.7,0.6,1.3,1.3,1.3s1.3-0.6,1.3-1.3v-26l7,7c0.6,0.4,1.3,0.3,1.7-0.3
	C730.3,400.8,730.3,400.2,730,399.8z"/>
<path class="st11" d="M802.6,411c0,1,0.8,1.8,1.8,1.8l0,0c0.7,0,1.6-0.2,1.7-1.8l-3.5-0.9L802.6,411L802.6,411z"/>
<polygon class="st11" points="796.5,406.5 823.5,413.1 823.5,398.9 796.5,405.5 "/>
<path class="st9" d="M825.1,396.8c-0.2-0.2-0.6-0.3-0.8-0.2l-27.8,6.8V403c0-0.6-0.4-1-1-1s-1,0.4-1,1v5.8c0,0.6,0.4,1,1,1
	s1-0.4,1-1v-0.2l4.1,1v1.4c0,2.1,1.7,3.8,3.8,3.8c1.9,0.1,3.6-1.4,3.7-3.4l16.3,4h0.2c0.6,0,1-0.4,1-1v-16.8
	C825.5,397.3,825.4,397,825.1,396.8z M804.3,412.7c-1,0-1.8-0.8-1.8-1.8l0,0v-1l3.5,0.9C805.9,412.5,805,412.7,804.3,412.7
	L804.3,412.7z M823.5,413.1l-27-6.6v-1l27-6.6V413.1L823.5,413.1z"/>
<path class="st9" d="M553.7,417.7h-27.5c-1,0-1.8-0.8-1.8-1.8v-19.8c0-1,0.8-1.8,1.8-1.8h27.5c1,0,1.8,0.8,1.8,1.8v19.8
	C555.5,416.9,554.7,417.7,553.7,417.7z M526.5,415.7h27v-19.4h-27V415.7L526.5,415.7z"/>
<path class="st9" d="M554.5,400.9h-29c-0.6,0-1-0.4-1-1s0.4-1,1-1h29c0.6,0,1,0.4,1,1S555.1,400.9,554.5,400.9z"/>
<path class="st9" d="M529.3,396.8c-0.4,0-0.8,0.3-0.8,0.8s0.3,0.8,0.8,0.8c0.4,0,0.8-0.3,0.8-0.8S529.7,396.8,529.3,396.8
	L529.3,396.8L529.3,396.8z"/>
<path class="st9" d="M532.4,396.8c-0.4,0-0.8,0.3-0.8,0.8s0.3,0.8,0.8,0.8c0.4,0,0.8-0.3,0.8-0.8S532.8,396.8,532.4,396.8
	L532.4,396.8L532.4,396.8z"/>
<path class="st9" d="M535.4,396.8c-0.4,0-0.8,0.3-0.8,0.8s0.3,0.8,0.8,0.8c0.4,0,0.8-0.3,0.8-0.8S535.8,396.8,535.4,396.8
	L535.4,396.8L535.4,396.8z"/>
<path class="st11" d="M810,545.5c-7.5,0-13.5,6-13.5,13.5s6,13.5,13.5,13.5s13.5-6,13.5-13.5l0,0C823.5,551.5,817.5,545.5,810,545.5
	z M816.6,560.1h-13.2c-0.6,0-1-0.4-1-1s0.4-1,1-1h13.2c0.6,0,1,0.4,1,1C817.6,559.7,817.1,560.1,816.6,560.1z"/>
<path class="st9" d="M810,543.5c-8.6,0-15.5,6.9-15.5,15.5s6.9,15.5,15.5,15.5s15.5-6.9,15.5-15.5l0,0
	C825.5,550.4,818.6,543.5,810,543.5z M810,572.5c-7.5,0-13.5-6-13.5-13.5s6-13.5,13.5-13.5s13.5,6,13.5,13.5l0,0
	C823.5,566.5,817.5,572.5,810,572.5z"/>
<path class="st9" d="M816.6,558.1h-13.2c-0.6,0-1,0.4-1,1s0.4,1,1,1h13.2c0.6,0,1-0.4,1-1C817.6,558.6,817.1,558.1,816.6,558.1z"/>
<path class="st11" d="M634.2,243.7c0-2.3-1.9-4.2-4.2-4.2c-2.3,0-4.2,1.9-4.2,4.2v9.9c0,0.4,0,0.7,0.1,1.1l8.2-8.2L634.2,243.7
	L634.2,243.7z"/>
<path class="st11" d="M627,256.6c1.6,1.6,4.3,1.6,5.9,0c0.8-0.8,1.2-1.9,1.2-3v-4.3L627,256.6L627,256.6z"/>
<path class="st9" d="M625.6,258c2.4,2.4,6.3,2.4,8.7,0c1.2-1.2,1.8-2.7,1.8-4.4v-6.3l6.7-6.7c0.4-0.4,0.3-1.1-0.1-1.4
	c-0.4-0.3-0.9-0.3-1.3,0l-5.3,5.3v-0.7c0-3.4-2.8-6.2-6.2-6.2c-3.4,0-6.2,2.8-6.2,6.2v9.9c0,0.9,0.2,1.8,0.6,2.6l-2,2
	c-0.8-1.3-1.2-2.9-1.3-4.5c0-0.6-0.4-1-1-1s-1,0.4-1,1c0,2.1,0.6,4.2,1.8,5.9l-3.8,3.8c-0.4,0.4-0.5,1-0.1,1.4
	c0.4,0.4,1,0.5,1.4,0.1c0,0,0.1-0.1,0.1-0.1l3.6-3.6c1.8,1.8,4.2,3,6.8,3.1v1.1h-6.2c-0.6,0-1,0.4-1,1s0.4,1,1,1h14.5
	c0.6,0,1-0.4,1-1s-0.4-1-1-1H631v-1.1c5.6-0.4,9.9-5,9.9-10.6c0-0.6-0.4-1-1-1s-1,0.4-1,1c0,4.8-3.9,8.7-8.7,8.7h-0.4
	c-2.3,0-4.5-0.9-6.2-2.6l2-2L625.6,258z M634.2,253.6c0,2.3-1.8,4.2-4.1,4.2c-1.1,0-2.2-0.4-3-1.2l-0.1-0.1l7.2-7.2L634.2,253.6
	L634.2,253.6z M625.8,253.6v-9.9c0-2.3,1.9-4.2,4.2-4.2c2.3,0,4.2,1.9,4.2,4.2v2.7l-8.2,8.2C625.9,254.3,625.8,254,625.8,253.6z"/>
<polygon class="st11" points="724.1,259.3 724.1,249.4 714.2,259.3 "/>
<polygon class="st11" points="724.1,244.8 706.5,244.8 706.5,259.3 711.3,259.3 724.1,246.6 "/>
<polygon class="st11" points="728.1,254.4 733.5,256.8 733.5,248 728.1,250.4 "/>
<path class="st9" d="M735,245.6c-0.3-0.2-0.7-0.2-1-0.1l-7.4,3.3c-0.4,0.2-0.6,0.5-0.6,0.9v5.3c0,0.4,0.2,0.7,0.6,0.9l7.4,3.3
	c0.5,0.2,1.1,0,1.3-0.5c0.1-0.1,0.1-0.3,0.1-0.4v-11.8C735.4,246.1,735.3,245.8,735,245.6z M733.5,256.8l-5.4-2.4v-4l5.5-2.4
	L733.5,256.8L733.5,256.8z"/>
<path class="st9" d="M732.6,240.9c0.4-0.4,0.3-1.1-0.1-1.4c-0.4-0.3-0.9-0.3-1.3,0l-5.1,5.1v-0.8c0-0.6-0.4-1-1-1h-19.6
	c-0.6,0-1,0.4-1,1v16.5c0,0.6,0.4,1,1,1h3.8l-1.9,1.9c-0.4,0.4-0.5,1-0.1,1.4c0.4,0.4,1,0.5,1.4,0.1c0,0,0.1-0.1,0.1-0.1l3.3-3.3
	H725c0.6,0,1-0.4,1-1v-12.9L732.6,240.9z M706.5,259.3v-14.5h17.6v1.8l-12.7,12.7L706.5,259.3L706.5,259.3z M724.1,259.3h-9.9
	l9.9-9.9V259.3z"/>
<path class="st9" d="M81.8,725.5h-2.5c-1.5,0-2.8-1.2-2.8-2.8v-21.4c0-1.5,1.2-2.8,2.8-2.8h2.5c0.6,0,1-0.4,1-1s-0.4-1-1-1h-2.5
	c-2.6,0-4.8,2.1-4.8,4.8v21.4c0,2.6,2.1,4.8,4.8,4.8h2.5c0.6,0,1-0.4,1-1C82.8,725.9,82.4,725.5,81.8,725.5z"/>
<path class="st9" d="M105.2,712.7l0.7-0.7l-0.7-0.7l0,0l-9.2-9.2c-0.4-0.4-1.1-0.3-1.4,0.1c-0.3,0.4-0.3,0.9,0,1.3l7.5,7.5H81.9
	c-0.6,0-1,0.4-1,1s0.4,1,1,1h20.1l-7.5,7.5c-0.4,0.4-0.4,1,0,1.4c0.4,0.4,1,0.4,1.4,0L105.2,712.7L105.2,712.7L105.2,712.7z"/>
<path class="st11" d="M191.2,712.2v13.1c3.6-0.6,6.1-4,5.5-7.6C196.2,714.9,194,712.7,191.2,712.2z"/>
<path class="st11" d="M163.3,718.3c0,3.2,2.3,6,5.5,6.5v-13.1C165.6,712.3,163.3,715,163.3,718.3z"/>
<path class="st9" d="M195.1,711.7C195.1,711.7,195.1,711.7,195.1,711.7c-0.1-8.4-6.9-15.1-15.3-15c-8.1,0.1-14.7,6.5-15,14.6
	c-3.9,2.8-4.7,8.2-2,12c1.6,2.2,4.2,3.6,7,3.6c0.6,0,1-0.4,1-1v-15.2c0-0.6-0.4-1-1-1c-1,0-2,0.2-2.9,0.5
	c0.7-7.2,7.1-12.5,14.3-11.8c6.4,0.6,11.5,5.8,11.9,12.3c-0.9-0.3-1.9-0.5-2.9-0.5c-0.6,0-1,0.4-1,1v15.2c0,0.6,0.4,1,1,1
	c4.8-0.1,8.6-4,8.5-8.7C198.7,715.9,197.3,713.3,195.1,711.7z M168.8,724.8c-3.6-0.6-6.1-4-5.5-7.6c0.5-2.8,2.7-5,5.5-5.5V724.8z
	 M191.2,725.3v-13.1c3.6,0.6,6,4,5.4,7.7C196.1,722.6,194,724.8,191.2,725.3L191.2,725.3z"/>
<rect x="225" y="667.1" class="st12" width="90" height="90"/>
<text transform="matrix(1 0 0 1 247.28 773.22)" class="st9 st13 st14">LINE </text>
<text transform="matrix(1 0 0 1 269.06 773.22)" class="st9 st13 st14">T</text>
<text transform="matrix(1 0 0 1 274.26 773.22)" class="st9 st13 st14">OOL</text>
<rect x="315" y="667" class="st12" width="90" height="90"/>
<text transform="matrix(1 0 0 1 331.85 773.22)" class="st9 st13 st14">CIRCLE </text>
<text transform="matrix(1 0 0 1 364.51 773.22)" class="st9 st13 st14">T</text>
<text transform="matrix(1 0 0 1 369.71 773.22)" class="st9 st13 st14">OOL</text>
<rect x="405" y="667" class="st12" width="90" height="90"/>
<text transform="matrix(1 0 0 1 415.69 773.22)" class="st9 st13 st14">TRIANGLE </text>
<text transform="matrix(1 0 0 1 460.71 773.22)" class="st9 st13 st14">T</text>
<text transform="matrix(1 0 0 1 465.91 773.22)" class="st9 st13 st14">OOL</text>
<rect x="495" y="667" class="st12" width="90" height="90"/>
<text transform="matrix(1 0 0 1 509.48 773.22)" class="st9 st13 st14">SQ</text>
<text transform="matrix(1 0 0 1 521.67 773.22)" class="st9 st13 st14">U</text>
<text transform="matrix(1 0 0 1 528.08 773.22)" class="st9 st13 st14">ARE </text>
<text transform="matrix(1 0 0 1 546.96 773.22)" class="st9 st13 st14">T</text>
<text transform="matrix(1 0 0 1 552.16 773.22)" class="st9 st13 st14">OOL</text>
<rect x="585" y="667" class="st12" width="90" height="90"/>
<text transform="matrix(1 0 0 1 600.98 773.22)" class="st9 st13 st14">FIT </text>
<text transform="matrix(1 0 0 1 616.36 773.22)" class="st9 st13 st14">T</text>
<text transform="matrix(1 0 0 1 621.56 773.22)" class="st9 st13 st14">O WI</text>
<text transform="matrix(1 0 0 1 641.12 773.22)" class="st9 st13 st14">D</text>
<text transform="matrix(1 0 0 1 647.11 773.22)" class="st9 st13 st14">TH</text>
<rect x="675" y="667" class="st12" width="90" height="90"/>
<text transform="matrix(1 0 0 1 688.22 773.22)" class="st9 st13 st14">FIT </text>
<text transform="matrix(1 0 0 1 703.6 773.22)" class="st9 st13 st14">T</text>
<text transform="matrix(1 0 0 1 708.8 773.22)" class="st9 st13 st14">O SCREEN</text>
<rect x="585" y="819" class="st12" width="90" height="90"/>
<text transform="matrix(1 0 0 1 601.03 926.22)" class="st9 st13 st14">FULL SCREEN</text>
<rect x="675" y="819" class="st12" width="90" height="90"/>
<text transform="matrix(1 0 0 1 698.67 926.22)" class="st9 st13 st14">SETTINGS</text>
<text transform="matrix(1 0 0 1 784.61 926.22)" class="st9 st13 st14">THUM</text>
<text transform="matrix(1 0 0 1 810.7 926.22)" class="st9 st13 st14">B</text>
<text transform="matrix(1 0 0 1 816.51 926.22)" class="st9 st13 st14">S UP</text>
<rect x="765" y="666.9" class="st12" width="90" height="90"/>
<text transform="matrix(1 0 0 1 798.91 773.22)" class="st9 st13 st14">P</text>
<text transform="matrix(1 0 0 1 804.73 773.22)" class="st9 st13 st14">L</text>
<text transform="matrix(1 0 0 1 809.42 773.22)" class="st9 st13 st14">U</text>
<text transform="matrix(1 0 0 1 815.87 773.22)" class="st9 st13 st14">S</text>
<rect x="45" y="819" class="st12" width="90" height="90"/>
<text transform="matrix(1 0 0 1 66.4 926.22)" class="st9 st13 st14">TE</text>
<text transform="matrix(1 0 0 1 77.24 926.22)" class="st9 st13 st14">X</text>
<text transform="matrix(1 0 0 1 82.45 926.22)" class="st9 st13 st14">T </text>
<text transform="matrix(1 0 0 1 89.91 926.22)" class="st9 st13 st14">T</text>
<text transform="matrix(1 0 0 1 95.11 926.22)" class="st9 st13 st14">OOL</text>
<rect x="135" y="818.9" class="st12" width="90" height="90"/>
<text transform="matrix(1 0 0 1 158.27 926.22)" class="st9 st13 st14">PEN </text>
<text transform="matrix(1 0 0 1 178.03 926.22)" class="st9 st13 st14">T</text>
<text transform="matrix(1 0 0 1 183.23 926.22)" class="st9 st13 st14">OOL</text>
<rect x="225" y="818.7" class="st12" width="90" height="90"/>
<text transform="matrix(1 0 0 1 258.43 926.22)" class="st9 st13 st14">L</text>
<text transform="matrix(1 0 0 1 263.14 926.22)" class="st9 st13 st14">OCK</text>
<rect x="315" y="819" class="st12" width="90" height="90"/>
<text transform="matrix(1 0 0 1 346.98 926.22)" class="st9 st13 st14">UNDO</text>
<rect x="405" y="818.8" class="st12" width="90" height="90"/>
<text transform="matrix(1 0 0 1 430.92 926.22)" class="st9 st13 st14">POLLING</text>
<rect x="495" y="819" class="st12" width="90" height="90"/>
<text transform="matrix(1 0 0 1 519.77 926.22)" class="st9 st13 st14">DES</text>
<text transform="matrix(1 0 0 1 536.85 926.22)" class="st9 st13 st14">K</text>
<text transform="matrix(1 0 0 1 542.6 926.22)" class="st9 st13 st14">T</text>
<text transform="matrix(1 0 0 1 547.8 926.22)" class="st9 st13 st14">OP</text>
<path class="st9" d="M824.6,710.7h-13.5v-13.3c0-0.7-0.6-1.3-1.3-1.3s-1.3,0.6-1.3,1.3v13.3h-13.3c-0.7,0-1.3,0.6-1.3,1.3
	s0.6,1.3,1.3,1.3h13.3v13.2c0,0.7,0.6,1.3,1.3,1.3s1.3-0.6,1.3-1.3v-13.2h13.5c0.7-0.1,1.2-0.7,1.1-1.4
	C825.7,711.2,825.2,710.8,824.6,710.7z"/>
<circle class="st11" cx="720" cy="864" r="5.2"/>
<path class="st11" d="M729.7,862c-0.3-0.1-0.5-0.4-0.6-0.7c-0.2-0.7-0.5-1.3-0.8-1.9c-0.1-0.3-0.1-0.6,0-0.9l1.7-3.6
	c-0.3-0.3-0.6-0.6-0.9-0.9l-3.6,1.7c-0.3,0.1-0.6,0.1-0.9,0c-0.6-0.3-1.2-0.6-1.9-0.8c-0.3-0.1-0.6-0.3-0.7-0.6l-1.3-3.8
	c-0.4,0-0.8,0-1.2,0l-1.4,3.8c-0.1,0.3-0.4,0.5-0.7,0.6c-0.7,0.2-1.3,0.5-1.9,0.8c-0.3,0.1-0.6,0.1-0.9,0l-3.6-1.7
	c-0.3,0.3-0.6,0.6-0.9,0.9l1.7,3.6c0.1,0.3,0.1,0.6,0,0.9c-0.3,0.6-0.6,1.2-0.8,1.9c-0.1,0.3-0.3,0.6-0.6,0.7l-3.8,1.3
	c0,0.2,0,0.4,0,0.6s0,0.4,0,0.6l3.8,1.3c0.3,0.1,0.5,0.4,0.6,0.7c0.2,0.7,0.5,1.3,0.8,1.9c0.1,0.3,0.1,0.6,0,0.9l-1.8,3.7
	c0.3,0.3,0.6,0.6,0.9,0.9l3.6-1.7c0.3-0.1,0.6-0.1,0.9,0c0.6,0.3,1.2,0.6,1.9,0.8c0.3,0.1,0.6,0.3,0.7,0.6l1.3,3.8
	c0.4,0,0.8,0,1.2,0l1.3-3.8c0.1-0.3,0.4-0.5,0.7-0.6c0.7-0.2,1.3-0.5,1.9-0.8c0.3-0.1,0.6-0.1,0.9,0l3.7,1.7
	c0.3-0.3,0.6-0.6,0.9-0.9l-1.7-3.6c-0.1-0.3-0.1-0.6,0-0.9c0.3-0.6,0.6-1.2,0.8-1.9c0.1-0.3,0.3-0.6,0.6-0.7l3.8-1.3
	c0-0.2,0-0.4,0-0.6s0-0.4,0-0.6L729.7,862z M720,871.2c-4,0-7.2-3.2-7.2-7.2s3.2-7.2,7.2-7.2s7.2,3.2,7.2,7.2
	C727.2,868,724,871.2,720,871.2z"/>
<path class="st9" d="M735.4,862.6c0-0.4-0.3-0.7-0.7-0.8l-4-1.4c-0.2-0.5-0.3-0.9-0.6-1.3l1.8-3.8c0.2-0.4,0.1-0.8-0.1-1.1
	c-0.6-0.7-1.3-1.4-2-2c-0.3-0.2-0.7-0.3-1.1-0.1l-3.8,1.8c-0.4-0.2-0.9-0.4-1.3-0.6l-1.4-4c-0.1-0.4-0.5-0.6-0.8-0.7
	c-1-0.1-1.9-0.1-2.9,0c-0.4,0-0.7,0.3-0.8,0.7l-1.4,4c-0.5,0.2-0.9,0.3-1.3,0.6l-3.8-1.8c-0.4-0.2-0.8-0.1-1.1,0.1
	c-0.7,0.6-1.4,1.3-2,2c-0.2,0.3-0.3,0.7-0.1,1.1l1.8,3.8c-0.2,0.4-0.4,0.9-0.6,1.3l-4,1.4c-0.4,0.1-0.6,0.5-0.7,0.8
	c0,0.5-0.1,1-0.1,1.4s0,1,0.1,1.4c0,0.4,0.3,0.7,0.7,0.8l4,1.4c0.2,0.5,0.3,0.9,0.6,1.3l-1.8,3.8c-0.2,0.4-0.1,0.8,0.1,1.1
	c0.6,0.7,1.3,1.4,2,2c0.3,0.2,0.7,0.3,1.1,0.1l3.8-1.8c0.4,0.2,0.9,0.4,1.3,0.6l1.4,4c0.1,0.4,0.5,0.6,0.8,0.7c0.5,0,1,0.1,1.4,0.1
	s1,0,1.4-0.1c0.4,0,0.7-0.3,0.8-0.7l1.4-4c0.5-0.2,0.9-0.3,1.3-0.6l3.8,1.8c0.4,0.2,0.8,0.1,1.1-0.1c0.7-0.6,1.4-1.3,2-2
	c0.2-0.3,0.3-0.7,0.1-1.1l-1.8-3.8c0.2-0.4,0.4-0.9,0.6-1.3l4-1.4c0.4-0.1,0.6-0.5,0.7-0.8c0-0.5,0.1-1,0.1-1.4
	S735.5,863,735.4,862.6z M733.5,864.6l-3.8,1.4c-0.3,0.1-0.5,0.4-0.6,0.7c-0.2,0.7-0.5,1.3-0.8,1.9c-0.1,0.3-0.1,0.6,0,0.9l1.7,3.6
	c-0.3,0.3-0.6,0.6-0.9,0.9l-3.6-1.7c-0.3-0.1-0.6-0.1-0.9,0c-0.6,0.3-1.2,0.6-1.9,0.8c-0.3,0.1-0.6,0.3-0.7,0.6l-1.3,3.8
	c-0.4,0-0.8,0-1.2,0l-1.4-3.8c-0.1-0.3-0.4-0.5-0.7-0.6c-0.7-0.2-1.3-0.5-1.9-0.8c-0.3-0.1-0.6-0.1-0.9,0l-3.6,1.7
	c-0.3-0.3-0.6-0.6-0.9-0.9l1.7-3.6c0.1-0.3,0.1-0.6,0-0.9c-0.3-0.6-0.6-1.2-0.8-1.9c-0.1-0.3-0.3-0.6-0.6-0.7l-3.8-1.3
	c0-0.2,0-0.4,0-0.6s0-0.4,0-0.6l3.8-1.3c0.3-0.1,0.5-0.4,0.6-0.7c0.2-0.7,0.5-1.3,0.8-1.9c0.1-0.3,0.1-0.6,0-0.9l-1.8-3.7
	c0.3-0.3,0.6-0.6,0.9-0.9l3.6,1.7c0.3,0.1,0.6,0.1,0.9,0c0.6-0.3,1.2-0.6,1.9-0.8c0.3-0.1,0.6-0.3,0.7-0.6l1.3-3.8
	c0.4,0,0.8,0,1.2,0l1.3,3.8c0.1,0.3,0.4,0.5,0.7,0.6c0.7,0.2,1.3,0.5,1.9,0.8c0.3,0.1,0.6,0.1,0.9,0l3.7-1.8
	c0.3,0.3,0.6,0.6,0.9,0.9l-1.7,3.6c-0.1,0.3-0.1,0.6,0,0.9c0.3,0.6,0.6,1.2,0.8,1.9c0.1,0.3,0.3,0.6,0.6,0.7l3.8,1.3
	c0,0.2,0,0.4,0,0.6S733.5,864.4,733.5,864.6z"/>
<path class="st9" d="M720,856.8c-4,0-7.2,3.2-7.2,7.2s3.2,7.2,7.2,7.2s7.2-3.2,7.2-7.2C727.2,860,724,856.8,720,856.8z M720,869.2
	c-2.9,0-5.2-2.3-5.2-5.2s2.3-5.2,5.2-5.2s5.2,2.3,5.2,5.2S722.9,869.2,720,869.2L720,869.2z"/>
<rect x="765" y="819" class="st12" width="90" height="90"/>
<path class="st9" d="M735.4,712.4c0.2-0.4,0.1-0.8-0.2-1.1l-3.2-3.2c-0.4-0.4-1.1-0.3-1.4,0.1c-0.3,0.4-0.3,0.9,0,1.3l1.5,1.5h-7.7
	c-0.6,0-1,0.4-1,1s0.4,1,1,1h7.7l-1.4,1.4c-0.4,0.4-0.5,1-0.1,1.4s1,0.5,1.4,0.1c0,0,0.1-0.1,0.1-0.1l3.2-3.2
	C735.3,712.6,735.4,712.5,735.4,712.4z"/>
<path class="st9" d="M716.6,712c0-0.6-0.4-1-1-1h-7.7l1.5-1.5c0.4-0.4,0.3-1.1-0.1-1.4c-0.4-0.3-0.9-0.3-1.3,0l-3.2,3.2
	c-0.4,0.4-0.4,1,0,1.4l3.2,3.2c0.4,0.4,1.1,0.3,1.4-0.1c0.3-0.4,0.3-0.9,0-1.3l-1.5-1.4h7.7C716.1,713,716.6,712.6,716.6,712
	C716.6,712,716.6,712,716.6,712z"/>
<path class="st9" d="M717.6,701.4l1.4-1.4v7.7c0,0.6,0.4,1,1,1s1-0.4,1-1v-7.7l1.5,1.5c0.4,0.4,1.1,0.3,1.4-0.1
	c0.3-0.4,0.3-0.9,0-1.3l-3.2-3.2c-0.4-0.4-1-0.4-1.4,0l-3.2,3.2c-0.3,0.4-0.3,1.1,0.2,1.4C716.7,701.7,717.2,701.7,717.6,701.4z"/>
<path class="st9" d="M722.5,722.6l-1.5,1.5v-7.7c0-0.6-0.4-1-1-1s-1,0.4-1,1v7.7l-1.5-1.5c-0.4-0.4-1.1-0.3-1.4,0.1
	c-0.3,0.4-0.3,0.9,0,1.3l3.2,3.2c0.4,0.4,1,0.4,1.4,0l3.2-3.2c0.3-0.4,0.3-1.1-0.2-1.4C723.3,722.4,722.8,722.4,722.5,722.6z"/>
<path class="st9" d="M645.4,849.1c-0.2-0.4-0.5-0.6-0.9-0.6h-6.3c-0.6,0-1,0.4-1,1s0.4,1,1,1h3.9l-8.4,8.4c-0.4,0.4-0.5,1-0.1,1.4
	s1,0.5,1.4,0.1c0,0,0.1-0.1,0.1-0.1l8.4-8.4v3.9c0,0.6,0.4,1,1,1s1-0.4,1-1v-6.3C645.5,849.4,645.5,849.2,645.4,849.1z"/>
<path class="st9" d="M624.9,867.7l-8.4,8.4v-3.9c0-0.6-0.4-1-1-1s-1,0.4-1,1v6.3c0,0.6,0.4,1,1,1h6.3c0.6,0,1-0.4,1-1s-0.4-1-1-1
	h-3.9l8.4-8.4c0.4-0.4,0.3-1.1-0.1-1.4C625.8,867.4,625.3,867.4,624.9,867.7z"/>
<path class="st9" d="M617.9,850.5h3.9c0.6,0,1-0.4,1-1s-0.4-1-1-1h-6.3c-0.6,0-1,0.4-1,1v6.3c0,0.6,0.4,1,1,1s1-0.4,1-1v-3.9
	l8.4,8.4c0.4,0.4,1.1,0.3,1.4-0.1c0.3-0.4,0.3-0.9,0-1.3L617.9,850.5z"/>
<path class="st9" d="M644.5,871.2c-0.6,0-1,0.4-1,1v3.9l-8.4-8.4c-0.4-0.4-1.1-0.3-1.4,0.1c-0.3,0.4-0.3,0.9,0,1.3l8.4,8.4h-3.9
	c-0.6,0-1,0.4-1,1s0.4,1,1,1h6.3c0.6,0,1-0.4,1-1v-6.3C645.5,871.6,645.1,871.2,644.5,871.2z"/>
<path class="st9" d="M645.4,712.1c0-0.1,0.1-0.3,0.1-0.4l0,0c0,0,0-0.1,0-0.1c0-0.1,0-0.2-0.1-0.2c-0.1-0.1-0.1-0.2-0.2-0.3l0,0
	l-4-3.5c-0.4-0.4-1.1-0.3-1.4,0.1c-0.4,0.4-0.3,1.1,0.1,1.4l2,1.8h-23.7l2-1.8c0.4-0.4,0.5-1,0.1-1.4c-0.4-0.4-1-0.5-1.4-0.1l-4,3.5
	l0,0c-0.1,0.1-0.2,0.2-0.2,0.3c0,0.1,0,0.2-0.1,0.2c0,0,0,0.1,0,0.1l0,0c0,0.1,0,0.2,0,0.2c0,0.2,0.1,0.4,0.3,0.5l4,4
	c0.4,0.4,1.1,0.3,1.4-0.1c0.3-0.4,0.3-0.9,0-1.3l-2.3-2.3h24.2l-2.3,2.2c-0.4,0.4-0.5,1-0.1,1.4s1,0.5,1.4,0.1c0,0,0.1-0.1,0.1-0.1
	l4-4C645.3,712.3,645.4,712.2,645.4,712.1z"/>
<circle class="st11" cx="528" cy="700" r="1.5"/>
<circle class="st11" cx="528" cy="724" r="1.5"/>
<circle class="st11" cx="552" cy="700" r="1.5"/>
<circle class="st11" cx="552" cy="724" r="1.5"/>
<rect x="551" y="704.4" class="st9" width="2" height="15.1"/>
<rect x="533.1" y="699" class="st9" width="13.9" height="2"/>
<rect x="527" y="704.4" class="st9" width="2" height="15.1"/>
<rect x="533.1" y="723" class="st9" width="13.9" height="2"/>
<path class="st9" d="M552,703.5c1.9,0,3.5-1.6,3.5-3.5c0-1.9-1.6-3.5-3.5-3.5c-1.9,0-3.5,1.6-3.5,3.5
	C548.5,702,550.1,703.5,552,703.5z M552,698.5c0.8,0,1.5,0.7,1.5,1.5c0,0.8-0.7,1.5-1.5,1.5c-0.8,0-1.5-0.7-1.5-1.5
	C550.5,699.2,551.1,698.5,552,698.5C552,698.5,552,698.5,552,698.5L552,698.5z"/>
<path class="st9" d="M528,696.5c-1.9,0-3.5,1.6-3.5,3.5c0,1.9,1.6,3.5,3.5,3.5c1.9,0,3.5-1.6,3.5-3.5
	C531.5,698.1,529.9,696.5,528,696.5z M528,701.5c-0.8,0-1.5-0.7-1.5-1.5c0-0.8,0.7-1.5,1.5-1.5c0.8,0,1.5,0.7,1.5,1.5
	C529.5,700.8,528.9,701.5,528,701.5C528,701.5,528,701.5,528,701.5L528,701.5z"/>
<path class="st9" d="M552,720.5c-1.9,0-3.5,1.6-3.5,3.5c0,1.9,1.6,3.5,3.5,3.5c1.9,0,3.5-1.6,3.5-3.5
	C555.5,722.1,553.9,720.5,552,720.5z M552,725.5c-0.8,0-1.5-0.7-1.5-1.5c0-0.8,0.7-1.5,1.5-1.5c0.8,0,1.5,0.7,1.5,1.5
	c0,0,0,0.1,0,0.1C553.5,724.8,552.8,725.5,552,725.5L552,725.5z"/>
<path class="st9" d="M528,720.5c-1.9,0-3.5,1.6-3.5,3.5c0,1.9,1.6,3.5,3.5,3.5c1.9,0,3.5-1.6,3.5-3.5
	C531.5,722,529.9,720.5,528,720.5z M528,725.5c-0.8,0-1.5-0.7-1.5-1.5c0-0.8,0.7-1.5,1.5-1.5c0.8,0,1.5,0.7,1.5,1.5
	C529.5,724.8,528.9,725.5,528,725.5C528,725.5,528,725.5,528,725.5L528,725.5z"/>
<circle class="st11" cx="450" cy="699.9" r="1.4"/>
<circle class="st11" cx="462.1" cy="724.1" r="1.4"/>
<circle class="st11" cx="437.9" cy="724.1" r="1.4"/>
<rect x="434.4" y="711.1" transform="matrix(0.4473 -0.8944 0.8944 0.4473 -391.5765 790.4955)" class="st9" width="18.8" height="2"/>
<rect x="441.7" y="723.1" class="st9" width="16.6" height="2"/>
<rect x="455.2" y="702.6" transform="matrix(0.8944 -0.4473 0.4473 0.8944 -270.2242 279.2376)" class="st9" width="2" height="18.6"/>
<path class="st9" d="M450,703.3c1.9,0,3.4-1.5,3.4-3.4c0-1.9-1.5-3.4-3.4-3.4c-1.9,0-3.4,1.5-3.4,3.4l0,0
	C446.6,701.8,448.1,703.3,450,703.3z M450,698.5c0.8,0,1.4,0.6,1.4,1.4c0,0.8-0.6,1.4-1.4,1.4c-0.8,0-1.4-0.6-1.4-1.4l0,0
	C448.6,699.1,449.2,698.5,450,698.5z"/>
<path class="st9" d="M462.1,720.7c-1.9,0-3.4,1.5-3.4,3.4c0,1.9,1.5,3.4,3.4,3.4c1.9,0,3.4-1.5,3.4-3.4l0,0
	C465.5,722.2,464,720.7,462.1,720.7z M462.1,725.5c-0.8,0-1.4-0.6-1.4-1.4c0-0.8,0.6-1.4,1.4-1.4c0.8,0,1.4,0.6,1.4,1.4l0,0
	C463.5,724.9,462.9,725.5,462.1,725.5z"/>
<path class="st9" d="M437.9,720.7c-1.9,0-3.4,1.5-3.4,3.4c0,1.9,1.5,3.4,3.4,3.4c1.9,0,3.4-1.5,3.4-3.4l0,0
	C441.3,722.2,439.8,720.7,437.9,720.7z M437.9,725.5c-0.8,0-1.4-0.6-1.4-1.4c0-0.8,0.6-1.4,1.4-1.4c0.8,0,1.4,0.6,1.4,1.4l0,0
	C439.3,724.9,438.7,725.5,437.9,725.5z"/>
<circle class="st11" cx="276" cy="700" r="1.4"/>
<circle class="st11" cx="264" cy="724.2" r="1.4"/>
<rect x="260.4" y="711.5" transform="matrix(0.4473 -0.8944 0.8944 0.4473 -488.1329 635.1381)" class="st9" width="18.8" height="2"/>
<path class="st9" d="M276,696.6c-1.9,0-3.4,1.5-3.4,3.4c0,1.9,1.5,3.4,3.4,3.4c1.9,0,3.4-1.5,3.4-3.4l0,0
	C279.4,698.1,277.9,696.6,276,696.6z M276,701.4c-0.8,0-1.4-0.6-1.4-1.4c0-0.8,0.6-1.4,1.4-1.4c0.8,0,1.4,0.6,1.4,1.4l0,0
	C277.4,700.8,276.8,701.4,276,701.4z"/>
<path class="st9" d="M264,720.8c-1.9,0-3.4,1.5-3.4,3.4c0,1.9,1.5,3.4,3.4,3.4c1.9,0,3.4-1.5,3.4-3.4l0,0
	C267.4,722.3,265.9,720.8,264,720.8z M264,725.6c-0.8,0-1.4-0.6-1.4-1.4c0-0.8,0.6-1.4,1.4-1.4c0.8,0,1.4,0.6,1.4,1.4l0,0
	C265.4,725,264.8,725.6,264,725.6L264,725.6z"/>
<circle class="st11" cx="359.8" cy="724.1" r="1.4"/>
<circle class="st11" cx="359.8" cy="699.9" r="1.4"/>
<circle class="st11" cx="347.9" cy="712.2" r="1.4"/>
<circle class="st11" cx="372.1" cy="712.2" r="1.4"/>
<path class="st9" d="M363.7,722.5l0.7,1.9c3.6-1.3,6.5-4.1,7.9-7.7l-1.9-0.7C369.2,719,366.7,721.4,363.7,722.5z"/>
<path class="st9" d="M347.5,707.7l1.9,0.7c1.1-3.1,3.5-5.6,6.5-6.7l-0.7-1.9C351.6,701.1,348.8,704,347.5,707.7z"/>
<path class="st9" d="M370.5,708.4l1.9-0.6c-1.3-3.8-4.2-6.8-8-8.2l-0.7,1.9C366.9,702.7,369.4,705.2,370.5,708.4z"/>
<path class="st9" d="M349.5,716l-1.9,0.7c1.3,3.5,4.1,6.3,7.6,7.6l0.7-1.9C353,721.3,350.7,718.9,349.5,716z"/>
<path class="st9" d="M359.8,696.5c-1.9,0-3.4,1.5-3.4,3.4s1.5,3.4,3.4,3.4c1.9,0,3.4-1.5,3.4-3.4l0,0
	C363.2,698,361.7,696.5,359.8,696.5z M359.8,701.2c-0.8,0-1.4-0.6-1.4-1.4s0.6-1.4,1.4-1.4c0.8,0,1.4,0.6,1.4,1.4l0,0
	C361.2,700.6,360.6,701.2,359.8,701.2z"/>
<path class="st9" d="M359.8,720.8c-1.9,0-3.4,1.5-3.4,3.4s1.5,3.4,3.4,3.4c1.9,0,3.4-1.5,3.4-3.4l0,0
	C363.2,722.3,361.7,720.8,359.8,720.8z M359.8,725.5c-0.8,0-1.4-0.6-1.4-1.4s0.6-1.4,1.4-1.4c0.8,0,1.4,0.6,1.4,1.4l0,0
	C361.2,724.9,360.6,725.5,359.8,725.5z"/>
<path class="st9" d="M372.1,708.8c-1.9,0-3.4,1.5-3.4,3.4s1.5,3.4,3.4,3.4c1.9,0,3.4-1.5,3.4-3.4l0,0
	C375.4,710.3,373.9,708.8,372.1,708.8z M372.1,713.5c-0.8,0-1.4-0.6-1.4-1.4s0.6-1.4,1.4-1.4c0.8,0,1.4,0.6,1.4,1.4l0,0
	C373.4,712.9,372.8,713.5,372.1,713.5L372.1,713.5L372.1,713.5z"/>
<path class="st9" d="M351.3,712.2c0-1.9-1.5-3.4-3.4-3.4c-1.9,0-3.4,1.5-3.4,3.4c0,1.9,1.5,3.4,3.4,3.4h0
	C349.8,715.5,351.3,714,351.3,712.2z M346.6,712.2c0-0.8,0.6-1.4,1.4-1.4c0.8,0,1.4,0.6,1.4,1.4c0,0.8-0.6,1.4-1.4,1.4h0
	C347.2,713.5,346.6,712.9,346.6,712.2C346.5,712.2,346.5,712.2,346.6,712.2L346.6,712.2z"/>
<path class="st9" d="M102.4,849.5H77.6l-0.3,7.5h1.1c0.4-2.4,1.1-3.9,2-4.6c0.9-0.7,2.6-1,5-1h2.5v21.9c0,1.9-0.2,3.1-0.7,3.5
	c-0.5,0.5-1.6,0.8-3.5,0.9v0.8h12.7v-0.8c-1.2,0-2.4-0.3-3.5-0.8c-0.5-0.4-0.8-1.4-0.8-3.1v-22.5h2.4c2.5,0,4.2,0.4,5,1.1
	s1.5,2.2,2,4.6h1L102.4,849.5z"/>
<rect x="45" y="972" class="st12" width="90" height="90"/>
<text transform="matrix(1 0 0 1 56.57 1079.22)" class="st9 st13 st14">THUM</text>
<text transform="matrix(1 0 0 1 82.66 1079.22)" class="st9 st13 st14">B</text>
<text transform="matrix(1 0 0 1 88.47 1079.22)" class="st9 st13 st14">S D</text>
<text transform="matrix(1 0 0 1 102.17 1079.22)" class="st9 st13 st14">O</text>
<text transform="matrix(1 0 0 1 108.87 1079.22)" class="st9 st13 st14">WN</text>
<rect x="135.3" y="972" class="st12" width="90" height="90"/>
<text transform="matrix(1 0 0 1 157.51 1079.22)" class="st9 st13 st14">APPL</text>
<text transform="matrix(1 0 0 1 179.75 1079.22)" class="st9 st13 st14">A</text>
<text transform="matrix(1 0 0 1 185.2 1079.22)" class="st9 st13 st14">U</text>
<text transform="matrix(1 0 0 1 191.65 1079.22)" class="st9 st13 st14">SE</text>
<rect x="225" y="972" class="st12" width="90" height="90"/>
<text transform="matrix(1 0 0 1 240.78 1079.22)" class="st9 st13 st14">A</text>
<text transform="matrix(1 0 0 1 246.23 1079.22)" class="st9 st13 st14">UDIO C</text>
<text transform="matrix(1 0 0 1 276.35 1079.22)" class="st9 st13 st14">L</text>
<text transform="matrix(1 0 0 1 281.06 1079.22)" class="st9 st13 st14">OSE</text>
<rect x="315" y="972" class="st12" width="90" height="90"/>
<text transform="matrix(1 0 0 1 341.93 1079.22)" class="st9 st13 st14">UP</text>
<text transform="matrix(1 0 0 1 354.3 1079.22)" class="st9 st13 st14">L</text>
<text transform="matrix(1 0 0 1 359.01 1079.22)" class="st9 st13 st14">O</text>
<text transform="matrix(1 0 0 1 365.65 1079.22)" class="st9 st13 st14">AD</text>
<rect x="405" y="972" class="st12" width="90" height="90"/>
<text transform="matrix(1 0 0 1 440.54 1079.22)" class="st9 st13 st14">FILE</text>
<polygon class="st11" points="169.2,871.2 167.4,876.7 172.5,874.6 "/>
<rect x="168.9" y="860.6" transform="matrix(0.7071 -0.7071 0.7071 0.7071 -557.6812 380.3901)" class="st11" width="22.8" height="5.5"/>
<path class="st11" d="M187.9,851.9L187.9,851.9l3.9,4l0.1-0.1c1.6-1.6,1.9-3.5,0.8-4.7S189.5,850.3,187.9,851.9z"/>
<path class="st9" d="M194,849.7c-1.9-1.9-5.1-1.6-7.5,0.8L168,869c-0.1,0.1-0.2,0.2-0.2,0.4l-2.9,8.7c-0.2,0.5,0.1,1.1,0.6,1.3
	c0.2,0.1,0.5,0.1,0.7,0l8.3-3.4c0.1-0.1,0.2-0.1,0.3-0.2l18.6-18.5C195.6,854.8,195.9,851.6,194,849.7z M170.3,869.5l16.1-16.2
	l3.9,3.9l-16.1,16.2L170.3,869.5z M169.2,871.2l3.3,3.3l-5.2,2.1L169.2,871.2z M191.8,855.8L191.8,855.8l-4-3.9l0.1-0.1
	c1.6-1.6,3.5-1.9,4.7-0.8S193.4,854.2,191.8,855.8L191.8,855.8z"/>
<polygon class="st11" points="261,863.3 259.7,863.3 259.7,877.2 280.3,877.2 280.3,863.3 279,863.3 "/>
<path class="st11" d="M277,857.2c0-3.9-3.1-7-7-7s-7,3.1-7,7v4.1h14V857.2z"/>
<path class="st9" d="M280.5,861.3H279v-4.1c0-5-4-9-9-9s-9,4-9,9v4.1h-1.5c-1,0-1.8,0.8-1.8,1.8l0,0v14.2c0,1,0.8,1.8,1.8,1.8h0
	h20.9c1,0,1.8-0.8,1.8-1.8l0,0v-14.2C282.3,862.2,281.5,861.3,280.5,861.3z M263,857.2c0-3.9,3.1-7,7-7s7,3.1,7,7v4.1h-14V857.2z
	 M280.3,877.2h-20.6v-13.9h20.6L280.3,877.2L280.3,877.2z"/>
<path class="st9" d="M360.3,854.2h-9.5l3.7-3.7c0.3-0.3,0.3-0.9,0-1.2c0,0,0,0,0,0c-0.3-0.3-0.9-0.3-1.3,0l-5.1,5.2
	c-0.1,0.1-0.2,0.2-0.3,0.3l-0.5,0.5l0.5,0.5c0.1,0.1,0.2,0.2,0.3,0.3l5.1,5.2c0.3,0.3,0.9,0.3,1.3,0s0.3-0.9,0-1.3l-3.7-3.7h9.5
	c5.9,0,10.6,4.8,10.6,10.6s-4.8,10.6-10.6,10.6l0,0c-0.6,0-1,0.4-1,1s0.4,1,1,1c7,0,12.6-5.7,12.6-12.6S367.3,854.2,360.3,854.2z"/>
<path class="st9" d="M464.5,855.5h-21.8c-0.6,0-1,0.4-1,1s0.4,1,1,1h21.8c0.6,0,1-0.4,1-1S465.1,855.5,464.5,855.5z"/>
<path class="st9" d="M457.3,862.9h-14.5c-0.6,0-1,0.4-1,1s0.4,1,1,1h14.5c0.6,0,1-0.4,1-1S457.8,862.9,457.3,862.9z"/>
<path class="st9" d="M450,870.2h-7.3c-0.6,0-1,0.4-1,1s0.4,1,1,1h7.3c0.6,0,1-0.4,1-1S450.6,870.2,450,870.2z"/>
<circle class="st9" cx="437.5" cy="856.5" r="2"/>
<circle class="st9" cx="437.5" cy="863.9" r="2"/>
<circle class="st9" cx="437.5" cy="871.2" r="2"/>
<rect x="536.9" y="875" class="st11" width="6.2" height="2.5"/>
<path class="st11" d="M554.5,850.5h-29c-0.4,0-0.8,0.4-0.8,0.8v20.8c0,0.4,0.4,0.8,0.8,0.8h29c0.4,0,0.8-0.4,0.8-0.8v-20.8
	C555.3,850.9,554.9,850.5,554.5,850.5z"/>
<path class="st9" d="M554.5,848.5h-29c-1.5,0-2.8,1.3-2.8,2.8v20.8c0,1.6,1.2,2.8,2.8,2.8c0,0,0,0,0,0h9.4v2.5h-3.1
	c-0.6,0-1,0.4-1,1s0.4,1,1,1h16.3c0.6,0,1-0.4,1-1s-0.4-1-1-1h-3.1V875h9.4c1.5,0,2.8-1.3,2.8-2.8v-20.9
	C557.3,849.8,556,848.5,554.5,848.5z M543.1,877.5h-6.2V875h6.2V877.5L543.1,877.5z M555.3,872.2c0,0.4-0.4,0.8-0.8,0.8h-29
	c-0.4,0-0.8-0.4-0.8-0.8v-20.8c0-0.4,0.4-0.8,0.8-0.8h29c0.4,0,0.8,0.4,0.8,0.8V872.2L555.3,872.2z"/>
<path class="st11" d="M178.8,558.1c3.4,0,5.9-2.7,6.1-6.5c0.1-1.8-0.5-3.6-1.8-4.9c-1.1-1.2-2.7-1.9-4.3-1.9c-1.6,0-3.2,0.7-4.3,1.9
	c-1.3,1.3-1.9,3.1-1.8,4.9C172.8,555.4,175.3,558.1,178.8,558.1z"/>
<path class="st9" d="M166.5,571c0.3-1.8,1.3-3.4,2.8-4.5c2.2-1.5,5.1-2.2,9.4-2.2c0.7,0,1.4,0,2.1,0.1h0.4h0.5h0.3l1.4-2.1l-0.8-0.1
	c-0.5-0.1-0.9-0.1-1.4-0.1H181c-0.7,0-1.5-0.1-2.3-0.1c-4.8,0-8.1,0.8-10.8,2.6c-2.4,1.7-3.9,4.5-3.9,7.5c0,0.6,0.5,1.1,1.1,1.1
	h17.5l-1.2-2.2H166.5z"/>
<path class="st9" d="M178.8,560.1c4.4,0,7.8-3.5,8.1-8.4c0.1-2.4-0.7-4.7-2.3-6.4c-1.5-1.6-3.6-2.5-5.8-2.5c-2.2,0-4.2,0.9-5.7,2.5
	c-1.6,1.7-2.5,4-2.4,6.4C170.9,556.5,174.3,560.1,178.8,560.1z M174.5,546.7c1.1-1.2,2.6-1.9,4.3-1.9c1.6,0,3.2,0.7,4.3,1.9
	c1.2,1.3,1.9,3.1,1.8,4.9c-0.2,3.8-2.7,6.5-6.1,6.5s-5.9-2.7-6.1-6.5C172.6,549.8,173.3,548,174.5,546.7z"/>
<path class="st10" d="M192.9,564.8c-1.9-2-5.1-2-7.1-0.1c-2,1.9-2,5.1-0.1,7.1s5.1,2,7.1,0.1c0,0,0,0,0.1-0.1
	C194.8,569.8,194.8,566.7,192.9,564.8C192.9,564.8,192.9,564.8,192.9,564.8z M192,570.9c-0.4,0.4-1,0.4-1.4,0l-1.3-1.3l-1.2,1.2
	c-0.4,0.4-1.1,0.3-1.4-0.1c-0.3-0.4-0.3-0.9,0-1.3l1.2-1.2l-1.1-1.1c-0.4-0.4-0.3-1.1,0.1-1.4c0.4-0.3,0.9-0.3,1.3,0l1.1,1.1
	l1.3-1.3c0.4-0.4,1.1-0.3,1.4,0.1c0.3,0.4,0.3,0.9,0,1.3l-1.3,1.3l1.3,1.3C192.4,569.9,192.4,570.5,192,570.9z"/>
<path class="st9" d="M194.3,563.3c-2.7-2.8-7.1-2.8-9.9-0.1c-2.8,2.7-2.8,7.1-0.1,9.9c2.7,2.8,7.1,2.8,9.9,0.1
	c1.3-1.3,2.1-3.1,2.1-5C196.3,566.4,195.6,564.7,194.3,563.3z M192.9,571.8c-1.9,2-5.1,2-7.1,0.1c-2-1.9-2-5.1-0.1-7.1
	s5.1-2,7.1-0.1c0,0,0,0,0.1,0.1C194.8,566.7,194.8,569.8,192.9,571.8L192.9,571.8z"/>
<path class="st9" d="M190.7,568.2l1.3-1.3c0.4-0.4,0.3-1.1-0.1-1.4c-0.4-0.3-0.9-0.3-1.3,0l-1.3,1.3l-1.1-1.1
	c-0.4-0.4-1.1-0.3-1.4,0.1c-0.3,0.4-0.3,0.9,0,1.3l1.1,1.1l-1.2,1.2c-0.4,0.4-0.5,1-0.1,1.4c0.4,0.4,1,0.5,1.4,0.1
	c0,0,0.1-0.1,0.1-0.1l1.2-1.2l1.3,1.3c0.4,0.4,1.1,0.3,1.4-0.1c0.3-0.4,0.3-0.9,0-1.3L190.7,568.2z"/>
<path class="st15" d="M459.9,1032.5h-19.8c-0.9,0-1.7-0.8-1.7-1.7v-27.6c0-0.9,0.8-1.7,1.7-1.7h13.8l7.3,7.3
	c0.3,0.3,0.5,0.8,0.5,1.2v20.8C461.6,1031.7,460.9,1032.5,459.9,1032.5C459.9,1032.5,459.9,1032.5,459.9,1032.5z"/>
<path class="st16" d="M453.9,1001.5v6c0,0.9,0.8,1.7,1.7,1.7h6"/>
<rect x="495" y="972" class="st12" width="90" height="90"/>
<text transform="matrix(1 0 0 1 525.8 1079.22)" class="st9 st13 st14">A</text>
<text transform="matrix(1 0 0 1 531.25 1079.22)" class="st9 st13 st14">UDIO</text>
<rect x="585" y="972" class="st12" width="90" height="90"/>
<text transform="matrix(1 0 0 1 606.33 1079.22)" class="st9 st13 st14">A</text>
<text transform="matrix(1 0 0 1 611.78 1079.22)" class="st9 st13 st14">UDIO OFF</text>
<text transform="matrix(1 0 0 1 520.73 1169.22)" class="st9 st13 st14">UNMUTE</text>
<text transform="matrix(1 0 0 1 617.28 1169.22)" class="st9 st13 st14">MUTE</text>
<path class="st9" d="M360,1032.8c-0.6,0-1-0.4-1-1v-14.8l-3.8,3.8c-0.4,0.4-1,0.4-1.4,0c-0.4-0.4-0.4-1,0-1.4l5.5-5.5
	c0.3-0.3,0.7-0.4,1.1-0.2c0.1,0.1,0.2,0.1,0.3,0.2l5.5,5.5c0.4,0.4,0.4,1,0,1.4c-0.4,0.4-1,0.4-1.4,0l-3.7-3.8v14.8
	C361,1032.3,360.6,1032.8,360,1032.8z"/>
<path class="st9" d="M365.5,1025.3c-0.5,0-0.9-0.4-0.9-0.9c0-0.5,0.4-0.9,0.9-0.9h6.1c2.9,0,5.3-2.2,5.5-5c0.1-1.5-0.4-2.9-1.4-4
	c-1-1.1-2.4-1.7-3.9-1.7h-1.5v-1.5c0-0.1,0-0.1,0-0.2c0-4.5-3.6-8.1-8.1-8.2c-3.2,0-6,1.8-7.4,4.6l-0.7,1.4l-1.4-0.7
	c-1.7-0.9-3.8-0.2-4.7,1.5c-0.2,0.4-0.3,0.8-0.3,1.2l-0.1,0.7l-0.7,0.2c-2.2,0.7-3.8,2.6-4.1,4.9c-0.2,1.7,0.3,3.4,1.5,4.7
	c1.1,1.3,2.8,2,4.5,2h5.6c0.5,0,0.9,0.4,0.9,0.9c0,0.5-0.4,0.9-0.9,0.9c0,0,0,0,0,0h-5.6c-4.2,0-7.7-3.4-7.7-7.7
	c0-3.2,2-6.1,5.1-7.2c0.5-2.4,2.6-4.2,5.1-4.2c0.7,0,1.4,0.2,2.1,0.5c2.5-4.9,8.4-6.8,13.2-4.4c3.3,1.7,5.4,5.1,5.4,8.8c0,0,0,0,0,0
	c3.9,0.3,6.8,3.6,6.6,7.5c-0.2,3.6-3.2,6.5-6.8,6.6L365.5,1025.3L365.5,1025.3z"/>
<text transform="matrix(1 0 0 1 481.56 1124.3)" class="st9 st13 st14">A</text>
<text transform="matrix(1 0 0 1 487.01 1124.3)" class="st9 st13 st14">UDIO</text>
<text transform="matrix(1 0 0 1 652.09 1124.3)" class="st9 st13 st14">A</text>
<text transform="matrix(1 0 0 1 657.54 1124.3)" class="st9 st13 st14">UDIO OFF</text>
<line class="st17" x1="572.6" y1="1149.2" x2="567.7" y2="1154.1"/>
<line class="st17" x1="572.6" y1="1154.1" x2="567.7" y2="1149.2"/>
<path class="st18" d="M557.9,1149h-3.1c-0.7,0-1.3,0.6-1.3,1.3l0,0v2.7c0,0.7,0.6,1.3,1.3,1.3h0h3.1l6.1,6.1v-17.5L557.9,1149z"/>
<path class="st9" d="M644,1017l3.7-3.7c0.4-0.4,0.5-1,0.1-1.4s-1-0.5-1.4-0.1c0,0-0.1,0.1-0.1,0.1l-3.7,3.7l-3.7-3.7
	c-0.4-0.4-1.1-0.3-1.4,0.1c-0.3,0.4-0.3,0.9,0,1.3l3.7,3.7l-3.7,3.7c-0.4,0.4-0.5,1-0.1,1.4s1,0.5,1.4,0.1c0,0,0.1-0.1,0.1-0.1
	l3.7-3.7l3.7,3.7c0.4,0.4,1.1,0.3,1.4-0.1c0.3-0.4,0.3-0.9,0-1.3L644,1017z"/>
<path class="st9" d="M631.7,1033.5c-0.3,0-0.5-0.1-0.7-0.3l-10.6-10.6h-5c-1.8,0-3.3-1.5-3.3-3.3c0,0,0,0,0,0v-4.7
	c0-1.8,1.5-3.3,3.3-3.3c0,0,0,0,0,0h5l10.6-10.5c0.4-0.4,1-0.4,1.4,0c0.2,0.2,0.3,0.4,0.3,0.7v31
	C632.7,1033.1,632.3,1033.5,631.7,1033.5C631.7,1033.5,631.7,1033.5,631.7,1033.5z M615.4,1013.3c-0.7,0-1.3,0.6-1.3,1.3
	c0,0,0,0,0,0v4.7c0,0.7,0.6,1.3,1.3,1.3c0,0,0,0,0,0h5.4c0.3,0,0.5,0.1,0.7,0.3l9.1,9.1v-26.2l-9.1,9.1c-0.2,0.2-0.4,0.3-0.7,0.3
	H615.4z"/>
<path class="st9" d="M549.3,1033.5c-0.3,0-0.5-0.1-0.7-0.3l-10.6-10.6h-5c-1.8,0-3.3-1.5-3.3-3.3v-4.7c0-1.8,1.5-3.3,3.3-3.3h5
	l10.6-10.6c0.4-0.4,1-0.4,1.4,0c0.2,0.2,0.3,0.4,0.3,0.7v31C550.3,1033,549.8,1033.5,549.3,1033.5z M533,1013.3
	c-0.7,0-1.3,0.6-1.3,1.3v4.7c0,0.7,0.6,1.3,1.3,1.3h5.4c0.3,0,0.5,0.1,0.7,0.3l9.1,9.1v-26.2l-9.1,9.1c-0.2,0.2-0.4,0.3-0.7,0.3H533
	z"/>
</svg>
