<svg xmlns="http://www.w3.org/2000/svg" width="30" height="30" fill="none"><path fill="#000" fill-rule="evenodd" d="M12.465 2.247a13.1 13.1 0 0 1 5.07 0 1.61 1.61 0 1 1-.625 3.16 9.8 9.8 0 0 0-3.82 0 1.61 1.61 0 1 1-.625-3.16M10.01 4.633a1.61 1.61 0 0 1-.442 2.234 9.8 9.8 0 0 0-2.7 2.7A1.61 1.61 0 0 1 4.19 7.777 13.1 13.1 0 0 1 7.776 4.19a1.61 1.61 0 0 1 2.234.442m9.98 0a1.61 1.61 0 0 1 2.234-.442 13.1 13.1 0 0 1 3.585 3.585 1.61 1.61 0 1 1-2.676 1.792 9.8 9.8 0 0 0-2.7-2.7 1.61 1.61 0 0 1-.443-2.235M4.14 11.197a1.61 1.61 0 0 1 1.267 1.893 9.8 9.8 0 0 0 0 3.82 1.61 1.61 0 1 1-3.16.625 13.1 13.1 0 0 1 0-5.07 1.61 1.61 0 0 1 1.893-1.268m21.72 0a1.61 1.61 0 0 1 1.893 1.268 13.1 13.1 0 0 1 0 5.07 1.61 1.61 0 0 1-3.16-.625 9.8 9.8 0 0 0 0-3.82 1.61 1.61 0 0 1 1.267-1.893M4.633 19.99a1.61 1.61 0 0 1 2.234.442 9.8 9.8 0 0 0 2.7 2.7 1.61 1.61 0 0 1-1.791 2.677 13.1 13.1 0 0 1-3.585-3.585 1.61 1.61 0 0 1 .442-2.234m20.734 0a1.61 1.61 0 0 1 .442 2.234 13.1 13.1 0 0 1-3.585 3.585 1.61 1.61 0 1 1-1.792-2.676 9.8 9.8 0 0 0 2.7-2.7 1.61 1.61 0 0 1 2.235-.443m-14.17 5.87a1.61 1.61 0 0 1 1.893-1.267 9.8 9.8 0 0 0 3.82 0 1.61 1.61 0 1 1 .625 3.16 13.1 13.1 0 0 1-5.07 0 1.61 1.61 0 0 1-1.268-1.893" clip-rule="evenodd"/></svg>