<svg xmlns="http://www.w3.org/2000/svg" width="30" height="30" fill="none"><path fill="#000" d="M17 3.792a2 2 0 1 1-4 0 2 2 0 0 1 4 0M17 25.792a2 2 0 1 1-4 0 2 2 0 0 1 4 0M22.232 6.265a2 2 0 1 1-3.464-2 2 2 0 0 1 3.464 2M11.232 25.318a2 2 0 1 1-3.464-2 2 2 0 0 1 3.464 2M25.526 11.024a2 2 0 1 1-2-3.465 2 2 0 0 1 2 3.465M6.474 22.024a2 2 0 1 1-2-3.465 2 2 0 0 1 2 3.465M26 16.792a2 2 0 1 1 0-4 2 2 0 0 1 0 4M4 16.792a2 2 0 1 1 0-4 2 2 0 0 1 0 4M23.526 22.024a2 2 0 1 1 2-3.465 2 2 0 0 1-2 3.465M4.474 11.024a2 2 0 1 1 2-3.465 2 2 0 0 1-2 3.465M18.768 25.318a2 2 0 1 1 3.464-2 2 2 0 0 1-3.464 2M7.768 6.265a2 2 0 1 1 3.464-2 2 2 0 0 1-3.464 2"/></svg>