<svg xmlns="http://www.w3.org/2000/svg" width="30" height="30" fill="none"><path fill="#000" d="m12.504 24-1.42-4.515h-6.29L3.399 24H0L5.935 6.296h4.16L15.979 24zM7.99 9.34h-.126l-2.258 7.28h4.667zM28.2 24q-1.066 0-1.7-.609-.61-.634-.761-1.674h-.152q-.33 1.294-1.344 1.953-1.015.634-2.511.634-2.03 0-3.12-1.065t-1.09-2.84q0-2.055 1.47-3.044 1.471-1.015 4.185-1.015h2.258v-.964q0-1.116-.584-1.724-.583-.61-1.877-.61-1.14 0-1.851.508a4.8 4.8 0 0 0-1.167 1.167l-1.927-1.725a5.5 5.5 0 0 1 1.952-1.826q1.218-.71 3.222-.71 2.688 0 4.083 1.217t1.395 3.5v6.24H30V24zm-5.378-2.055q1.09 0 1.852-.482.76-.48.76-1.42v-1.75h-2.08q-2.535 0-2.536 1.623v.431q0 .812.508 1.218.533.38 1.496.38"/></svg>