<svg xmlns="http://www.w3.org/2000/svg" width="30" height="30" fill="none"><path fill="#000" d="M0 22.003h1.262L6.706 6.215H9.8l5.445 15.788h1.262v1.485H9.65v-1.485h2.054l-1.287-3.885H4.454l-1.286 3.885H5.22v1.485H0zm4.9-5.444h5.073L7.498 8.888h-.124zM21.685 23.785q-2.004 0-2.97-.965-.964-.966-.964-2.673 0-1.88 1.36-2.846 1.387-.965 4.307-.965h1.756v-1.559q0-1.51-.618-2.276-.619-.792-2.03-.792-1.088 0-1.682.321v.1q.248.147.47.47.248.296.248.84 0 .719-.446 1.189-.42.445-1.262.445-.717 0-1.188-.47-.445-.47-.445-1.237 0-.594.322-1.139.346-.57 1.014-.99.669-.444 1.633-.692.99-.273 2.277-.273 2.475 0 3.712 1.139 1.237 1.113 1.237 3.143v7.473H30v1.237q-.37.248-.99.371a5.4 5.4 0 0 1-1.262.149q-1.237 0-1.782-.594-.544-.618-.544-1.56v-.073h-.124a4.4 4.4 0 0 1-.445.816 3.2 3.2 0 0 1-.693.718q-.42.297-1.04.495-.593.198-1.435.198m1.262-1.98q.99 0 1.609-.47.618-.47.618-1.584v-2.079h-1.41q-1.485 0-2.128.545-.62.52-.619 1.51v.445q0 .84.52 1.237.544.396 1.41.396"/></svg>