<svg xmlns="http://www.w3.org/2000/svg" width="30" height="30" fill="none"><path fill="#000" d="m11.358 23.935-1.277-4.61H4.69l-1.25 4.61H0L5.106 5.752h4.741l5.132 18.183zM7.503 9.113h-.209l-2.006 7.424h4.22zM28.046 23.935q-1.224 0-1.901-.599-.652-.625-.782-1.72h-.13a3.4 3.4 0 0 1-1.433 1.955q-1.069.677-2.631.677-2.032 0-3.23-1.068-1.2-1.068-1.199-2.97 0-4.065 5.966-4.064h2.37v-.886q0-1.275-.625-1.927t-2.032-.652q-1.276 0-2.058.496-.781.495-1.328 1.276l-1.902-1.615q.625-1.12 2.006-1.876 1.407-.78 3.621-.781 2.657 0 4.142 1.25 1.51 1.224 1.51 3.673v6.33H30v2.501zm-5.757-1.98q1.198 0 1.98-.547.808-.573.808-1.537v-1.797h-2.293q-2.735 0-2.735 1.72v.52q0 .808.599 1.225.6.416 1.641.416"/></svg>