<svg xmlns="http://www.w3.org/2000/svg" width="30" height="30" fill="none"><path fill="#000" d="M2.9 1.9a1 1 0 0 0-1 1v4a1 1 0 0 0 2 0v-3h3a1 1 0 1 0 0-2zM11.9 1.9a1 1 0 1 0 0 2h6a1 1 0 1 0 0-2zM10.9 26.9a1 1 0 0 1 1-1h6a1 1 0 1 1 0 2h-6a1 1 0 0 1-1-1M3.9 11.9a1 1 0 1 0-2 0v6a1 1 0 1 0 2 0zM26.9 10.9a1 1 0 0 1 1 1v6a1 1 0 1 1-2 0v-6a1 1 0 0 1 1-1M22.9 1.9a1 1 0 1 0 0 2h3v3a1 1 0 1 0 2 0v-4c0-.552-.45-1-1.002-1zM2.9 21.9a1 1 0 0 1 1 1v3h3a1 1 0 1 1 0 2h-4a1 1 0 0 1-1-1v-4a1 1 0 0 1 1-1M27.9 22.9a1 1 0 1 0-2 0l-.002 3H22.9a1 1 0 1 0 0 2h4a1 1 0 0 0 1-1z"/></svg>