<svg xmlns="http://www.w3.org/2000/svg" width="30" height="30" fill="none"><path fill="#000" d="M18.065 11.068q-.103-1.035-.881-1.608t-2.112-.573q-.907 0-1.53.257-.625.248-.959.692a1.67 1.67 0 0 0-.325 1.01q-.016.47.197.82.222.35.607.607.385.247.89.436.504.18 1.077.308l1.573.376q1.146.257 2.104.684a6.4 6.4 0 0 1 1.659 1.052q.701.625 1.086 1.471.393.846.402 1.941-.01 1.608-.821 2.788-.804 1.17-2.326 1.821-1.514.642-3.651.642-2.12 0-3.694-.65-1.566-.65-2.446-1.924-.872-1.283-.915-3.173h3.583q.06.881.504 1.471.454.582 1.206.88.761.292 1.719.291.94 0 1.633-.273.702-.274 1.086-.761.385-.488.385-1.12 0-.59-.35-.992-.343-.402-1.01-.684-.658-.282-1.616-.514l-1.907-.478q-2.214-.54-3.497-1.685t-1.274-3.087q-.009-1.59.846-2.779.864-1.187 2.369-1.856 1.505-.667 3.42-.667 1.95 0 3.404.667 1.462.668 2.274 1.856t.838 2.754z"/></svg>