<svg id="Layer_15" data-name="Layer 15" xmlns="http://www.w3.org/2000/svg" viewBox="0 0 72.47 60"><defs><style>.cls-1{fill:#d1d9ee;}.cls-2{fill:#25385d;}</style></defs><title>bbb</title><path class="cls-1" d="M57.89,30.67V56A12.83,12.83,0,0,0,57.89,30.67Z"/><path class="cls-1" d="M3.87,42.4A12.78,12.78,0,0,0,14.58,55.06V29.75A12.78,12.78,0,0,0,3.87,42.4Z"/><path class="cls-2" d="M65.43,29.68s0-.07,0-0.12A29.46,29.46,0,0,0,36.17,0,29.43,29.43,0,0,0,6.93,28.85a16.69,16.69,0,0,0,9.59,30.23,1.93,1.93,0,0,0,1.94-1.94V27.67a1.93,1.93,0,0,0-1.94-1.94,16.27,16.27,0,0,0-5.59,1,25.36,25.36,0,0,1,50.55.9,16.27,16.27,0,0,0-5.52-1A1.93,1.93,0,0,0,54,28.59V58.06A1.93,1.93,0,0,0,56,60,16.69,16.69,0,0,0,65.43,29.68ZM14.58,55.06a12.83,12.83,0,0,1,0-25.31V55.06ZM57.89,56V30.67A12.83,12.83,0,0,1,57.89,56Z"/></svg>