<svg id="Layer_15" data-name="Layer 15" xmlns="http://www.w3.org/2000/svg" viewBox="0 0 50.73 70"><defs><style>.cls-1{fill:#d1d9ee;}.cls-2{fill:#25385d;}</style></defs><title>bbb</title><path class="cls-1" d="M25.36,0A13.88,13.88,0,0,0,15.18,4.24a13.88,13.88,0,0,0-4.24,10.19V37.5a13.88,13.88,0,0,0,4.24,10.19,13.89,13.89,0,0,0,10.19,4.24,13.89,13.89,0,0,0,10.19-4.24A13.89,13.89,0,0,0,39.79,37.5V14.42A13.89,13.89,0,0,0,35.55,4.24,13.89,13.89,0,0,0,25.36,0h0Z"/><path class="cls-2" d="M25.36,4.67a9.2,9.2,0,0,1,6.89,2.87,9.19,9.19,0,0,1,2.87,6.89V37.5a9.2,9.2,0,0,1-2.87,6.89,9.2,9.2,0,0,1-6.89,2.87,9.2,9.2,0,0,1-6.89-2.87,9.19,9.19,0,0,1-2.87-6.89V14.42a9.19,9.19,0,0,1,2.87-6.89,9.19,9.19,0,0,1,6.89-2.87m0-4.67A13.88,13.88,0,0,0,15.18,4.24a13.88,13.88,0,0,0-4.24,10.19V37.5a13.88,13.88,0,0,0,4.24,10.19,13.89,13.89,0,0,0,10.19,4.24,13.89,13.89,0,0,0,10.19-4.24A13.89,13.89,0,0,0,39.79,37.5V14.42A13.89,13.89,0,0,0,35.55,4.24,13.89,13.89,0,0,0,25.36,0h0Z"/><path class="cls-2" d="M42.26,65.33H27.7V62.68a24.88,24.88,0,0,0,23-24.77,2.33,2.33,0,1,0-4.67,0,20.22,20.22,0,0,1-20.2,20.2h-1A20.22,20.22,0,0,1,4.67,37.9,2.33,2.33,0,1,0,0,37.9,24.88,24.88,0,0,0,23,62.68v2.66H8.46a2.33,2.33,0,0,0,0,4.67h33.8A2.33,2.33,0,0,0,42.26,65.33Z"/></svg>