<?xml version="1.0" encoding="UTF-8" standalone="no"?>
<svg
        xmlns:dc="http://purl.org/dc/elements/1.1/"
        xmlns:cc="http://creativecommons.org/ns#"
        xmlns:rdf="http://www.w3.org/1999/02/22-rdf-syntax-ns#"
        xmlns:svg="http://www.w3.org/2000/svg"
        xmlns="http://www.w3.org/2000/svg"
        xmlns:sodipodi="http://sodipodi.sourceforge.net/DTD/sodipodi-0.dtd"
        xmlns:inkscape="http://www.inkscape.org/namespaces/inkscape"
        viewBox="0 0 20 20"
        width="30"
        height="30"
        version="1.1"
        id="svg6"
        sodipodi:docname="bbb_translations_icon.svg"
        style="fill:#ffffff"
        inkscape:version="0.92.5 (2060ec1f9f, 2020-04-08)">
    <metadata
            id="metadata12">
        <rdf:RDF>
            <cc:Work
                    rdf:about="">
                <dc:format>image/svg+xml</dc:format>
                <dc:type
                        rdf:resource="http://purl.org/dc/dcmitype/StillImage" />
                <dc:title></dc:title>
            </cc:Work>
        </rdf:RDF>
    </metadata>
    <defs
            id="defs10" />
    <sodipodi:namedview
            pagecolor="#ffffff"
            bordercolor="#666666"
            borderopacity="1"
            objecttolerance="10"
            gridtolerance="10"
            guidetolerance="10"
            inkscape:pageopacity="0"
            inkscape:pageshadow="2"
            inkscape:window-width="843"
            inkscape:window-height="480"
            id="namedview8"
            showgrid="false"
            fit-margin-top="0"
            fit-margin-left="0"
            fit-margin-right="0"
            fit-margin-bottom="0"
            inkscape:zoom="4.6354778"
            inkscape:cx="18.714264"
            inkscape:cy="10.523179"
            inkscape:window-x="0"
            inkscape:window-y="0"
            inkscape:window-maximized="0"
            inkscape:current-layer="svg6" />
    <path
            d="M -2,-2 H 22 V 22 H -2 Z"
            id="path2"
            inkscape:connector-curvature="0"
            style="fill:none" />
    <path
            d="M 9.99,0 C 4.47,0 0,4.48 0,10 0,15.52 4.47,20 9.99,20 15.52,20 20,15.52 20,10 20,4.48 15.52,0 9.99,0 Z m 6.93,6 H 13.97 C 13.65,4.75 13.19,3.55 12.59,2.44 14.43,3.07 15.96,4.35 16.92,6 Z M 10,2.04 c 0.83,1.2 1.48,2.53 1.91,3.96 H 8.09 C 8.52,4.57 9.17,3.24 10,2.04 Z M 2.26,12 C 2.1,11.36 2,10.69 2,10 2,9.31 2.1,8.64 2.26,8 H 5.64 C 5.56,8.66 5.5,9.32 5.5,10 c 0,0.68 0.06,1.34 0.14,2 z m 0.82,2 h 2.95 c 0.32,1.25 0.78,2.45 1.38,3.56 C 5.57,16.93 4.04,15.66 3.08,14 Z M 6.03,6 H 3.08 C 4.04,4.34 5.57,3.07 7.41,2.44 6.81,3.55 6.35,4.75 6.03,6 Z M 10,17.96 C 9.17,16.76 8.52,15.43 8.09,14 h 3.82 C 11.48,15.43 10.83,16.76 10,17.96 Z M 12.34,12 H 7.66 C 7.57,11.34 7.5,10.68 7.5,10 7.5,9.32 7.57,8.65 7.66,8 h 4.68 c 0.09,0.65 0.16,1.32 0.16,2 0,0.68 -0.07,1.34 -0.16,2 z m 0.25,5.56 c 0.6,-1.11 1.06,-2.31 1.38,-3.56 h 2.95 c -0.96,1.65 -2.49,2.93 -4.33,3.56 z M 14.36,12 c 0.08,-0.66 0.14,-1.32 0.14,-2 0,-0.68 -0.06,-1.34 -0.14,-2 h 3.38 C 17.9,8.64 18,9.31 18,10 c 0,0.69 -0.1,1.36 -0.26,2 z"
            id="path4"
            inkscape:connector-curvature="0" />
</svg>
