<?xml version="1.0" encoding="UTF-8" standalone="no"?>
<svg
        xmlns:dc="http://purl.org/dc/elements/1.1/"
        xmlns:cc="http://creativecommons.org/ns#"
        xmlns:rdf="http://www.w3.org/1999/02/22-rdf-syntax-ns#"
        xmlns:svg="http://www.w3.org/2000/svg"
        xmlns="http://www.w3.org/2000/svg"
        xmlns:sodipodi="http://sodipodi.sourceforge.net/DTD/sodipodi-0.dtd"
        xmlns:inkscape="http://www.inkscape.org/namespaces/inkscape"
        viewBox="0 0 22 20"
        width="44"
        height="40"
        version="1.1"
        id="svg6"
        sodipodi:docname="translate-white-48dp.svg"
        style="fill:#ffffff"
        inkscape:version="0.92.5 (2060ec1f9f, 2020-04-08)">
    <metadata
            id="metadata12">
        <rdf:RDF>
            <cc:Work
                    rdf:about="">
                <dc:format>image/svg+xml</dc:format>
                <dc:type
                        rdf:resource="http://purl.org/dc/dcmitype/StillImage" />
                <dc:title></dc:title>
            </cc:Work>
        </rdf:RDF>
    </metadata>
    <defs
            id="defs10" />
    <sodipodi:namedview
            pagecolor="#ffffff"
            bordercolor="#666666"
            borderopacity="1"
            objecttolerance="10"
            gridtolerance="10"
            guidetolerance="10"
            inkscape:pageopacity="0"
            inkscape:pageshadow="2"
            inkscape:window-width="843"
            inkscape:window-height="480"
            id="namedview8"
            showgrid="false"
            fit-margin-top="0"
            fit-margin-left="0"
            fit-margin-right="0"
            fit-margin-bottom="0"
            inkscape:zoom="4.9166667"
            inkscape:cx="1.2542373"
            inkscape:cy="20"
            inkscape:window-x="0"
            inkscape:window-y="0"
            inkscape:window-maximized="0"
            inkscape:current-layer="svg6" />
    <path
            d="M -1,-2 H 23 V 22 H -1 Z"
            id="path2"
            inkscape:connector-curvature="0"
            style="fill:none" />
    <path
            d="M 11.87,13.07 9.33,10.56 9.36,10.53 C 11.1,8.59 12.34,6.36 13.07,4 H 16 V 2 H 9 V 0 H 7 V 2 H 0 V 3.99 H 11.17 C 10.5,5.92 9.44,7.75 8,9.35 7.07,8.32 6.3,7.19 5.69,6 h -2 c 0.73,1.63 1.73,3.17 2.98,4.56 L 1.58,15.58 3,17 8,12 11.11,15.11 Z M 17.5,8 h -2 L 11,20 h 2 l 1.12,-3 h 4.75 L 20,20 h 2 z m -2.62,7 1.62,-4.33 1.62,4.33 z"
            id="path4"
            inkscape:connector-curvature="0" />
</svg>
