<?xml version="1.0" encoding="utf-8"?>
<!-- Generator: Adobe Illustrator 21.0.0, SVG Export Plug-In . SVG Version: 6.00 Build 0)  -->
<svg version="1.1" id="Layer_3" xmlns="http://www.w3.org/2000/svg" xmlns:xlink="http://www.w3.org/1999/xlink" x="0px" y="0px"
	 viewBox="0 0 30 30" style="enable-background:new 0 0 30 30;" xml:space="preserve">
<style type="text/css">
	.st0{fill:#8A9AA7;}
</style>
<title>icon-bbb</title>
<path class="st0" d="M29.1,14.3c0,0-3.7-3.5-3.8-3.6c-0.4-0.3-1-0.2-1.3,0.2c-0.3,0.4-0.2,1,0.2,1.3l2,1.9l-22.4,0l2.2-2
	c0.3-0.3,0.3-0.8,0-1.1c-0.4-0.4-0.9-0.5-1.3-0.2l-3.8,3.6c-0.4,0.3-0.4,0.9,0,1.3c0,0,3.7,3.5,3.8,3.6c0.4,0.3,1,0.2,1.3-0.2
	s0.2-1-0.2-1.3l-2-1.9l22.4,0l-2.2,2c-0.3,0.3-0.3,0.8,0,1.1c0.4,0.4,0.9,0.5,1.3,0.2l3.8-3.6C29.5,15.3,29.5,14.7,29.1,14.3z"/>
</svg>
