<?xml version="1.0" encoding="utf-8"?>
<!-- Generator: Adobe Illustrator 21.0.0, SVG Export Plug-In . SVG Version: 6.00 Build 0)  -->
<svg version="1.1" id="Layer_3" xmlns="http://www.w3.org/2000/svg" xmlns:xlink="http://www.w3.org/1999/xlink" x="0px" y="0px"
	 viewBox="0 0 30 30" style="enable-background:new 0 0 30 30;" xml:space="preserve">
<style type="text/css">
	.st0{fill:#8A9AA7;}
</style>
<title>icon-bbb</title>
<path class="st0" d="M28.3,1.7c-1.8-1.8-4.9-1.5-7.1,0.7L3.6,19.7c-0.1,0.1-0.2,0.2-0.2,0.4l-2.8,8.2c-0.1,0.4,0,0.7,0.3,1
	c0.3,0.2,0.7,0.3,1,0.2l7.8-3.2c0.1,0,0.2-0.1,0.3-0.2L27.6,8.7C29.8,6.5,30.1,3.5,28.3,1.7z M5.8,20.2L21.1,5.1l3.7,3.7L9.5,23.9
	L5.8,20.2z M4.8,21.8L8,24.9l-5,2L4.8,21.8z M26.3,7.4L26.3,7.4l-3.8-3.6l0.1-0.1C24,2.2,25.9,1.9,27,3S27.8,5.9,26.3,7.4z"/>
</svg>
