<?xml version="1.0" encoding="utf-8"?>
<!-- Generator: Adobe Illustrator 21.0.0, SVG Export Plug-In . SVG Version: 6.00 Build 0)  -->
<svg version="1.1" id="Layer_3" xmlns="http://www.w3.org/2000/svg" xmlns:xlink="http://www.w3.org/1999/xlink" x="0px" y="0px"
	 viewBox="0 0 30 30" style="enable-background:new 0 0 30 30;" xml:space="preserve">
<style type="text/css">
	.st0{fill:#8A9AA7;}
</style>
<title>icon-bbb</title>
<path class="st0" d="M25.4,7.1l-6.6-6.6H6.3C5,0.5,3.9,1.6,3.9,2.9v24.2c0,1.3,1.1,2.4,2.4,2.4h17.4c1.3,0,2.4-1.1,2.4-2.4V8.8
	C26.1,8.2,25.8,7.6,25.4,7.1z M19.3,3.5l3.8,3.8h-3.2c-0.4,0-0.6-0.3-0.6-0.6C19.3,6.7,19.3,3.5,19.3,3.5z M23.7,27.7H6.3
	c-0.4,0-0.6-0.3-0.6-0.6V2.9c0-0.3,0.3-0.6,0.6-0.6h11.2v4.4c0,1.3,1.1,2.4,2.4,2.4h4.4v18C24.4,27.4,24.1,27.7,23.7,27.7L23.7,27.7
	z"/>
</svg>
