<?xml version="1.0" encoding="utf-8"?>
<!-- Generator: Adobe Illustrator 21.0.0, SVG Export Plug-In . SVG Version: 6.00 Build 0)  -->
<svg version="1.1" id="Layer_3" xmlns="http://www.w3.org/2000/svg" xmlns:xlink="http://www.w3.org/1999/xlink" x="0px" y="0px"
	 viewBox="0 0 30 30" style="enable-background:new 0 0 30 30;" xml:space="preserve">
<style type="text/css">
	.st0{fill:#8A9AA7;}
</style>
<title>icon-bbb</title>
<path class="st0" d="M4.8,27.5c-1.4,0-2.6-1.2-2.6-2.6v-20c0-1.4,1.2-2.6,2.6-2.6h2.4c0.6,0,1-0.4,1-0.9c0-0.6-0.3-1-0.8-1
	c-0.2,0-2.6,0-2.6,0c-2.5,0-4.5,2-4.5,4.5V25c0,2.5,2,4.5,4.5,4.5h2.4c0.5,0,1-0.4,1-1c0-0.6-0.3-1-0.8-1
	C7.2,27.6,4.8,27.5,4.8,27.5z"/>
<path class="st0" d="M29,15.7l0.7-0.7L29,14.3l0,0l-8.6-8.6c-0.4-0.3-1-0.3-1.3,0.2c-0.3,0.3-0.3,0.8,0,1.2l7,7H7.3
	c-0.5-0.1-1,0.3-1,0.8c-0.1,0.5,0.3,1,0.8,1c0.1,0,0.1,0,0.2,0h18.8l-7,7c-0.4,0.3-0.5,0.9-0.2,1.3s0.9,0.5,1.3,0.2
	c0.1,0,0.1-0.1,0.2-0.2L29,15.7L29,15.7z"/>
</svg>
