<?xml version="1.0" encoding="utf-8"?>
<!-- Generator: Adobe Illustrator 21.0.0, SVG Export Plug-In . SVG Version: 6.00 Build 0)  -->
<svg version="1.1" id="Layer_3" xmlns="http://www.w3.org/2000/svg" xmlns:xlink="http://www.w3.org/1999/xlink" x="0px" y="0px"
	 viewBox="0 0 30 30" style="enable-background:new 0 0 30 30;" xml:space="preserve">
<style type="text/css">
	.st0{fill:#8A9AA7;}
</style>
<title>icon-bbb</title>
<path class="st0" d="M21.3,14.2h-5.6V8.8c0.1-1.3-2-1.3-1.9,0v5.4H8.9c-1.3-0.1-1.3,2,0,1.9h4.9v5.1c-0.1,1.3,2,1.3,1.9,0v-5.1h5.6
	C22.3,16,22.4,14.3,21.3,14.2z"/>
<path class="st0" d="M15,29.4C7.1,29.4,0.6,22.9,0.6,15S7.1,0.6,15,0.6S29.4,7.1,29.4,15S22.9,29.4,15,29.4z M15,2.4
	C8.1,2.4,2.4,8.1,2.4,15c0,6.9,5.7,12.6,12.6,12.6c6.9,0,12.6-5.7,12.6-12.6C27.6,8.1,21.9,2.4,15,2.4z"/>
</svg>
