<?xml version="1.0" encoding="utf-8"?>
<!-- Generator: Adobe Illustrator 21.0.0, SVG Export Plug-In . SVG Version: 6.00 Build 0)  -->
<svg version="1.1" id="Layer_3" xmlns="http://www.w3.org/2000/svg" xmlns:xlink="http://www.w3.org/1999/xlink" x="0px" y="0px"
	 viewBox="0 0 30 30" style="enable-background:new 0 0 30 30;" xml:space="preserve">
<style type="text/css">
	.st0{fill:#8A9AA7;}
</style>
<path class="st0" d="M2.3,26.2v-3.6c-0.1-0.5-0.5-0.9-1-0.8c-0.4,0-0.8,0.4-0.8,0.8v5.9c0,0.5,0.4,0.9,0.9,0.9l0,0h5.9
	c0.5,0.1,1-0.3,1-0.8c0.1-0.5-0.3-1-0.8-1c-0.1,0-0.1,0-0.2,0H3.6l7.8-7.8c0.4-0.4,0.4-0.9,0.1-1.3c-0.3-0.4-0.9-0.4-1.3-0.1
	C10.1,18.5,2.3,26.2,2.3,26.2z"/>
<path class="st0" d="M3.7,2.3h3.6c0.5-0.1,0.9-0.5,0.8-1c0-0.4-0.4-0.8-0.8-0.8H1.4c-0.5,0-0.9,0.4-0.9,0.9l0,0v5.9
	c0.1,0.5,0.5,0.9,1,0.8c0.4,0,0.8-0.4,0.8-0.8V3.6l7.8,7.8c0.4,0.3,0.9,0.2,1.3-0.2c0.3-0.4,0.4-0.8,0-1.2L3.7,2.3z"/>
<path class="st0" d="M28.5,21.9c-0.5,0-0.9,0.4-0.9,0.9l0,0v3.6l-7.8-7.8c-0.3-0.4-1-0.5-1.4-0.2c-0.4,0.4-0.5,0.9-0.1,1.3
	c0.1,0.1,8,8,8,8h-3.6c-0.5,0.1-0.9,0.5-0.8,1c0,0.4,0.4,0.8,0.8,0.8h5.9c0.5,0,0.9-0.4,0.9-0.9l0,0v-5.9
	C29.4,22.3,29,21.9,28.5,21.9L28.5,21.9z"/>
<path class="st0" d="M18.6,10c-0.4,0.4-0.3,0.8,0,1.2c0.4,0.4,0.9,0.5,1.3,0.2l7.8-7.8v3.7c0,0.4,0.4,0.8,0.8,0.8
	c0.5,0.1,0.9-0.3,1-0.8V1.4l0,0c0-0.5-0.4-0.9-0.9-0.9h-5.9c-0.4,0-0.8,0.4-0.8,0.8c-0.1,0.5,0.3,0.9,0.8,1h3.6L18.6,10z"/>
</svg>
