<?xml version="1.0" encoding="utf-8"?>
<!-- Generator: Adobe Illustrator 21.0.0, SVG Export Plug-In . SVG Version: 6.00 Build 0)  -->
<svg version="1.1" id="Layer_3" xmlns="http://www.w3.org/2000/svg" xmlns:xlink="http://www.w3.org/1999/xlink" x="0px" y="0px"
	 viewBox="0 0 30 30" style="enable-background:new 0 0 30 30;" xml:space="preserve">
<style type="text/css">
	.st0{fill:#8A9AA7;}
</style>
<path class="st0" d="M15,2c1.1,0,2.2,0.4,3,1.2s1.3,1.9,1.2,3v9.9c0,1.1-0.4,2.1-1.2,2.9c-0.8,0.8-1.9,1.3-3,1.2
	c-1.1,0-2.2-0.4-3-1.2c-0.8-0.8-1.3-1.9-1.2-3V6.2c0-1.1,0.4-2.2,1.2-3S13.9,1.9,15,2 M15,0c-1.6,0-3.2,0.6-4.4,1.8
	C9.5,3,8.8,4.5,8.8,6.2v9.9c0,3.4,2.8,6.2,6.2,6.2s6.2-2.8,6.2-6.2V6.2c0-1.6-0.6-3.2-1.8-4.4C18.2,0.6,16.6,0,15,0L15,0z"/>
<path class="st0" d="M22.2,28H16v-1.1c5.6-0.4,9.9-5,9.9-10.6c0-0.6-0.4-1-1-1s-1,0.4-1,1c0,4.8-3.9,8.7-8.7,8.7h-0.4
	c-4.8,0-8.7-3.9-8.7-8.7c0-0.6-0.4-1-1-1s-1,0.4-1,1c0,5.6,4.3,10.2,9.9,10.6V28H7.8c-0.6,0-1,0.4-1,1s0.4,1,1,1h14.5
	c0.6,0,1-0.4,1-1S22.8,28,22.2,28z"/>
</svg>
