<?xml version="1.0" encoding="utf-8"?>
<!-- Generator: Adobe Illustrator 21.0.0, SVG Export Plug-In . SVG Version: 6.00 Build 0)  -->
<svg version="1.1" id="Layer_3" xmlns="http://www.w3.org/2000/svg" xmlns:xlink="http://www.w3.org/1999/xlink" x="0px" y="0px"
	 viewBox="0 0 30 30" style="enable-background:new 0 0 30 30;" xml:space="preserve">
<style type="text/css">
	.st0{fill:#8A9AA7;}
</style>
<title>icon-bbb</title>
<path class="st0" d="M29.4,13.7c0-0.4-0.3-0.7-0.6-0.8l-3.7-1.3c-0.1-0.4-0.3-0.9-0.5-1.3l1.7-3.5c0.2-0.3,0.1-0.7-0.1-1
	c-0.6-0.7-1.2-1.3-1.9-1.9c-0.3-0.2-0.7-0.3-1-0.1l-3.5,1.7c-0.4-0.2-0.8-0.4-1.3-0.5l-1.3-3.7c-0.1-0.3-0.4-0.6-0.8-0.6
	c-0.9-0.1-1.8-0.1-2.7,0c-0.4,0-0.7,0.3-0.8,0.6l-1.3,3.7c-0.4,0.1-0.9,0.3-1.3,0.5L6.7,3.7C6.4,3.6,6,3.6,5.7,3.8
	C5,4.4,4.4,5.1,3.8,5.8C3.6,6,3.6,6.4,3.7,6.8l1.7,3.5c-0.2,0.4-0.4,0.8-0.5,1.3l-3.7,1.3c-0.3,0.1-0.6,0.4-0.6,0.8
	c0,0.4-0.1,0.9-0.1,1.3s0,0.9,0.1,1.3c0,0.4,0.3,0.7,0.6,0.8l3.7,1.3c0.1,0.4,0.3,0.9,0.5,1.3l-1.7,3.5c-0.2,0.3-0.1,0.7,0.1,1
	c0.6,0.7,1.2,1.3,1.9,1.9c0.3,0.2,0.7,0.3,1,0.1l3.5-1.7c0.4,0.2,0.8,0.4,1.3,0.5l1.3,3.7c0.1,0.3,0.4,0.6,0.8,0.6
	c0.4,0,0.9,0.1,1.3,0.1s0.9,0,1.3-0.1c0.4,0,0.7-0.3,0.8-0.6l1.3-3.7c0.4-0.1,0.9-0.3,1.3-0.5l3.5,1.7c0.3,0.2,0.7,0.1,1-0.1
	c0.7-0.6,1.3-1.2,1.9-1.9c0.2-0.3,0.3-0.7,0.1-1l-1.7-3.5c0.2-0.4,0.4-0.8,0.5-1.3l3.7-1.3c0.3-0.1,0.6-0.4,0.6-0.8
	c0-0.4,0.1-0.9,0.1-1.3S29.5,14.1,29.4,13.7z M27.6,15.6l-3.6,1.3c-0.3,0.1-0.5,0.3-0.6,0.6c-0.2,0.6-0.4,1.2-0.7,1.8
	c-0.1,0.3-0.1,0.6,0,0.9l1.6,3.4c-0.3,0.3-0.5,0.6-0.8,0.8l-3.4-1.6c-0.3-0.1-0.6-0.1-0.9,0c-0.6,0.3-1.2,0.6-1.8,0.7
	c-0.3,0.1-0.5,0.3-0.6,0.6l-1.3,3.6c-0.4,0-0.8,0-1.2,0L13.1,24c-0.1-0.3-0.3-0.5-0.6-0.6c-0.6-0.2-1.2-0.4-1.8-0.7
	c-0.3-0.1-0.6-0.1-0.9,0l-3.4,1.6c-0.3-0.3-0.6-0.5-0.8-0.8l1.6-3.4c0.1-0.3,0.1-0.6,0-0.9c-0.3-0.6-0.6-1.2-0.7-1.8
	C6.5,17.2,6.3,17,6,16.8l-3.6-1.3c0-0.2,0-0.4,0-0.6s0-0.4,0-0.6l3.6-1.3c0.3-0.1,0.5-0.3,0.6-0.6c0.2-0.6,0.4-1.2,0.7-1.8
	c0.1-0.3,0.1-0.6,0-0.9L5.7,6.5c0.3-0.3,0.5-0.6,0.8-0.8l3.4,1.6c0.3,0.1,0.6,0.1,0.9,0c0.6-0.3,1.2-0.6,1.8-0.7
	C12.8,6.5,13,6.3,13.1,6l1.3-3.6c0.4,0,0.8,0,1.2,0L16.9,6c0.1,0.3,0.3,0.5,0.6,0.6c0.6,0.2,1.2,0.4,1.8,0.7c0.3,0.1,0.6,0.1,0.9,0
	l3.4-1.6c0.3,0.3,0.6,0.5,0.8,0.8l-1.6,3.4c-0.1,0.3-0.1,0.6,0,0.9c0.3,0.6,0.6,1.2,0.7,1.8c0.1,0.3,0.3,0.5,0.6,0.6l3.6,1.3
	c0,0.2,0,0.4,0,0.6C27.6,15.2,27.6,15.4,27.6,15.6z"/>
<path class="st0" d="M15,8.3c-3.7,0-6.7,3-6.7,6.7s3,6.7,6.7,6.7c3.7,0,6.7-3,6.7-6.7C21.7,11.3,18.7,8.3,15,8.3z M15,19.9
	c-2.7,0-4.8-2.2-4.8-4.9s2.2-4.8,4.9-4.8s4.8,2.2,4.8,4.8C19.8,17.7,17.7,19.8,15,19.9z"/>
</svg>
