<?xml version="1.0" encoding="utf-8"?>
<!-- Generator: Adobe Illustrator 21.0.0, SVG Export Plug-In . SVG Version: 6.00 Build 0)  -->
<svg version="1.1" id="Layer_4" xmlns="http://www.w3.org/2000/svg" xmlns:xlink="http://www.w3.org/1999/xlink" x="0px" y="0px"
	 viewBox="0 0 30 30" style="enable-background:new 0 0 30 30;" xml:space="preserve">
<style type="text/css">
	.st0{fill:#8A9AA7;}
</style>
<title>icon-bbb</title>
<path class="st0" d="M26.3,15l3-3c0.3-0.3,0.2-0.9-0.1-1.1c-0.3-0.2-0.7-0.2-1,0l-3,3l-3-3c-0.3-0.3-0.8-0.3-1.1,0
	c-0.3,0.3-0.3,0.8,0,1.1l3,3l-3,3c-0.3,0.3-0.4,0.8-0.1,1.1c0.3,0.3,0.8,0.4,1.1,0.1l3.1-3.1l3,3c0.4,0.3,0.9,0.2,1.1-0.2
	c0.2-0.3,0.2-0.7,0-0.9L26.3,15z"/>
<path class="st0" d="M16.4,28.3c-0.2,0-0.4-0.1-0.6-0.2l-8.5-8.5H3.2c-1.5,0-2.7-1.2-2.7-2.7l0,0v-3.8c0-1.5,1.2-2.7,2.7-2.7h4.1
	l8.5-8.5c0.3-0.3,0.8-0.3,1.1,0c0.1,0.2,0.2,0.4,0.2,0.6v25.1C17.2,27.9,16.8,28.3,16.4,28.3z M3.2,11.9c-0.6,0-1.1,0.4-1.1,1v3.8
	c-0.1,0.6,0.4,1.1,1,1.2h0.1h4.4c0.2,0,0.4,0.1,0.6,0.2l7.4,7.4V4.3l-7.4,7.4c-0.2,0.2-0.4,0.2-0.6,0.2H3.2L3.2,11.9z"/>
</svg>
