<?xml version="1.0" encoding="utf-8"?>
<!-- Generator: Adobe Illustrator 21.0.0, SVG Export Plug-In . SVG Version: 6.00 Build 0)  -->
<svg version="1.1" id="Layer_3" xmlns="http://www.w3.org/2000/svg" xmlns:xlink="http://www.w3.org/1999/xlink" x="0px" y="0px"
	 viewBox="0 0 30 30" style="enable-background:new 0 0 30 30;" xml:space="preserve">
<style type="text/css">
	.st0{fill:#8A9AA7;}
</style>
<title>icon-bbb</title>
<path class="st0" d="M22.6,23.4c-0.5,0.2-1,0.1-1.3-0.3c-1.3-2.3-3.8-3.7-6.4-3.8c-2.6,0-5.1,1.5-6.3,3.8c-0.4,0.4-1,0.4-1.4,0
	c-0.2-0.2-0.3-0.6-0.3-0.9c1.6-2.9,4.7-4.8,8-4.8c3.3,0.1,6.4,1.9,8.1,4.8C23.2,22.5,23.1,23.1,22.6,23.4z"/>
<path class="st0" d="M15,0.5C7,0.5,0.5,7,0.5,15S7,29.5,15,29.5S29.5,23,29.5,15C29.5,7,23,0.5,15,0.5z M15,27.6
	C8,27.6,2.4,22,2.4,15S8,2.4,15,2.4S27.6,8,27.6,15l0,0C27.6,22,22,27.6,15,27.6z"/>
<circle class="st0" cx="10.5" cy="11.4" r="1.9"/>
<circle class="st0" cx="19.2" cy="11.4" r="1.9"/>
</svg>
