<?xml version="1.0" encoding="utf-8"?>
<!-- Generator: Adobe Illustrator 21.0.0, SVG Export Plug-In . SVG Version: 6.00 Build 0)  -->
<svg version="1.1" id="Layer_3" xmlns="http://www.w3.org/2000/svg" xmlns:xlink="http://www.w3.org/1999/xlink" x="0px" y="0px"
	 viewBox="0 0 30 30" style="enable-background:new 0 0 30 30;" xml:space="preserve">
<style type="text/css">
	.st0{fill:#8A9AA7;}
</style>
<title>icon-bbb</title>
<path class="st0" d="M16.3,14.9l3.8-3.8c0.7-0.8-0.5-2-1.3-1.3L15,13.6l-3.5-3.5c-0.8-0.7-2,0.5-1.3,1.3l3.4,3.4L10,18.5
	c-1.1,0.8,0.5,2.4,1.3,1.3l3.6-3.6l4,4c0.8,0.7,2-0.5,1.3-1.3L16.3,14.9z"/>
<path class="st0" d="M15,29.4C7.1,29.4,0.6,22.9,0.6,15S7.1,0.6,15,0.6S29.4,7.1,29.4,15S22.9,29.4,15,29.4z M15,2.4
	C8.1,2.4,2.4,8.1,2.4,15c0,6.9,5.7,12.6,12.6,12.6c6.9,0,12.6-5.7,12.6-12.6C27.6,8.1,21.9,2.4,15,2.4z"/>
</svg>
