<?xml version="1.0" encoding="utf-8"?>
<!-- Generator: Adobe Illustrator 21.0.0, SVG Export Plug-In . SVG Version: 6.00 Build 0)  -->
<svg version="1.1" id="Layer_1" xmlns="http://www.w3.org/2000/svg" xmlns:xlink="http://www.w3.org/1999/xlink" x="0px" y="0px"
	 viewBox="0 0 30 30" style="enable-background:new 0 0 30 30;" xml:space="preserve">
<style type="text/css">
	.st0{fill:#8A9AA7;}
</style>
<title>icon-bbb</title>
<path class="st0" d="M25.2,5.6C24,2.5,21,0.4,17.7,0.5H8.3c-1.6,0-3,1.4-3,3c0,0.6,0.3,1.3,0.7,1.8C5.1,5.8,4.6,6.7,4.6,7.7
	c0,0.7,0.2,1.3,0.7,1.8C4.4,10.1,3.9,11,3.9,12s0.6,2,1.4,2.5c-0.1,0.2-0.2,0.4-0.3,0.6c-0.5,1.1-0.2,2.3,0.6,3.1
	c0.7,0.7,1.6,1,2.5,1h6.1c-0.7,2.2-1.2,4.6-1.4,6.9c-0.1,0.9,0.2,1.8,0.7,2.5c0.4,0.5,1.1,0.8,1.7,0.8c1.6,0.1,3.1-1.1,3.3-2.7
	c0.6-2.1,1.9-5.7,2.7-6.5c1.1-1.2,1.6-1.8,1.8-2l0.2-0.2C26,15.4,26.9,9.7,25.2,5.6z M22,16.9L22,16.9c-0.4,0.3-0.9,1-2,2.2
	c-1.2,1.4-2.9,6.6-3,7.2c-0.4,1.5-1,1.5-1.5,1.4c-0.3,0-0.4-0.1-0.6-0.2c-0.3-0.2-0.3-0.8-0.3-1.2c0.2-2.5,0.8-4.9,1.6-7.2
	c0.4-0.4,0.3-1.1-0.1-1.4c-0.2-0.2-0.5-0.2-0.7-0.2H8.2c-0.5,0-0.9-0.1-1.3-0.4c-0.3-0.3-0.4-0.8-0.3-1.2C6.8,15.4,7.3,15,7.8,15
	s0.9-0.4,0.9-0.9s-0.4-0.9-0.9-0.9l0,0c-0.2,0-0.8,0-0.9,0c-0.7,0-1.2-0.6-1.3-1.2c0-0.7,0.6-1.2,1.2-1.2c0.1,0,0.2,0,0.2,0
	c0.1,0,0.3,0,0.4,0c0.5,0,0.9-0.4,0.9-0.9S8.1,9,7.6,9C6.9,9,6.4,8.4,6.3,7.7c0-0.7,0.6-1.2,1.2-1.2c0.1,0,0.6,0,0.8,0
	c0.5,0,0.9-0.4,0.9-0.9S8.8,4.7,8.3,4.7c-0.7,0-1.2-0.6-1.2-1.2c0-0.7,0.6-1.2,1.2-1.2h9.3c2.6-0.1,5,1.5,5.9,4
	C25,9.7,24.3,14.6,22,16.9z"/>
</svg>
