<?xml version="1.0" encoding="utf-8"?>
<!-- Generator: Adobe Illustrator 21.0.0, SVG Export Plug-In . SVG Version: 6.00 Build 0)  -->
<svg version="1.1" id="Layer_3" xmlns="http://www.w3.org/2000/svg" xmlns:xlink="http://www.w3.org/1999/xlink" x="0px" y="0px"
	 viewBox="0 0 30 30" style="enable-background:new 0 0 30 30;" xml:space="preserve">
<style type="text/css">
	.st0{fill:#8A9AA7;}
</style>
<title>icon-bbb</title>
<path class="st0" d="M27.1,2H2.9C1.6,2,0.5,3.1,0.5,4.4l0,0v17.5c0,1.3,1.1,2.4,2.4,2.4l0,0h7.9v2.1H8.2c-0.5,0-0.8,0.4-0.8,0.8
	S7.7,28,8.2,28h13.7c0.5,0,0.8-0.4,0.8-0.8s-0.4-0.8-0.8-0.8h-2.6v-2.1h7.9c1.3,0,2.4-1.1,2.4-2.4l0,0V4.4C29.5,3.1,28.5,2,27.1,2
	L27.1,2z M17.6,26.3h-5.2v-2.1h5.2C17.6,24.2,17.6,26.3,17.6,26.3z M27.8,21.8c0,0.4-0.3,0.7-0.7,0.7l0,0H2.9
	c-0.4,0-0.7-0.3-0.7-0.7l0,0V4.4c0-0.4,0.3-0.7,0.7-0.7l0,0h24.3c0.4,0,0.7,0.3,0.7,0.7l0,0L27.8,21.8L27.8,21.8z"/>
</svg>
