<?xml version="1.0" encoding="utf-8"?>
<!-- Generator: Adobe Illustrator 21.0.0, SVG Export Plug-In . SVG Version: 6.00 Build 0)  -->
<svg version="1.1" id="Layer_3" xmlns="http://www.w3.org/2000/svg" xmlns:xlink="http://www.w3.org/1999/xlink" x="0px" y="0px"
	 viewBox="0 0 30 30" style="enable-background:new 0 0 30 30;" xml:space="preserve">
<style type="text/css">
	.st0{fill:#8A9AA7;}
</style>
<title>icon-bbb</title>
<path class="st0" d="M15,0.5C7,0.5,0.5,7,0.5,15S7,29.5,15,29.5S29.5,23,29.5,15S23,0.5,15,0.5z M15,27.5C8.1,27.5,2.5,21.9,2.5,15
	S8.1,2.5,15,2.5S27.5,8.1,27.5,15S21.9,27.5,15,27.5L15,27.5z"/>
<circle class="st0" cx="10.5" cy="11.4" r="1.9"/>
<circle class="st0" cx="19.2" cy="11.4" r="1.9"/>
<path class="st0" d="M22.5,20.7c-1,1.2-2.4,1.9-3.9,1.9h-0.2c-1.6-0.2-3-0.8-4.3-1.8l0,0c-0.7-0.4-1.4-0.6-2.2-0.6
	c-1.1,0.1-2.2,0.6-3,1.3c-0.4,0.3-1,0.3-1.3,0c-0.3-0.4-0.3-1,0-1.3c1.2-1.1,2.7-1.7,4.3-1.8c1.6,0.1,3.1,0.6,4.4,1.6
	c0.7,0.4,1.5,0.7,2.3,0.8c1,0,1.9-0.5,2.5-1.3c0.2-0.2,0.4-0.3,0.6-0.4c0.3,0,0.5,0,0.7,0.2C22.8,19.7,22.8,20.3,22.5,20.7
	L22.5,20.7z"/>
</svg>
