<?xml version="1.0" encoding="utf-8"?>
<!-- Generator: Adobe Illustrator 21.0.0, SVG Export Plug-In . SVG Version: 6.00 Build 0)  -->
<svg version="1.1" id="Layer_3" xmlns="http://www.w3.org/2000/svg" xmlns:xlink="http://www.w3.org/1999/xlink" x="0px" y="0px"
	 viewBox="0 0 30 30" style="enable-background:new 0 0 30 30;" xml:space="preserve">
<style type="text/css">
	.st0{fill:#8A9AA7;}
</style>
<title>icon-bbb</title>
<path class="st0" d="M25.5,12.8H24V8.9c0-4.6-4-8.4-9-8.4S6,4.3,6,8.9v3.8H4.5c-1,0-1.8,0.7-1.8,1.7c0,0,0,0,0,0v13.3
	c0,1,0.9,1.8,1.8,1.7c0,0,0,0,0,0h20.9c1,0,1.8-0.7,1.8-1.7c0,0,0,0,0,0V14.5C27.3,13.5,26.4,12.7,25.5,12.8
	C25.5,12.7,25.5,12.7,25.5,12.8z M8,8.9c0.1-3.7,3.3-6.7,7-6.6c3.7-0.1,6.9,2.8,7,6.6v3.8H8V8.9z M25.3,27.6H4.7v-13h20.6V27.6z"/>
</svg>
