<?xml version="1.0" encoding="utf-8"?>
<!-- Generator: Adobe Illustrator 21.0.0, SVG Export Plug-In . SVG Version: 6.00 Build 0)  -->
<svg version="1.1" id="Layer_3" xmlns="http://www.w3.org/2000/svg" xmlns:xlink="http://www.w3.org/1999/xlink" x="0px" y="0px"
	 viewBox="0 0 30 30" style="enable-background:new 0 0 30 30;" xml:space="preserve">
<style type="text/css">
	.st0{fill:#8A9AA7;}
</style>
<title>icon-bbb</title>
<path class="st0" d="M28.5,0.5H1.5c-0.6,0-1,0.4-1,1V21c0,0.6,0.4,1,1,1h11l-6.5,5.8c-0.5,0.3-0.7,0.9-0.4,1.3
	c0.3,0.5,0.9,0.7,1.3,0.4c0.2-0.1,0.3-0.2,0.4-0.3l6.8-6.1v5.4c-0.1,0.5,0.2,1.1,0.7,1.2c0.5,0.1,1.1-0.2,1.2-0.7c0-0.2,0-0.4,0-0.5
	v-5.4l6.8,6.1c0.3,0.5,0.9,0.6,1.4,0.3c0.5-0.3,0.6-0.9,0.3-1.4c-0.1-0.1-0.2-0.3-0.4-0.3l-6.5-5.9h11c0.6,0,1-0.4,1-1V1.5
	C29.5,0.9,29.1,0.5,28.5,0.5z M27.6,20H2.4V7.5h25.1V20z M2.4,5.5V2.4h25.1v3.1L2.4,5.5L2.4,5.5z"/>
</svg>
