<?xml version="1.0" encoding="utf-8"?>
<!-- Generator: Adobe Illustrator 21.0.0, SVG Export Plug-In . SVG Version: 6.00 Build 0)  -->
<svg version="1.1" id="Layer_3" xmlns="http://www.w3.org/2000/svg" xmlns:xlink="http://www.w3.org/1999/xlink" x="0px" y="0px"
	 viewBox="0 0 20 30" style="enable-background:new 0 0 20 30;" xml:space="preserve">
<style type="text/css">
	.st0{fill:#8A9AA7;}
</style>
<title>icon-bbb</title>
<path class="st0" d="M19.3,9.3l-8.4-8.4c-0.4-0.5-1.2-0.5-1.6,0c0,0,0,0,0,0L0.8,9.3c-0.5,0.5-0.5,1.2,0,1.6s1.2,0.5,1.6,0l0,0
	l6.5-6.5v23.9c0,0.6,0.5,1.1,1.1,1.1c0.6,0,1.2-0.5,1.2-1.1V4.4l6.5,6.5c0.5,0.5,1.2,0.5,1.6,0S19.7,9.7,19.3,9.3z"/>
</svg>
