<?xml version="1.0" encoding="utf-8"?>
<!-- Generator: Adobe Illustrator 21.0.0, SVG Export Plug-In . SVG Version: 6.00 Build 0)  -->
<svg version="1.1" id="Layer_3" xmlns="http://www.w3.org/2000/svg" xmlns:xlink="http://www.w3.org/1999/xlink" x="0px" y="0px"
	 viewBox="0 0 30 30" style="enable-background:new 0 0 30 30;" xml:space="preserve">
<style type="text/css">
	.st0{fill:#8A9AA7;}
</style>
<title>icon-bbb</title>
<path class="st0" d="M15,2.4c7.2,0,13,4.5,13,10s-5.8,9.9-13,10h-0.2c-0.6,0-1.2-0.1-1.8-0.2c-0.3-0.1-0.6-0.1-0.9-0.1
	c-0.5,0-1.1,0.2-1.5,0.5l-3.4,2.6L7.9,23L8,22.5c0-0.9-0.5-1.8-1.2-2.3c-3-1.9-4.8-4.7-4.8-7.7C2,6.9,7.8,2.4,15,2.4 M15,0.4
	c-8.3,0-15,5.4-15,12c0,3.8,2.2,7.2,5.7,9.4C5.9,22,6,22.2,6,22.5l-2,6.4c0,0.4,0.3,0.7,0.7,0.7l0,0c0.2,0,0.4-0.1,0.5-0.2l6.8-5
	l0.1-0.1c0.9,0.2,1.8,0.3,2.7,0.3H15c8.3-0.1,15-5.4,15-12S23.3,0.4,15,0.4L15,0.4L15,0.4z"/>
</svg>
