<?xml version="1.0" encoding="utf-8"?>
<!-- Generator: Adobe Illustrator 21.0.0, SVG Export Plug-In . SVG Version: 6.00 Build 0)  -->
<svg version="1.1" id="Layer_3" xmlns="http://www.w3.org/2000/svg" xmlns:xlink="http://www.w3.org/1999/xlink" x="0px" y="0px"
	 viewBox="0 0 30 30" style="enable-background:new 0 0 30 30;" xml:space="preserve">
<style type="text/css">
	.st0{fill:#8A9AA7;}
</style>
<title>icon-bbb</title>
<path class="st0" d="M20.2,9.9L13.1,18l-3.3-2.9c-0.9-1-2.3,0.6-1.2,1.4l4,3.5c0.4,0.3,1,0.3,1.3-0.1l0,0l7.8-8.8
	C22.1,10.2,21,9.3,20.2,9.9z"/>
<path class="st0" d="M15,29.4C7.1,29.4,0.6,22.9,0.6,15S7.1,0.6,15,0.6S29.4,7.1,29.4,15S22.9,29.4,15,29.4z M15,2.4
	C8.1,2.4,2.4,8.1,2.4,15c0,6.9,5.7,12.6,12.6,12.6c6.9,0,12.6-5.7,12.6-12.6C27.6,8.1,21.9,2.4,15,2.4z"/>
</svg>
