<?xml version="1.0" encoding="utf-8"?>
<!-- Generator: Adobe Illustrator 21.0.0, SVG Export Plug-In . SVG Version: 6.00 Build 0)  -->
<svg version="1.1" id="Layer_3" xmlns="http://www.w3.org/2000/svg" xmlns:xlink="http://www.w3.org/1999/xlink" x="0px" y="0px"
	 viewBox="0 0 30 30" style="enable-background:new 0 0 30 30;" xml:space="preserve">
<style type="text/css">
	.st0{fill:#8A9AA7;}
</style>
<title>icon-bbb</title>
<path class="st0" d="M28,28l-0.1-0.4l-0.6-2.1c1.4-0.9,2.2-2.5,2.3-4.2c0-2.6-2.1-4.8-5.1-5.4h-0.1l-1.1,1.5l0.6,0.1
	c2.4,0.4,4.1,2,4.1,3.9c-0.1,1.3-0.8,2.4-1.9,3.1c-0.3,0.2-0.5,0.5-0.5,0.9l0.3,1.1l-1.3-1c-0.3-0.2-0.7-0.3-1-0.2
	c-0.3,0-0.5,0.1-0.8,0.1c-2.9,0-5.2-1.8-5.2-4c0-0.1,0-0.1,0-0.2s0-0.1,0-0.2v-0.2L16,21.2v0.2c0,3.1,3,5.5,6.8,5.6
	c0.3,0,0.7,0,1-0.1l2.5,1.8l0.3,0.3l0,0c0.2,0.2,0.5,0.4,0.8,0.4c0.2,0,0.3-0.1,0.5-0.1C28.1,29,28.2,28.5,28,28L28,28z"/>
<path class="st0" d="M12.2,0.5C5.7,0.5,0.5,4.7,0.5,9.9c0.1,3,1.8,5.8,4.4,7.3c0.1,0.1,0.2,0.3,0.2,0.4l-1.6,5
	c0,0.3,0.2,0.5,0.5,0.5l0,0c0.1,0,0.3-0.1,0.4-0.2l5.3-4h0.1c0.7,0.1,1.4,0.2,2.1,0.2H12c6.4-0.1,11.7-4.2,11.7-9.3
	S18.6,0.5,12.2,0.5z M10.7,17c-0.3,0-0.5,0-0.8,0c-0.5,0-1,0.2-1.4,0.5l-1.6,1.1l0.2-0.5l0.1-0.6c0-0.9-0.4-1.7-1.2-2.1
	c-2.1-1.1-3.4-3.3-3.5-5.6c0-4,4.3-7.3,9.7-7.3s9.7,3.3,9.7,7.3s-4.4,7.3-9.7,7.3C12.2,17.1,11.1,17,10.7,17z"/>
</svg>
