<?xml version="1.0" encoding="utf-8"?>
<!-- Generator: Adobe Illustrator 21.0.0, SVG Export Plug-In . SVG Version: 6.00 Build 0)  -->
<svg version="1.1" id="Layer_3" xmlns="http://www.w3.org/2000/svg" xmlns:xlink="http://www.w3.org/1999/xlink" x="0px" y="0px"
	 viewBox="0 0 30 30" style="enable-background:new 0 0 30 30;" xml:space="preserve">
<style type="text/css">
	.st0{fill:#8A9AA7;}
</style>
<title>icon-bbb</title>
<path class="st0" d="M1.4,23.6c-0.5,0-0.9-0.4-0.9-0.9c0,0,0-15.4,0-15.4c0-0.5,0.4-0.9,0.9-0.9c0,0,18.3,0,18.3,0
	c0.5,0,0.9,0.4,0.9,0.9c0,0,0,15.4,0,15.4c0,0.5-0.4,0.9-0.9,0.9C19.7,23.6,1.4,23.6,1.4,23.6z M2.4,21.8h16.4V8.2H2.4V21.8z"/>
<path class="st0" d="M28.6,21.8c-0.1,0-0.3,0-0.4-0.1l-6.9-3.1c-0.3-0.2-0.6-0.5-0.6-0.9v-4.9c0-0.4,0.2-0.7,0.6-0.8l6.9-3.1
	c0.5-0.2,1,0,1.2,0.5c0.1,0.1,0.1,0.2,0.1,0.4v11.1C29.5,21.4,29.1,21.8,28.6,21.8C28.6,21.8,28.6,21.8,28.6,21.8z M22.6,17.2
	l5.1,2.3v-8.2l-5.1,2.3V17.2L22.6,17.2z"/>
</svg>
