<?xml version="1.0" encoding="utf-8"?>
<!-- Generator: Adobe Illustrator 21.0.0, SVG Export Plug-In . SVG Version: 6.00 Build 0)  -->
<svg version="1.1" id="Layer_3" xmlns="http://www.w3.org/2000/svg" xmlns:xlink="http://www.w3.org/1999/xlink" x="0px" y="0px"
	 viewBox="0 0 30 30" style="enable-background:new 0 0 30 30;" xml:space="preserve">
<style type="text/css">
	.st0{fill:#8A9AA7;}
</style>
<title>icon-bbb</title>
<path class="st0" d="M17.4,25L16,26.4v-7.2c0-0.5-0.4-0.8-0.9-0.8c-0.5,0-0.9,0.3-0.9,0.8v7.2L12.8,25c-0.3-0.4-0.9-0.5-1.3-0.2
	s-0.5,0.9-0.2,1.3c0.1,0.1,3.1,3.2,3.1,3.2c0.4,0.4,1,0.4,1.3,0l3-3c0.3-0.4,0.2-0.9-0.2-1.3C18.2,24.7,17.7,24.7,17.4,25z"/>
<path class="st0" d="M18.5,5.1c0.4-0.4,0.5-0.9,0.2-1.3l-3-3c-0.3-0.4-0.9-0.4-1.3,0c0,0-3,3.1-3.1,3.2c-0.3,0.4-0.2,1,0.2,1.3
	s1,0.2,1.3-0.2l1.4-1.4v7.2c0,0.5,0.4,0.8,0.9,0.8c0.5,0,0.9-0.3,0.9-0.8V3.7l1.4,1.4C17.7,5.4,18.2,5.4,18.5,5.1z"/>
<path class="st0" d="M24.8,18.5c0.4,0.4,0.9,0.5,1.3,0.2l3-3c0.4-0.3,0.4-0.9,0-1.3c0,0-3.1-3-3.2-3.1c-0.4-0.3-1-0.2-1.3,0.2
	s-0.2,1,0.2,1.3l1.4,1.4H19c-0.5,0-0.8,0.4-0.8,0.9c0,0.5,0.3,0.9,0.8,0.9h7.2l-1.4,1.4C24.5,17.7,24.5,18.2,24.8,18.5z"/>
<path class="st0" d="M5.2,11.5c-0.4-0.4-0.9-0.5-1.3-0.2l-3,3c-0.4,0.3-0.4,0.9,0,1.3c0,0,3.1,3,3.2,3.1c0.4,0.3,1,0.2,1.3-0.2
	c0.3-0.4,0.2-1-0.2-1.3l-1.4-1.4H11c0.5,0,0.8-0.4,0.8-0.9c0-0.5-0.3-0.9-0.8-0.9H3.8l1.4-1.4C5.5,12.3,5.5,11.8,5.2,11.5z"/>
</svg>
