<?xml version="1.0" encoding="utf-8"?>
<!-- Generator: Adobe Illustrator 21.0.0, SVG Export Plug-In . SVG Version: 6.00 Build 0)  -->
<svg version="1.1" id="Layer_3" xmlns="http://www.w3.org/2000/svg" xmlns:xlink="http://www.w3.org/1999/xlink" x="0px" y="0px"
	 viewBox="0 0 30 30" style="enable-background:new 0 0 30 30;" xml:space="preserve">
<style type="text/css">
	.st0{fill:#8A9AA7;}
</style>
<title>icon-bbb</title>
<path class="st0" d="M15,0.5C7,0.5,0.5,7,0.5,15S7,29.5,15,29.5S29.5,23,29.5,15C29.5,7,23,0.5,15,0.5z M15,27.6
	C8,27.6,2.4,22,2.4,15S8,2.4,15,2.4S27.6,8,27.6,15l0,0C27.6,22,22,27.6,15,27.6z"/>
<circle class="st0" cx="10.6" cy="11.4" r="1.9"/>
<circle class="st0" cx="19.4" cy="11.4" r="1.9"/>
<path class="st0" d="M23.3,20.4c0-0.5-0.4-0.9-0.9-0.9v0H7.7v0c-0.5,0-0.9,0.4-0.9,1s0.4,1,0.9,1l0,0h14.6v0
	C22.8,21.4,23.3,21,23.3,20.4z"/>
</svg>
