<?xml version="1.0" encoding="utf-8"?>
<!-- Generator: Adobe Illustrator 21.0.0, SVG Export Plug-In . SVG Version: 6.00 Build 0)  -->
<svg version="1.1" id="Layer_3" xmlns="http://www.w3.org/2000/svg" xmlns:xlink="http://www.w3.org/1999/xlink" x="0px" y="0px"
	 viewBox="0 0 30 30" style="enable-background:new 0 0 30 30;" xml:space="preserve">
<style type="text/css">
	.st0{fill:#8A9AA7;}
</style>
<title>icon-bbb</title>
<rect x="25.3" y="7.9" class="st0" width="1.9" height="14.1"/>
<rect x="8.5" y="2.9" class="st0" width="13" height="1.9"/>
<rect x="2.9" y="7.9" class="st0" width="1.9" height="14.1"/>
<rect x="8.5" y="25.3" class="st0" width="13" height="1.9"/>
<path class="st0" d="M3.8,0.5C2,0.5,0.5,2,0.5,3.8c0,1.8,1.5,3.3,3.3,3.3c1.8,0,3.3-1.5,3.3-3.3C7.1,2,5.6,0.5,3.8,0.5z M3.8,5.2
	C3,5.2,2.4,4.6,2.4,3.8C2.4,3,3,2.4,3.8,2.4c0.8,0,1.4,0.6,1.4,1.4C5.2,4.6,4.6,5.2,3.8,5.2z"/>
<path class="st0" d="M26.2,22.9c-1.8,0-3.3,1.5-3.3,3.3s1.5,3.3,3.3,3.3c1.8,0,3.3-1.5,3.3-3.3C29.5,24.4,28,22.9,26.2,22.9z
	 M26.2,27.6c-0.8,0-1.4-0.6-1.4-1.4s0.6-1.4,1.4-1.4s1.4,0.6,1.4,1.4C27.6,27,27,27.6,26.2,27.6z"/>
<path class="st0" d="M3.8,22.9c-1.8,0-3.3,1.5-3.3,3.3c0,1.8,1.5,3.3,3.3,3.3c1.8,0,3.3-1.5,3.3-3.3C7.1,24.4,5.6,22.9,3.8,22.9z
	 M3.8,27.6c-0.8,0-1.4-0.6-1.4-1.4s0.6-1.4,1.4-1.4s1.4,0.6,1.4,1.4C5.2,27,4.6,27.6,3.8,27.6z"/>
<path class="st0" d="M26.2,0.5c-1.8,0-3.3,1.5-3.3,3.3s1.5,3.3,3.3,3.3c1.8,0,3.3-1.5,3.3-3.3C29.5,2,28,0.5,26.2,0.5z M26.2,5.2
	c-0.8,0-1.4-0.6-1.4-1.4s0.6-1.4,1.4-1.4s1.4,0.6,1.4,1.4C27.6,4.6,27,5.2,26.2,5.2z"/>
</svg>
