<svg xmlns="http://www.w3.org/2000/svg" viewBox="0 0 30 30"><defs><style>.cls-1{fill:#8a9aa7;}</style></defs><title>bbb_mobile_icons</title><g id="Layer_3" data-name="Layer 3"><path class="cls-1" d="M18.38,11.1a1,1,0,0,0,.89.6h6.1a1,1,0,1,0,0-1.94H21.61l8.11-8.11A1,1,0,1,0,28.35.28L20.24,8.39V4.63a1,1,0,0,0-1.94,0v6.1A1,1,0,0,0,18.38,11.1Z"/><path class="cls-1" d="M1.65,29.72l8.11-8.11v3.76a1,1,0,1,0,1.94,0v-6.1a1,1,0,0,0-1-1H4.63a1,1,0,1,0,0,1.94H8.39L.28,28.35a1,1,0,0,0,1.37,1.37Z"/><path class="cls-1" d="M8.39,9.76H4.63a1,1,0,0,0,0,1.94h6.1a1,1,0,0,0,1-1V4.63a1,1,0,0,0-1.94,0V8.39L1.65.28A1,1,0,0,0,.28,1.65Z"/><path class="cls-1" d="M19.27,26.34a1,1,0,0,0,1-1V21.61l8.11,8.11a1,1,0,0,0,1.37-1.37l-8.11-8.11h3.77a1,1,0,1,0,0-1.94h-6.1a1,1,0,0,0-1,1v6.1A1,1,0,0,0,19.27,26.34Z"/></g></svg>