<?xml version="1.0" encoding="utf-8"?>
<!-- Generator: Adobe Illustrator 21.0.0, SVG Export Plug-In . SVG Version: 6.00 Build 0)  -->
<svg version="1.1" id="Layer_3" xmlns="http://www.w3.org/2000/svg" xmlns:xlink="http://www.w3.org/1999/xlink" x="0px" y="0px"
	 viewBox="0 0 30 30" style="enable-background:new 0 0 30 30;" xml:space="preserve">
<style type="text/css">
	.st0{fill:#8A9AA7;}
</style>
<title>icon-bbb</title>
<path class="st0" d="M26.8,4.6c0.3-0.4,0.3-1-0.2-1.3c-0.3-0.3-0.8-0.3-1.2,0L20.7,8V7.3c0-0.5-0.4-0.9-0.9-0.9H1.5
	C1,6.4,0.6,6.8,0.6,7.3v15.4c0,0.5,0.4,0.9,0.9,0.9h3.6l-1.8,1.8c-0.4,0.3-0.5,0.9-0.2,1.3s0.9,0.5,1.3,0.2c0.1,0,3.3-3.3,3.3-3.3
	h12c0.5,0,0.9-0.4,0.9-0.9l0,0v-12L26.8,4.6z M2.4,21.8V8.2h16.4v1.7L6.9,21.8H2.4z M18.8,21.8H9.6l9.2-9.3V21.8z"/>
<path class="st0" d="M28.6,21.8c-0.1,0-0.3,0-0.4-0.1l-6.9-3.1c-0.3-0.2-0.6-0.5-0.6-0.9v-4.9c0-0.4,0.2-0.7,0.6-0.8l6.9-3.1
	c0.5-0.2,1,0,1.2,0.5c0.1,0.1,0.1,0.2,0.1,0.4v11.1C29.5,21.4,29.1,21.8,28.6,21.8L28.6,21.8z M22.6,17.2l5.1,2.3v-8.2l-5.1,2.3
	V17.2L22.6,17.2z"/>
</svg>
