<?xml version="1.0" encoding="utf-8"?>
<!-- Generator: Adobe Illustrator 21.0.0, SVG Export Plug-In . SVG Version: 6.00 Build 0)  -->
<svg version="1.1" id="Layer_3" xmlns="http://www.w3.org/2000/svg" xmlns:xlink="http://www.w3.org/1999/xlink" x="0px" y="0px"
	 viewBox="0 0 30 30" style="enable-background:new 0 0 30 30;" xml:space="preserve">
<style type="text/css">
	.st0{fill:#8A9AA7;}
</style>
<title>icon-bbb</title>
<path class="st0" d="M24.3,6.7c-0.4,0-0.8,0.1-1.1,0.2V6.1c0-1.6-1.4-3-3-3c-0.4,0-0.8,0.1-1.1,0.2c-0.1-1.6-1.4-2.8-3-2.8
	c-1.6,0-2.9,1.3-3,2.8v0c-1.1-0.5-2.3-0.2-3.1,0.6c-0.7,0.7-1,1.6-1,2.5v9.4l-1.4-2c-0.4-0.8-1.2-1.4-2.1-1.5
	c-0.8-0.1-1.5,0.2-2,0.8c-0.6,0.6-1.1,1.7-0.2,3.7c0,0,3,5.1,5.2,8.6c1.2,1.9,3.5,4,6.3,4h5.6c3.8,0,6.9-3.1,6.9-6.9V9.7
	C27.2,8.1,25.9,6.8,24.3,6.7z M25.4,22.6c0,2.8-2.2,5-5,5h-5.6c-2,0-3.8-1.7-4.7-3.1C7.8,21,4.9,16,4.9,16c-0.4-0.7-0.4-1.3-0.2-1.5
	c0.1-0.1,0.3-0.2,0.5-0.2c0.3,0.1,0.5,0.3,0.7,0.6L8.7,19c0.3,0.5,1,0.6,1.5,0.3c0.3-0.2,0.5-0.5,0.5-0.9V6.5c0-0.4,0.1-0.9,0.4-1.2
	C11.4,5,11.9,4.8,12.2,5C12.7,5.2,13,5.6,13,6.1v7.1c0.1,0.5,0.5,0.9,1,0.8c0.4,0,0.8-0.4,0.8-0.8V3.5c0-0.6,0.5-1.1,1.1-1.1
	c0.6,0.1,1.1,0.5,1.1,1.1v9.7c0.1,0.5,0.5,0.9,1,0.8c0.4,0,0.8-0.4,0.8-0.8V6.1C19,5.5,19.5,5,20.1,5c0.6,0,1.1,0.5,1.1,1.1v8.8
	c-0.1,0.5,0.3,1,0.8,1c0.5,0.1,1-0.3,1-0.8c0-0.1,0-0.1,0-0.2V9.7c0-0.6,0.5-1.1,1.1-1.1c0.6,0,1.1,0.5,1.1,1.1L25.4,22.6L25.4,22.6
	z"/>
</svg>
