<?xml version="1.0" encoding="utf-8"?>
<!-- Generator: Adobe Illustrator 21.0.0, SVG Export Plug-In . SVG Version: 6.00 Build 0)  -->
<svg version="1.1" id="Layer_3" xmlns="http://www.w3.org/2000/svg" xmlns:xlink="http://www.w3.org/1999/xlink" x="0px" y="0px"
	 viewBox="0 0 29 29" style="enable-background:new 0 0 29 29;" xml:space="preserve">
<style type="text/css">
	.st0{fill:#8A9AA7;}
</style>
<title>icon-bbb</title>
<path class="st0" d="M10.3,19.8c1.1,1.1,2.6,1.8,4.2,1.8c3.3,0,6-2.7,6-6V9.4L26.9,3c0.5-0.3,0.6-0.9,0.3-1.4S26.3,1,25.8,1.3
	c-0.1,0.1-0.2,0.2-0.3,0.3l-5.1,5.1V6c0-1.6-0.6-3.1-1.8-4.2c-1-1.2-2.5-1.8-4.1-1.8s-3.1,0.6-4.2,1.8C9.1,2.9,8.5,4.4,8.5,6v9.6
	c0,0.9,0.2,1.7,0.6,2.5l-2,1.9c-0.8-1.3-1.2-2.8-1.2-4.3c-0.1-0.5-0.7-0.8-1.2-0.7c-0.3,0.1-0.6,0.4-0.7,0.7c0,2,0.6,4,1.7,5.7
	L2,25.1c-0.5,0.3-0.6,0.9-0.4,1.4C1.9,27,2.5,27.1,3,26.9c0.2-0.2,4-4,4-4c1.8,1.8,4.1,2.8,6.6,3V27h-6c-0.5,0.1-0.9,0.5-0.9,1.1
	c0,0.4,0.4,0.8,0.8,0.9h14c0.5-0.1,0.8-0.7,0.7-1.2c-0.1-0.3-0.4-0.6-0.7-0.7h-6V26c5.4-0.4,9.5-4.9,9.5-10.3c0-0.7-0.2-1.1-0.7-1.2
	s-1.1,0.2-1.2,0.7c0,0.2,0,0.4,0,0.5c0,4.6-3.7,8.4-8.4,8.4h-0.4c-2.3,0-4.4-0.9-6-2.5l1.9-1.9L10.3,19.8z M17.4,18.4
	c-0.7,0.8-1.8,1.2-2.9,1.2s-2.1-0.4-2.9-1.2l-0.1-0.1l7-7c0,0,0,3.4,0,4.2S18.2,17.6,17.4,18.4z M10.5,15.5V6c0-1.1,0.4-2.1,1.2-2.8
	C12.4,2.4,13.5,2,14.6,2s2.1,0.4,2.9,1.2c0.8,0.7,1.2,1.8,1.2,2.9v2.6l-8,8C10.7,16.7,10.5,16,10.5,15.5L10.5,15.5z"/>
</svg>
