<?xml version="1.0" encoding="utf-8"?>
<!-- Generator: Adobe Illustrator 21.0.0, SVG Export Plug-In . SVG Version: 6.00 Build 0)  -->
<svg version="1.1" id="Layer_1" xmlns="http://www.w3.org/2000/svg" xmlns:xlink="http://www.w3.org/1999/xlink" x="0px" y="0px"
	 viewBox="0 0 30 30" style="enable-background:new 0 0 30 30;" xml:space="preserve">
<style type="text/css">
	.st0{fill:#8A9AA7;}
</style>
<title>icon-bbb</title>
<path class="st0" d="M25.4,22.3c0-0.7-0.2-1.3-0.6-1.8c1.4-0.9,1.7-2.7,0.9-4.1c-0.3-0.4-0.6-0.7-1-0.9c0.1-0.2,0.3-0.4,0.4-0.6
	c0.5-1.1,0.2-2.3-0.6-3.1c-0.7-0.7-1.6-1-2.5-1h-6.1c0.7-2.2,1.2-4.6,1.4-6.9C17.2,3,17,2.1,16.5,1.4c-0.4-0.5-1.1-0.8-1.7-0.9
	c-1.6-0.1-3.1,1.1-3.3,2.7c-0.6,2.1-1.9,5.7-2.7,6.5c-1.1,1.3-1.6,1.8-1.7,2l-0.2,0.2c-2.8,2.8-3.7,8.4-2,12.6
	c1.2,3.1,4.2,5.2,7.6,5.1h9.3c1.6,0,3-1.4,3-3c0-0.6-0.3-1.3-0.7-1.7C24.9,24.2,25.4,23.3,25.4,22.3z M21.7,27.8h-9.3
	c-2.6,0.1-5-1.5-5.9-4C5,20.3,5.8,15.4,8,13.1l0,0c0.4-0.3,0.9-1,2-2.2c1.2-1.4,2.9-6.6,3-7.2c0.4-1.5,1.2-1.5,1.5-1.4
	c0.2,0,0.4,0.1,0.6,0.2c0.2,0.4,0.3,0.8,0.3,1.2c-0.2,2.5-0.8,4.9-1.6,7.2c-0.4,0.4-0.3,1.1,0.1,1.4c0.2,0.2,0.5,0.2,0.7,0.2h7.2
	c0.5,0,0.9,0.2,1.3,0.5c0.3,0.3,0.4,0.8,0.3,1.2c-0.2,0.5-0.6,0.8-1.1,0.8s-0.9,0.4-0.9,0.9s0.4,0.9,0.9,0.9c0.2,0,0.7,0,0.8,0
	c0.7,0,1.2,0.6,1.2,1.2s-0.6,1.2-1.2,1.2l0,0c-0.1,0-0.2,0-0.2,0c-0.1,0-0.3,0-0.4,0c-0.5,0-0.9,0.4-0.9,0.9S22,21,22.5,21
	c0.7,0,1.2,0.6,1.2,1.2c0,0.7-0.6,1.2-1.2,1.2c-0.1,0-0.2,0-0.3,0c-0.2,0-0.3,0-0.5,0c-0.5,0-0.9,0.4-0.9,0.9s0.4,0.9,0.9,0.9
	c0.7,0.1,1.2,0.7,1.1,1.3C22.7,27.2,22.2,27.7,21.7,27.8L21.7,27.8z"/>
</svg>
