<?xml version="1.0" encoding="utf-8"?>
<!-- Generator: Adobe Illustrator 21.0.0, SVG Export Plug-In . SVG Version: 6.00 Build 0)  -->
<svg version="1.1" id="Layer_1" xmlns="http://www.w3.org/2000/svg" xmlns:xlink="http://www.w3.org/1999/xlink" x="0px" y="0px"
	 viewBox="0 0 30 30" style="enable-background:new 0 0 30 30;" xml:space="preserve">
<style type="text/css">
	.st0{fill:#8A9AA7;}
</style>
<title>icon-bbb</title>
<path class="st0" d="M29.4,13.2c0.6-2-1.4-3.9-3.4-3.1c-0.1-1-0.7-1.8-1.6-2.1c-0.8-0.2-1.6-0.2-2.3,0.2l-3.8,1.9
	c0.1-0.1,0.2-0.2,0.3-0.3l0.7-1.2c0.7-1.2,0.3-2.7-0.9-3.5c-0.3-0.2-0.6-0.3-0.9-0.3c0.5-1.2,0.1-2.5-1-3.2C15.5,1,14,1.3,13.3,2.3
	c-0.6-0.8-1.6-1.1-2.5-0.9C10,1.7,9.3,2.2,8.9,2.8L5.1,9.4L5,8c0-0.8-0.4-1.6-1-2.2C3.6,5.4,3,5.2,2.4,5.3c-2,0.2-1.9,2.1-1.9,2.8
	v0.1c0.4,2.6,0.6,5.3,0.1,7.9c-0.7,3.6,1.3,6.5,4.4,8.2c0.9,0.5,1.7-1,0.8-1.5c-3-1.6-4.2-3.8-3.6-6.3c0.8-3.4,0-8-0.1-8.6
	C2.2,7,2.2,7,2.6,6.9c0.2,0,0.3,0,0.4,0.2c0.3,0.3,0.4,0.7,0.4,1.1l0.2,3.6c0.1,0.9,1.3,1.1,1.8,0.4l5-8.5c0.2-0.3,0.4-0.5,0.8-0.6
	c0.3-0.1,0.6,0,0.8,0.3c0.2,0.3,0.2,0.7,0.1,1L9.9,8l0,0L9.1,9.4c-0.5,0.9,0.9,1.8,1.4,0.8l3-5.1l0,0l1.1-1.8
	c0.3-0.4,0.8-0.5,1.2-0.3c0.4,0.3,0.5,0.8,0.3,1.3l-0.8,1.5l0,0c-0.2,0.4-0.1,0.8,0.2,1.1c-0.1,0-0.1-0.1-0.2-0.1
	c-1.7-0.6-2.5,0.4-3,1.4c0,0-1.9,4.5-4.2,6.7c-2.9,2.8-2.3,7.5-0.2,10.4c1.3,2,3.6,3.3,6,3.4c1.1,0,2.3-0.3,3.3-0.8L21,26l0,0
	l5.7-2.9c1.2-0.7,1.7-2.2,1.1-3.4c-0.1-0.3-0.3-0.5-0.5-0.7l0.5-0.3c1.2-0.7,1.7-2.2,1.1-3.4c-0.1-0.3-0.3-0.5-0.6-0.7
	C28.8,14.2,29.2,13.8,29.4,13.2z M15.9,10.7c0.5-0.8,0.6-1.9,0.3-2.8c-0.1-0.4-0.4-0.7-0.7-0.9c0.4,0.2,0.8,0,1.1-0.3
	c0.3-0.3,0.7-0.3,1,0c0,0,0,0,0,0C18,7,18.1,7.5,17.9,7.9L17.2,9c-0.4,0.7,0.4,1.5,1.1,1.2l-2.9,1.5L15.9,10.7z M27.4,16.7
	c-0.1,0.2-0.2,0.4-0.4,0.5L21.5,20l0,0l-1,0.5c-1,0.5-0.2,2,0.8,1.5l0,0l3.8-2c1-0.5,1.8,1.1,0.8,1.6l0,0L21.2,24l-4.8,2.5
	c-3.9,2-6.5-1.1-7.2-2c-1.7-2.5-2.2-6.2,0-8.3c2.6-2.5,4.5-7.1,4.6-7.3c0.4-0.7,0.4-0.7,0.8-0.6c0.3,0.5,0.2,1.1-0.1,1.6l-1.6,3
	c-0.3,0.8,0.5,1.6,1.3,1.3l8.8-4.5c0.3-0.2,0.7-0.2,1-0.1c0.3,0.1,0.5,0.3,0.5,0.6c0,0.4-0.2,0.7-0.5,0.9l-3.8,1.9l0,0l-1.4,0.7
	c-1,0.5-0.2,2,0.8,1.5l5.2-2.7l0,0l1.9-1c1-0.5,1.8,1.1,0.8,1.6l-1.9,1l0,0l-2.3,1.1l-1.5,0.8l0,0l-1.4,0.7c-1,0.5-0.2,2,0.7,1.5
	l5.2-2.7C26.9,15.3,27.7,16,27.4,16.7L27.4,16.7z"/>
</svg>
