<?xml version="1.0" encoding="utf-8"?>
<!-- Generator: Adobe Illustrator 21.0.2, SVG Export Plug-In . SVG Version: 6.00 Build 0)  -->
<svg version="1.1" id="Layer_3" xmlns="http://www.w3.org/2000/svg" xmlns:xlink="http://www.w3.org/1999/xlink" x="0px" y="0px"
	 viewBox="0 0 30 30" style="enable-background:new 0 0 30 30;" xml:space="preserve">
<style type="text/css">
	.st0{fill:#8A9AA7;}
</style>
<title>icon-bbb</title>
<path class="st0" d="M26.7,14.9L26.7,14.9c0-6.6-5.2-11.9-11.7-12C8.6,3,3.4,8.1,3.2,14.5c-3,2.2-3.7,6.4-1.5,9.4
	c1.2,1.7,3.2,2.7,5.4,2.7c0.4,0,0.7-0.3,0.7-0.7l0,0V14.1c0-0.4-0.3-0.7-0.7-0.7l0,0c-0.7,0-1.5,0.2-2.2,0.4
	C5.4,8.2,10.4,4.1,16,4.6c5,0.5,8.8,4.5,9.1,9.5c-0.7-0.2-1.5-0.4-2.2-0.4c-0.4,0-0.7,0.3-0.7,0.7l0,0v11.8c0,0.4,0.3,0.7,0.7,0.7
	l0,0c3.7,0,6.6-3.1,6.6-6.7C29.5,18.1,28.5,16.2,26.7,14.9z M6.3,25c-2.8-0.5-4.7-3.2-4.2-5.9c0.3-2.2,2.1-3.9,4.2-4.2V25z
	 M23.7,25.5V15.2c2.8,0.5,4.7,3.2,4.2,5.9C27.6,23.4,25.9,25,23.7,25.5z"/>
</svg>
