<?xml version="1.0" encoding="utf-8"?>
<!-- Generator: Adobe Illustrator 21.0.0, SVG Export Plug-In . SVG Version: 6.00 Build 0)  -->
<svg version="1.1" id="Layer_3" xmlns="http://www.w3.org/2000/svg" xmlns:xlink="http://www.w3.org/1999/xlink" x="0px" y="0px"
	 viewBox="0 0 30 30" style="enable-background:new 0 0 30 30;" xml:space="preserve">
<style type="text/css">
	.st0{fill:#8A9AA7;}
</style>
<title>icon-bbb</title>
<path class="st0" d="M15.2,5.5h-9l3.5-3.6c0.3-0.3,0.3-0.9,0-1.2c0,0,0,0,0,0c-0.3-0.3-0.9-0.3-1.2,0L2.8,6.4l5.7,5.7
	c0.3,0.3,0.9,0.3,1.2,0c0.3-0.3,0.3-0.9,0-1.2l0,0L6.2,7.4h9c5.6,0,10.1,4.5,10.1,10.1c0,5.6-4.5,10.1-10.1,10.1c0,0,0,0,0,0
	c-0.5-0.2-1.1,0.1-1.3,0.6c-0.2,0.5,0.1,1.1,0.6,1.3c0.2,0.1,0.4,0.1,0.6,0c6.6,0,12-5.4,12-12C27.2,10.9,21.8,5.5,15.2,5.5z"/>
</svg>
