<?xml version="1.0" encoding="utf-8"?>
<!-- Generator: Adobe Illustrator 21.0.0, SVG Export Plug-In . SVG Version: 6.00 Build 0)  -->
<svg version="1.1" id="Layer_3" xmlns="http://www.w3.org/2000/svg" xmlns:xlink="http://www.w3.org/1999/xlink" x="0px" y="0px"
	 viewBox="0 0 30 30" style="enable-background:new 0 0 30 30;" xml:space="preserve">
<style type="text/css">
	.st0{fill:#8A9AA7;}
</style>
<path class="st0" d="M2.7,25.8c0.2-1.6,1.1-3.1,2.5-4c2-1.4,4.6-2,8.5-2c1,0,2,0.1,2.9,0.1l1.3-1.8L17.2,18
	c-1.1-0.2-2.3-0.2-3.5-0.2c-4.3,0-7.3,0.7-9.6,2.3c-2.2,1.5-3.5,4-3.5,6.7c0,0.6,0.4,1,1,1h15.6l-1.1-2H2.7L2.7,25.8z"/>
<path class="st0" d="M13.7,15.9c4,0,7-3.2,7.2-7.5c0.1-2.1-0.6-4.2-2.1-5.7c-1.3-1.4-3.2-2.3-5.1-2.3S9.9,1.2,8.6,2.6
	C7.1,4.3,6.4,6.3,6.4,8.4C6.6,12.8,9.7,15.9,13.7,15.9z M9.9,4c1-1.1,2.4-1.7,3.8-1.7c1.5,0,2.8,0.6,3.9,1.7
	c1.1,1.2,1.7,2.7,1.6,4.4c-0.2,3.4-2.4,5.8-5.4,5.8s-5.3-2.4-5.4-5.8C8.2,6.8,8.8,5.2,9.9,4z"/>
<path class="st0" d="M24.3,23.3l1.1-1.1c0.3-0.3,0.3-0.9,0-1.3c-0.3-0.3-0.9-0.3-1.3,0L23,22l-1-1c-0.3-0.3-0.9-0.3-1.3,0
	s-0.3,0.9,0,1.3l0,0l1,1l-1,1c-0.4,0.3-0.5,0.9-0.1,1.3c0.4,0.4,1,0.4,1.4,0l1-1l1.2,1.2c0.3,0.3,0.9,0.4,1.3,0
	c0.4-0.4,0.3-0.9,0-1.3L24.3,23.3z"/>
<path class="st0" d="M23.1,29.5c-3.4,0-6.2-2.8-6.2-6.2c0-3.4,2.8-6.2,6.2-6.2c3.4,0,6.2,2.8,6.2,6.2C29.2,26.7,26.5,29.5,23.1,29.5
	z M23.1,19c-2.4,0-4.4,2-4.4,4.4c0,2.4,2,4.4,4.4,4.4c2.4,0,4.4-2,4.4-4.4C27.4,20.9,25.5,19,23.1,19z"/>
</svg>
