<?xml version="1.0" encoding="utf-8"?>
<!-- Generator: Adobe Illustrator 21.0.0, SVG Export Plug-In . SVG Version: 6.00 Build 0)  -->
<svg version="1.1" id="Layer_3" xmlns="http://www.w3.org/2000/svg" xmlns:xlink="http://www.w3.org/1999/xlink" x="0px" y="0px"
	 viewBox="0 0 30 30" style="enable-background:new 0 0 30 30;" xml:space="preserve">
<style type="text/css">
	.st0{fill:#8A9AA7;}
</style>
<title>icon-bbb</title>
<path class="st0" d="M29.1,6.4c-0.3-0.2-0.6-0.3-0.8-0.2l-26,6.3V12c-0.1-0.5-0.5-0.9-1-0.8c-0.4,0-0.8,0.4-0.8,0.8v5.4
	c0.1,0.5,0.5,0.9,1,0.8c0.4,0,0.8-0.4,0.8-0.8v-0.2l3.8,0.9v1.3c0,1.9,1.6,3.5,3.5,3.5l0,0c1.8,0.1,3.4-1.3,3.5-3.2l0,0l15.2,3.7
	h0.2c0.5,0,0.9-0.4,0.9-0.9l0,0V7.2C29.4,6.9,29.4,6.6,29.1,6.4z M9.7,21.3c-0.9,0-1.7-0.7-1.7-1.6l0,0v-0.9l3.3,0.8
	C11.2,21.1,10.3,21.3,9.7,21.3z M27.6,21.6L2.4,15.5v-0.9l25.3-6.2L27.6,21.6L27.6,21.6z"/>
</svg>
