<?xml version="1.0" encoding="utf-8"?>
<!-- Generator: Adobe Illustrator 21.0.0, SVG Export Plug-In . SVG Version: 6.00 Build 0)  -->
<svg version="1.1" id="Layer_3" xmlns="http://www.w3.org/2000/svg" xmlns:xlink="http://www.w3.org/1999/xlink" x="0px" y="0px"
	 viewBox="0 0 30 30" style="enable-background:new 0 0 30 30;" xml:space="preserve">
<style type="text/css">
	.st0{fill:#8A9AA7;}
</style>
<title>icon-bbb</title>
<path class="st0" d="M15,0.5C7,0.5,0.5,7,0.5,15S7,29.5,15,29.5S29.5,23,29.5,15S23,0.5,15,0.5z M15,27.5C8.1,27.5,2.5,21.9,2.5,15
	S8.1,2.5,15,2.5S27.5,8.1,27.5,15S21.9,27.5,15,27.5z"/>
<path class="st0" d="M15,7c-0.6,0-1,0.4-1,1v6.5l-5.9,5.8c-0.4,0.4-0.4,1,0,1.4c0.4,0.4,1,0.4,1.4,0l0,0l6.1-6
	c0.2-0.2,0.3-0.4,0.3-0.7V8C16,7.5,15.5,7,15,7z"/>
</svg>
