<?xml version="1.0" encoding="utf-8"?>
<!-- Generator: Adobe Illustrator 21.0.0, SVG Export Plug-In . SVG Version: 6.00 Build 0)  -->
<svg version="1.1" id="Layer_3" xmlns="http://www.w3.org/2000/svg" xmlns:xlink="http://www.w3.org/1999/xlink" x="0px" y="0px"
	 viewBox="0 0 30 30" style="enable-background:new 0 0 30 30;" xml:space="preserve">
<style type="text/css">
	.st0{fill:#8A9AA7;}
</style>
<title>icon-bbb</title>
<path class="st0" d="M15,0.5C7,0.5,0.5,7,0.5,15S7,29.5,15,29.5S29.5,23,29.5,15S23,0.5,15,0.5z M15,27.6C8,27.6,2.4,22,2.4,15
	S8,2.4,15,2.4S27.6,8,27.6,15l0,0C27.6,22,22,27.6,15,27.6z"/>
<circle class="st0" cx="10.5" cy="11.4" r="1.9"/>
<circle class="st0" cx="19.2" cy="11.4" r="1.9"/>
<path class="st0" d="M22.9,18.8c-1.7,2.9-4.7,4.7-8,4.8h-0.1c-3.3,0-6.4-1.9-8-4.8c-0.2-0.5-0.3-1,0.2-1.3c0.7-0.3,1.2-0.1,1.5,0.4
	l0,0c1.3,2.3,3.7,3.7,6.3,3.8c2.7-0.1,5.1-1.5,6.4-3.8c0.1-0.2,0.8-0.6,1.3-0.3C22.9,17.9,23.2,18.3,22.9,18.8L22.9,18.8z"/>
</svg>
