<?xml version="1.0" encoding="utf-8"?>
<!-- Generator: Adobe Illustrator 21.0.0, SVG Export Plug-In . SVG Version: 6.00 Build 0)  -->
<svg version="1.1" id="Layer_3" xmlns="http://www.w3.org/2000/svg" xmlns:xlink="http://www.w3.org/1999/xlink" x="0px" y="0px"
	 viewBox="0 0 30 30" style="enable-background:new 0 0 30 30;" xml:space="preserve">
<style type="text/css">
	.st0{fill:#8A9AA7;}
</style>
<title>icon-bbb</title>
<path class="st0" d="M27.4,0.5H2.6L2.4,7.9h1.1c0.4-2.4,1.1-3.9,2-4.6s2.6-1,5-1h2.5v21.9c0,1.9-0.2,3.1-0.7,3.5
	c-0.5,0.5-1.6,0.8-3.5,0.9v0.8h12.7v-0.8c-1.2,0-2.4-0.3-3.5-0.8c-0.5-0.4-0.8-1.4-0.8-3.1V2.3h2.4c2.5,0,4.2,0.4,5,1.1
	s1.5,2.2,2,4.6h1L27.4,0.5z"/>
</svg>
