<?xml version="1.0" encoding="utf-8"?>
<!-- Generator: Adobe Illustrator 21.0.0, SVG Export Plug-In . SVG Version: 6.00 Build 0)  -->
<svg version="1.1" id="Layer_3" xmlns="http://www.w3.org/2000/svg" xmlns:xlink="http://www.w3.org/1999/xlink" x="0px" y="0px"
	 viewBox="0 0 30 30" style="enable-background:new 0 0 30 30;" xml:space="preserve">
<style type="text/css">
	.st0{fill:#8A9AA7;}
</style>
<title>icon-bbb</title>
<path class="st0" d="M25.2,21.5C22.7,19.8,19.4,19,15,19s-7.7,0.8-10.2,2.5l0,0c-2.3,1.6-3.6,4.2-3.6,7c0,0.5,0.4,0.9,0.9,0.9
	c0,0,25.8,0,25.8,0c0.5,0,0.9-0.4,0.9-0.9c0,0,0,0,0,0C28.8,25.7,27.5,23.1,25.2,21.5z M3.1,27.6c0.2-1.8,1.2-3.5,2.8-4.6
	c2.2-1.5,5-2.1,9.1-2.1s6.9,0.7,9.1,2.2c1.5,1.1,2.5,2.7,2.8,4.6H3.1z"/>
<path class="st0" d="M15,17c4.2,0,7.5-3.4,7.7-8c0.1-2.2-0.7-4.4-2.2-6.1c-1.4-1.5-3.4-2.4-5.5-2.4c-2.1,0-4,0.9-5.4,2.4
	C8,4.5,7.2,6.7,7.3,9C7.5,13.6,10.7,17,15,17z M10.9,4.2C12,3,13.5,2.4,15,2.4c1.6,0,3.1,0.7,4.1,1.8c1.2,1.3,1.8,3,1.7,4.7
	c-0.2,3.7-2.6,6.2-5.9,6.2s-5.7-2.6-5.9-6.2C9.1,7.2,9.7,5.4,10.9,4.2z"/>
</svg>
