<?xml version="1.0" encoding="utf-8"?>
<!-- Generator: Adobe Illustrator 21.0.0, SVG Export Plug-In . SVG Version: 6.00 Build 0)  -->
<svg version="1.1" id="Layer_3" xmlns="http://www.w3.org/2000/svg" xmlns:xlink="http://www.w3.org/1999/xlink" x="0px" y="0px"
	 viewBox="0 0 30 30" style="enable-background:new 0 0 30 30;" xml:space="preserve">
<style type="text/css">
	.st0{fill:#8A9AA7;}
</style>
<title>icon-bbb</title>
<path class="st0" d="M18.4,24.8l0.6,1.8c3.4-1.2,6.1-3.8,7.4-7.2l-1.8-0.7C23.6,21.6,21.3,23.8,18.4,24.8z"/>
<path class="st0" d="M3.3,11l1.8,0.6c1-2.9,3.2-5.2,6.1-6.3l-0.7-1.8C7.2,4.8,4.5,7.6,3.3,11z"/>
<path class="st0" d="M24.8,11.7l1.8-0.6c-1.2-3.6-4-6.4-7.5-7.7l-0.6,1.8C21.4,6.3,23.8,8.6,24.8,11.7z"/>
<path class="st0" d="M5.2,18.7l-1.8,0.7c1.2,3.3,3.8,5.9,7.1,7.1l0.7-1.8C8.4,23.7,6.3,21.5,5.2,18.7z"/>
<path class="st0" d="M14.8,0.5c-1.7,0-3.1,1.4-3.1,3.2c0,1.7,1.4,3.1,3.2,3.1c1.7,0,3.1-1.4,3.1-3.1C18,1.9,16.6,0.5,14.8,0.5
	C14.8,0.5,14.8,0.5,14.8,0.5z M14.8,4.9c-0.7,0-1.3-0.6-1.3-1.3s0.6-1.3,1.3-1.3s1.3,0.6,1.3,1.3C16.1,4.4,15.5,4.9,14.8,4.9z"/>
<path class="st0" d="M14.8,23.2c-1.7,0-3.1,1.4-3.1,3.2c0,1.7,1.4,3.1,3.2,3.1c1.7,0,3.1-1.4,3.1-3.1C18,24.6,16.6,23.2,14.8,23.2
	C14.8,23.2,14.8,23.2,14.8,23.2z M14.8,27.6c-0.7,0-1.3-0.6-1.3-1.3s0.6-1.3,1.3-1.3c0.7,0,1.3,0.6,1.3,1.3
	C16.1,27.1,15.5,27.6,14.8,27.6z"/>
<path class="st0" d="M26.3,12c-1.7,0-3.1,1.4-3.1,3.1s1.4,3.1,3.1,3.1c1.7,0,3.1-1.4,3.1-3.1l0,0C29.4,13.4,28,12,26.3,12z
	 M26.3,16.4c-0.7,0-1.3-0.6-1.3-1.3c0-0.7,0.6-1.3,1.3-1.3c0.7,0,1.3,0.6,1.3,1.3C27.6,15.8,27,16.5,26.3,16.4z"/>
<path class="st0" d="M6.8,15.2c0-1.7-1.4-3.1-3.1-3.1c-1.7,0-3.1,1.4-3.1,3.1s1.4,3.1,3.1,3.1c0,0,0,0,0,0
	C5.4,18.3,6.8,16.9,6.8,15.2z M2.4,15.2c0-0.7,0.6-1.3,1.3-1.3S5,14.5,5,15.2c0,0.7-0.6,1.3-1.3,1.3C3,16.4,2.4,15.9,2.4,15.2z"/>
</svg>
