<?xml version="1.0" encoding="utf-8"?>
<!-- Generator: Adobe Illustrator 21.0.0, SVG Export Plug-In . SVG Version: 6.00 Build 0)  -->
<svg version="1.1" id="Layer_3" xmlns="http://www.w3.org/2000/svg" xmlns:xlink="http://www.w3.org/1999/xlink" x="0px" y="0px"
	 viewBox="0 0 30 30" style="enable-background:new 0 0 30 30;" xml:space="preserve">
<style type="text/css">
	.st0{fill:#8A9AA7;}
</style>
<title>icon-bbb</title>
<rect x="6.1" y="14.4" transform="matrix(0.4473 -0.8944 0.8944 0.4473 -5.4894 21.7432)" class="st0" width="17.6" height="1.9"/>
<path class="st0" d="M20.6,0.5c-1.8,0-3.2,1.4-3.2,3.2s1.4,3.2,3.2,3.2s3.2-1.4,3.2-3.2S22.4,0.5,20.6,0.5
	C20.6,0.5,20.6,0.5,20.6,0.5z M20.6,5c-0.7,0-1.3-0.6-1.3-1.3s0.6-1.3,1.3-1.3C21.4,2.4,22,3,22,3.7C22,4.4,21.4,5,20.6,5L20.6,5z"
	/>
<path class="st0" d="M9.4,23.1c-1.8,0-3.2,1.4-3.2,3.2s1.4,3.2,3.2,3.2s3.2-1.4,3.2-3.2S11.1,23.1,9.4,23.1L9.4,23.1z M9.4,27.6
	C8.6,27.6,8,27,8,26.3S8.6,25,9.4,25c0.7,0,1.3,0.6,1.3,1.3c0,0,0,0,0,0C10.7,27,10.1,27.6,9.4,27.6z"/>
</svg>
