<?xml version="1.0" encoding="utf-8"?>
<!-- Generator: Adobe Illustrator 21.0.0, SVG Export Plug-In . SVG Version: 6.00 Build 0)  -->
<svg version="1.1" id="Layer_3" xmlns="http://www.w3.org/2000/svg" xmlns:xlink="http://www.w3.org/1999/xlink" x="0px" y="0px"
	 viewBox="0 0 30 30" style="enable-background:new 0 0 30 30;" xml:space="preserve">
<style type="text/css">
	.st0{fill:#8A9AA7;}
</style>
<title>icon-bbb</title>
<path class="st0" d="M16.8,15L28.4,3.4c0.5-0.5,0.5-1.3,0-1.8s-1.3-0.5-1.8,0L15,13.2L3.4,1.6C2.8,1.2,2.1,1.3,1.6,1.8
	c-0.4,0.5-0.4,1.1,0,1.6L13.2,15L1.6,26.6c-0.5,0.5-0.5,1.3,0,1.8s1.3,0.5,1.8,0L15,16.8l11.6,11.6c0.5,0.5,1.3,0.5,1.8,0
	s0.5-1.3,0-1.8L16.8,15z"/>
</svg>
