<?xml version="1.0" encoding="utf-8"?>
<!-- Generator: Adobe Illustrator 21.0.0, SVG Export Plug-In . SVG Version: 6.00 Build 0)  -->
<svg version="1.1" id="Layer_3" xmlns="http://www.w3.org/2000/svg" xmlns:xlink="http://www.w3.org/1999/xlink" x="0px" y="0px"
	 viewBox="0 0 30 30" style="enable-background:new 0 0 30 30;" xml:space="preserve">
<style type="text/css">
	.st0{fill:#8A9AA7;}
</style>
<title>icon-bbb</title>
<rect x="0.4" y="14.1" transform="matrix(0.4473 -0.8944 0.8944 0.4473 -8.3336 16.5011)" class="st0" width="17.6" height="1.9"/>
<rect x="7.2" y="25.4" class="st0" width="15.5" height="1.9"/>
<rect x="19.8" y="6.2" transform="matrix(0.8944 -0.4473 0.4473 0.8944 -4.4788 10.8636)" class="st0" width="1.9" height="17.4"/>
<path class="st0" d="M15,6.9c1.8,0,3.2-1.4,3.2-3.2S16.8,0.5,15,0.5c-1.8,0-3.2,1.4-3.2,3.2c0,0,0,0,0,0C11.8,5.5,13.2,6.9,15,6.9z
	 M15,2.4c0.7,0,1.3,0.6,1.3,1.3S15.7,5,15,5s-1.3-0.6-1.3-1.3c0,0,0,0,0,0C13.7,3,14.3,2.4,15,2.4z"/>
<path class="st0" d="M26.3,23.1c-1.8,0-3.2,1.4-3.2,3.2s1.4,3.2,3.2,3.2s3.2-1.4,3.2-3.2S28.1,23.1,26.3,23.1
	C26.3,23.1,26.3,23.1,26.3,23.1z M26.3,27.6c-0.7,0-1.3-0.6-1.3-1.3s0.6-1.3,1.3-1.3s1.3,0.6,1.3,1.3l0,0C27.6,27,27,27.6,26.3,27.6
	z"/>
<path class="st0" d="M3.7,23.1c-1.8,0-3.2,1.4-3.2,3.2s1.4,3.2,3.2,3.2s3.2-1.4,3.2-3.2S5.5,23.1,3.7,23.1
	C3.7,23.1,3.7,23.1,3.7,23.1z M3.7,27.6c-0.7,0-1.3-0.6-1.4-1.3c0-0.7,0.6-1.3,1.3-1.4C4.4,25,5,25.5,5,26.3c0,0,0,0,0,0
	C5,27,4.4,27.6,3.7,27.6z"/>
</svg>
