<?xml version="1.0" encoding="utf-8"?>
<!-- Generator: Adobe Illustrator 21.0.0, SVG Export Plug-In . SVG Version: 6.00 Build 0)  -->
<svg version="1.1" id="Layer_3" xmlns="http://www.w3.org/2000/svg" xmlns:xlink="http://www.w3.org/1999/xlink" x="0px" y="0px"
	 viewBox="0 0 30 20" style="enable-background:new 0 0 30 20;" xml:space="preserve">
<style type="text/css">
	.st0{fill:#8A9AA7;}
</style>
<title>icon-bbb</title>
<path class="st0" d="M28.5,1.9h-21C7,1.9,6.8,2.3,6.8,3c0,0.5,0.4,0.9,0.7,0.9h21c0.7,0,1.2-0.5,1.2-1C29.7,2.3,29.4,2,28.5,1.9z"/>
<path class="st0" d="M7.5,9.1C7,9.3,6.7,9.8,6.8,10.4c0.1,0.3,0.4,0.6,0.7,0.7h14c0.7,0,1.2-0.4,1.2-0.9c0-0.6-0.5-1-1-1.1
	C21.6,9.1,7.5,9.1,7.5,9.1z"/>
<path class="st0" d="M14.5,16.1h-7C7,16,6.4,16.3,6.3,16.8S6.5,17.9,7,18c0.2,0,7.5,0,7.5,0c0.5-0.1,0.8-0.7,0.7-1.2
	C15.1,16.5,14.9,16.2,14.5,16.1z"/>
<circle class="st0" cx="2.5" cy="2.9" r="2"/>
<circle class="st0" cx="2.5" cy="10.1" r="1.9"/>
<circle class="st0" cx="2.5" cy="17.1" r="2"/>
</svg>
