<?xml version="1.0" encoding="utf-8"?>
<!-- Generator: Adobe Illustrator 21.0.0, SVG Export Plug-In . SVG Version: 6.00 Build 0)  -->
<svg version="1.1" id="Layer_3" xmlns="http://www.w3.org/2000/svg" xmlns:xlink="http://www.w3.org/1999/xlink" x="0px" y="0px"
	 viewBox="0 0 30 30" style="enable-background:new 0 0 30 30;" xml:space="preserve">
<style type="text/css">
	.st0{fill:#8A9AA7;}
</style>
<title>icon-bbb</title>
<path class="st0" d="M19.3,21.4c-0.4,0-0.7-0.3-0.7-0.7s0.3-0.7,0.7-0.7H24c2.2,0,4-1.6,4.2-3.8c0.1-1.1-0.3-2.3-1.1-3.1
	c-0.8-0.8-1.9-1.3-3-1.3h-1.2v-1.2v-0.1c0-3.4-2.8-6.2-6.3-6.2c-2.4,0-4.5,1.4-5.6,3.5l-0.5,1.1l-1-0.5C9.2,8.1,8.7,8,8.3,8
	C7,8.1,5.9,9,5.7,10.3l-0.1,0.6L5,11.1c-1.7,0.6-2.9,2-3.2,3.8c-0.1,1.3,0.3,2.6,1.2,3.6S5.1,20,6.4,20h4.3c0.4,0,0.7,0.3,0.7,0.7
	s-0.3,0.7-0.7,0.7H6.4c-3.3,0-5.9-2.6-5.9-5.9c0-2.5,1.6-4.7,3.9-5.6c0.4-1.9,2-3.2,3.9-3.2c0.6,0,1.1,0.1,1.6,0.3
	c1.9-3.7,6.5-5.2,10.2-3.3c2.5,1.3,4.2,3.9,4.2,6.8l0,0c3,0.2,5.3,2.7,5.1,5.7c-0.2,2.8-2.5,5.1-5.3,5.2L19.3,21.4L19.3,21.4z"/>
<path class="st0" d="M19.9,16.9l-4.4-4.4c-0.1-0.1-0.3-0.2-0.5-0.2c0,0,0,0,0,0c-0.2,0-0.4,0.1-0.5,0.2l-4.4,4.4
	c-0.3,0.3-0.3,0.7,0,1c0.3,0.3,0.8,0.3,1,0l3.1-3.1v11.6c0,0.4,0.3,0.7,0.7,0.7s0.7-0.3,0.7-0.7V14.8l3.1,3.1
	c0.1,0.1,0.3,0.2,0.5,0.2c0,0,0,0,0,0c0.2,0,0.4-0.1,0.5-0.2C20.2,17.7,20.2,17.2,19.9,16.9z"/>
</svg>
