<svg width="22" height="20" viewBox="0 0 22 20" fill="none" xmlns="http://www.w3.org/2000/svg">
    <path d="M11.7975 12.8142L9.46919 10.5134L9.49669 10.4859C11.0917 8.70754 12.2284 6.66337 12.8975 4.50004H15.5834V2.66671H9.16669V0.833374H7.33335V2.66671H0.916687V4.49087H11.1559C10.5417 6.26004 9.57002 7.93754 8.25002 9.40421C7.39752 8.46004 6.69169 7.42421 6.13252 6.33337H4.29919C4.96835 7.82754 5.88502 9.23921 7.03085 10.5134L2.36502 15.115L3.66669 16.4167L8.25002 11.8334L11.1009 14.6842L11.7975 12.8142ZM16.9584 8.16671H15.125L11 19.1667H12.8334L13.86 16.4167H18.2142L19.25 19.1667H21.0834L16.9584 8.16671ZM14.5567 14.5834L16.0417 10.6142L17.5267 14.5834H14.5567Z" fill="#8B9AA8"/>
</svg>
