<?xml version="1.0" encoding="utf-8"?>
<!-- Generator: Adobe Illustrator 16.0.0, SVG Export Plug-In . SVG Version: 6.00 Build 0)  -->
<!DOCTYPE svg PUBLIC "-//W3C//DTD SVG 1.1//EN" "http://www.w3.org/Graphics/SVG/1.1/DTD/svg11.dtd">
<svg version="1.1" id="Ebene_1" xmlns="http://www.w3.org/2000/svg" xmlns:xlink="http://www.w3.org/1999/xlink" x="0px" y="0px"
	 width="93.58px" height="93.58px" viewBox="0 0 93.58 93.58" enable-background="new 0 0 93.58 93.58" xml:space="preserve">
<g>
	<g>
		<circle fill="none" stroke="#FEB672" stroke-width="2.8347" stroke-miterlimit="10" cx="46.79" cy="46.789" r="45.374"/>
	</g>
	<g>
		<path fill="#FEB672" d="M71.126,29.576c0,0.414-0.337,0.75-0.75,0.75h-3.25v3.25c0,0.415-0.337,0.751-0.751,0.751h-1.499
			c-0.415,0-0.75-0.336-0.75-0.751v-3.25h-3.251c-0.414,0-0.749-0.336-0.749-0.75v-1.498c0-0.416,0.335-0.752,0.749-0.752h3.251
			v-3.249c0-0.414,0.335-0.75,0.75-0.75h1.499c0.414,0,0.751,0.336,0.751,0.75v3.249h3.25c0.413,0,0.75,0.336,0.75,0.752V29.576z"/>
	</g>
	<path fill="#FEB672" d="M50.42,60.386c0.554,1.467,0.855,1.951,1.493,3.44c0.271,0.627,0.523,1.228,0.649,1.518
		c0.049,0.117,0.036,0.248-0.033,0.355c-0.172,0.259-0.552,0.747-1.181,1.086c-1.098,0.594-3.409,0.809-4.555,0.812h-0.006
		c-1.146-0.004-3.457-0.219-4.558-0.812c-0.627-0.339-1.006-0.827-1.177-1.086c-0.07-0.107-0.083-0.238-0.032-0.355
		c0.123-0.29,0.376-0.891,0.646-1.518c0.64-1.489,0.941-1.974,1.495-3.44c0.485-1.294,0.729-3.175,0.745-4.593
		c0.006-0.604-0.03-1.122-0.106-1.476c-0.121-0.56-0.501-1.412-0.907-2.042c-0.548-0.849-1.527-1.583-2.157-1.919
		c-0.475-0.254-1.984-0.817-2.576-1.146c-0.755-0.416-1.739-1.067-2.399-1.584c-0.735-0.574-2.182-1.992-2.746-2.695
		c-1.084-1.344-2.083-2.922-2.565-4.62c-0.601-2.106-0.576-3.009-0.657-3.688c-0.014-0.117,0.075-0.222,0.191-0.227
		c0.73-0.025,3.854-0.093,16.809-0.081c12.953-0.012,16.076,0.056,16.806,0.081c0.118,0.005,0.206,0.109,0.191,0.227
		c-0.08,0.68-0.057,1.582-0.654,3.688c-0.486,1.698-1.483,3.276-2.567,4.62c-0.564,0.703-2.011,2.121-2.746,2.695
		c-0.661,0.517-1.646,1.168-2.399,1.584c-0.594,0.328-2.102,0.892-2.576,1.146c-0.63,0.336-1.608,1.07-2.158,1.919
		c-0.405,0.63-0.785,1.482-0.904,2.042c-0.079,0.354-0.112,0.872-0.107,1.476C49.69,57.211,49.935,59.092,50.42,60.386z"/>
</g>
</svg>
