<svg xmlns="http://www.w3.org/2000/svg" width="20" height="20" viewBox="0 0 20 20">
    <g fill-rule="evenodd">
        <path fill-rule="nonzero" d="M10.625 20h-8.75C.841 20 0 19.158 0 18.125v-6.25C0 10.842.84 10 1.875 10h8.75c1.034 0 1.875.842 1.875 1.875v6.25c0 1.033-.84 1.875-1.875 1.875zm-8.75-8.75c-.345 0-.625.28-.625.625v6.25c0 .344.28.625.625.625h8.75c.345 0 .625-.28.625-.625v-6.25c0-.344-.28-.625-.625-.625h-8.75z"/>
        <path d="M11.875 14.154H.625c-.345 0-.625-.28-.625-.625s.28-.625.625-.625h11.25c.345 0 .625.28.625.625s-.28.625-.625.625z"/>
        <path d="M17.708 18.333h-2.916c-.345 0-.625-.28-.625-.625s.28-.625.625-.625h2.916c.575 0 1.042-.467 1.042-1.041V2.292c0-.574-.468-1.042-1.042-1.042H2.292c-.574 0-1.042.468-1.042 1.042v5.416c0 .345-.28.625-.625.625S0 8.053 0 7.708V2.292C0 1.028 1.028 0 2.292 0h15.416C18.973 0 20 1.028 20 2.292v13.75c0 1.264-1.027 2.291-2.292 2.291z"/>
        <path d="M19.375 4.167H.625C.28 4.167 0 3.887 0 3.542s.28-.625.625-.625h18.75c.345 0 .625.28.625.625s-.28.625-.625.625zM13.958 10c-.16 0-.32-.06-.441-.183-.244-.245-.244-.64 0-.885l2.917-2.917c.244-.244.64-.244.884 0s.244.64 0 .884L14.4 9.817c-.122.122-.282.183-.442.183z"/>
        <path d="M16.875 9.167c-.345 0-.625-.28-.625-.625V7.083h-1.458c-.345 0-.625-.28-.625-.625s.28-.625.625-.625h2.083c.345 0 .625.28.625.625v2.084c0 .345-.28.625-.625.625z"/>
    </g>
</svg>
