<svg xmlns="http://www.w3.org/2000/svg" width="17" height="25" viewBox="0 0 17 25">
    <g fill-rule="evenodd">
        <path fill-rule="nonzero" d="M8.036 15.179c2.465 0 4.464-2 4.464-4.465v-6.25C12.5 2 10.501 0 8.036 0 5.57 0 3.57 1.999 3.57 4.464v6.25c0 2.466 2 4.465 4.465 4.465zM5.357 4.464c0-1.479 1.2-2.678 2.679-2.678 1.479 0 2.678 1.199 2.678 2.678v6.25c0 1.48-1.199 2.679-2.678 2.679-1.48 0-2.679-1.2-2.679-2.679v-6.25z"/>
        <path d="M16.071 12.5c0-.493-.4-.893-.892-.893-.494 0-.893.4-.893.893 0 2.464-2.804 4.464-6.25 4.464-3.447 0-6.25-2-6.25-4.464 0-.493-.4-.893-.893-.893S0 12.007 0 12.5c0 3.214 3.134 5.866 7.143 6.25v4.464H5.357c-.493 0-.893.4-.893.893s.4.893.893.893h5.357c.493 0 .893-.4.893-.893s-.4-.893-.893-.893H8.93V18.75c4.008-.384 7.142-3.036 7.142-6.25z"/>
    </g>
</svg>
