<svg xmlns="http://www.w3.org/2000/svg" width="20" height="17" viewBox="0 0 20 17">
    <g fill="#FFF" fill-rule="evenodd">
        <path d="M5.575 9.761L1.903 5.558l3.672-4.203c.297-.34.262-.856-.078-1.153-.34-.297-.856-.262-1.153.078L.202 5.02c-.27.308-.27.768 0 1.076l4.142 4.741c.161.185.388.28.616.28.19 0 .382-.067.537-.202.34-.297.375-.814.078-1.154z"/>
        <path d="M14.06 5H.817C.366 5 0 5.366 0 5.817c0 .452.366.818.817.818H14.06c2.374 0 4.305 1.931 4.305 4.305 0 2.374-1.931 4.305-4.305 4.305H1.907c-.451 0-.817.366-.817.818 0 .451.366.817.817.817H14.06c3.275 0 5.94-2.665 5.94-5.94C20 7.665 17.335 5 14.06 5z"/>
    </g>
</svg>
