<?xml version="1.0" encoding="UTF-8"?>
<svg width="45px" height="45px" viewBox="0 0 45 45" version="1.1" xmlns="http://www.w3.org/2000/svg" xmlns:xlink="http://www.w3.org/1999/xlink">
    <!-- Generator: Sketch 52.1 (67048) - http://www.bohemiancoding.com/sketch -->
    <title>slack_orange</title>
    <desc>Created with Sketch.</desc>
    <g id="Page-1" stroke="none" stroke-width="1" fill="none" fill-rule="evenodd">
        <g id="slack_orange">
            <path d="M22.502,0 C10.073,0 0,10.073 0,22.499 C0,34.927 10.073,45 22.502,45 C34.927,45 45,34.927 45,22.499 C45,10.073 34.927,0 22.502,0 Z" id="Shape" fill="#FEB672"></path>
            <g id="Slack_Mark_Monochrome_White" transform="translate(11.000000, 11.000000)" fill="#FFFFFF">
                <rect id="Rectangle-path" transform="translate(11.554441, 11.462704) rotate(-18.518296) translate(-11.554441, -11.462704) " x="9.94812935" y="9.91115274" width="3.21262291" height="3.10310168"></rect>
                <g id="Group">
                    <rect id="Rectangle-path" transform="translate(11.554441, 11.462704) rotate(-18.518296) translate(-11.554441, -11.462704) " x="9.94812935" y="9.91115274" width="3.21262291" height="3.10310168"></rect>
                    <path d="M22.0142857,8.30555556 C19.6595238,0.456349206 16.2642857,-1.36904762 8.41507937,0.985714286 C0.565873016,3.34047619 -1.25952381,6.73571429 1.0952381,14.5849206 C3.45,22.434127 6.8452381,24.2595238 14.6944444,21.9047619 C22.5436508,19.55 24.3690476,16.1547619 22.0142857,8.30555556 Z M18.0531746,13.3984127 L16.5746032,13.8912698 L17.0857143,15.4246032 C17.2865079,16.0452381 16.9579365,16.7206349 16.3373016,16.9214286 C16.2095238,16.9579365 16.0634921,16.9944444 15.9357143,16.9761905 C15.4611111,16.9579365 15.0047619,16.647619 14.8404762,16.1730159 L14.3293651,14.6396825 L11.2809524,15.6619048 L11.7920635,17.1952381 C11.9928571,17.815873 11.6642857,18.4912698 11.0436508,18.6920635 C10.915873,18.7285714 10.7698413,18.7650794 10.6420635,18.7468254 C10.1674603,18.7285714 9.71111111,18.418254 9.5468254,17.9436508 L9.03571429,16.4103175 L7.55714286,16.9031746 C7.42936508,16.9396825 7.28333333,16.9761905 7.15555556,16.9579365 C6.68095238,16.9396825 6.22460317,16.6293651 6.06031746,16.1547619 C5.85952381,15.534127 6.18809524,14.8587302 6.80873016,14.6579365 L8.28730159,14.1650794 L7.3015873,11.2261905 L5.82301587,11.7190476 C5.6952381,11.7555556 5.54920635,11.7920635 5.42142857,11.7738095 C4.9468254,11.7555556 4.49047619,11.4452381 4.32619048,10.9706349 C4.12539683,10.35 4.45396825,9.67460317 5.07460317,9.47380952 L6.5531746,8.98095238 L6.04206349,7.44761905 C5.84126984,6.82698413 6.16984127,6.1515873 6.79047619,5.95079365 C7.41111111,5.75 8.08650794,6.07857143 8.28730159,6.69920635 L8.7984127,8.23253968 L11.8468254,7.21031746 L11.3357143,5.67698413 C11.1349206,5.05634921 11.4634921,4.38095238 12.084127,4.18015873 C12.7047619,3.97936508 13.3801587,4.30793651 13.5809524,4.92857143 L14.0920635,6.46190476 L15.5706349,5.96904762 C16.1912698,5.76825397 16.8666667,6.0968254 17.0674603,6.71746032 C17.268254,7.33809524 16.9396825,8.01349206 16.3190476,8.21428571 L14.8404762,8.70714286 L15.8261905,11.6460317 L17.3047619,11.1531746 C17.9253968,10.952381 18.6007937,11.2809524 18.8015873,11.9015873 C19.002381,12.5222222 18.6738095,13.197619 18.0531746,13.3984127 Z" id="Shape" fill-rule="nonzero"></path>
                </g>
            </g>
        </g>
    </g>
</svg>