<?xml version="1.0" encoding="UTF-8" standalone="no"?>
<svg
   xmlns:sketch="http://www.bohemiancoding.com/sketch/ns"
   xmlns:dc="http://purl.org/dc/elements/1.1/"
   xmlns:cc="http://creativecommons.org/ns#"
   xmlns:rdf="http://www.w3.org/1999/02/22-rdf-syntax-ns#"
   xmlns:svg="http://www.w3.org/2000/svg"
   xmlns="http://www.w3.org/2000/svg"
   xmlns:sodipodi="http://sodipodi.sourceforge.net/DTD/sodipodi-0.dtd"
   xmlns:inkscape="http://www.inkscape.org/namespaces/inkscape"
   width="32px"
   height="32px"
   viewBox="0 0 32 32"
   version="1.1"
   id="svg2992"
   inkscape:version="0.48.4 r9939"
   sodipodi:docname="icon-6-thumb-up.svg"
   inkscape:export-filename="/var/lib/lxc/bbb-dev090-14/rootfs/home/ubuntu/dev/bigbluebutton/bigbluebutton-client/branding/default/style/css/assets/images/icon-6-thumb-up.png"
   inkscape:export-xdpi="50"
   inkscape:export-ydpi="50">
  <metadata
     id="metadata3005">
    <rdf:RDF>
      <cc:Work
         rdf:about="">
        <dc:format>image/svg+xml</dc:format>
        <dc:type
           rdf:resource="http://purl.org/dc/dcmitype/StillImage" />
        <dc:title>icon 6 thumb up</dc:title>
      </cc:Work>
    </rdf:RDF>
  </metadata>
  <sodipodi:namedview
     pagecolor="#ffffff"
     bordercolor="#666666"
     borderopacity="1"
     objecttolerance="10"
     gridtolerance="10"
     guidetolerance="10"
     inkscape:pageopacity="0"
     inkscape:pageshadow="2"
     inkscape:window-width="753"
     inkscape:window-height="480"
     id="namedview3003"
     showgrid="false"
     inkscape:zoom="7.375"
     inkscape:cx="16"
     inkscape:cy="16"
     inkscape:window-x="65"
     inkscape:window-y="24"
     inkscape:window-maximized="0"
     inkscape:current-layer="svg2992" />
  <!-- Generator: Sketch 3.0.3 (7891) - http://www.bohemiancoding.com/sketch -->
  <title
     id="title2994">icon 6 thumb up</title>
  <desc
     id="desc2996">Created with Sketch.</desc>
  <defs
     id="defs2998" />
  <g
     id="Page-1"
     stroke="none"
     stroke-width="1"
     fill="none"
     fill-rule="evenodd"
     sketch:type="MSPage"
     style="fill:#000000;stroke:#000000;stroke-opacity:1">
    <g
       id="icon-6-thumb-up"
       sketch:type="MSArtboardGroup"
       fill="#929292"
       style="fill:#000000;stroke:#000000;stroke-opacity:1">
      <path
         d="M19.2488133,30 L23.5023733,30 C24.8817744,30 26,28.8903379 26,27.5 C26,26.9371936 25.8126296,26.417824 25.4978577,25.9999924 C26.8803322,25.9966522 28,24.8882411 28,23.5 C28,22.864214 27.763488,22.28386 27.3722702,21.8426992 L27.3722702,21.8426992 C28.3231922,21.4895043 29,20.5793268 29,19.5 C29,18.864214 28.763488,18.28386 28.3722702,17.8426992 C29.3231922,17.4895043 30,16.5793268 30,15.5 C30,14.1192881 28.8845825,13 27.4915915,13 L21.4997555,13 C22.5490723,7.9831543 22.0463867,1.99999928 18,2 C13.9536133,2.00000073 16.066359,6.78764706 14.5,9.76269531 C12.9337003,12.7376303 10.000223,12.9999801 10,13 L3.99508929,13 C2.8932319,13 2,13.8933973 2,14.9918842 L2,26.0081158 C2,27.1082031 2.88670635,28 3.99810135,28 L10,28 L16,30 L19.2488133,30 L19.2488133,30 Z M10.5,14 C10.5000014,13.9999997 13.8047349,13.276317 15.3710938,10.3012695 C16.9374527,7.32622128 15.1291504,3.00000043 18,3 C21.1514893,2.99999957 21.5007324,8.5 20.2999878,14 L20.2999878,14 L27.5069036,14 C28.3361142,14 29,14.6715729 29,15.5 C29,16.3342028 28.331518,17 27.5069036,17 L24,17 L24,18 L26.5069036,18 C27.3361142,18 28,18.6715729 28,19.5 C28,20.3342028 27.331518,21 26.5069036,21 L23,21 L23,21 L23,22 L25.5069036,22 C26.3361142,22 27,22.6715729 27,23.5 C27,24.3342028 26.331518,25 25.5069036,25 L22,25 L22,25 L22,26 L23.4983244,26 C24.3288106,26 25,26.6715729 25,27.5 C25,28.3342028 24.3276769,29 23.4983244,29 L19.7508378,29 L16,29 L10,27 L4.00292933,27 C3.43788135,27 3,26.5529553 3,26.0014977 L3,14.9985023 C3,14.4474894 3.44769743,14 3.9999602,14 L10.5,14 L10.5,14 L10.5,14 Z"
         id="thumb-up"
         sketch:type="MSShapeGroup"
         style="fill:#000000;stroke:#000000;stroke-opacity:1" />
    </g>
  </g>
</svg>
